<?xml version="1.0" encoding="utf-8" standalone="no"?>
<!DOCTYPE svg PUBLIC "-//W3C//DTD SVG 1.1//EN"
  "http://www.w3.org/Graphics/SVG/1.1/DTD/svg11.dtd">
<svg xmlns:xlink="http://www.w3.org/1999/xlink" width="460.8pt" height="345.6pt" viewBox="0 0 460.8 345.6" xmlns="http://www.w3.org/2000/svg" version="1.1">
 <metadata>
  <rdf:RDF xmlns:dc="http://purl.org/dc/elements/1.1/" xmlns:cc="http://creativecommons.org/ns#" xmlns:rdf="http://www.w3.org/1999/02/22-rdf-syntax-ns#">
   <cc:Work>
    <dc:type rdf:resource="http://purl.org/dc/dcmitype/StillImage"/>
    <dc:date>2022-03-24T17:33:49.254165</dc:date>
    <dc:format>image/svg+xml</dc:format>
    <dc:creator>
     <cc:Agent>
      <dc:title>Matplotlib v3.5.1, https://matplotlib.org/</dc:title>
     </cc:Agent>
    </dc:creator>
   </cc:Work>
  </rdf:RDF>
 </metadata>
 <defs>
  <style type="text/css">*{stroke-linejoin: round; stroke-linecap: butt}</style>
 </defs>
 <g id="figure_1">
  <g id="patch_1">
   <path d="M 0 345.6 
L 460.8 345.6 
L 460.8 0 
L 0 0 
z
" style="fill: #ffffff"/>
  </g>
  <g id="axes_1">
   <g id="patch_2">
    <path d="M 46.08 311.04 
L 437.76 311.04 
L 437.76 69.12 
L 46.08 69.12 
z
" style="fill: #ffffff"/>
   </g>
   <g id="matplotlib.axis_1">
    <g id="xtick_1">
     <g id="line2d_1">
      <defs>
       <path id="m5bafa8e47a" d="M 0 0 
L 0 3.5 
" style="stroke: #000000; stroke-width: 0.8"/>
      </defs>
      <g>
       <use xlink:href="#m5bafa8e47a" x="46.080509" y="311.04" style="stroke: #000000; stroke-width: 0.8"/>
      </g>
     </g>
     <g id="text_1">
      <!-- 0 -->
      <g transform="translate(42.899259 325.638438)scale(0.1 -0.1)">
       <defs>
        <path id="DejaVuSans-30" d="M 2034 4250 
Q 1547 4250 1301 3770 
Q 1056 3291 1056 2328 
Q 1056 1369 1301 889 
Q 1547 409 2034 409 
Q 2525 409 2770 889 
Q 3016 1369 3016 2328 
Q 3016 3291 2770 3770 
Q 2525 4250 2034 4250 
z
M 2034 4750 
Q 2819 4750 3233 4129 
Q 3647 3509 3647 2328 
Q 3647 1150 3233 529 
Q 2819 -91 2034 -91 
Q 1250 -91 836 529 
Q 422 1150 422 2328 
Q 422 3509 836 4129 
Q 1250 4750 2034 4750 
z
" transform="scale(0.015625)"/>
       </defs>
       <use xlink:href="#DejaVuSans-30"/>
      </g>
     </g>
    </g>
    <g id="xtick_2">
     <g id="line2d_2">
      <g>
       <use xlink:href="#m5bafa8e47a" x="96.947975" y="311.04" style="stroke: #000000; stroke-width: 0.8"/>
      </g>
     </g>
     <g id="text_2">
      <!-- 100000 -->
      <g transform="translate(77.860475 325.638438)scale(0.1 -0.1)">
       <defs>
        <path id="DejaVuSans-31" d="M 794 531 
L 1825 531 
L 1825 4091 
L 703 3866 
L 703 4441 
L 1819 4666 
L 2450 4666 
L 2450 531 
L 3481 531 
L 3481 0 
L 794 0 
L 794 531 
z
" transform="scale(0.015625)"/>
       </defs>
       <use xlink:href="#DejaVuSans-31"/>
       <use xlink:href="#DejaVuSans-30" x="63.623047"/>
       <use xlink:href="#DejaVuSans-30" x="127.246094"/>
       <use xlink:href="#DejaVuSans-30" x="190.869141"/>
       <use xlink:href="#DejaVuSans-30" x="254.492188"/>
       <use xlink:href="#DejaVuSans-30" x="318.115234"/>
      </g>
     </g>
    </g>
    <g id="xtick_3">
     <g id="line2d_3">
      <g>
       <use xlink:href="#m5bafa8e47a" x="147.815441" y="311.04" style="stroke: #000000; stroke-width: 0.8"/>
      </g>
     </g>
     <g id="text_3">
      <!-- 200000 -->
      <g transform="translate(128.727941 325.638438)scale(0.1 -0.1)">
       <defs>
        <path id="DejaVuSans-32" d="M 1228 531 
L 3431 531 
L 3431 0 
L 469 0 
L 469 531 
Q 828 903 1448 1529 
Q 2069 2156 2228 2338 
Q 2531 2678 2651 2914 
Q 2772 3150 2772 3378 
Q 2772 3750 2511 3984 
Q 2250 4219 1831 4219 
Q 1534 4219 1204 4116 
Q 875 4013 500 3803 
L 500 4441 
Q 881 4594 1212 4672 
Q 1544 4750 1819 4750 
Q 2544 4750 2975 4387 
Q 3406 4025 3406 3419 
Q 3406 3131 3298 2873 
Q 3191 2616 2906 2266 
Q 2828 2175 2409 1742 
Q 1991 1309 1228 531 
z
" transform="scale(0.015625)"/>
       </defs>
       <use xlink:href="#DejaVuSans-32"/>
       <use xlink:href="#DejaVuSans-30" x="63.623047"/>
       <use xlink:href="#DejaVuSans-30" x="127.246094"/>
       <use xlink:href="#DejaVuSans-30" x="190.869141"/>
       <use xlink:href="#DejaVuSans-30" x="254.492188"/>
       <use xlink:href="#DejaVuSans-30" x="318.115234"/>
      </g>
     </g>
    </g>
    <g id="xtick_4">
     <g id="line2d_4">
      <g>
       <use xlink:href="#m5bafa8e47a" x="198.682908" y="311.04" style="stroke: #000000; stroke-width: 0.8"/>
      </g>
     </g>
     <g id="text_4">
      <!-- 300000 -->
      <g transform="translate(179.595408 325.638438)scale(0.1 -0.1)">
       <defs>
        <path id="DejaVuSans-33" d="M 2597 2516 
Q 3050 2419 3304 2112 
Q 3559 1806 3559 1356 
Q 3559 666 3084 287 
Q 2609 -91 1734 -91 
Q 1441 -91 1130 -33 
Q 819 25 488 141 
L 488 750 
Q 750 597 1062 519 
Q 1375 441 1716 441 
Q 2309 441 2620 675 
Q 2931 909 2931 1356 
Q 2931 1769 2642 2001 
Q 2353 2234 1838 2234 
L 1294 2234 
L 1294 2753 
L 1863 2753 
Q 2328 2753 2575 2939 
Q 2822 3125 2822 3475 
Q 2822 3834 2567 4026 
Q 2313 4219 1838 4219 
Q 1578 4219 1281 4162 
Q 984 4106 628 3988 
L 628 4550 
Q 988 4650 1302 4700 
Q 1616 4750 1894 4750 
Q 2613 4750 3031 4423 
Q 3450 4097 3450 3541 
Q 3450 3153 3228 2886 
Q 3006 2619 2597 2516 
z
" transform="scale(0.015625)"/>
       </defs>
       <use xlink:href="#DejaVuSans-33"/>
       <use xlink:href="#DejaVuSans-30" x="63.623047"/>
       <use xlink:href="#DejaVuSans-30" x="127.246094"/>
       <use xlink:href="#DejaVuSans-30" x="190.869141"/>
       <use xlink:href="#DejaVuSans-30" x="254.492188"/>
       <use xlink:href="#DejaVuSans-30" x="318.115234"/>
      </g>
     </g>
    </g>
    <g id="xtick_5">
     <g id="line2d_5">
      <g>
       <use xlink:href="#m5bafa8e47a" x="249.550374" y="311.04" style="stroke: #000000; stroke-width: 0.8"/>
      </g>
     </g>
     <g id="text_5">
      <!-- 400000 -->
      <g transform="translate(230.462874 325.638438)scale(0.1 -0.1)">
       <defs>
        <path id="DejaVuSans-34" d="M 2419 4116 
L 825 1625 
L 2419 1625 
L 2419 4116 
z
M 2253 4666 
L 3047 4666 
L 3047 1625 
L 3713 1625 
L 3713 1100 
L 3047 1100 
L 3047 0 
L 2419 0 
L 2419 1100 
L 313 1100 
L 313 1709 
L 2253 4666 
z
" transform="scale(0.015625)"/>
       </defs>
       <use xlink:href="#DejaVuSans-34"/>
       <use xlink:href="#DejaVuSans-30" x="63.623047"/>
       <use xlink:href="#DejaVuSans-30" x="127.246094"/>
       <use xlink:href="#DejaVuSans-30" x="190.869141"/>
       <use xlink:href="#DejaVuSans-30" x="254.492188"/>
       <use xlink:href="#DejaVuSans-30" x="318.115234"/>
      </g>
     </g>
    </g>
    <g id="xtick_6">
     <g id="line2d_6">
      <g>
       <use xlink:href="#m5bafa8e47a" x="300.417841" y="311.04" style="stroke: #000000; stroke-width: 0.8"/>
      </g>
     </g>
     <g id="text_6">
      <!-- 500000 -->
      <g transform="translate(281.330341 325.638438)scale(0.1 -0.1)">
       <defs>
        <path id="DejaVuSans-35" d="M 691 4666 
L 3169 4666 
L 3169 4134 
L 1269 4134 
L 1269 2991 
Q 1406 3038 1543 3061 
Q 1681 3084 1819 3084 
Q 2600 3084 3056 2656 
Q 3513 2228 3513 1497 
Q 3513 744 3044 326 
Q 2575 -91 1722 -91 
Q 1428 -91 1123 -41 
Q 819 9 494 109 
L 494 744 
Q 775 591 1075 516 
Q 1375 441 1709 441 
Q 2250 441 2565 725 
Q 2881 1009 2881 1497 
Q 2881 1984 2565 2268 
Q 2250 2553 1709 2553 
Q 1456 2553 1204 2497 
Q 953 2441 691 2322 
L 691 4666 
z
" transform="scale(0.015625)"/>
       </defs>
       <use xlink:href="#DejaVuSans-35"/>
       <use xlink:href="#DejaVuSans-30" x="63.623047"/>
       <use xlink:href="#DejaVuSans-30" x="127.246094"/>
       <use xlink:href="#DejaVuSans-30" x="190.869141"/>
       <use xlink:href="#DejaVuSans-30" x="254.492188"/>
       <use xlink:href="#DejaVuSans-30" x="318.115234"/>
      </g>
     </g>
    </g>
    <g id="xtick_7">
     <g id="line2d_7">
      <g>
       <use xlink:href="#m5bafa8e47a" x="351.285307" y="311.04" style="stroke: #000000; stroke-width: 0.8"/>
      </g>
     </g>
     <g id="text_7">
      <!-- 600000 -->
      <g transform="translate(332.197807 325.638438)scale(0.1 -0.1)">
       <defs>
        <path id="DejaVuSans-36" d="M 2113 2584 
Q 1688 2584 1439 2293 
Q 1191 2003 1191 1497 
Q 1191 994 1439 701 
Q 1688 409 2113 409 
Q 2538 409 2786 701 
Q 3034 994 3034 1497 
Q 3034 2003 2786 2293 
Q 2538 2584 2113 2584 
z
M 3366 4563 
L 3366 3988 
Q 3128 4100 2886 4159 
Q 2644 4219 2406 4219 
Q 1781 4219 1451 3797 
Q 1122 3375 1075 2522 
Q 1259 2794 1537 2939 
Q 1816 3084 2150 3084 
Q 2853 3084 3261 2657 
Q 3669 2231 3669 1497 
Q 3669 778 3244 343 
Q 2819 -91 2113 -91 
Q 1303 -91 875 529 
Q 447 1150 447 2328 
Q 447 3434 972 4092 
Q 1497 4750 2381 4750 
Q 2619 4750 2861 4703 
Q 3103 4656 3366 4563 
z
" transform="scale(0.015625)"/>
       </defs>
       <use xlink:href="#DejaVuSans-36"/>
       <use xlink:href="#DejaVuSans-30" x="63.623047"/>
       <use xlink:href="#DejaVuSans-30" x="127.246094"/>
       <use xlink:href="#DejaVuSans-30" x="190.869141"/>
       <use xlink:href="#DejaVuSans-30" x="254.492188"/>
       <use xlink:href="#DejaVuSans-30" x="318.115234"/>
      </g>
     </g>
    </g>
    <g id="xtick_8">
     <g id="line2d_8">
      <g>
       <use xlink:href="#m5bafa8e47a" x="402.152774" y="311.04" style="stroke: #000000; stroke-width: 0.8"/>
      </g>
     </g>
     <g id="text_8">
      <!-- 700000 -->
      <g transform="translate(383.065274 325.638438)scale(0.1 -0.1)">
       <defs>
        <path id="DejaVuSans-37" d="M 525 4666 
L 3525 4666 
L 3525 4397 
L 1831 0 
L 1172 0 
L 2766 4134 
L 525 4134 
L 525 4666 
z
" transform="scale(0.015625)"/>
       </defs>
       <use xlink:href="#DejaVuSans-37"/>
       <use xlink:href="#DejaVuSans-30" x="63.623047"/>
       <use xlink:href="#DejaVuSans-30" x="127.246094"/>
       <use xlink:href="#DejaVuSans-30" x="190.869141"/>
       <use xlink:href="#DejaVuSans-30" x="254.492188"/>
       <use xlink:href="#DejaVuSans-30" x="318.115234"/>
      </g>
     </g>
    </g>
    <g id="text_9">
     <!-- Training iteration -->
     <g transform="translate(199.4825 339.316562)scale(0.1 -0.1)">
      <defs>
       <path id="DejaVuSans-54" d="M -19 4666 
L 3928 4666 
L 3928 4134 
L 2272 4134 
L 2272 0 
L 1638 0 
L 1638 4134 
L -19 4134 
L -19 4666 
z
" transform="scale(0.015625)"/>
       <path id="DejaVuSans-72" d="M 2631 2963 
Q 2534 3019 2420 3045 
Q 2306 3072 2169 3072 
Q 1681 3072 1420 2755 
Q 1159 2438 1159 1844 
L 1159 0 
L 581 0 
L 581 3500 
L 1159 3500 
L 1159 2956 
Q 1341 3275 1631 3429 
Q 1922 3584 2338 3584 
Q 2397 3584 2469 3576 
Q 2541 3569 2628 3553 
L 2631 2963 
z
" transform="scale(0.015625)"/>
       <path id="DejaVuSans-61" d="M 2194 1759 
Q 1497 1759 1228 1600 
Q 959 1441 959 1056 
Q 959 750 1161 570 
Q 1363 391 1709 391 
Q 2188 391 2477 730 
Q 2766 1069 2766 1631 
L 2766 1759 
L 2194 1759 
z
M 3341 1997 
L 3341 0 
L 2766 0 
L 2766 531 
Q 2569 213 2275 61 
Q 1981 -91 1556 -91 
Q 1019 -91 701 211 
Q 384 513 384 1019 
Q 384 1609 779 1909 
Q 1175 2209 1959 2209 
L 2766 2209 
L 2766 2266 
Q 2766 2663 2505 2880 
Q 2244 3097 1772 3097 
Q 1472 3097 1187 3025 
Q 903 2953 641 2809 
L 641 3341 
Q 956 3463 1253 3523 
Q 1550 3584 1831 3584 
Q 2591 3584 2966 3190 
Q 3341 2797 3341 1997 
z
" transform="scale(0.015625)"/>
       <path id="DejaVuSans-69" d="M 603 3500 
L 1178 3500 
L 1178 0 
L 603 0 
L 603 3500 
z
M 603 4863 
L 1178 4863 
L 1178 4134 
L 603 4134 
L 603 4863 
z
" transform="scale(0.015625)"/>
       <path id="DejaVuSans-6e" d="M 3513 2113 
L 3513 0 
L 2938 0 
L 2938 2094 
Q 2938 2591 2744 2837 
Q 2550 3084 2163 3084 
Q 1697 3084 1428 2787 
Q 1159 2491 1159 1978 
L 1159 0 
L 581 0 
L 581 3500 
L 1159 3500 
L 1159 2956 
Q 1366 3272 1645 3428 
Q 1925 3584 2291 3584 
Q 2894 3584 3203 3211 
Q 3513 2838 3513 2113 
z
" transform="scale(0.015625)"/>
       <path id="DejaVuSans-67" d="M 2906 1791 
Q 2906 2416 2648 2759 
Q 2391 3103 1925 3103 
Q 1463 3103 1205 2759 
Q 947 2416 947 1791 
Q 947 1169 1205 825 
Q 1463 481 1925 481 
Q 2391 481 2648 825 
Q 2906 1169 2906 1791 
z
M 3481 434 
Q 3481 -459 3084 -895 
Q 2688 -1331 1869 -1331 
Q 1566 -1331 1297 -1286 
Q 1028 -1241 775 -1147 
L 775 -588 
Q 1028 -725 1275 -790 
Q 1522 -856 1778 -856 
Q 2344 -856 2625 -561 
Q 2906 -266 2906 331 
L 2906 616 
Q 2728 306 2450 153 
Q 2172 0 1784 0 
Q 1141 0 747 490 
Q 353 981 353 1791 
Q 353 2603 747 3093 
Q 1141 3584 1784 3584 
Q 2172 3584 2450 3431 
Q 2728 3278 2906 2969 
L 2906 3500 
L 3481 3500 
L 3481 434 
z
" transform="scale(0.015625)"/>
       <path id="DejaVuSans-20" transform="scale(0.015625)"/>
       <path id="DejaVuSans-74" d="M 1172 4494 
L 1172 3500 
L 2356 3500 
L 2356 3053 
L 1172 3053 
L 1172 1153 
Q 1172 725 1289 603 
Q 1406 481 1766 481 
L 2356 481 
L 2356 0 
L 1766 0 
Q 1100 0 847 248 
Q 594 497 594 1153 
L 594 3053 
L 172 3053 
L 172 3500 
L 594 3500 
L 594 4494 
L 1172 4494 
z
" transform="scale(0.015625)"/>
       <path id="DejaVuSans-65" d="M 3597 1894 
L 3597 1613 
L 953 1613 
Q 991 1019 1311 708 
Q 1631 397 2203 397 
Q 2534 397 2845 478 
Q 3156 559 3463 722 
L 3463 178 
Q 3153 47 2828 -22 
Q 2503 -91 2169 -91 
Q 1331 -91 842 396 
Q 353 884 353 1716 
Q 353 2575 817 3079 
Q 1281 3584 2069 3584 
Q 2775 3584 3186 3129 
Q 3597 2675 3597 1894 
z
M 3022 2063 
Q 3016 2534 2758 2815 
Q 2500 3097 2075 3097 
Q 1594 3097 1305 2825 
Q 1016 2553 972 2059 
L 3022 2063 
z
" transform="scale(0.015625)"/>
       <path id="DejaVuSans-6f" d="M 1959 3097 
Q 1497 3097 1228 2736 
Q 959 2375 959 1747 
Q 959 1119 1226 758 
Q 1494 397 1959 397 
Q 2419 397 2687 759 
Q 2956 1122 2956 1747 
Q 2956 2369 2687 2733 
Q 2419 3097 1959 3097 
z
M 1959 3584 
Q 2709 3584 3137 3096 
Q 3566 2609 3566 1747 
Q 3566 888 3137 398 
Q 2709 -91 1959 -91 
Q 1206 -91 779 398 
Q 353 888 353 1747 
Q 353 2609 779 3096 
Q 1206 3584 1959 3584 
z
" transform="scale(0.015625)"/>
      </defs>
      <use xlink:href="#DejaVuSans-54"/>
      <use xlink:href="#DejaVuSans-72" x="46.333984"/>
      <use xlink:href="#DejaVuSans-61" x="87.447266"/>
      <use xlink:href="#DejaVuSans-69" x="148.726562"/>
      <use xlink:href="#DejaVuSans-6e" x="176.509766"/>
      <use xlink:href="#DejaVuSans-69" x="239.888672"/>
      <use xlink:href="#DejaVuSans-6e" x="267.671875"/>
      <use xlink:href="#DejaVuSans-67" x="331.050781"/>
      <use xlink:href="#DejaVuSans-20" x="394.527344"/>
      <use xlink:href="#DejaVuSans-69" x="426.314453"/>
      <use xlink:href="#DejaVuSans-74" x="454.097656"/>
      <use xlink:href="#DejaVuSans-65" x="493.306641"/>
      <use xlink:href="#DejaVuSans-72" x="554.830078"/>
      <use xlink:href="#DejaVuSans-61" x="595.943359"/>
      <use xlink:href="#DejaVuSans-74" x="657.222656"/>
      <use xlink:href="#DejaVuSans-69" x="696.431641"/>
      <use xlink:href="#DejaVuSans-6f" x="724.214844"/>
      <use xlink:href="#DejaVuSans-6e" x="785.396484"/>
     </g>
    </g>
   </g>
   <g id="matplotlib.axis_2">
    <g id="ytick_1">
     <g id="line2d_9">
      <defs>
       <path id="m89b7e2be34" d="M 0 0 
L -3.5 0 
" style="stroke: #000000; stroke-width: 0.8"/>
      </defs>
      <g>
       <use xlink:href="#m89b7e2be34" x="46.08" y="311.04" style="stroke: #000000; stroke-width: 0.8"/>
      </g>
     </g>
     <g id="text_10">
      <!-- 1.0 -->
      <g transform="translate(23.176875 314.839219)scale(0.1 -0.1)">
       <defs>
        <path id="DejaVuSans-2e" d="M 684 794 
L 1344 794 
L 1344 0 
L 684 0 
L 684 794 
z
" transform="scale(0.015625)"/>
       </defs>
       <use xlink:href="#DejaVuSans-31"/>
       <use xlink:href="#DejaVuSans-2e" x="63.623047"/>
       <use xlink:href="#DejaVuSans-30" x="95.410156"/>
      </g>
     </g>
    </g>
    <g id="ytick_2">
     <g id="line2d_10">
      <g>
       <use xlink:href="#m89b7e2be34" x="46.08" y="270.72" style="stroke: #000000; stroke-width: 0.8"/>
      </g>
     </g>
     <g id="text_11">
      <!-- 1.5 -->
      <g transform="translate(23.176875 274.519219)scale(0.1 -0.1)">
       <use xlink:href="#DejaVuSans-31"/>
       <use xlink:href="#DejaVuSans-2e" x="63.623047"/>
       <use xlink:href="#DejaVuSans-35" x="95.410156"/>
      </g>
     </g>
    </g>
    <g id="ytick_3">
     <g id="line2d_11">
      <g>
       <use xlink:href="#m89b7e2be34" x="46.08" y="230.4" style="stroke: #000000; stroke-width: 0.8"/>
      </g>
     </g>
     <g id="text_12">
      <!-- 2.0 -->
      <g transform="translate(23.176875 234.199219)scale(0.1 -0.1)">
       <use xlink:href="#DejaVuSans-32"/>
       <use xlink:href="#DejaVuSans-2e" x="63.623047"/>
       <use xlink:href="#DejaVuSans-30" x="95.410156"/>
      </g>
     </g>
    </g>
    <g id="ytick_4">
     <g id="line2d_12">
      <g>
       <use xlink:href="#m89b7e2be34" x="46.08" y="190.08" style="stroke: #000000; stroke-width: 0.8"/>
      </g>
     </g>
     <g id="text_13">
      <!-- 2.5 -->
      <g transform="translate(23.176875 193.879219)scale(0.1 -0.1)">
       <use xlink:href="#DejaVuSans-32"/>
       <use xlink:href="#DejaVuSans-2e" x="63.623047"/>
       <use xlink:href="#DejaVuSans-35" x="95.410156"/>
      </g>
     </g>
    </g>
    <g id="ytick_5">
     <g id="line2d_13">
      <g>
       <use xlink:href="#m89b7e2be34" x="46.08" y="149.76" style="stroke: #000000; stroke-width: 0.8"/>
      </g>
     </g>
     <g id="text_14">
      <!-- 3.0 -->
      <g transform="translate(23.176875 153.559219)scale(0.1 -0.1)">
       <use xlink:href="#DejaVuSans-33"/>
       <use xlink:href="#DejaVuSans-2e" x="63.623047"/>
       <use xlink:href="#DejaVuSans-30" x="95.410156"/>
      </g>
     </g>
    </g>
    <g id="ytick_6">
     <g id="line2d_14">
      <g>
       <use xlink:href="#m89b7e2be34" x="46.08" y="109.44" style="stroke: #000000; stroke-width: 0.8"/>
      </g>
     </g>
     <g id="text_15">
      <!-- 3.5 -->
      <g transform="translate(23.176875 113.239219)scale(0.1 -0.1)">
       <use xlink:href="#DejaVuSans-33"/>
       <use xlink:href="#DejaVuSans-2e" x="63.623047"/>
       <use xlink:href="#DejaVuSans-35" x="95.410156"/>
      </g>
     </g>
    </g>
    <g id="ytick_7">
     <g id="line2d_15">
      <g>
       <use xlink:href="#m89b7e2be34" x="46.08" y="69.12" style="stroke: #000000; stroke-width: 0.8"/>
      </g>
     </g>
     <g id="text_16">
      <!-- 4.0 -->
      <g transform="translate(23.176875 72.919219)scale(0.1 -0.1)">
       <use xlink:href="#DejaVuSans-34"/>
       <use xlink:href="#DejaVuSans-2e" x="63.623047"/>
       <use xlink:href="#DejaVuSans-30" x="95.410156"/>
      </g>
     </g>
    </g>
    <g id="text_17">
     <!-- Training loss -->
     <g transform="translate(17.097188 221.052656)rotate(-90)scale(0.1 -0.1)">
      <defs>
       <path id="DejaVuSans-6c" d="M 603 4863 
L 1178 4863 
L 1178 0 
L 603 0 
L 603 4863 
z
" transform="scale(0.015625)"/>
       <path id="DejaVuSans-73" d="M 2834 3397 
L 2834 2853 
Q 2591 2978 2328 3040 
Q 2066 3103 1784 3103 
Q 1356 3103 1142 2972 
Q 928 2841 928 2578 
Q 928 2378 1081 2264 
Q 1234 2150 1697 2047 
L 1894 2003 
Q 2506 1872 2764 1633 
Q 3022 1394 3022 966 
Q 3022 478 2636 193 
Q 2250 -91 1575 -91 
Q 1294 -91 989 -36 
Q 684 19 347 128 
L 347 722 
Q 666 556 975 473 
Q 1284 391 1588 391 
Q 1994 391 2212 530 
Q 2431 669 2431 922 
Q 2431 1156 2273 1281 
Q 2116 1406 1581 1522 
L 1381 1569 
Q 847 1681 609 1914 
Q 372 2147 372 2553 
Q 372 3047 722 3315 
Q 1072 3584 1716 3584 
Q 2034 3584 2315 3537 
Q 2597 3491 2834 3397 
z
" transform="scale(0.015625)"/>
      </defs>
      <use xlink:href="#DejaVuSans-54"/>
      <use xlink:href="#DejaVuSans-72" x="46.333984"/>
      <use xlink:href="#DejaVuSans-61" x="87.447266"/>
      <use xlink:href="#DejaVuSans-69" x="148.726562"/>
      <use xlink:href="#DejaVuSans-6e" x="176.509766"/>
      <use xlink:href="#DejaVuSans-69" x="239.888672"/>
      <use xlink:href="#DejaVuSans-6e" x="267.671875"/>
      <use xlink:href="#DejaVuSans-67" x="331.050781"/>
      <use xlink:href="#DejaVuSans-20" x="394.527344"/>
      <use xlink:href="#DejaVuSans-6c" x="426.314453"/>
      <use xlink:href="#DejaVuSans-6f" x="454.097656"/>
      <use xlink:href="#DejaVuSans-73" x="515.279297"/>
      <use xlink:href="#DejaVuSans-73" x="567.378906"/>
     </g>
    </g>
   </g>
   <g id="line2d_16">
    <path d="M 47.698158 -1 
L 48.150306 31.569705 
L 48.669154 53.69897 
L 49.411819 71.955002 
L 49.935754 80.18977 
L 52.067101 112.678506 
L 52.535081 125.348504 
L 52.804679 140.437312 
L 53.867809 206.940371 
L 54.412091 217.898425 
L 55.017414 225.721058 
L 55.729558 231.449843 
L 56.161932 234.84302 
L 56.726561 238.591038 
L 56.746908 238.108817 
L 56.838469 238.433717 
L 57.74391 242.663163 
L 57.865992 243.654702 
L 58.562876 246.205382 
L 58.644264 246.448475 
L 59.091898 248.238326 
L 59.345218 249.154624 
L 59.488664 249.681502 
L 60.551794 252.760889 
L 61.386021 254.490558 
L 61.457235 254.601686 
L 61.538623 254.785293 
L 61.589491 254.627129 
L 61.670878 254.736972 
L 62.164293 255.579566 
L 62.484758 256.438481 
L 63.975175 259.401946 
L 63.980261 259.397053 
L 64.026042 259.505185 
L 64.911136 260.840979 
L 64.96709 260.891585 
L 64.977264 260.932038 
L 65.506285 261.495612 
L 66.147215 262.509872 
L 66.157389 262.497663 
L 66.264211 262.603836 
L 66.650803 263.058457 
L 67.235779 224.017334 
L 67.28156 223.829759 
L 67.337514 224.03366 
L 67.459596 226.037807 
L 67.673239 234.15525 
L 67.800408 251.855892 
L 67.998791 263.514876 
L 68.35995 264.289546 
L 68.426078 264.12824 
L 68.497292 264.234076 
L 68.75163 264.609193 
L 68.838104 264.70106 
L 69.031401 264.957476 
L 69.341692 265.506556 
L 69.621463 265.908415 
L 69.646897 265.890111 
L 69.982622 265.940426 
L 70.145398 266.095824 
L 70.165745 266.096429 
L 70.216613 266.176104 
L 70.832109 267.247815 
L 71.615468 267.870955 
L 71.620555 267.863365 
L 71.701943 267.962028 
L 71.885066 268.178659 
L 72.002061 268.253233 
L 72.215704 268.396086 
L 72.332699 268.46274 
L 72.744726 268.788297 
L 72.887155 268.894824 
L 73.105885 269.132186 
L 73.304268 269.302014 
L 73.395829 269.349807 
L 73.400916 269.367214 
L 73.706121 269.643084 
L 73.818029 269.711242 
L 73.970632 269.807125 
L 73.990979 269.78478 
L 74.046933 269.68327 
L 74.143581 269.681152 
L 74.174102 269.715119 
L 74.280923 269.740049 
L 74.296184 269.728727 
L 74.423352 269.752106 
L 74.662429 269.889258 
L 74.759078 269.918124 
L 74.769251 269.932779 
L 74.850639 269.975108 
L 74.860812 269.889461 
L 74.957461 269.854466 
L 74.972721 269.874611 
L 75.013415 269.893906 
L 75.023588 269.956047 
L 75.135497 270.001008 
L 75.14567 269.987006 
L 75.3644 270.072726 
L 75.369487 270.066594 
L 75.491569 270.024489 
L 75.511916 270.042782 
L 75.644171 270.075598 
L 76.41227 270.847414 
L 76.524179 270.914567 
L 77.704304 271.979034 
L 77.709391 271.973736 
L 77.826386 272.028201 
L 78.263846 272.267354 
L 78.406275 272.326821 
L 78.696219 272.492963 
L 78.701306 272.48071 
L 78.833562 271.875005 
L 79.103159 271.530336 
L 79.194721 271.520463 
L 79.215068 271.511356 
L 79.474492 271.427823 
L 79.622007 271.479828 
L 79.718656 271.570822 
L 79.850911 272.22064 
L 80.039121 272.467501 
L 80.049294 272.450823 
L 80.084901 272.430713 
L 80.130682 272.485225 
L 80.156116 272.476823 
L 80.547795 272.928352 
L 80.64953 272.972648 
L 80.674964 273.011441 
L 80.736005 272.911057 
L 80.746178 272.913479 
L 80.82248 272.847175 
L 80.980169 272.594413 
L 81.188725 272.258001 
L 81.687226 272.077695 
L 82.129773 273.085715 
L 82.139947 273.082203 
L 82.170467 273.14802 
L 82.200988 273.154324 
L 82.384111 273.404302 
L 82.465499 273.505662 
L 83.41672 274.457343 
L 83.548976 274.522222 
L 84.820662 275.20653 
L 84.917311 275.132545 
L 84.952918 275.15723 
L 85.52772 274.924773 
L 85.654889 274.950932 
L 85.659976 274.944983 
L 85.776971 274.954508 
L 85.782058 274.964075 
L 86.595937 275.4458 
L 86.601024 275.438367 
L 86.748539 275.457726 
L 86.875708 275.504406 
L 86.880795 275.498917 
L 87.033397 275.500258 
L 87.389469 275.781213 
L 87.481031 275.865037 
L 87.964272 276.209096 
L 88.127048 276.300169 
L 88.274563 276.408737 
L 88.27965 276.395519 
L 88.661156 276.146389 
L 88.666243 276.158698 
L 88.773065 276.062846 
L 88.90532 275.915979 
L 88.915493 275.920173 
L 89.063009 275.884401 
L 89.434342 276.087046 
L 89.607291 276.359114 
L 89.876889 276.633311 
L 89.963363 276.621108 
L 89.98371 276.592082 
L 90.110879 276.57626 
L 90.533079 276.649631 
L 90.538166 276.620671 
L 90.639901 276.511013 
L 90.655161 276.517277 
L 90.675508 276.523939 
L 90.741636 276.461443 
L 90.751809 276.466104 
L 90.940019 276.50626 
L 91.179096 276.636241 
L 91.184182 276.629314 
L 91.499561 276.717401 
L 91.697944 276.950863 
L 91.794592 276.976943 
L 91.738638 276.980733 
L 91.799679 276.980147 
L 91.942108 277.060054 
L 92.150664 277.05856 
L 92.31344 277.234868 
L 92.542344 277.447934 
L 92.588125 277.472073 
L 92.623732 277.524832 
L 93.264662 277.966372 
L 93.386744 277.931577 
L 93.396917 277.940952 
L 93.513912 277.944844 
L 93.529173 277.922829 
L 93.661428 277.942978 
L 93.666515 277.955184 
L 93.900505 278.007018 
L 94.404093 277.960359 
L 94.536348 277.900426 
L 94.541435 277.90885 
L 94.556695 277.938157 
L 94.648257 277.886288 
L 94.719471 277.799383 
L 94.907681 277.668967 
L 95.085717 277.63472 
L 95.29936 277.42672 
L 95.365488 277.526441 
L 95.48757 277.592697 
L 95.492657 277.579743 
L 95.731734 277.750778 
L 95.899597 277.914259 
L 95.996245 277.984139 
L 96.433705 278.46835 
L 96.911859 278.545868 
L 97.013594 278.534602 
L 97.028854 278.551517 
L 97.084809 278.500228 
L 97.130589 278.517115 
L 97.456141 278.015277 
L 97.705392 277.904833 
L 98.193719 277.165765 
L 98.412449 276.574041 
L 98.42771 276.585574 
L 98.778695 276.160358 
L 98.89569 275.976838 
L 99.058466 276.153059 
L 99.06864 276.144587 
L 99.155114 276.236437 
L 99.414539 277.142394 
L 99.419625 277.136053 
L 99.516273 277.257515 
L 99.704483 277.555407 
L 99.790958 277.658067 
L 99.9283 278.074858 
L 99.933387 278.072538 
L 100.101249 278.177817 
L 100.106336 278.165604 
L 100.864261 277.973264 
L 100.971083 278.072639 
L 101.169466 278.321264 
L 101.566232 278.541934 
L 101.734095 278.554937 
L 101.810396 278.628144 
L 101.85109 278.561387 
L 102.059647 278.221248 
L 102.074907 278.228778 
L 102.105427 278.258128 
L 102.181729 278.220745 
L 102.293637 278.210861 
L 102.303811 278.222543 
L 102.944741 279.158699 
L 103.127864 279.500806 
L 103.656885 279.73514 
L 103.667059 279.71222 
L 103.784054 279.62164 
L 103.97735 279.503358 
L 104.023131 279.429904 
L 104.028218 279.409908 
L 104.099432 279.325094 
L 104.155386 279.356186 
L 104.302902 279.326885 
L 104.318162 279.348107 
L 104.440244 279.313884 
L 104.541979 279.294712 
L 104.557239 279.308154 
L 104.730189 279.374993 
L 104.79123 279.470854 
L 104.964179 279.55837 
L 105.304991 279.52923 
L 105.452507 279.395273 
L 105.625456 279.308305 
L 105.920487 278.877424 
L 106.179912 278.892395 
L 106.602112 279.578684 
L 107.161654 280.536493 
L 107.268475 280.616453 
L 107.756803 280.869013 
L 107.868711 280.941602 
L 108.189176 281.027028 
L 108.306172 281.041608 
L 109.498505 281.119494 
L 109.552425 281.152049 
L 109.618552 281.1191 
L 109.750808 281.173134 
L 109.847456 281.229669 
L 110.000058 281.325678 
L 110.376478 281.599799 
L 110.498559 281.623469 
L 110.508733 281.643259 
L 110.874979 281.853144 
L 110.941106 281.887668 
L 110.976714 281.87929 
L 111.124229 281.932195 
L 111.404 281.945917 
L 111.556603 281.947487 
L 111.760073 281.958229 
L 111.882155 281.946634 
L 111.892328 281.958306 
L 111.983889 281.991885 
L 112.009323 281.959777 
L 112.528171 281.598381 
L 112.84355 281.19755 
L 113.143668 281.219291 
L 113.260663 281.45816 
L 113.28101 281.446983 
L 113.738817 282.139087 
L 113.845639 282.226013 
L 114.003328 282.293053 
L 114.105063 282.339014 
L 114.939289 282.498541 
L 115.224147 282.744793 
L 115.300448 282.827198 
L 115.498831 282.934868 
L 115.503918 282.922983 
L 115.580219 282.928818 
L 115.61074 282.960314 
L 115.687041 282.866435 
L 115.82947 282.828779 
L 116.490747 282.969228 
L 116.638263 282.868259 
L 117.508096 282.852034 
L 117.640352 283.011181 
L 117.650525 283.002402 
L 117.879429 283.134744 
L 117.904863 283.103294 
L 117.986251 283.14899 
L 118.164287 283.211654 
L 118.17446 283.200705 
L 118.286369 283.203372 
L 118.291455 283.216108 
L 118.438971 283.276861 
L 118.561053 283.34344 
L 118.5814 283.312007 
L 120.168465 283.451269 
L 120.494017 283.412177 
L 120.804308 283.550701 
L 120.946737 283.543232 
L 121.089166 283.549622 
L 121.847091 283.717328 
L 121.882698 283.751359 
L 121.943739 283.769912 
L 122.121776 283.842202 
L 122.457501 283.917347 
L 122.564322 283.89804 
L 122.579583 283.907818 
L 122.844094 283.924246 
L 123.03739 284.026046 
L 123.215426 284.076149 
L 123.261207 284.05519 
L 123.322248 284.080733 
L 123.45959 284.15407 
L 124.293816 284.239213 
L 124.436245 284.216092 
L 124.812665 284.2424 
L 125.356946 284.602077 
L 125.428161 284.603433 
L 125.453595 284.646764 
L 125.60111 284.671909 
L 125.870708 284.428778 
L 125.875795 284.437684 
L 126.084351 284.353404 
L 126.231867 284.292124 
L 126.659154 284.353035 
L 126.888057 284.598794 
L 126.903317 284.588133 
L 126.984705 284.607725 
L 126.999966 284.636239 
L 128.551423 285.028201 
L 128.698939 284.98173 
L 129.375476 285.021492 
L 129.497558 285.03604 
L 129.609467 285.055147 
L 129.512818 285.049819 
L 129.614553 285.062679 
L 129.762069 285.096851 
L 129.929932 285.17139 
L 130.021493 285.173446 
L 130.04184 285.197775 
L 130.153748 285.181799 
L 130.255483 285.27253 
L 130.377565 285.296187 
L 130.565775 285.363144 
L 130.68277 285.397841 
L 130.692944 285.384907 
L 130.891327 285.426418 
L 131.018495 285.413567 
L 131.679772 285.546787 
L 131.822201 285.490697 
L 131.969717 285.54078 
L 132.147753 285.508601 
L 132.290182 285.546033 
L 132.295269 285.541992 
L 132.595387 285.584158 
L 132.788683 285.708445 
L 132.956546 285.712729 
L 133.114235 285.714238 
L 133.282098 285.709076 
L 134.645346 286.026992 
L 134.767428 285.527892 
L 134.782688 285.531853 
L 135.118413 285.22753 
L 135.1235 285.233543 
L 135.306623 285.240925 
L 135.403271 285.271199 
L 135.413445 285.285499 
L 135.667782 285.475483 
L 135.769517 285.832747 
L 135.784777 285.825731 
L 136.161196 286.061253 
L 136.323972 286.163869 
L 136.451141 286.178438 
L 136.547789 286.229222 
L 136.690218 286.289959 
L 137.707567 286.422827 
L 138.292543 286.249928 
L 138.302717 286.268312 
L 138.343411 286.150864 
L 138.379018 286.148832 
L 138.551967 286.088633 
L 138.730003 286.097672 
L 138.872432 286.095886 
L 138.908039 286.065734 
L 138.974167 286.140368 
L 139.223418 286.275893 
L 139.228504 286.262068 
L 139.284459 286.046898 
L 139.340413 286.104713 
L 139.462495 286.177539 
L 139.467582 286.16825 
L 140.245854 286.153854 
L 140.327242 286.363654 
L 140.362849 286.359551 
L 140.530712 286.340829 
L 140.779962 286.425098 
L 140.835916 286.43098 
L 140.886784 286.456735 
L 141.115687 286.492525 
L 141.120774 286.482387 
L 141.176728 286.259258 
L 141.237769 286.261595 
L 141.405632 286.250253 
L 141.507367 286.138455 
L 141.634536 283.762942 
L 141.960087 282.781476 
L 142.12795 282.764396 
L 142.138124 282.798535 
L 142.260205 283.206374 
L 142.417895 283.698594 
L 142.524716 284.219465 
L 142.646798 286.236014 
L 143.104605 286.688938 
L 143.231774 286.738373 
L 143.236861 286.751984 
L 143.399637 286.874956 
L 143.40981 286.869053 
L 144.091434 286.503759 
L 144.274557 286.519417 
L 144.411899 286.467376 
L 144.437333 286.495815 
L 144.890053 286.89487 
L 144.981615 286.93837 
L 144.991788 286.910733 
L 145.108784 286.304985 
L 145.200345 286.183489 
L 145.429249 286.10006 
L 145.642892 286.122009 
L 145.876882 286.262012 
L 146.009138 286.452887 
L 146.044745 286.962941 
L 146.126133 286.926447 
L 146.319429 286.854704 
L 146.436424 286.859837 
L 146.548333 286.854874 
L 146.55342 286.858862 
L 146.81793 287.032125 
L 146.980706 287.115973 
L 147.143482 287.225144 
L 147.311345 287.317917 
L 147.336779 287.344479 
L 147.418167 287.353894 
L 148.471123 287.285001 
L 148.598292 287.300018 
L 148.603379 287.289701 
L 148.750894 287.304667 
L 148.761068 287.289428 
L 148.893323 287.208695 
L 148.89841 287.214946 
L 148.979798 287.133263 
L 149.732636 286.96058 
L 150.068362 287.163235 
L 150.19553 287.235623 
L 150.658424 287.442961 
L 150.79068 287.498403 
L 150.922935 287.487984 
L 151.075537 287.518026 
L 151.080624 287.508443 
L 152.596475 287.701047 
L 152.72873 287.724566 
L 153.364573 287.667327 
L 153.415441 287.652399 
L 153.466308 287.698495 
L 153.613824 287.668815 
L 153.756253 287.634168 
L 153.908855 287.690452 
L 153.919029 287.680183 
L 154.046197 287.651175 
L 154.056371 287.661735 
L 154.208973 287.693703 
L 154.331055 287.699997 
L 154.336142 287.706447 
L 155.841819 287.925164 
L 155.93338 287.946525 
L 155.867253 287.942148 
L 155.943554 287.956606 
L 156.111417 288.07472 
L 156.116503 288.067195 
L 156.492923 288.18822 
L 156.52853 288.202902 
L 156.604831 288.190856 
L 156.869342 288.207234 
L 157.093159 268.546504 
L 157.393277 263.778906 
L 157.428884 263.695348 
L 157.484838 263.859251 
L 157.601833 265.110089 
L 157.861257 270.476237 
L 157.901951 273.992242 
L 158.003686 287.093494 
L 158.085074 287.05527 
L 158.563228 287.149893 
L 158.787045 287.58216 
L 158.909127 288.284574 
L 158.914214 288.281816 
L 159.305893 288.33867 
L 159.48393 288.369846 
L 159.595838 288.384059 
L 159.600925 288.389513 
L 159.728093 288.40395 
L 159.860349 288.441842 
L 160.018038 288.514336 
L 160.129946 288.523532 
L 160.14012 288.531676 
L 160.399544 288.598875 
L 160.54706 288.60758 
L 160.633534 288.628146 
L 160.653881 288.660791 
L 160.806484 288.699846 
L 161.106602 288.640081 
L 161.304985 288.637986 
L 161.43724 288.676381 
L 161.564409 288.723617 
L 161.717011 288.762621 
L 161.81366 288.81675 
L 162.129038 288.942096 
L 162.225686 288.906242 
L 162.25112 288.94366 
L 162.729274 288.783705 
L 162.851356 288.75138 
L 162.861529 288.757015 
L 163.014132 288.752793 
L 163.263382 288.760343 
L 164.367206 288.818318 
L 164.484202 288.828798 
L 164.616457 288.844306 
L 164.621544 288.852839 
L 164.789406 288.914308 
L 165.130218 289.062691 
L 165.318428 289.003002 
L 165.354035 288.991888 
L 165.465944 288.778134 
L 165.47103 288.783535 
L 165.608373 288.6971 
L 165.618546 288.718028 
L 165.755888 288.700707 
L 165.949185 288.667354 
L 166.142481 288.742939 
L 166.330691 288.867094 
L 166.625722 289.13321 
L 166.630809 289.124415 
L 166.640982 289.103293 
L 166.666416 289.141996 
L 166.73763 289.147807 
L 167.047922 289.209166 
L 167.058095 289.197996 
L 167.103876 289.240419 
L 167.149657 289.24483 
L 167.887235 289.256156 
L 168.136486 289.351324 
L 168.390823 289.385861 
L 168.482384 289.370834 
L 168.492558 289.344242 
L 168.696028 289.295636 
L 168.813023 289.258791 
L 168.81811 289.261471 
L 168.919845 289.264314 
L 168.930018 289.250526 
L 169.102968 289.271496 
L 169.219963 289.269229 
L 169.235223 289.285998 
L 169.336958 289.319227 
L 169.347131 289.307947 
L 169.438693 289.266934 
L 169.45904 289.284752 
L 169.591295 289.294947 
L 169.723551 289.264345 
L 169.916847 289.212931 
L 170.033842 289.023596 
L 170.038929 289.032735 
L 170.262746 288.945815 
L 170.817201 289.170116 
L 170.822288 289.154095 
L 170.918936 288.712657 
L 170.964717 288.832477 
L 171.071538 288.723344 
L 171.407264 288.568122 
L 171.575126 288.60981 
L 171.580213 288.605116 
L 171.681948 288.659487 
L 171.814203 288.729035 
L 171.844724 288.839524 
L 171.915938 289.20436 
L 171.961719 289.194228 
L 172.002413 289.193599 
L 172.053281 289.256309 
L 172.088888 289.293973 
L 172.139755 289.319553 
L 173.090977 289.673586 
L 173.314794 289.653397 
L 173.52335 289.676294 
L 173.650519 289.663246 
L 173.813295 289.737826 
L 173.941481 289.71194 
L 173.960811 289.731744 
L 174.093066 289.773579 
L 174.566133 289.698471 
L 174.754343 289.618044 
L 174.957813 289.712362 
L 175.105329 289.704141 
L 176.626266 289.920282 
L 176.758521 290.003265 
L 176.768695 289.999744 
L 176.91621 290.040956 
L 177.10442 290.052748 
L 177.257022 290.082597 
L 177.409625 290.078255 
L 177.623268 290.043359 
L 177.765697 289.985434 
L 177.999687 290.038244 
L 178.004774 290.0271 
L 178.121769 290.00631 
L 178.126856 290.013435 
L 178.376107 290.000032 
L 178.391367 289.481729 
L 178.523622 287.722491 
L 178.950909 287.075875 
L 178.976343 287.098013 
L 179.327328 288.150123 
L 179.408716 288.975132 
L 179.44941 290.339402 
L 179.535885 290.299797 
L 179.612186 290.287563 
L 179.63762 290.265143 
L 179.688487 290.25031 
L 179.749528 290.292347 
L 180.039473 290.208459 
L 180.151381 290.173449 
L 180.064907 290.173056 
L 180.156468 290.166595 
L 180.339591 290.137641 
L 180.446413 290.123485 
L 180.456586 290.115731 
L 180.583755 290.113178 
L 180.588841 290.117357 
L 180.756704 290.113221 
L 180.914393 290.137204 
L 181.026302 290.144346 
L 181.031388 290.142098 
L 181.224685 290.098133 
L 181.234858 290.110737 
L 181.626538 290.229416 
L 181.789314 290.224039 
L 181.992783 290.271878 
L 182.104692 290.283568 
L 182.114865 290.268263 
L 182.140299 290.242364 
L 182.160646 290.351296 
L 182.196253 290.34722 
L 182.440417 290.370514 
L 183.071174 290.432518 
L 183.076261 290.383474 
L 183.198342 290.184783 
L 183.203429 290.187063 
L 183.218689 290.074476 
L 183.366205 289.938631 
L 183.493374 289.797626 
L 183.651063 289.714932 
L 183.757885 289.701357 
L 183.773145 289.676977 
L 184.088523 289.849868 
L 184.236039 290.289623 
L 184.424248 290.396741 
L 184.454769 290.408469 
L 184.490376 290.485373 
L 184.622632 290.535683 
L 184.632805 290.524081 
L 184.775234 290.443014 
L 184.790494 290.463965 
L 185.533159 290.310864 
L 185.690848 290.420209 
L 185.695935 290.417003 
L 186.418253 290.44497 
L 186.708198 290.379624 
L 186.977795 290.456374 
L 186.982882 290.446894 
L 187.120224 290.509595 
L 187.247393 290.585157 
L 187.420342 290.748697 
L 188.096879 290.809644 
L 188.213875 290.795882 
L 188.218961 290.801013 
L 188.325783 290.829138 
L 188.341043 290.820996 
L 188.508906 290.757986 
L 188.661508 290.735835 
L 189.271918 290.611391 
L 189.383826 290.501747 
L 189.388913 290.513317 
L 189.510995 290.565691 
L 189.648337 290.615637 
L 189.867067 290.644819 
L 190.492737 290.91762 
L 190.655513 290.848046 
L 190.6606 290.855608 
L 190.792855 290.854824 
L 190.797942 290.850013 
L 190.975978 290.7677 
L 191.072626 290.75669 
L 191.087886 290.73758 
L 191.240489 290.761123 
L 191.418525 290.802851 
L 191.530433 290.816666 
L 191.672862 290.904981 
L 191.759337 290.938098 
L 191.774597 290.951373 
L 192.268012 290.892156 
L 192.415527 290.927739 
L 192.542696 290.933763 
L 192.766513 290.910211 
L 192.919115 290.857073 
L 193.076804 290.894348 
L 193.259927 290.919478 
L 193.387096 290.904161 
L 193.402356 290.919977 
L 194.729997 291.18073 
L 194.862252 291.15438 
L 194.867339 291.159511 
L 195.035202 291.150855 
L 195.203065 291.152821 
L 195.233585 291.170617 
L 195.33532 291.109621 
L 196.00677 291.177679 
L 196.149199 291.146215 
L 196.63244 291.217141 
L 196.790129 291.229702 
L 197.003773 291.283204 
L 197.120768 291.268025 
L 197.125855 291.273136 
L 197.237763 291.24974 
L 197.24285 291.244379 
L 197.390366 291.227546 
L 197.517534 291.232218 
L 197.522621 291.227503 
L 197.812566 291.146148 
L 197.929561 290.756048 
L 198.265286 290.75973 
L 198.824828 291.219562 
L 198.967257 291.603004 
L 198.972344 291.596702 
L 199.13512 291.512677 
L 199.318243 291.530472 
L 199.491192 291.394313 
L 199.704835 291.359306 
L 199.837091 291.366535 
L 199.730269 291.33636 
L 199.842177 291.361778 
L 200.065994 291.407464 
L 200.238944 291.426759 
L 200.422067 291.429766 
L 200.564495 291.453625 
L 200.625536 291.435726 
L 200.66623 291.487886 
L 200.808659 291.518404 
L 200.813746 291.514794 
L 201.022303 291.522244 
L 201.164732 291.535358 
L 201.342768 291.555362 
L 201.48011 291.590666 
L 201.612365 291.605915 
L 201.866703 291.55221 
L 202.446592 291.655901 
L 202.578847 291.637868 
L 202.772144 291.63331 
L 202.77723 291.623995 
L 202.899312 291.664658 
L 202.985787 291.691817 
L 203.016307 291.654749 
L 203.158736 291.615719 
L 204.425336 291.707759 
L 204.542331 291.723725 
L 204.832276 291.708983 
L 204.974705 291.744563 
L 205.015399 291.773861 
L 205.086613 291.767486 
L 205.249389 291.775525 
L 205.447772 291.792401 
L 205.620722 291.831773 
L 205.71737 291.868108 
L 205.829278 291.910426 
L 205.844538 291.901955 
L 206.251478 291.942556 
L 206.368473 291.409156 
L 206.439688 291.355384 
L 206.449861 291.336192 
L 206.632984 291.175252 
L 206.770326 291.163125 
L 207.009403 291.16117 
L 207.167093 291.314394 
L 207.268828 291.41692 
L 207.385823 291.885141 
L 209.003408 292.106861 
L 209.161097 292.148476 
L 209.334047 292.094933 
L 209.537517 292.10171 
L 209.649425 292.116787 
L 209.659598 292.109195 
L 210.076712 292.089593 
L 210.264921 292.144308 
L 210.570126 292.113636 
L 210.575213 292.127686 
L 210.788856 292.0579 
L 211.124582 291.996791 
L 211.277184 292.003066 
L 213.205061 292.217593 
L 213.403444 292.163701 
L 213.418704 292.185641 
L 214.263104 292.325946 
L 214.385186 292.368836 
L 214.390273 292.366764 
L 214.527615 292.38131 
L 214.873514 292.405199 
L 215.112591 292.399654 
L 215.27028 292.411815 
L 216.898039 292.312914 
L 217.17781 292.390744 
L 217.299892 292.344248 
L 217.310065 292.35147 
L 217.671224 292.341982 
L 217.813653 292.325938 
L 218.012036 292.314192 
L 218.861523 292.702032 
L 219.009039 292.713452 
L 219.151468 292.737576 
L 219.156554 292.729105 
L 220.006041 292.594479 
L 220.14847 292.586807 
L 220.260378 292.624532 
L 220.753793 292.69315 
L 220.860615 292.667546 
L 220.875875 292.674803 
L 220.997957 292.664948 
L 221.160733 292.661158 
L 221.313335 292.704489 
L 221.44559 292.690715 
L 221.643974 292.71848 
L 222.020393 292.768489 
L 222.142475 292.734606 
L 222.152648 292.750952 
L 222.284904 292.743253 
L 222.28999 292.736951 
L 222.437506 292.716034 
L 222.752884 292.754082 
L 223.037742 292.81198 
L 223.185258 292.851365 
L 223.327687 292.846558 
L 223.332773 292.85218 
L 223.480289 292.863238 
L 223.841448 292.865002 
L 223.93301 292.842378 
L 223.953357 292.865978 
L 224.136479 292.875729 
L 224.258561 292.83564 
L 224.263648 292.841992 
L 225.972795 292.943377 
L 226.110137 292.914554 
L 226.222046 292.893434 
L 226.364474 292.858511 
L 226.369561 292.867954 
L 226.791761 292.891975 
L 226.888409 292.928288 
L 226.817195 292.917036 
L 226.893496 292.934209 
L 227.15292 293.048946 
L 227.275002 293.042496 
L 227.290262 293.044262 
L 227.320783 292.873086 
L 227.402171 292.882174 
L 227.961713 292.800974 
L 228.750159 293.157892 
L 228.923108 293.085447 
L 229.68612 293.178185 
L 229.879416 293.180815 
L 229.976065 293.185098 
L 229.996412 293.199739 
L 230.627168 293.144148 
L 230.637342 293.162234 
L 230.728903 293.106346 
L 232.04637 293.207466 
L 232.143019 293.230958 
L 232.163366 293.202874 
L 232.300708 293.164105 
L 232.458397 293.123671 
L 232.666954 293.05674 
L 232.67204 293.066474 
L 232.687301 293.079467 
L 232.763602 293.018728 
L 232.768688 293.019582 
L 232.911117 292.992508 
L 234.54905 293.452845 
L 234.788127 293.353559 
L 234.838994 293.347302 
L 234.889862 293.304643 
L 235.067898 293.265385 
L 235.40871 293.270881 
L 235.520618 293.272531 
L 235.637614 293.245038 
L 235.749522 293.180095 
L 235.780042 293.208171 
L 235.978426 293.255604 
L 236.354845 293.3624 
L 236.47184 293.384411 
L 236.476927 293.390029 
L 236.766871 293.571465 
L 236.888953 293.553972 
L 236.904213 293.575908 
L 237.148377 293.641714 
L 237.692659 293.66137 
L 237.931736 293.572719 
L 238.028384 293.547855 
L 238.038558 293.531067 
L 238.37937 293.462697 
L 239.030474 293.279592 
L 239.177989 293.201312 
L 239.422153 293.071374 
L 239.554408 293.00885 
L 239.747705 292.988314 
L 239.752792 292.996317 
L 240.185165 293.072677 
L 240.342854 293.1455 
L 240.642972 293.328969 
L 240.754881 293.359305 
L 240.795575 293.324995 
L 240.871876 293.343436 
L 241.105866 293.36311 
L 241.238122 293.407265 
L 241.248295 293.396936 
L 241.385637 293.370963 
L 242.63189 293.679283 
L 242.764146 293.671124 
L 242.769232 293.675274 
L 242.916748 293.671021 
L 243.064264 293.601231 
L 243.06935 293.60658 
L 243.176172 293.592053 
L 243.186346 293.57896 
L 243.384729 293.572964 
L 243.532244 293.644527 
L 243.644153 293.653776 
L 243.654326 293.671274 
L 243.796755 293.688593 
L 244.137567 293.768364 
L 245.577116 293.603938 
L 245.744979 293.615163 
L 245.750066 293.608305 
L 245.867061 293.604487 
L 245.872148 293.613411 
L 246.055271 293.609242 
L 246.21296 293.652486 
L 246.218047 293.642982 
L 246.360475 293.544042 
L 246.518165 293.533304 
L 246.66568 293.522093 
L 246.675854 293.534663 
L 246.858977 293.522874 
L 246.864063 293.530571 
L 247.006492 293.541754 
L 247.021753 293.518886 
L 247.184528 293.547828 
L 247.311697 293.569076 
L 247.515167 293.656401 
L 247.606728 293.708867 
L 247.652509 293.67738 
L 247.805112 293.672598 
L 247.810198 293.678539 
L 248.079796 293.763404 
L 248.293439 293.781348 
L 248.446042 293.874578 
L 248.593557 293.848734 
L 248.827548 293.85941 
L 249.005584 293.852497 
L 249.239574 293.842279 
L 249.427784 293.813884 
L 249.722815 293.888861 
L 250.053454 293.847298 
L 250.200969 293.861569 
L 250.348485 293.872928 
L 251.111497 293.838724 
L 251.243752 293.876778 
L 253.522615 294.11727 
L 253.65487 294.122363 
L 253.934641 294.055809 
L 254.04655 294.017863 
L 254.219499 294.002836 
L 255.745523 294.00836 
L 255.862518 294.007974 
L 256.121942 293.989532 
L 256.269458 293.95712 
L 256.289805 293.983895 
L 256.681484 294.130613 
L 256.778133 294.146111 
L 256.803566 294.132762 
L 257.810742 294.191297 
L 257.912477 294.209574 
L 257.932824 294.195257 
L 258.141381 294.136448 
L 258.370284 294.158328 
L 258.53306 294.16797 
L 258.70601 294.055196 
L 261.132388 294.261217 
L 261.437593 294.222405 
L 261.442679 294.233725 
L 261.574935 294.236605 
L 261.585108 294.222767 
L 261.768231 294.236471 
L 262.007308 294.258741 
L 263.731715 294.356971 
L 263.858884 294.383974 
L 263.991139 294.380496 
L 264.194609 294.436531 
L 264.331951 294.361242 
L 264.45912 294.365749 
L 264.810106 294.400163 
L 264.947448 294.43203 
L 264.952534 294.426163 
L 265.237392 294.516299 
L 265.532424 294.532642 
L 265.705373 294.498619 
L 265.71046 294.504008 
L 265.908843 294.505255 
L 266.025838 294.486549 
L 266.036011 294.498212 
L 266.539599 294.482118 
L 266.605727 294.467166 
L 266.651508 294.49974 
L 266.793937 294.49821 
L 267.19579 294.427017 
L 267.307698 294.380621 
L 267.689204 294.278956 
L 267.85198 294.263703 
L 268.019843 294.277689 
L 268.208052 294.379364 
L 268.411522 294.471838 
L 268.955804 294.646623 
L 269.403438 294.567632 
L 269.55604 294.550714 
L 269.75951 294.545911 
L 269.96298 294.594043 
L 270.095235 294.582729 
L 270.217317 294.578355 
L 270.425874 294.618494 
L 270.547956 294.644498 
L 271.270274 294.661075 
L 271.47883 294.709363 
L 272.409705 294.816745 
L 272.547047 294.869368 
L 272.719997 294.86702 
L 272.74543 294.873127 
L 272.806471 294.805034 
L 272.811558 294.803269 
L 273.193064 294.723691 
L 273.198151 294.735471 
L 274.332495 294.651875 
L 274.520705 294.680317 
L 274.978512 294.751611 
L 275.156548 294.768749 
L 275.288804 294.73985 
L 275.29389 294.749848 
L 275.67031 294.679844 
L 275.675396 294.695016 
L 276.51471 294.886295 
L 276.743613 294.888227 
L 277.348936 294.94801 
L 277.491365 294.918589 
L 278.574842 294.871801 
L 278.747791 294.848148 
L 279.037736 294.916824 
L 279.134384 294.924744 
L 279.154731 294.904667 
L 279.48537 294.957543 
L 279.617625 295.003665 
L 279.800748 294.990026 
L 279.958437 294.96627 
L 279.963524 294.971537 
L 280.136473 294.977745 
L 280.278902 294.981376 
L 280.411157 294.957881 
L 280.573933 294.905994 
L 280.848618 294.882761 
L 281.123302 294.841743 
L 281.199603 294.821086 
L 281.316598 293.527781 
L 281.545502 293.147249 
L 281.86088 293.154202 
L 282.216953 293.840374 
L 282.328861 294.986477 
L 282.333948 294.974609 
L 282.822275 294.839221 
L 282.934184 294.837983 
L 282.954531 294.827274 
L 283.035919 294.877083 
L 283.193608 294.886426 
L 283.33095 294.887617 
L 283.458119 294.950729 
L 283.595461 294.978341 
L 283.921013 295.070013 
L 284.032921 295.080164 
L 284.043095 295.068735 
L 284.165177 295.081099 
L 284.17535 295.068565 
L 284.322866 295.074605 
L 284.475468 295.100801 
L 284.480555 295.095378 
L 284.59755 295.08845 
L 284.755239 295.106991 
L 284.760326 295.102253 
L 285.889584 295.154789 
L 286.011666 295.122007 
L 286.021839 295.145379 
L 286.194788 295.173475 
L 286.327044 295.172739 
L 286.438952 295.195747 
L 286.454213 295.181429 
L 286.932367 295.196183 
L 287.100229 295.210572 
L 287.283352 295.172924 
L 287.288439 295.183787 
L 287.390174 295.1832 
L 287.400347 295.170306 
L 287.491909 295.183674 
L 287.507169 295.206427 
L 287.522429 295.142024 
L 287.603817 295.150349 
L 287.746246 295.123904 
L 287.868328 295.145541 
L 287.873415 295.140168 
L 287.995497 295.063552 
L 288.010757 295.070603 
L 288.499085 294.851365 
L 288.524518 294.82028 
L 288.539779 294.891452 
L 288.595733 294.891822 
L 288.61608 294.894825 
L 288.692381 294.838461 
L 290.371007 295.090688 
L 290.549044 295.257123 
L 290.72708 295.201523 
L 290.849162 295.175814 
L 291.062805 295.145587 
L 291.1798 295.17951 
L 291.286622 295.177035 
L 291.200147 295.16968 
L 291.296795 295.169805 
L 291.423964 295.154355 
L 291.429051 295.160501 
L 291.632521 295.173794 
L 292.288711 295.275691 
L 292.685477 295.355108 
L 292.807559 295.364051 
L 293.005942 295.375966 
L 293.148371 295.302424 
L 293.438316 295.201288 
L 293.448489 295.221248 
L 293.570571 295.18788 
L 298.937089 295.563862 
L 299.069344 295.560288 
L 299.461024 295.461834 
L 299.557672 295.472113 
L 299.572932 295.484439 
L 300.244383 295.465371 
L 300.361378 295.535239 
L 300.376638 295.526833 
L 300.803925 295.554111 
L 300.93618 295.545365 
L 300.961614 295.56074 
L 301.068436 295.507995 
L 301.383814 295.477247 
L 301.521156 295.473674 
L 301.689019 295.451613 
L 301.831448 295.408763 
L 301.933183 295.362953 
L 301.948443 295.376133 
L 302.070525 295.38027 
L 302.075611 295.391781 
L 302.207867 295.383902 
L 302.777582 295.529114 
L 303.06244 295.615977 
L 303.179435 295.5769 
L 303.189609 295.582341 
L 303.362558 295.630852 
L 303.723717 295.603051 
L 303.840713 295.577874 
L 303.850886 295.584398 
L 304.013662 295.629395 
L 304.644418 295.77326 
L 304.664765 295.789696 
L 304.781761 295.754425 
L 304.949623 295.761892 
L 305.010664 295.72523 
L 305.071705 295.757454 
L 305.280262 295.764023 
L 305.285349 295.749409 
L 306.00258 295.706384 
L 306.124662 295.686525 
L 306.287438 295.732841 
L 306.384086 295.765742 
L 306.404433 295.751166 
L 306.536688 295.726511 
L 306.541775 295.730928 
L 307.309874 295.733405 
L 307.421782 295.73305 
L 307.335307 295.750609 
L 307.431956 295.741801 
L 307.467563 295.725628 
L 307.554038 295.754656 
L 307.711727 295.683021 
L 307.716813 295.686101 
L 307.889763 295.654388 
L 308.016932 295.630231 
L 308.154274 295.675962 
L 308.164447 295.661714 
L 308.418784 295.662727 
L 308.515433 295.664226 
L 308.53578 295.641726 
L 308.688382 295.619334 
L 308.80029 295.615996 
L 308.851158 295.613769 
L 308.907112 295.650022 
L 309.044454 295.701857 
L 309.171623 295.677447 
L 309.181796 295.702685 
L 309.843074 295.86855 
L 309.970242 295.829705 
L 309.990589 295.84613 
L 310.163539 295.8318 
L 310.265274 295.827908 
L 310.199146 295.808947 
L 310.275447 295.815801 
L 310.422963 295.799256 
L 310.606086 295.862095 
L 310.901117 295.94083 
L 310.921464 295.957481 
L 311.007939 295.965791 
L 311.119847 296.033201 
L 311.150367 296.012777 
L 311.323317 295.966123 
L 311.440312 295.994274 
L 311.450485 295.978376 
L 311.643782 295.952146 
L 311.648869 295.959649 
L 313.052811 295.967425 
L 313.169806 295.954896 
L 313.312235 295.958346 
L 313.525878 295.984328 
L 313.810736 295.98504 
L 313.948078 295.990576 
L 314.10068 296.007752 
L 314.746697 295.92538 
L 314.965427 295.994463 
L 315.11803 295.986656 
L 315.296066 296.036106 
L 315.494449 296.069741 
L 315.998037 296.174734 
L 316.21168 296.229518 
L 316.216767 296.222592 
L 316.466018 296.185557 
L 317.371459 296.081249 
L 317.513887 296.121804 
L 317.518974 296.116271 
L 317.758051 296.174861 
L 317.90048 296.167997 
L 318.022562 296.161828 
L 318.231119 296.122112 
L 319.278989 296.207543 
L 319.421417 296.250697 
L 319.533326 296.252777 
L 319.538413 296.256108 
L 319.716449 296.236575 
L 319.930092 296.219685 
L 320.067434 296.263017 
L 320.077608 296.253433 
L 320.428593 296.175115 
L 320.535415 296.178482 
L 320.540502 296.168561 
L 320.647323 296.175744 
L 320.65241 296.183489 
L 320.794839 296.239084 
L 320.967788 296.199659 
L 321.110217 296.235482 
L 321.288253 296.256054 
L 325.769677 296.429183 
L 325.891759 296.451581 
L 326.161357 296.487759 
L 326.329219 296.418808 
L 326.664945 296.382017 
L 326.792113 296.352791 
L 326.944716 296.401921 
L 327.112578 296.464938 
L 327.361829 296.443936 
L 327.488998 296.456598 
L 327.494084 296.463548 
L 327.631427 296.429292 
L 327.773855 296.433471 
L 328.816639 296.382759 
L 328.943807 296.390918 
L 329.09641 296.386315 
L 329.218492 296.433944 
L 329.650865 296.497073 
L 329.813641 296.475084 
L 329.823814 296.490778 
L 330.266361 296.475616 
L 330.418964 296.413788 
L 330.551219 296.463256 
L 330.556306 296.458479 
L 330.663128 296.459977 
L 330.673301 296.473195 
L 330.810643 296.467692 
L 330.958159 296.482725 
L 331.156542 296.536578 
L 331.161629 296.525779 
L 331.243017 296.553767 
L 331.263364 296.575757 
L 331.543135 296.581603 
L 331.904294 296.546761 
L 332.041636 296.538708 
L 332.046723 296.543316 
L 332.158631 296.523486 
L 332.163718 296.514628 
L 332.896209 296.534875 
L 333.043725 296.548776 
L 333.654135 296.503905 
L 333.77113 296.479457 
L 333.776216 296.484321 
L 333.994947 296.555526 
L 334.488361 296.739859 
L 334.635877 296.739192 
L 334.798653 296.816376 
L 334.803739 296.807722 
L 335.114031 296.807939 
L 335.363281 296.791299 
L 335.861783 296.726603 
L 335.92791 296.753668 
L 335.973691 296.716971 
L 336.228028 296.659359 
L 336.400978 296.667489 
L 336.421325 296.645813 
L 336.467105 296.711267 
L 336.502713 296.702668 
L 337.174163 296.707997 
L 337.291158 296.707819 
L 337.418327 296.677719 
L 337.428501 296.693603 
L 337.972782 296.800155 
L 338.089778 296.818287 
L 338.995219 296.569849 
L 339.570021 296.657091 
L 339.615802 296.649467 
L 339.666669 296.706899 
L 339.687016 296.688867 
L 339.778578 296.674344 
L 339.976961 296.693444 
L 339.982047 296.677566 
L 340.302512 296.720447 
L 340.480549 296.737372 
L 340.551763 296.734771 
L 340.58737 296.763266 
L 340.745059 296.779717 
L 340.755233 296.763227 
L 340.897662 296.767751 
L 341.116392 296.81621 
L 341.457204 296.88368 
L 341.553852 296.905158 
L 341.564026 296.927294 
L 342.001486 297.006102 
L 342.184609 296.897349 
L 343.441035 296.855844 
L 343.634331 296.765497 
L 343.644505 296.777647 
L 343.847975 296.791133 
L 344.015837 296.840049 
L 344.143006 296.842678 
L 344.290522 296.86047 
L 344.432951 296.871771 
L 344.610987 296.872129 
L 344.748329 296.852627 
L 344.870411 296.846574 
L 345.053534 296.817485 
L 345.46556 296.875432 
L 345.66903 296.853151 
L 345.740245 296.851762 
L 345.770765 296.881581 
L 345.908107 296.9118 
L 346.147184 296.940706 
L 346.299787 296.902573 
L 346.411695 296.896158 
L 346.421869 296.881879 
L 346.533777 296.886377 
L 346.543951 296.897546 
L 346.691466 296.90971 
L 346.930543 296.857662 
L 347.078059 296.823294 
L 347.851244 296.817537 
L 348.003847 296.894268 
L 348.151363 296.898671 
L 348.314138 296.96653 
L 348.497261 296.974797 
L 348.822813 297.037341 
L 348.960155 297.010473 
L 349.911377 297.098222 
L 350.018199 297.107535 
L 350.033459 297.086393 
L 350.54722 296.975069 
L 350.730343 296.976003 
L 350.872772 297.032154 
L 351.045721 297.089181 
L 351.228844 297.114504 
L 351.350926 297.134568 
L 351.3611 297.128185 
L 351.62561 297.061712 
L 351.722259 297.066016 
L 351.747692 297.030078 
L 352.134285 296.959105 
L 352.261454 296.993496 
L 352.266541 296.988066 
L 352.312321 297.023919 
L 352.378449 297.015341 
L 352.551398 297.065929 
L 352.724348 297.101443 
L 352.851516 297.092068 
L 353.105854 297.037909 
L 353.619615 296.827396 
L 353.777304 296.826599 
L 353.960427 296.78646 
L 354.469102 296.951478 
L 354.59627 296.956761 
L 354.774307 297.007088 
L 354.779393 297.002592 
L 354.901475 297.04763 
L 355.043904 297.087726 
L 355.171073 297.065185 
L 355.17616 297.072268 
L 355.430497 297.043093 
L 355.527145 297.072421 
L 355.537319 297.086687 
L 355.883217 297.183811 
L 356.061254 297.128871 
L 356.183335 297.138162 
L 356.549581 297.174615 
L 356.798832 297.146147 
L 356.946347 297.194537 
L 357.063343 297.196835 
L 357.068429 297.200162 
L 357.170164 297.178744 
L 357.180338 297.166371 
L 357.485543 297.064011 
L 359.932268 297.206992 
L 360.028916 297.24698 
L 360.034003 297.251854 
L 360.242559 297.26518 
L 360.390075 297.24979 
L 361.010658 297.19195 
L 361.122566 297.1474 
L 361.13274 297.153514 
L 361.361644 297.17581 
L 361.402338 297.170314 
L 361.463378 297.217532 
L 361.834711 297.221307 
L 362.012747 297.25139 
L 362.368819 297.246079 
L 362.501075 297.261629 
L 362.592636 297.274528 
L 362.607896 297.2913 
L 362.82154 297.344498 
L 363.004663 297.371424 
L 363.142005 297.372648 
L 364.586641 297.354905 
L 364.718896 297.362457 
L 364.983407 297.449939 
L 365.095316 297.440119 
L 365.105489 297.447119 
L 365.288612 297.485297 
L 365.395434 297.497354 
L 365.40052 297.500627 
L 365.593817 297.480266 
L 365.746419 297.460368 
L 365.848154 297.413669 
L 366.071971 297.415719 
L 366.188966 297.384053 
L 366.428043 297.384462 
L 366.555212 297.388541 
L 366.987585 297.426905 
L 367.094407 297.449017 
L 367.099494 297.456678 
L 367.257183 297.468149 
L 367.26227 297.460631 
L 367.409785 297.445354 
L 367.521694 297.401484 
L 367.704817 297.353361 
L 367.867592 297.337038 
L 367.938807 297.297228 
L 367.989674 297.319223 
L 368.132103 297.275383 
L 368.920549 297.537711 
L 369.129106 297.557142 
L 369.271535 297.548414 
L 369.368183 297.533781 
L 369.383443 297.515976 
L 369.602173 297.472531 
L 369.749689 297.469793 
L 369.871771 297.480387 
L 369.876857 297.488628 
L 370.136281 297.511567 
L 370.161715 297.533074 
L 370.27871 297.505745 
L 370.441486 297.526235 
L 370.639869 297.507983 
L 370.88912 297.510604 
L 371.07733 297.466565 
L 371.204498 297.50216 
L 372.17098 297.767264 
L 373.076421 297.538156 
L 373.269717 297.539232 
L 373.274804 297.529358 
L 373.366366 297.563115 
L 373.325672 297.573489 
L 373.371452 297.571749 
L 373.549488 297.682823 
L 373.559662 297.671629 
L 374.134464 297.677387 
L 374.231113 297.327989 
L 374.25146 297.330269 
L 374.460016 297.135771 
L 374.531231 297.128092 
L 374.561751 297.096068 
L 374.71944 297.086862 
L 374.89239 297.151367 
L 375.151814 297.333478 
L 375.177247 297.618736 
L 375.263722 297.598167 
L 375.497712 297.676155 
L 375.716443 297.647392 
L 375.909739 297.577852 
L 376.011474 297.533343 
L 376.657491 297.426153 
L 376.794833 297.466127 
L 376.79992 297.459187 
L 376.911828 297.519447 
L 377.349288 297.578898 
L 377.476457 297.569561 
L 377.583279 297.530834 
L 378.203862 297.512112 
L 378.427679 297.513184 
L 378.565021 297.532552 
L 378.712536 297.56522 
L 378.839705 297.594899 
L 378.977047 297.638278 
L 378.992307 297.625462 
L 379.658671 297.676006 
L 379.78584 297.689146 
L 379.928269 297.699936 
L 380.055437 297.773523 
L 380.070698 297.751686 
L 380.213127 297.721441 
L 380.61498 297.709922 
L 380.920184 297.592542 
L 381.05244 297.541405 
L 381.205042 297.545892 
L 381.337298 297.564656 
L 381.428859 297.552917 
L 381.454293 297.568873 
L 381.734064 297.633962 
L 381.871406 297.652178 
L 381.881579 297.668807 
L 382.085049 297.694267 
L 382.207131 297.723737 
L 382.324126 297.704401 
L 382.446208 297.720788 
L 383.244828 297.835011 
L 383.392343 297.921795 
L 383.39743 297.919387 
L 383.595813 297.967004 
L 383.6009 297.960652 
L 383.763676 297.927042 
L 383.911191 297.914688 
L 383.921365 297.898903 
L 384.262177 297.751504 
L 384.394432 297.729668 
L 384.501254 297.690573 
L 384.643683 297.671744 
L 385.264266 297.814356 
L 385.452476 297.826684 
L 385.594905 297.830571 
L 385.716986 297.816796 
L 386.347743 297.799656 
L 386.769943 297.799698 
L 386.886938 297.813679 
L 387.146362 297.826064 
L 387.456654 297.752608 
L 387.573649 297.806873 
L 387.588909 297.795023 
L 387.705904 297.82251 
L 388.051803 297.814495 
L 390.778299 298.019303 
L 390.930902 298.00749 
L 392.166981 297.91399 
L 392.32467 297.941018 
L 392.492533 297.969091 
L 392.828258 298.062901 
L 392.914733 298.077959 
L 392.93508 298.089911 
L 393.041902 298.072621 
L 393.057162 298.044141 
L 393.296239 298.01441 
L 393.469188 297.998852 
L 393.728612 297.9986 
L 393.855781 298.026751 
L 393.865955 298.014469 
L 394.486538 297.972837 
L 394.618793 297.985433 
L 395.091861 298.024603 
L 395.203769 298.043052 
L 395.234289 298.063146 
L 395.310591 298.016413 
L 395.90574 298.100803 
L 395.982041 298.102622 
L 396.017648 298.130101 
L 396.216032 298.147625 
L 396.322853 298.196858 
L 396.465282 298.245315 
L 396.704359 298.221173 
L 396.877309 298.124495 
L 396.887482 298.136746 
L 397.330029 298.121855 
L 397.452111 298.137334 
L 397.711535 298.249831 
L 397.874311 298.328337 
L 398.011653 298.327279 
L 398.199863 298.297086 
L 398.311771 298.264413 
L 398.449113 298.223568 
L 398.627149 298.208258 
L 398.733971 298.196841 
L 398.749231 298.203311 
L 398.998482 298.164578 
L 399.441029 298.092461 
L 399.451202 298.110206 
L 399.48681 298.067325 
L 399.547851 298.069061 
L 399.822535 298.076526 
L 399.883576 298.042924 
L 399.934443 298.086522 
L 400.087046 298.120626 
L 400.092132 298.113488 
L 400.219301 298.109441 
L 400.229475 298.122358 
L 400.371904 298.154915 
L 400.509246 298.101881 
L 400.514332 298.105209 
L 400.626241 298.108561 
L 400.631328 298.105065 
L 400.773757 298.094155 
L 400.778843 298.102007 
L 400.906012 298.129425 
L 400.911099 298.119686 
L 401.038267 298.088875 
L 401.043354 298.074485 
L 401.170523 298.081113 
L 401.277344 298.070277 
L 401.282431 298.061394 
L 401.872494 298.074057 
L 402.004749 298.096392 
L 402.009836 298.086744 
L 402.208219 298.086008 
L 402.213306 298.1008 
L 403.164527 298.221337 
L 403.30187 298.216555 
L 403.306956 298.22201 
L 403.510426 298.208951 
L 403.622335 298.209916 
L 403.637595 298.224865 
L 403.75459 298.164396 
L 403.95806 298.131941 
L 403.968233 298.154359 
L 404.125923 298.23958 
L 404.242918 298.275214 
L 404.253091 298.267891 
L 404.61425 298.301813 
L 404.949975 298.349268 
L 405.143272 298.336182 
L 405.88085 298.246729 
L 406.018192 298.28917 
L 406.028366 298.279555 
L 406.196228 298.277554 
L 406.369178 298.30194 
L 406.531954 298.337681 
L 406.659122 298.333981 
L 406.806638 298.319232 
L 407.77312 298.355471 
L 407.956243 298.423678 
L 408.683648 298.404434 
L 408.953245 298.360729 
L 409.197409 298.330357 
L 409.304231 298.313469 
L 409.329664 298.332487 
L 409.706084 298.379168 
L 409.909553 298.419907 
L 410.036722 298.392185 
L 410.041809 298.405028 
L 410.148631 298.392737 
L 410.158804 298.381726 
L 411.206674 298.467847 
L 411.39997 298.532003 
L 411.486445 298.595979 
L 411.496618 298.587298 
L 411.628874 298.623088 
L 411.633961 298.614931 
L 412.137548 298.550856 
L 413.343107 298.545942 
L 414.360457 298.581763 
L 414.930172 298.573854 
L 415.087862 298.640213 
L 415.092948 298.636793 
L 415.337112 298.675155 
L 415.454107 298.6618 
L 415.708445 298.605113 
L 415.85596 298.580975 
L 415.861047 298.586788 
L 415.947522 298.557058 
L 415.962782 298.540079 
L 416.206946 298.564666 
L 416.384982 298.58083 
L 416.390069 298.572999 
L 416.797008 298.639949 
L 417.010652 298.67495 
L 417.1073 298.638936 
L 417.13782 298.662189 
L 417.631235 298.737104 
L 417.941526 298.724781 
L 418.119563 298.697953 
L 418.241644 298.705894 
L 418.246731 298.699429 
L 419.996572 298.693338 
L 420.149174 298.708247 
L 420.642589 298.705767 
L 420.754497 298.696541 
L 420.759584 298.68839 
L 420.9071 298.642653 
L 421.054615 298.601085 
L 421.166524 298.610423 
L 421.497162 298.63852 
L 421.624331 298.662954 
L 423.45556 298.714049 
L 423.684463 298.763791 
L 423.791285 298.835097 
L 425.841244 298.739265 
L 425.876851 298.705694 
L 425.953152 298.746228 
L 426.324485 298.696671 
L 426.482174 298.706576 
L 426.807726 298.685716 
L 426.939981 298.713528 
L 427.09767 298.737087 
L 427.682646 298.890023 
L 427.789468 298.930798 
L 427.809815 298.916059 
L 428.511786 298.741892 
L 429.086588 298.906391 
L 429.087097 298.90135 
" clip-path="url(#p9ea1e9cf19)" style="fill: none; stroke: #76b900; stroke-opacity: 0.7; stroke-width: 1.5; stroke-linecap: square"/>
   </g>
   <g id="patch_3">
    <path d="M 46.08 311.04 
L 46.08 69.12 
" style="fill: none; stroke: #000000; stroke-width: 0.8; stroke-linejoin: miter; stroke-linecap: square"/>
   </g>
   <g id="patch_4">
    <path d="M 437.76 311.04 
L 437.76 69.12 
" style="fill: none; stroke: #000000; stroke-width: 0.8; stroke-linejoin: miter; stroke-linecap: square"/>
   </g>
   <g id="patch_5">
    <path d="M 46.08 311.04 
L 437.76 311.04 
" style="fill: none; stroke: #000000; stroke-width: 0.8; stroke-linejoin: miter; stroke-linecap: square"/>
   </g>
   <g id="patch_6">
    <path d="M 46.08 69.12 
L 437.76 69.12 
" style="fill: none; stroke: #000000; stroke-width: 0.8; stroke-linejoin: miter; stroke-linecap: square"/>
   </g>
   <g id="text_18">
    <!-- Transformer layers: 24 | Hidden size: 1024 | Attention heads: 32 | -->
    <g transform="translate(105.486314 53.516812)scale(0.0833 -0.0833)">
     <defs>
      <path id="DejaVuSans-66" d="M 2375 4863 
L 2375 4384 
L 1825 4384 
Q 1516 4384 1395 4259 
Q 1275 4134 1275 3809 
L 1275 3500 
L 2222 3500 
L 2222 3053 
L 1275 3053 
L 1275 0 
L 697 0 
L 697 3053 
L 147 3053 
L 147 3500 
L 697 3500 
L 697 3744 
Q 697 4328 969 4595 
Q 1241 4863 1831 4863 
L 2375 4863 
z
" transform="scale(0.015625)"/>
      <path id="DejaVuSans-6d" d="M 3328 2828 
Q 3544 3216 3844 3400 
Q 4144 3584 4550 3584 
Q 5097 3584 5394 3201 
Q 5691 2819 5691 2113 
L 5691 0 
L 5113 0 
L 5113 2094 
Q 5113 2597 4934 2840 
Q 4756 3084 4391 3084 
Q 3944 3084 3684 2787 
Q 3425 2491 3425 1978 
L 3425 0 
L 2847 0 
L 2847 2094 
Q 2847 2600 2669 2842 
Q 2491 3084 2119 3084 
Q 1678 3084 1418 2786 
Q 1159 2488 1159 1978 
L 1159 0 
L 581 0 
L 581 3500 
L 1159 3500 
L 1159 2956 
Q 1356 3278 1631 3431 
Q 1906 3584 2284 3584 
Q 2666 3584 2933 3390 
Q 3200 3197 3328 2828 
z
" transform="scale(0.015625)"/>
      <path id="DejaVuSans-79" d="M 2059 -325 
Q 1816 -950 1584 -1140 
Q 1353 -1331 966 -1331 
L 506 -1331 
L 506 -850 
L 844 -850 
Q 1081 -850 1212 -737 
Q 1344 -625 1503 -206 
L 1606 56 
L 191 3500 
L 800 3500 
L 1894 763 
L 2988 3500 
L 3597 3500 
L 2059 -325 
z
" transform="scale(0.015625)"/>
      <path id="DejaVuSans-3a" d="M 750 794 
L 1409 794 
L 1409 0 
L 750 0 
L 750 794 
z
M 750 3309 
L 1409 3309 
L 1409 2516 
L 750 2516 
L 750 3309 
z
" transform="scale(0.015625)"/>
      <path id="DejaVuSans-7c" d="M 1344 4891 
L 1344 -1509 
L 813 -1509 
L 813 4891 
L 1344 4891 
z
" transform="scale(0.015625)"/>
      <path id="DejaVuSans-48" d="M 628 4666 
L 1259 4666 
L 1259 2753 
L 3553 2753 
L 3553 4666 
L 4184 4666 
L 4184 0 
L 3553 0 
L 3553 2222 
L 1259 2222 
L 1259 0 
L 628 0 
L 628 4666 
z
" transform="scale(0.015625)"/>
      <path id="DejaVuSans-64" d="M 2906 2969 
L 2906 4863 
L 3481 4863 
L 3481 0 
L 2906 0 
L 2906 525 
Q 2725 213 2448 61 
Q 2172 -91 1784 -91 
Q 1150 -91 751 415 
Q 353 922 353 1747 
Q 353 2572 751 3078 
Q 1150 3584 1784 3584 
Q 2172 3584 2448 3432 
Q 2725 3281 2906 2969 
z
M 947 1747 
Q 947 1113 1208 752 
Q 1469 391 1925 391 
Q 2381 391 2643 752 
Q 2906 1113 2906 1747 
Q 2906 2381 2643 2742 
Q 2381 3103 1925 3103 
Q 1469 3103 1208 2742 
Q 947 2381 947 1747 
z
" transform="scale(0.015625)"/>
      <path id="DejaVuSans-7a" d="M 353 3500 
L 3084 3500 
L 3084 2975 
L 922 459 
L 3084 459 
L 3084 0 
L 275 0 
L 275 525 
L 2438 3041 
L 353 3041 
L 353 3500 
z
" transform="scale(0.015625)"/>
      <path id="DejaVuSans-41" d="M 2188 4044 
L 1331 1722 
L 3047 1722 
L 2188 4044 
z
M 1831 4666 
L 2547 4666 
L 4325 0 
L 3669 0 
L 3244 1197 
L 1141 1197 
L 716 0 
L 50 0 
L 1831 4666 
z
" transform="scale(0.015625)"/>
      <path id="DejaVuSans-68" d="M 3513 2113 
L 3513 0 
L 2938 0 
L 2938 2094 
Q 2938 2591 2744 2837 
Q 2550 3084 2163 3084 
Q 1697 3084 1428 2787 
Q 1159 2491 1159 1978 
L 1159 0 
L 581 0 
L 581 4863 
L 1159 4863 
L 1159 2956 
Q 1366 3272 1645 3428 
Q 1925 3584 2291 3584 
Q 2894 3584 3203 3211 
Q 3513 2838 3513 2113 
z
" transform="scale(0.015625)"/>
     </defs>
     <use xlink:href="#DejaVuSans-54"/>
     <use xlink:href="#DejaVuSans-72" x="46.333984"/>
     <use xlink:href="#DejaVuSans-61" x="87.447266"/>
     <use xlink:href="#DejaVuSans-6e" x="148.726562"/>
     <use xlink:href="#DejaVuSans-73" x="212.105469"/>
     <use xlink:href="#DejaVuSans-66" x="264.205078"/>
     <use xlink:href="#DejaVuSans-6f" x="299.410156"/>
     <use xlink:href="#DejaVuSans-72" x="360.591797"/>
     <use xlink:href="#DejaVuSans-6d" x="399.955078"/>
     <use xlink:href="#DejaVuSans-65" x="497.367188"/>
     <use xlink:href="#DejaVuSans-72" x="558.890625"/>
     <use xlink:href="#DejaVuSans-20" x="600.003906"/>
     <use xlink:href="#DejaVuSans-6c" x="631.791016"/>
     <use xlink:href="#DejaVuSans-61" x="659.574219"/>
     <use xlink:href="#DejaVuSans-79" x="720.853516"/>
     <use xlink:href="#DejaVuSans-65" x="780.033203"/>
     <use xlink:href="#DejaVuSans-72" x="841.556641"/>
     <use xlink:href="#DejaVuSans-73" x="882.669922"/>
     <use xlink:href="#DejaVuSans-3a" x="934.769531"/>
     <use xlink:href="#DejaVuSans-20" x="968.460938"/>
     <use xlink:href="#DejaVuSans-32" x="1000.248047"/>
     <use xlink:href="#DejaVuSans-34" x="1063.871094"/>
     <use xlink:href="#DejaVuSans-20" x="1127.494141"/>
     <use xlink:href="#DejaVuSans-7c" x="1159.28125"/>
     <use xlink:href="#DejaVuSans-20" x="1192.972656"/>
     <use xlink:href="#DejaVuSans-48" x="1224.759766"/>
     <use xlink:href="#DejaVuSans-69" x="1299.955078"/>
     <use xlink:href="#DejaVuSans-64" x="1327.738281"/>
     <use xlink:href="#DejaVuSans-64" x="1391.214844"/>
     <use xlink:href="#DejaVuSans-65" x="1454.691406"/>
     <use xlink:href="#DejaVuSans-6e" x="1516.214844"/>
     <use xlink:href="#DejaVuSans-20" x="1579.59375"/>
     <use xlink:href="#DejaVuSans-73" x="1611.380859"/>
     <use xlink:href="#DejaVuSans-69" x="1663.480469"/>
     <use xlink:href="#DejaVuSans-7a" x="1691.263672"/>
     <use xlink:href="#DejaVuSans-65" x="1743.753906"/>
     <use xlink:href="#DejaVuSans-3a" x="1805.277344"/>
     <use xlink:href="#DejaVuSans-20" x="1838.96875"/>
     <use xlink:href="#DejaVuSans-31" x="1870.755859"/>
     <use xlink:href="#DejaVuSans-30" x="1934.378906"/>
     <use xlink:href="#DejaVuSans-32" x="1998.001953"/>
     <use xlink:href="#DejaVuSans-34" x="2061.625"/>
     <use xlink:href="#DejaVuSans-20" x="2125.248047"/>
     <use xlink:href="#DejaVuSans-7c" x="2157.035156"/>
     <use xlink:href="#DejaVuSans-20" x="2190.726562"/>
     <use xlink:href="#DejaVuSans-41" x="2222.513672"/>
     <use xlink:href="#DejaVuSans-74" x="2289.171875"/>
     <use xlink:href="#DejaVuSans-74" x="2328.380859"/>
     <use xlink:href="#DejaVuSans-65" x="2367.589844"/>
     <use xlink:href="#DejaVuSans-6e" x="2429.113281"/>
     <use xlink:href="#DejaVuSans-74" x="2492.492188"/>
     <use xlink:href="#DejaVuSans-69" x="2531.701172"/>
     <use xlink:href="#DejaVuSans-6f" x="2559.484375"/>
     <use xlink:href="#DejaVuSans-6e" x="2620.666016"/>
     <use xlink:href="#DejaVuSans-20" x="2684.044922"/>
     <use xlink:href="#DejaVuSans-68" x="2715.832031"/>
     <use xlink:href="#DejaVuSans-65" x="2779.210938"/>
     <use xlink:href="#DejaVuSans-61" x="2840.734375"/>
     <use xlink:href="#DejaVuSans-64" x="2902.013672"/>
     <use xlink:href="#DejaVuSans-73" x="2965.490234"/>
     <use xlink:href="#DejaVuSans-3a" x="3017.589844"/>
     <use xlink:href="#DejaVuSans-20" x="3051.28125"/>
     <use xlink:href="#DejaVuSans-33" x="3083.068359"/>
     <use xlink:href="#DejaVuSans-32" x="3146.691406"/>
     <use xlink:href="#DejaVuSans-20" x="3210.314453"/>
     <use xlink:href="#DejaVuSans-7c" x="3242.101562"/>
    </g>
    <!--  Seq_len: 512 | Optimizer: Adam | Tensor Parallelism: 2 -->
    <g transform="translate(127.726763 63.12)scale(0.0833 -0.0833)">
     <defs>
      <path id="DejaVuSans-53" d="M 3425 4513 
L 3425 3897 
Q 3066 4069 2747 4153 
Q 2428 4238 2131 4238 
Q 1616 4238 1336 4038 
Q 1056 3838 1056 3469 
Q 1056 3159 1242 3001 
Q 1428 2844 1947 2747 
L 2328 2669 
Q 3034 2534 3370 2195 
Q 3706 1856 3706 1288 
Q 3706 609 3251 259 
Q 2797 -91 1919 -91 
Q 1588 -91 1214 -16 
Q 841 59 441 206 
L 441 856 
Q 825 641 1194 531 
Q 1563 422 1919 422 
Q 2459 422 2753 634 
Q 3047 847 3047 1241 
Q 3047 1584 2836 1778 
Q 2625 1972 2144 2069 
L 1759 2144 
Q 1053 2284 737 2584 
Q 422 2884 422 3419 
Q 422 4038 858 4394 
Q 1294 4750 2059 4750 
Q 2388 4750 2728 4690 
Q 3069 4631 3425 4513 
z
" transform="scale(0.015625)"/>
      <path id="DejaVuSans-71" d="M 947 1747 
Q 947 1113 1208 752 
Q 1469 391 1925 391 
Q 2381 391 2643 752 
Q 2906 1113 2906 1747 
Q 2906 2381 2643 2742 
Q 2381 3103 1925 3103 
Q 1469 3103 1208 2742 
Q 947 2381 947 1747 
z
M 2906 525 
Q 2725 213 2448 61 
Q 2172 -91 1784 -91 
Q 1150 -91 751 415 
Q 353 922 353 1747 
Q 353 2572 751 3078 
Q 1150 3584 1784 3584 
Q 2172 3584 2448 3432 
Q 2725 3281 2906 2969 
L 2906 3500 
L 3481 3500 
L 3481 -1331 
L 2906 -1331 
L 2906 525 
z
" transform="scale(0.015625)"/>
      <path id="DejaVuSans-5f" d="M 3263 -1063 
L 3263 -1509 
L -63 -1509 
L -63 -1063 
L 3263 -1063 
z
" transform="scale(0.015625)"/>
      <path id="DejaVuSans-4f" d="M 2522 4238 
Q 1834 4238 1429 3725 
Q 1025 3213 1025 2328 
Q 1025 1447 1429 934 
Q 1834 422 2522 422 
Q 3209 422 3611 934 
Q 4013 1447 4013 2328 
Q 4013 3213 3611 3725 
Q 3209 4238 2522 4238 
z
M 2522 4750 
Q 3503 4750 4090 4092 
Q 4678 3434 4678 2328 
Q 4678 1225 4090 567 
Q 3503 -91 2522 -91 
Q 1538 -91 948 565 
Q 359 1222 359 2328 
Q 359 3434 948 4092 
Q 1538 4750 2522 4750 
z
" transform="scale(0.015625)"/>
      <path id="DejaVuSans-70" d="M 1159 525 
L 1159 -1331 
L 581 -1331 
L 581 3500 
L 1159 3500 
L 1159 2969 
Q 1341 3281 1617 3432 
Q 1894 3584 2278 3584 
Q 2916 3584 3314 3078 
Q 3713 2572 3713 1747 
Q 3713 922 3314 415 
Q 2916 -91 2278 -91 
Q 1894 -91 1617 61 
Q 1341 213 1159 525 
z
M 3116 1747 
Q 3116 2381 2855 2742 
Q 2594 3103 2138 3103 
Q 1681 3103 1420 2742 
Q 1159 2381 1159 1747 
Q 1159 1113 1420 752 
Q 1681 391 2138 391 
Q 2594 391 2855 752 
Q 3116 1113 3116 1747 
z
" transform="scale(0.015625)"/>
      <path id="DejaVuSans-50" d="M 1259 4147 
L 1259 2394 
L 2053 2394 
Q 2494 2394 2734 2622 
Q 2975 2850 2975 3272 
Q 2975 3691 2734 3919 
Q 2494 4147 2053 4147 
L 1259 4147 
z
M 628 4666 
L 2053 4666 
Q 2838 4666 3239 4311 
Q 3641 3956 3641 3272 
Q 3641 2581 3239 2228 
Q 2838 1875 2053 1875 
L 1259 1875 
L 1259 0 
L 628 0 
L 628 4666 
z
" transform="scale(0.015625)"/>
     </defs>
     <use xlink:href="#DejaVuSans-20"/>
     <use xlink:href="#DejaVuSans-53" x="31.787109"/>
     <use xlink:href="#DejaVuSans-65" x="95.263672"/>
     <use xlink:href="#DejaVuSans-71" x="156.787109"/>
     <use xlink:href="#DejaVuSans-5f" x="220.263672"/>
     <use xlink:href="#DejaVuSans-6c" x="270.263672"/>
     <use xlink:href="#DejaVuSans-65" x="298.046875"/>
     <use xlink:href="#DejaVuSans-6e" x="359.570312"/>
     <use xlink:href="#DejaVuSans-3a" x="422.949219"/>
     <use xlink:href="#DejaVuSans-20" x="456.640625"/>
     <use xlink:href="#DejaVuSans-35" x="488.427734"/>
     <use xlink:href="#DejaVuSans-31" x="552.050781"/>
     <use xlink:href="#DejaVuSans-32" x="615.673828"/>
     <use xlink:href="#DejaVuSans-20" x="679.296875"/>
     <use xlink:href="#DejaVuSans-7c" x="711.083984"/>
     <use xlink:href="#DejaVuSans-20" x="744.775391"/>
     <use xlink:href="#DejaVuSans-4f" x="776.5625"/>
     <use xlink:href="#DejaVuSans-70" x="855.273438"/>
     <use xlink:href="#DejaVuSans-74" x="918.75"/>
     <use xlink:href="#DejaVuSans-69" x="957.958984"/>
     <use xlink:href="#DejaVuSans-6d" x="985.742188"/>
     <use xlink:href="#DejaVuSans-69" x="1083.154297"/>
     <use xlink:href="#DejaVuSans-7a" x="1110.9375"/>
     <use xlink:href="#DejaVuSans-65" x="1163.427734"/>
     <use xlink:href="#DejaVuSans-72" x="1224.951172"/>
     <use xlink:href="#DejaVuSans-3a" x="1264.314453"/>
     <use xlink:href="#DejaVuSans-20" x="1298.005859"/>
     <use xlink:href="#DejaVuSans-41" x="1329.792969"/>
     <use xlink:href="#DejaVuSans-64" x="1396.451172"/>
     <use xlink:href="#DejaVuSans-61" x="1459.927734"/>
     <use xlink:href="#DejaVuSans-6d" x="1521.207031"/>
     <use xlink:href="#DejaVuSans-20" x="1618.619141"/>
     <use xlink:href="#DejaVuSans-7c" x="1650.40625"/>
     <use xlink:href="#DejaVuSans-20" x="1684.097656"/>
     <use xlink:href="#DejaVuSans-54" x="1715.884766"/>
     <use xlink:href="#DejaVuSans-65" x="1759.96875"/>
     <use xlink:href="#DejaVuSans-6e" x="1821.492188"/>
     <use xlink:href="#DejaVuSans-73" x="1884.871094"/>
     <use xlink:href="#DejaVuSans-6f" x="1936.970703"/>
     <use xlink:href="#DejaVuSans-72" x="1998.152344"/>
     <use xlink:href="#DejaVuSans-20" x="2039.265625"/>
     <use xlink:href="#DejaVuSans-50" x="2071.052734"/>
     <use xlink:href="#DejaVuSans-61" x="2126.855469"/>
     <use xlink:href="#DejaVuSans-72" x="2188.134766"/>
     <use xlink:href="#DejaVuSans-61" x="2229.248047"/>
     <use xlink:href="#DejaVuSans-6c" x="2290.527344"/>
     <use xlink:href="#DejaVuSans-6c" x="2318.310547"/>
     <use xlink:href="#DejaVuSans-65" x="2346.09375"/>
     <use xlink:href="#DejaVuSans-6c" x="2407.617188"/>
     <use xlink:href="#DejaVuSans-69" x="2435.400391"/>
     <use xlink:href="#DejaVuSans-73" x="2463.183594"/>
     <use xlink:href="#DejaVuSans-6d" x="2515.283203"/>
     <use xlink:href="#DejaVuSans-3a" x="2612.695312"/>
     <use xlink:href="#DejaVuSans-20" x="2646.386719"/>
     <use xlink:href="#DejaVuSans-32" x="2678.173828"/>
    </g>
   </g>
  </g>
  <g id="text_19">
   <!-- 3B T5 Training Loss (750B Tokens) -->
   <g transform="translate(128.174062 26.398125)scale(0.12 -0.12)">
    <defs>
     <path id="DejaVuSans-42" d="M 1259 2228 
L 1259 519 
L 2272 519 
Q 2781 519 3026 730 
Q 3272 941 3272 1375 
Q 3272 1813 3026 2020 
Q 2781 2228 2272 2228 
L 1259 2228 
z
M 1259 4147 
L 1259 2741 
L 2194 2741 
Q 2656 2741 2882 2914 
Q 3109 3088 3109 3444 
Q 3109 3797 2882 3972 
Q 2656 4147 2194 4147 
L 1259 4147 
z
M 628 4666 
L 2241 4666 
Q 2963 4666 3353 4366 
Q 3744 4066 3744 3513 
Q 3744 3084 3544 2831 
Q 3344 2578 2956 2516 
Q 3422 2416 3680 2098 
Q 3938 1781 3938 1306 
Q 3938 681 3513 340 
Q 3088 0 2303 0 
L 628 0 
L 628 4666 
z
" transform="scale(0.015625)"/>
     <path id="DejaVuSans-4c" d="M 628 4666 
L 1259 4666 
L 1259 531 
L 3531 531 
L 3531 0 
L 628 0 
L 628 4666 
z
" transform="scale(0.015625)"/>
     <path id="DejaVuSans-28" d="M 1984 4856 
Q 1566 4138 1362 3434 
Q 1159 2731 1159 2009 
Q 1159 1288 1364 580 
Q 1569 -128 1984 -844 
L 1484 -844 
Q 1016 -109 783 600 
Q 550 1309 550 2009 
Q 550 2706 781 3412 
Q 1013 4119 1484 4856 
L 1984 4856 
z
" transform="scale(0.015625)"/>
     <path id="DejaVuSans-6b" d="M 581 4863 
L 1159 4863 
L 1159 1991 
L 2875 3500 
L 3609 3500 
L 1753 1863 
L 3688 0 
L 2938 0 
L 1159 1709 
L 1159 0 
L 581 0 
L 581 4863 
z
" transform="scale(0.015625)"/>
     <path id="DejaVuSans-29" d="M 513 4856 
L 1013 4856 
Q 1481 4119 1714 3412 
Q 1947 2706 1947 2009 
Q 1947 1309 1714 600 
Q 1481 -109 1013 -844 
L 513 -844 
Q 928 -128 1133 580 
Q 1338 1288 1338 2009 
Q 1338 2731 1133 3434 
Q 928 4138 513 4856 
z
" transform="scale(0.015625)"/>
    </defs>
    <use xlink:href="#DejaVuSans-33"/>
    <use xlink:href="#DejaVuSans-42" x="63.623047"/>
    <use xlink:href="#DejaVuSans-20" x="132.226562"/>
    <use xlink:href="#DejaVuSans-54" x="164.013672"/>
    <use xlink:href="#DejaVuSans-35" x="225.097656"/>
    <use xlink:href="#DejaVuSans-20" x="288.720703"/>
    <use xlink:href="#DejaVuSans-54" x="320.507812"/>
    <use xlink:href="#DejaVuSans-72" x="366.841797"/>
    <use xlink:href="#DejaVuSans-61" x="407.955078"/>
    <use xlink:href="#DejaVuSans-69" x="469.234375"/>
    <use xlink:href="#DejaVuSans-6e" x="497.017578"/>
    <use xlink:href="#DejaVuSans-69" x="560.396484"/>
    <use xlink:href="#DejaVuSans-6e" x="588.179688"/>
    <use xlink:href="#DejaVuSans-67" x="651.558594"/>
    <use xlink:href="#DejaVuSans-20" x="715.035156"/>
    <use xlink:href="#DejaVuSans-4c" x="746.822266"/>
    <use xlink:href="#DejaVuSans-6f" x="800.785156"/>
    <use xlink:href="#DejaVuSans-73" x="861.966797"/>
    <use xlink:href="#DejaVuSans-73" x="914.066406"/>
    <use xlink:href="#DejaVuSans-20" x="966.166016"/>
    <use xlink:href="#DejaVuSans-28" x="997.953125"/>
    <use xlink:href="#DejaVuSans-37" x="1036.966797"/>
    <use xlink:href="#DejaVuSans-35" x="1100.589844"/>
    <use xlink:href="#DejaVuSans-30" x="1164.212891"/>
    <use xlink:href="#DejaVuSans-42" x="1227.835938"/>
    <use xlink:href="#DejaVuSans-20" x="1296.439453"/>
    <use xlink:href="#DejaVuSans-54" x="1328.226562"/>
    <use xlink:href="#DejaVuSans-6f" x="1372.310547"/>
    <use xlink:href="#DejaVuSans-6b" x="1433.492188"/>
    <use xlink:href="#DejaVuSans-65" x="1487.777344"/>
    <use xlink:href="#DejaVuSans-6e" x="1549.300781"/>
    <use xlink:href="#DejaVuSans-73" x="1612.679688"/>
    <use xlink:href="#DejaVuSans-29" x="1664.779297"/>
   </g>
  </g>
 </g>
 <defs>
  <clipPath id="p9ea1e9cf19">
   <rect x="46.08" y="69.12" width="391.68" height="241.92"/>
  </clipPath>
 </defs>
</svg>
