<?xml version="1.0" encoding="utf-8" standalone="no"?>
<!DOCTYPE svg PUBLIC "-//W3C//DTD SVG 1.1//EN"
  "http://www.w3.org/Graphics/SVG/1.1/DTD/svg11.dtd">
<svg xmlns:xlink="http://www.w3.org/1999/xlink" width="460.8pt" height="345.6pt" viewBox="0 0 460.8 345.6" xmlns="http://www.w3.org/2000/svg" version="1.1">
 <metadata>
  <rdf:RDF xmlns:dc="http://purl.org/dc/elements/1.1/" xmlns:cc="http://creativecommons.org/ns#" xmlns:rdf="http://www.w3.org/1999/02/22-rdf-syntax-ns#">
   <cc:Work>
    <dc:type rdf:resource="http://purl.org/dc/dcmitype/StillImage"/>
    <dc:date>2022-04-28T11:52:42.969033</dc:date>
    <dc:format>image/svg+xml</dc:format>
    <dc:creator>
     <cc:Agent>
      <dc:title>Matplotlib v3.5.1, https://matplotlib.org/</dc:title>
     </cc:Agent>
    </dc:creator>
   </cc:Work>
  </rdf:RDF>
 </metadata>
 <defs>
  <style type="text/css">*{stroke-linejoin: round; stroke-linecap: butt}</style>
 </defs>
 <g id="figure_1">
  <g id="patch_1">
   <path d="M 0 345.6 
L 460.8 345.6 
L 460.8 0 
L 0 0 
z
" style="fill: #ffffff"/>
  </g>
  <g id="axes_1">
   <g id="patch_2">
    <path d="M 46.08 311.04 
L 437.76 311.04 
L 437.76 69.12 
L 46.08 69.12 
z
" style="fill: #ffffff"/>
   </g>
   <g id="matplotlib.axis_1">
    <g id="xtick_1">
     <g id="line2d_1">
      <defs>
       <path id="m24726874aa" d="M 0 0 
L 0 3.5 
" style="stroke: #000000; stroke-width: 0.8"/>
      </defs>
      <g>
       <use xlink:href="#m24726874aa" x="46.080392" y="311.04" style="stroke: #000000; stroke-width: 0.8"/>
      </g>
     </g>
     <g id="text_1">
      <!-- 0.0 -->
      <g transform="translate(38.128829 325.638438)scale(0.1 -0.1)">
       <defs>
        <path id="DejaVuSans-30" d="M 2034 4250 
Q 1547 4250 1301 3770 
Q 1056 3291 1056 2328 
Q 1056 1369 1301 889 
Q 1547 409 2034 409 
Q 2525 409 2770 889 
Q 3016 1369 3016 2328 
Q 3016 3291 2770 3770 
Q 2525 4250 2034 4250 
z
M 2034 4750 
Q 2819 4750 3233 4129 
Q 3647 3509 3647 2328 
Q 3647 1150 3233 529 
Q 2819 -91 2034 -91 
Q 1250 -91 836 529 
Q 422 1150 422 2328 
Q 422 3509 836 4129 
Q 1250 4750 2034 4750 
z
" transform="scale(0.015625)"/>
        <path id="DejaVuSans-2e" d="M 684 794 
L 1344 794 
L 1344 0 
L 684 0 
L 684 794 
z
" transform="scale(0.015625)"/>
       </defs>
       <use xlink:href="#DejaVuSans-30"/>
       <use xlink:href="#DejaVuSans-2e" x="63.623047"/>
       <use xlink:href="#DejaVuSans-30" x="95.410156"/>
      </g>
     </g>
    </g>
    <g id="xtick_2">
     <g id="line2d_2">
      <g>
       <use xlink:href="#m24726874aa" x="124.415922" y="311.04" style="stroke: #000000; stroke-width: 0.8"/>
      </g>
     </g>
     <g id="text_2">
      <!-- 0.2 -->
      <g transform="translate(116.464359 325.638438)scale(0.1 -0.1)">
       <defs>
        <path id="DejaVuSans-32" d="M 1228 531 
L 3431 531 
L 3431 0 
L 469 0 
L 469 531 
Q 828 903 1448 1529 
Q 2069 2156 2228 2338 
Q 2531 2678 2651 2914 
Q 2772 3150 2772 3378 
Q 2772 3750 2511 3984 
Q 2250 4219 1831 4219 
Q 1534 4219 1204 4116 
Q 875 4013 500 3803 
L 500 4441 
Q 881 4594 1212 4672 
Q 1544 4750 1819 4750 
Q 2544 4750 2975 4387 
Q 3406 4025 3406 3419 
Q 3406 3131 3298 2873 
Q 3191 2616 2906 2266 
Q 2828 2175 2409 1742 
Q 1991 1309 1228 531 
z
" transform="scale(0.015625)"/>
       </defs>
       <use xlink:href="#DejaVuSans-30"/>
       <use xlink:href="#DejaVuSans-2e" x="63.623047"/>
       <use xlink:href="#DejaVuSans-32" x="95.410156"/>
      </g>
     </g>
    </g>
    <g id="xtick_3">
     <g id="line2d_3">
      <g>
       <use xlink:href="#m24726874aa" x="202.751452" y="311.04" style="stroke: #000000; stroke-width: 0.8"/>
      </g>
     </g>
     <g id="text_3">
      <!-- 0.4 -->
      <g transform="translate(194.799889 325.638438)scale(0.1 -0.1)">
       <defs>
        <path id="DejaVuSans-34" d="M 2419 4116 
L 825 1625 
L 2419 1625 
L 2419 4116 
z
M 2253 4666 
L 3047 4666 
L 3047 1625 
L 3713 1625 
L 3713 1100 
L 3047 1100 
L 3047 0 
L 2419 0 
L 2419 1100 
L 313 1100 
L 313 1709 
L 2253 4666 
z
" transform="scale(0.015625)"/>
       </defs>
       <use xlink:href="#DejaVuSans-30"/>
       <use xlink:href="#DejaVuSans-2e" x="63.623047"/>
       <use xlink:href="#DejaVuSans-34" x="95.410156"/>
      </g>
     </g>
    </g>
    <g id="xtick_4">
     <g id="line2d_4">
      <g>
       <use xlink:href="#m24726874aa" x="281.086982" y="311.04" style="stroke: #000000; stroke-width: 0.8"/>
      </g>
     </g>
     <g id="text_4">
      <!-- 0.6 -->
      <g transform="translate(273.135419 325.638438)scale(0.1 -0.1)">
       <defs>
        <path id="DejaVuSans-36" d="M 2113 2584 
Q 1688 2584 1439 2293 
Q 1191 2003 1191 1497 
Q 1191 994 1439 701 
Q 1688 409 2113 409 
Q 2538 409 2786 701 
Q 3034 994 3034 1497 
Q 3034 2003 2786 2293 
Q 2538 2584 2113 2584 
z
M 3366 4563 
L 3366 3988 
Q 3128 4100 2886 4159 
Q 2644 4219 2406 4219 
Q 1781 4219 1451 3797 
Q 1122 3375 1075 2522 
Q 1259 2794 1537 2939 
Q 1816 3084 2150 3084 
Q 2853 3084 3261 2657 
Q 3669 2231 3669 1497 
Q 3669 778 3244 343 
Q 2819 -91 2113 -91 
Q 1303 -91 875 529 
Q 447 1150 447 2328 
Q 447 3434 972 4092 
Q 1497 4750 2381 4750 
Q 2619 4750 2861 4703 
Q 3103 4656 3366 4563 
z
" transform="scale(0.015625)"/>
       </defs>
       <use xlink:href="#DejaVuSans-30"/>
       <use xlink:href="#DejaVuSans-2e" x="63.623047"/>
       <use xlink:href="#DejaVuSans-36" x="95.410156"/>
      </g>
     </g>
    </g>
    <g id="xtick_5">
     <g id="line2d_5">
      <g>
       <use xlink:href="#m24726874aa" x="359.422512" y="311.04" style="stroke: #000000; stroke-width: 0.8"/>
      </g>
     </g>
     <g id="text_5">
      <!-- 0.8 -->
      <g transform="translate(351.470949 325.638438)scale(0.1 -0.1)">
       <defs>
        <path id="DejaVuSans-38" d="M 2034 2216 
Q 1584 2216 1326 1975 
Q 1069 1734 1069 1313 
Q 1069 891 1326 650 
Q 1584 409 2034 409 
Q 2484 409 2743 651 
Q 3003 894 3003 1313 
Q 3003 1734 2745 1975 
Q 2488 2216 2034 2216 
z
M 1403 2484 
Q 997 2584 770 2862 
Q 544 3141 544 3541 
Q 544 4100 942 4425 
Q 1341 4750 2034 4750 
Q 2731 4750 3128 4425 
Q 3525 4100 3525 3541 
Q 3525 3141 3298 2862 
Q 3072 2584 2669 2484 
Q 3125 2378 3379 2068 
Q 3634 1759 3634 1313 
Q 3634 634 3220 271 
Q 2806 -91 2034 -91 
Q 1263 -91 848 271 
Q 434 634 434 1313 
Q 434 1759 690 2068 
Q 947 2378 1403 2484 
z
M 1172 3481 
Q 1172 3119 1398 2916 
Q 1625 2713 2034 2713 
Q 2441 2713 2670 2916 
Q 2900 3119 2900 3481 
Q 2900 3844 2670 4047 
Q 2441 4250 2034 4250 
Q 1625 4250 1398 4047 
Q 1172 3844 1172 3481 
z
" transform="scale(0.015625)"/>
       </defs>
       <use xlink:href="#DejaVuSans-30"/>
       <use xlink:href="#DejaVuSans-2e" x="63.623047"/>
       <use xlink:href="#DejaVuSans-38" x="95.410156"/>
      </g>
     </g>
    </g>
    <g id="xtick_6">
     <g id="line2d_6">
      <g>
       <use xlink:href="#m24726874aa" x="437.758042" y="311.04" style="stroke: #000000; stroke-width: 0.8"/>
      </g>
     </g>
     <g id="text_6">
      <!-- 1.0 -->
      <g transform="translate(429.806479 325.638438)scale(0.1 -0.1)">
       <defs>
        <path id="DejaVuSans-31" d="M 794 531 
L 1825 531 
L 1825 4091 
L 703 3866 
L 703 4441 
L 1819 4666 
L 2450 4666 
L 2450 531 
L 3481 531 
L 3481 0 
L 794 0 
L 794 531 
z
" transform="scale(0.015625)"/>
       </defs>
       <use xlink:href="#DejaVuSans-31"/>
       <use xlink:href="#DejaVuSans-2e" x="63.623047"/>
       <use xlink:href="#DejaVuSans-30" x="95.410156"/>
      </g>
     </g>
    </g>
    <g id="text_7">
     <!-- Training iteration -->
     <g transform="translate(199.4825 339.316562)scale(0.1 -0.1)">
      <defs>
       <path id="DejaVuSans-54" d="M -19 4666 
L 3928 4666 
L 3928 4134 
L 2272 4134 
L 2272 0 
L 1638 0 
L 1638 4134 
L -19 4134 
L -19 4666 
z
" transform="scale(0.015625)"/>
       <path id="DejaVuSans-72" d="M 2631 2963 
Q 2534 3019 2420 3045 
Q 2306 3072 2169 3072 
Q 1681 3072 1420 2755 
Q 1159 2438 1159 1844 
L 1159 0 
L 581 0 
L 581 3500 
L 1159 3500 
L 1159 2956 
Q 1341 3275 1631 3429 
Q 1922 3584 2338 3584 
Q 2397 3584 2469 3576 
Q 2541 3569 2628 3553 
L 2631 2963 
z
" transform="scale(0.015625)"/>
       <path id="DejaVuSans-61" d="M 2194 1759 
Q 1497 1759 1228 1600 
Q 959 1441 959 1056 
Q 959 750 1161 570 
Q 1363 391 1709 391 
Q 2188 391 2477 730 
Q 2766 1069 2766 1631 
L 2766 1759 
L 2194 1759 
z
M 3341 1997 
L 3341 0 
L 2766 0 
L 2766 531 
Q 2569 213 2275 61 
Q 1981 -91 1556 -91 
Q 1019 -91 701 211 
Q 384 513 384 1019 
Q 384 1609 779 1909 
Q 1175 2209 1959 2209 
L 2766 2209 
L 2766 2266 
Q 2766 2663 2505 2880 
Q 2244 3097 1772 3097 
Q 1472 3097 1187 3025 
Q 903 2953 641 2809 
L 641 3341 
Q 956 3463 1253 3523 
Q 1550 3584 1831 3584 
Q 2591 3584 2966 3190 
Q 3341 2797 3341 1997 
z
" transform="scale(0.015625)"/>
       <path id="DejaVuSans-69" d="M 603 3500 
L 1178 3500 
L 1178 0 
L 603 0 
L 603 3500 
z
M 603 4863 
L 1178 4863 
L 1178 4134 
L 603 4134 
L 603 4863 
z
" transform="scale(0.015625)"/>
       <path id="DejaVuSans-6e" d="M 3513 2113 
L 3513 0 
L 2938 0 
L 2938 2094 
Q 2938 2591 2744 2837 
Q 2550 3084 2163 3084 
Q 1697 3084 1428 2787 
Q 1159 2491 1159 1978 
L 1159 0 
L 581 0 
L 581 3500 
L 1159 3500 
L 1159 2956 
Q 1366 3272 1645 3428 
Q 1925 3584 2291 3584 
Q 2894 3584 3203 3211 
Q 3513 2838 3513 2113 
z
" transform="scale(0.015625)"/>
       <path id="DejaVuSans-67" d="M 2906 1791 
Q 2906 2416 2648 2759 
Q 2391 3103 1925 3103 
Q 1463 3103 1205 2759 
Q 947 2416 947 1791 
Q 947 1169 1205 825 
Q 1463 481 1925 481 
Q 2391 481 2648 825 
Q 2906 1169 2906 1791 
z
M 3481 434 
Q 3481 -459 3084 -895 
Q 2688 -1331 1869 -1331 
Q 1566 -1331 1297 -1286 
Q 1028 -1241 775 -1147 
L 775 -588 
Q 1028 -725 1275 -790 
Q 1522 -856 1778 -856 
Q 2344 -856 2625 -561 
Q 2906 -266 2906 331 
L 2906 616 
Q 2728 306 2450 153 
Q 2172 0 1784 0 
Q 1141 0 747 490 
Q 353 981 353 1791 
Q 353 2603 747 3093 
Q 1141 3584 1784 3584 
Q 2172 3584 2450 3431 
Q 2728 3278 2906 2969 
L 2906 3500 
L 3481 3500 
L 3481 434 
z
" transform="scale(0.015625)"/>
       <path id="DejaVuSans-20" transform="scale(0.015625)"/>
       <path id="DejaVuSans-74" d="M 1172 4494 
L 1172 3500 
L 2356 3500 
L 2356 3053 
L 1172 3053 
L 1172 1153 
Q 1172 725 1289 603 
Q 1406 481 1766 481 
L 2356 481 
L 2356 0 
L 1766 0 
Q 1100 0 847 248 
Q 594 497 594 1153 
L 594 3053 
L 172 3053 
L 172 3500 
L 594 3500 
L 594 4494 
L 1172 4494 
z
" transform="scale(0.015625)"/>
       <path id="DejaVuSans-65" d="M 3597 1894 
L 3597 1613 
L 953 1613 
Q 991 1019 1311 708 
Q 1631 397 2203 397 
Q 2534 397 2845 478 
Q 3156 559 3463 722 
L 3463 178 
Q 3153 47 2828 -22 
Q 2503 -91 2169 -91 
Q 1331 -91 842 396 
Q 353 884 353 1716 
Q 353 2575 817 3079 
Q 1281 3584 2069 3584 
Q 2775 3584 3186 3129 
Q 3597 2675 3597 1894 
z
M 3022 2063 
Q 3016 2534 2758 2815 
Q 2500 3097 2075 3097 
Q 1594 3097 1305 2825 
Q 1016 2553 972 2059 
L 3022 2063 
z
" transform="scale(0.015625)"/>
       <path id="DejaVuSans-6f" d="M 1959 3097 
Q 1497 3097 1228 2736 
Q 959 2375 959 1747 
Q 959 1119 1226 758 
Q 1494 397 1959 397 
Q 2419 397 2687 759 
Q 2956 1122 2956 1747 
Q 2956 2369 2687 2733 
Q 2419 3097 1959 3097 
z
M 1959 3584 
Q 2709 3584 3137 3096 
Q 3566 2609 3566 1747 
Q 3566 888 3137 398 
Q 2709 -91 1959 -91 
Q 1206 -91 779 398 
Q 353 888 353 1747 
Q 353 2609 779 3096 
Q 1206 3584 1959 3584 
z
" transform="scale(0.015625)"/>
      </defs>
      <use xlink:href="#DejaVuSans-54"/>
      <use xlink:href="#DejaVuSans-72" x="46.333984"/>
      <use xlink:href="#DejaVuSans-61" x="87.447266"/>
      <use xlink:href="#DejaVuSans-69" x="148.726562"/>
      <use xlink:href="#DejaVuSans-6e" x="176.509766"/>
      <use xlink:href="#DejaVuSans-69" x="239.888672"/>
      <use xlink:href="#DejaVuSans-6e" x="267.671875"/>
      <use xlink:href="#DejaVuSans-67" x="331.050781"/>
      <use xlink:href="#DejaVuSans-20" x="394.527344"/>
      <use xlink:href="#DejaVuSans-69" x="426.314453"/>
      <use xlink:href="#DejaVuSans-74" x="454.097656"/>
      <use xlink:href="#DejaVuSans-65" x="493.306641"/>
      <use xlink:href="#DejaVuSans-72" x="554.830078"/>
      <use xlink:href="#DejaVuSans-61" x="595.943359"/>
      <use xlink:href="#DejaVuSans-74" x="657.222656"/>
      <use xlink:href="#DejaVuSans-69" x="696.431641"/>
      <use xlink:href="#DejaVuSans-6f" x="724.214844"/>
      <use xlink:href="#DejaVuSans-6e" x="785.396484"/>
     </g>
    </g>
    <g id="text_8">
     <!-- 1e6 -->
     <g transform="translate(418.881875 338.316562)scale(0.1 -0.1)">
      <use xlink:href="#DejaVuSans-31"/>
      <use xlink:href="#DejaVuSans-65" x="63.623047"/>
      <use xlink:href="#DejaVuSans-36" x="125.146484"/>
     </g>
    </g>
   </g>
   <g id="matplotlib.axis_2">
    <g id="ytick_1">
     <g id="line2d_7">
      <defs>
       <path id="md40f482199" d="M 0 0 
L -3.5 0 
" style="stroke: #000000; stroke-width: 0.8"/>
      </defs>
      <g>
       <use xlink:href="#md40f482199" x="46.08" y="311.04" style="stroke: #000000; stroke-width: 0.8"/>
      </g>
     </g>
     <g id="text_9">
      <!-- 1.0 -->
      <g transform="translate(23.176875 314.839219)scale(0.1 -0.1)">
       <use xlink:href="#DejaVuSans-31"/>
       <use xlink:href="#DejaVuSans-2e" x="63.623047"/>
       <use xlink:href="#DejaVuSans-30" x="95.410156"/>
      </g>
     </g>
    </g>
    <g id="ytick_2">
     <g id="line2d_8">
      <g>
       <use xlink:href="#md40f482199" x="46.08" y="270.72" style="stroke: #000000; stroke-width: 0.8"/>
      </g>
     </g>
     <g id="text_10">
      <!-- 1.5 -->
      <g transform="translate(23.176875 274.519219)scale(0.1 -0.1)">
       <defs>
        <path id="DejaVuSans-35" d="M 691 4666 
L 3169 4666 
L 3169 4134 
L 1269 4134 
L 1269 2991 
Q 1406 3038 1543 3061 
Q 1681 3084 1819 3084 
Q 2600 3084 3056 2656 
Q 3513 2228 3513 1497 
Q 3513 744 3044 326 
Q 2575 -91 1722 -91 
Q 1428 -91 1123 -41 
Q 819 9 494 109 
L 494 744 
Q 775 591 1075 516 
Q 1375 441 1709 441 
Q 2250 441 2565 725 
Q 2881 1009 2881 1497 
Q 2881 1984 2565 2268 
Q 2250 2553 1709 2553 
Q 1456 2553 1204 2497 
Q 953 2441 691 2322 
L 691 4666 
z
" transform="scale(0.015625)"/>
       </defs>
       <use xlink:href="#DejaVuSans-31"/>
       <use xlink:href="#DejaVuSans-2e" x="63.623047"/>
       <use xlink:href="#DejaVuSans-35" x="95.410156"/>
      </g>
     </g>
    </g>
    <g id="ytick_3">
     <g id="line2d_9">
      <g>
       <use xlink:href="#md40f482199" x="46.08" y="230.4" style="stroke: #000000; stroke-width: 0.8"/>
      </g>
     </g>
     <g id="text_11">
      <!-- 2.0 -->
      <g transform="translate(23.176875 234.199219)scale(0.1 -0.1)">
       <use xlink:href="#DejaVuSans-32"/>
       <use xlink:href="#DejaVuSans-2e" x="63.623047"/>
       <use xlink:href="#DejaVuSans-30" x="95.410156"/>
      </g>
     </g>
    </g>
    <g id="ytick_4">
     <g id="line2d_10">
      <g>
       <use xlink:href="#md40f482199" x="46.08" y="190.08" style="stroke: #000000; stroke-width: 0.8"/>
      </g>
     </g>
     <g id="text_12">
      <!-- 2.5 -->
      <g transform="translate(23.176875 193.879219)scale(0.1 -0.1)">
       <use xlink:href="#DejaVuSans-32"/>
       <use xlink:href="#DejaVuSans-2e" x="63.623047"/>
       <use xlink:href="#DejaVuSans-35" x="95.410156"/>
      </g>
     </g>
    </g>
    <g id="ytick_5">
     <g id="line2d_11">
      <g>
       <use xlink:href="#md40f482199" x="46.08" y="149.76" style="stroke: #000000; stroke-width: 0.8"/>
      </g>
     </g>
     <g id="text_13">
      <!-- 3.0 -->
      <g transform="translate(23.176875 153.559219)scale(0.1 -0.1)">
       <defs>
        <path id="DejaVuSans-33" d="M 2597 2516 
Q 3050 2419 3304 2112 
Q 3559 1806 3559 1356 
Q 3559 666 3084 287 
Q 2609 -91 1734 -91 
Q 1441 -91 1130 -33 
Q 819 25 488 141 
L 488 750 
Q 750 597 1062 519 
Q 1375 441 1716 441 
Q 2309 441 2620 675 
Q 2931 909 2931 1356 
Q 2931 1769 2642 2001 
Q 2353 2234 1838 2234 
L 1294 2234 
L 1294 2753 
L 1863 2753 
Q 2328 2753 2575 2939 
Q 2822 3125 2822 3475 
Q 2822 3834 2567 4026 
Q 2313 4219 1838 4219 
Q 1578 4219 1281 4162 
Q 984 4106 628 3988 
L 628 4550 
Q 988 4650 1302 4700 
Q 1616 4750 1894 4750 
Q 2613 4750 3031 4423 
Q 3450 4097 3450 3541 
Q 3450 3153 3228 2886 
Q 3006 2619 2597 2516 
z
" transform="scale(0.015625)"/>
       </defs>
       <use xlink:href="#DejaVuSans-33"/>
       <use xlink:href="#DejaVuSans-2e" x="63.623047"/>
       <use xlink:href="#DejaVuSans-30" x="95.410156"/>
      </g>
     </g>
    </g>
    <g id="ytick_6">
     <g id="line2d_12">
      <g>
       <use xlink:href="#md40f482199" x="46.08" y="109.44" style="stroke: #000000; stroke-width: 0.8"/>
      </g>
     </g>
     <g id="text_14">
      <!-- 3.5 -->
      <g transform="translate(23.176875 113.239219)scale(0.1 -0.1)">
       <use xlink:href="#DejaVuSans-33"/>
       <use xlink:href="#DejaVuSans-2e" x="63.623047"/>
       <use xlink:href="#DejaVuSans-35" x="95.410156"/>
      </g>
     </g>
    </g>
    <g id="ytick_7">
     <g id="line2d_13">
      <g>
       <use xlink:href="#md40f482199" x="46.08" y="69.12" style="stroke: #000000; stroke-width: 0.8"/>
      </g>
     </g>
     <g id="text_15">
      <!-- 4.0 -->
      <g transform="translate(23.176875 72.919219)scale(0.1 -0.1)">
       <use xlink:href="#DejaVuSans-34"/>
       <use xlink:href="#DejaVuSans-2e" x="63.623047"/>
       <use xlink:href="#DejaVuSans-30" x="95.410156"/>
      </g>
     </g>
    </g>
    <g id="text_16">
     <!-- Training loss -->
     <g transform="translate(17.097188 221.052656)rotate(-90)scale(0.1 -0.1)">
      <defs>
       <path id="DejaVuSans-6c" d="M 603 4863 
L 1178 4863 
L 1178 0 
L 603 0 
L 603 4863 
z
" transform="scale(0.015625)"/>
       <path id="DejaVuSans-73" d="M 2834 3397 
L 2834 2853 
Q 2591 2978 2328 3040 
Q 2066 3103 1784 3103 
Q 1356 3103 1142 2972 
Q 928 2841 928 2578 
Q 928 2378 1081 2264 
Q 1234 2150 1697 2047 
L 1894 2003 
Q 2506 1872 2764 1633 
Q 3022 1394 3022 966 
Q 3022 478 2636 193 
Q 2250 -91 1575 -91 
Q 1294 -91 989 -36 
Q 684 19 347 128 
L 347 722 
Q 666 556 975 473 
Q 1284 391 1588 391 
Q 1994 391 2212 530 
Q 2431 669 2431 922 
Q 2431 1156 2273 1281 
Q 2116 1406 1581 1522 
L 1381 1569 
Q 847 1681 609 1914 
Q 372 2147 372 2553 
Q 372 3047 722 3315 
Q 1072 3584 1716 3584 
Q 2034 3584 2315 3537 
Q 2597 3491 2834 3397 
z
" transform="scale(0.015625)"/>
      </defs>
      <use xlink:href="#DejaVuSans-54"/>
      <use xlink:href="#DejaVuSans-72" x="46.333984"/>
      <use xlink:href="#DejaVuSans-61" x="87.447266"/>
      <use xlink:href="#DejaVuSans-69" x="148.726562"/>
      <use xlink:href="#DejaVuSans-6e" x="176.509766"/>
      <use xlink:href="#DejaVuSans-69" x="239.888672"/>
      <use xlink:href="#DejaVuSans-6e" x="267.671875"/>
      <use xlink:href="#DejaVuSans-67" x="331.050781"/>
      <use xlink:href="#DejaVuSans-20" x="394.527344"/>
      <use xlink:href="#DejaVuSans-6c" x="426.314453"/>
      <use xlink:href="#DejaVuSans-6f" x="454.097656"/>
      <use xlink:href="#DejaVuSans-73" x="515.279297"/>
      <use xlink:href="#DejaVuSans-73" x="567.378906"/>
     </g>
    </g>
   </g>
   <g id="line2d_14">
    <path d="M 47.325976 -1 
L 47.73288 35.576591 
L 48.249894 60.647963 
L 48.778659 74.926588 
L 49.413177 87.078584 
L 49.671684 91.986615 
L 50.917219 119.599852 
L 51.148309 131.608132 
L 51.712325 185.400294 
L 52.057001 206.311426 
L 52.530931 218.557834 
L 52.98136 225.973886 
L 54.489319 239.000601 
L 54.927998 241.666714 
L 55.515515 245.406326 
L 57.336816 253.093379 
L 57.983084 254.785293 
L 57.987001 254.64669 
L 57.994834 254.597157 
L 58.088837 254.743833 
L 58.746855 256.520865 
L 59.009279 257.407902 
L 59.118949 257.655813 
L 60.301815 260.442475 
L 60.3449 260.544143 
L 60.603407 260.874436 
L 60.787496 261.109826 
L 60.959834 261.37136 
L 60.967667 261.3692 
L 61.022502 261.463601 
L 61.531683 262.509872 
L 61.5356 262.493617 
L 61.621769 262.603836 
L 61.919444 263.058457 
L 62.397291 223.840457 
L 62.405124 223.829759 
L 62.436459 223.955975 
L 62.49521 224.760374 
L 62.667548 231.555673 
L 62.753718 241.718814 
L 62.953473 263.504155 
L 63.235481 264.289546 
L 63.313817 264.169877 
L 63.772079 265.028129 
L 63.948334 265.438844 
L 64.018836 265.550147 
L 64.101089 265.877682 
L 64.140256 265.864367 
L 64.175507 265.904815 
L 64.324345 265.829102 
L 64.457515 265.930651 
L 64.461432 265.920937 
L 64.528017 266.032326 
L 64.531934 266.031299 
L 65.252621 267.372758 
L 65.256538 267.370115 
L 65.491544 267.577662 
L 65.648215 267.751921 
L 67.500851 269.744035 
L 67.504767 269.737414 
L 67.657522 269.693687 
L 67.759358 269.722099 
L 67.767191 269.729854 
L 67.900362 269.754723 
L 68.025699 269.798583 
L 68.225454 269.982405 
L 68.237205 269.966936 
L 68.252872 269.844945 
L 68.350791 269.895002 
L 68.354708 269.888401 
L 68.374292 269.985536 
L 68.42521 269.98527 
L 68.566214 270.020643 
L 68.570131 270.013287 
L 68.628882 270.072726 
L 68.671967 270.053431 
L 68.875639 270.081161 
L 69.047977 270.421947 
L 69.564992 270.991428 
L 69.972337 271.478862 
L 69.976253 271.473141 
L 70.152508 271.717126 
L 70.387515 272.008834 
L 70.434516 271.973736 
L 70.528519 272.032684 
L 70.689107 272.232897 
L 70.853611 272.277875 
L 70.892779 272.271162 
L 70.955448 272.313326 
L 71.096452 272.386322 
L 71.198288 272.48071 
L 71.206121 272.29895 
L 71.441128 271.597609 
L 71.911141 271.481525 
L 72.005144 271.924129 
L 72.146148 272.367773 
L 72.275401 272.465333 
L 72.620078 272.928352 
L 72.623994 272.924332 
L 72.678829 272.953095 
L 72.643578 272.947983 
L 72.70233 272.987226 
L 72.717997 273.011441 
L 72.764998 272.911057 
L 72.792416 272.90777 
L 73.011755 272.357589 
L 73.035256 272.381925 
L 73.109675 272.276878 
L 73.274179 272.028125 
L 73.391683 271.98062 
L 73.40735 272.002644 
L 73.646273 272.476163 
L 73.787277 273.003878 
L 73.955698 273.290304 
L 74.041867 273.411221 
L 74.237706 273.705672 
L 74.323875 273.785075 
L 74.594133 274.113824 
L 74.652885 274.227316 
L 74.825223 274.450967 
L 75.060229 274.62608 
L 75.1934 274.743616 
L 75.310903 274.795343 
L 75.31482 274.785672 
L 75.400989 274.859189 
L 75.404906 274.851786 
L 76.156927 275.141923 
L 76.333182 274.927067 
L 76.450685 274.922536 
L 76.352766 274.937663 
L 76.454602 274.924773 
L 76.587772 274.958833 
L 76.752277 275.061873 
L 76.912865 275.200501 
L 77.08912 275.383477 
L 77.852891 275.748137 
L 78.001728 275.885937 
L 78.021312 275.864609 
L 78.66758 276.421469 
L 78.679331 276.385109 
L 78.914337 276.103064 
L 78.984839 275.988383 
L 79.180678 275.8857 
L 79.611524 276.390273 
L 79.807362 276.638843 
L 79.815196 276.633654 
L 80.101121 276.569429 
L 80.300876 276.667965 
L 80.30871 276.649631 
L 80.44188 276.487569 
L 80.590718 276.472377 
L 80.676887 276.561154 
L 80.817891 276.633819 
L 80.821808 276.62373 
L 80.990229 276.659164 
L 81.503327 277.076778 
L 81.546411 277.051635 
L 81.601246 277.126079 
L 81.785335 277.401672 
L 81.914588 277.516618 
L 82.196596 277.854077 
L 82.502105 277.941003 
L 82.529522 277.955181 
L 82.631358 277.91084 
L 83.28546 277.964916 
L 83.681054 277.671428 
L 83.790724 277.646432 
L 83.798558 277.628233 
L 83.857309 277.552646 
L 83.963062 277.417599 
L 83.978729 277.42672 
L 84.170651 277.614856 
L 84.178485 277.602388 
L 84.248987 277.608912 
L 84.276404 277.659631 
L 84.577996 278.06575 
L 84.867838 278.487383 
L 85.004925 278.502965 
L 85.142012 278.545768 
L 85.294766 278.533293 
L 85.396603 278.500238 
L 85.404436 278.459106 
L 85.529773 278.27464 
L 85.580691 278.170514 
L 85.780447 277.940747 
L 85.870532 277.874613 
L 85.874449 277.865475 
L 86.117289 277.541117 
L 86.132956 277.578403 
L 86.14079 277.588295 
L 86.176041 277.469635 
L 86.446299 276.419397 
L 86.657805 276.160358 
L 86.732223 275.976205 
L 86.771391 276.00199 
L 86.775308 275.994333 
L 86.802725 276.123018 
L 86.826226 276.131916 
L 87.644832 278.195358 
L 87.676166 278.177817 
L 87.79367 278.160281 
L 87.821087 278.178736 
L 87.864172 278.062661 
L 87.989509 278.035136 
L 87.997342 278.052883 
L 88.005176 278.068421 
L 88.044343 277.979348 
L 88.067844 277.973312 
L 88.122679 277.915154 
L 88.185347 277.955548 
L 88.686695 278.605912 
L 88.690612 278.595407 
L 88.815948 278.526371 
L 88.827699 278.535511 
L 89.074456 278.449502 
L 89.266378 278.222186 
L 89.282045 278.212864 
L 89.454383 278.344676 
L 89.462217 278.342092 
L 89.505301 278.44076 
L 89.611054 278.589147 
L 89.783392 278.864803 
L 89.963564 279.439832 
L 90.335658 279.741036 
L 90.449244 279.7095 
L 90.378742 279.767476 
L 90.457078 279.713658 
L 91.064178 279.300633 
L 91.181681 279.309952 
L 91.518524 279.675883 
L 91.686946 279.509639 
L 91.871034 279.358433 
L 91.874951 279.365953 
L 91.945453 279.272118 
L 92.20396 278.842664 
L 92.474218 279.134872 
L 93.367243 280.778602 
L 93.480829 280.800984 
L 93.614 280.9021 
L 93.621833 280.898421 
L 94.401272 281.197156 
L 94.538359 281.158359 
L 94.659779 281.158239 
L 94.8047 281.115811 
L 95.349132 281.382905 
L 95.638973 281.614356 
L 95.791727 281.778204 
L 95.936648 281.846454 
L 96.175571 281.935979 
L 96.210822 281.920242 
L 96.234323 281.958886 
L 96.285241 281.951978 
L 96.516331 281.945748 
L 96.531998 281.930754 
L 96.653418 281.958229 
L 96.747421 281.946634 
L 96.770921 281.975376 
L 96.888425 281.95408 
L 97.346688 281.332035 
L 97.495525 281.19438 
L 97.530776 281.2332 
L 97.569944 281.203892 
L 97.644363 281.219231 
L 97.714865 281.205086 
L 97.726615 281.282173 
L 97.734448 281.285004 
L 97.91462 281.602231 
L 97.922454 281.591556 
L 97.926371 281.587816 
L 97.985122 281.674808 
L 97.989039 281.675575 
L 98.122209 282.061506 
L 98.25538 282.228629 
L 98.368966 282.283171 
L 98.576555 282.341055 
L 98.580472 282.331125 
L 98.889898 282.368375 
L 99.207156 282.656991 
L 99.211073 282.652495 
L 99.242407 282.706796 
L 99.297242 282.710824 
L 99.473497 282.901527 
L 99.630168 282.970982 
L 99.634085 282.982659 
L 99.70067 282.839655 
L 100.53886 282.855432 
L 100.656364 282.810061 
L 100.660281 282.811847 
L 100.914871 282.79705 
L 101.941066 283.303057 
L 102.062487 283.297924 
L 101.976317 283.334626 
L 102.066403 283.304255 
L 102.172156 283.331896 
L 102.109488 283.280919 
L 102.183907 283.309323 
L 102.563834 283.491634 
L 102.587335 283.455753 
L 102.630419 283.419484 
L 102.697004 283.471277 
L 103.233603 283.407028 
L 103.386357 283.401008 
L 103.390274 283.415777 
L 103.519527 283.516698 
L 103.554778 283.495976 
L 103.762368 283.573688 
L 103.774118 283.5494 
L 104.204963 283.697005 
L 104.298966 283.665512 
L 104.3303 283.713271 
L 104.784646 283.901205 
L 105.039237 283.897659 
L 105.148906 283.944054 
L 105.160657 283.929463 
L 105.716839 284.213195 
L 105.818675 284.313494 
L 105.853926 284.300514 
L 106.652949 284.226808 
L 106.911456 284.390828 
L 106.974124 284.473124 
L 107.103378 284.616761 
L 107.122962 284.602077 
L 107.142546 284.582636 
L 107.216964 284.665666 
L 108.090406 284.282542 
L 108.282328 284.594489 
L 108.286244 284.583861 
L 108.415498 284.64748 
L 108.568252 284.76135 
L 108.591753 284.741495 
L 108.662255 284.808138 
L 108.791509 284.847127 
L 108.967763 284.895667 
L 109.21452 284.984812 
L 109.359441 285.041531 
L 109.449527 284.999206 
L 109.473028 285.03733 
L 109.606198 285.015123 
L 109.610115 285.0281 
L 109.645366 285.040976 
L 109.708034 284.983312 
L 109.872539 284.928179 
L 109.990042 284.962227 
L 109.993959 284.967411 
L 110.107545 284.963882 
L 110.111462 284.957397 
L 110.15063 284.943247 
L 110.201548 285.020613 
L 110.205465 285.01938 
L 110.554058 285.115832 
L 110.557975 285.109085 
L 110.604976 285.154925 
L 110.648061 285.165062 
L 110.773397 285.199222 
L 110.777314 285.190907 
L 111.094573 285.348018 
L 111.262995 285.421186 
L 111.443166 285.404311 
L 111.447083 285.415699 
L 111.603754 285.466728 
L 111.713424 285.505083 
L 111.858345 285.585687 
L 111.862261 285.573137 
L 112.003265 285.528798 
L 112.007182 285.538235 
L 112.438027 285.548722 
L 112.876706 285.730117 
L 112.99421 285.718728 
L 113.099963 285.709677 
L 113.11563 285.722378 
L 113.432889 285.730516 
L 113.554309 285.766518 
L 113.562142 285.754472 
L 114.267162 286.045674 
L 114.274996 286.026992 
L 114.392499 285.515256 
L 114.408166 285.520529 
L 114.698007 285.240359 
L 115.062268 285.475483 
L 115.175854 285.851934 
L 115.269857 285.918296 
L 115.649784 286.163875 
L 115.73987 286.229222 
L 115.86129 286.291647 
L 115.869124 286.28075 
L 116.288219 286.515377 
L 116.296052 286.495748 
L 116.550643 286.482585 
L 116.750398 286.355293 
L 116.793483 286.384789 
L 116.856151 286.319942 
L 117.106825 286.218057 
L 117.228245 286.115288 
L 117.232162 286.119644 
L 117.451501 286.09755 
L 117.455418 286.104505 
L 117.471085 286.118042 
L 117.545504 286.065738 
L 117.561171 286.071677 
L 117.800094 286.275893 
L 117.804011 286.262068 
L 117.847096 286.046898 
L 117.917598 286.137686 
L 118.086019 286.177123 
L 118.105603 286.144711 
L 118.223106 286.13266 
L 118.379777 286.098823 
L 118.587367 286.153854 
L 118.650035 286.363654 
L 118.700953 286.356151 
L 118.81454 286.35125 
L 119.088714 286.464652 
L 119.108298 286.443975 
L 119.245385 286.484538 
L 119.261052 286.482387 
L 119.304137 286.259258 
L 119.374639 286.269089 
L 119.480392 286.250253 
L 119.488225 286.238149 
L 119.558727 286.138455 
L 119.680147 283.632161 
L 119.954322 282.735371 
L 119.958238 282.737889 
L 120.044407 282.798535 
L 120.165827 283.307275 
L 120.342082 284.219465 
L 120.463502 286.274502 
L 120.526171 286.336374 
L 120.530088 286.348317 
L 120.710259 286.633575 
L 121.168522 286.85489 
L 121.309526 286.690664 
L 121.387862 286.613779 
L 121.544533 286.498695 
L 121.575867 286.527967 
L 121.642452 286.557099 
L 121.69337 286.513786 
L 121.783456 286.455079 
L 121.822624 286.505148 
L 122.049797 286.80116 
L 122.053714 286.790779 
L 122.233885 286.93837 
L 122.261303 286.497872 
L 122.378806 286.234931 
L 122.527644 286.11342 
L 122.53156 286.117771 
L 122.782234 286.145966 
L 122.974156 286.338272 
L 123.025074 286.452887 
L 123.052492 286.962941 
L 123.138661 286.911126 
L 123.326666 286.857588 
L 123.459837 286.872778 
L 123.569506 286.958148 
L 124.082604 287.350284 
L 124.474282 287.189673 
L 124.662287 287.27574 
L 124.783707 287.235841 
L 124.952128 287.302747 
L 125.073548 287.289017 
L 125.234136 287.21898 
L 125.480893 287.037408 
L 125.59448 287.033678 
L 125.598396 287.019218 
L 125.747234 286.932782 
L 125.751151 286.937791 
L 126.209414 287.202833 
L 126.350418 287.262934 
L 126.761679 287.508609 
L 126.769513 287.49573 
L 126.887016 287.511982 
L 127.541118 287.527366 
L 127.654704 287.497539 
L 127.576369 287.555003 
L 127.662538 287.513649 
L 127.807458 287.568371 
L 128.038548 287.645626 
L 128.140384 287.746057 
L 128.171719 287.718435 
L 128.344057 287.771843 
L 128.35189 287.759398 
L 128.469394 287.749037 
L 128.426309 287.801497 
L 128.47331 287.754477 
L 128.602564 287.675801 
L 128.727901 287.652399 
L 128.743568 287.676731 
L 128.821904 287.695343 
L 128.861071 287.673612 
L 129.041243 287.640123 
L 129.201831 287.659713 
L 129.252749 287.690165 
L 129.311501 287.679431 
L 129.444671 287.707625 
L 129.562174 287.685852 
L 129.573925 287.700439 
L 130.192775 287.891389 
L 130.286778 287.85725 
L 130.322029 287.885372 
L 130.772458 288.041797 
L 130.917379 288.111774 
L 130.921296 288.106184 
L 130.968297 288.102165 
L 131.019215 288.143314 
L 131.027049 288.137563 
L 131.175886 288.204829 
L 131.285556 288.188555 
L 131.30514 288.213633 
L 131.328641 288.243392 
L 131.387392 288.207234 
L 131.591065 267.483898 
L 131.818238 263.695348 
L 131.822154 263.699237 
L 131.892656 264.159023 
L 132.02191 266.894561 
L 132.182498 273.992242 
L 132.260833 287.093494 
L 132.350919 287.049931 
L 132.37442 287.08516 
L 132.515424 287.024978 
L 132.723013 287.208225 
L 132.550675 286.997876 
L 132.72693 287.20217 
L 132.754347 287.229888 
L 132.777848 287.29631 
L 132.867934 287.754546 
L 132.989354 288.301092 
L 133.118607 288.278 
L 133.228277 288.304324 
L 133.232194 288.309817 
L 133.365364 288.374819 
L 133.435866 288.352806 
L 133.482868 288.382252 
L 134.223138 288.603391 
L 134.242722 288.589083 
L 134.305391 288.669257 
L 134.313224 288.668511 
L 134.579565 288.662961 
L 134.76757 288.618169 
L 134.771487 288.623659 
L 134.963409 288.683638 
L 135.069162 288.754664 
L 135.084829 288.74038 
L 135.178832 288.808436 
L 135.8251 288.83222 
L 135.977854 288.746148 
L 135.981771 288.749275 
L 136.044439 288.792803 
L 136.095358 288.743258 
L 136.252029 288.773496 
L 136.377365 288.743451 
L 136.385199 288.729859 
L 136.522286 288.770381 
L 136.655457 288.824306 
L 136.686791 288.841671 
L 136.769043 288.832241 
L 137.920575 288.991888 
L 137.924492 288.882199 
L 138.159499 288.688875 
L 138.308336 288.691806 
L 138.312253 288.684559 
L 138.371005 288.663059 
L 138.42584 288.695581 
L 139.213112 289.206008 
L 139.307114 289.244162 
L 139.314948 289.253443 
L 139.608706 289.214311 
L 139.945549 289.298165 
L 140.207973 289.378394 
L 141.433924 289.212931 
L 141.516176 289.023021 
L 141.555344 289.028709 
L 141.688514 288.966332 
L 141.747266 288.95818 
L 141.7786 289.004651 
L 141.837352 289.045819 
L 141.892187 289.032132 
L 142.127193 289.170116 
L 142.13111 289.154095 
L 142.205529 288.712657 
L 142.268197 288.801349 
L 142.448369 288.615488 
L 142.565872 288.559484 
L 142.585456 288.574179 
L 142.683376 288.611051 
L 142.702959 288.598443 
L 142.910549 288.75361 
L 143.102471 289.285851 
L 143.302226 289.453034 
L 143.41973 289.502057 
L 143.568567 289.661364 
L 143.572484 289.650066 
L 143.635152 289.71434 
L 143.666486 289.70477 
L 143.823158 289.753223 
L 143.834908 289.73371 
L 143.928911 289.651575 
L 143.960245 289.658649 
L 144.120833 289.671169 
L 144.124749 289.661886 
L 144.250086 289.662002 
L 144.50076 289.736441 
L 144.61043 289.731546 
L 144.614346 289.744415 
L 144.704432 289.776226 
L 144.727933 289.750622 
L 144.943356 289.714727 
L 145.080443 289.645904 
L 145.256698 289.65215 
L 145.432953 289.704527 
L 145.550456 289.735926 
L 146.040053 289.789729 
L 146.271143 289.808182 
L 146.388646 289.868043 
L 146.40823 289.849078 
L 146.545317 289.883597 
L 146.694155 289.993609 
L 146.842992 290.05493 
L 146.929161 290.076769 
L 146.960496 290.054838 
L 147.128917 290.076401 
L 147.532345 289.977799 
L 147.657682 290.038244 
L 147.661599 290.0271 
L 147.790852 289.980216 
L 147.81827 289.968312 
L 147.908355 290.000927 
L 147.955357 289.894657 
L 148.08461 287.655053 
L 148.339201 287.083306 
L 148.390119 287.075875 
L 148.429287 287.140576 
L 148.66821 288.087792 
L 148.746546 289.369145 
L 148.773963 290.339402 
L 148.864049 290.293415 
L 148.958052 290.25031 
L 148.989386 290.282001 
L 149.087305 290.289458 
L 149.110806 290.263545 
L 149.283144 290.166301 
L 149.600403 290.127373 
L 149.72574 290.103255 
L 149.851077 290.126474 
L 150.070416 290.199229 
L 150.074333 290.174859 
L 150.140918 290.098133 
L 150.187919 290.107298 
L 150.328923 290.149875 
L 150.681433 290.260922 
L 150.736268 290.279998 
L 150.79502 290.269325 
L 151.562708 290.432518 
L 151.566625 290.383474 
L 151.684128 290.049496 
L 151.695878 290.052773 
L 151.8643 289.869571 
L 152.001387 289.717924 
L 152.334313 289.81116 
L 152.447899 290.169329 
L 152.577153 290.376872 
L 152.58107 290.374111 
L 152.95708 290.467748 
L 153.141169 290.326607 
L 153.145086 290.328614 
L 153.556347 290.391171 
L 153.697351 290.470093 
L 154.183031 290.443968 
L 154.363203 290.379624 
L 154.570792 290.456374 
L 154.582543 290.437733 
L 154.676545 290.502073 
L 154.931136 290.762728 
L 155.040805 290.789531 
L 155.044722 290.792528 
L 155.162226 290.800844 
L 155.170059 290.791452 
L 155.440317 290.80484 
L 155.651823 290.810631 
L 155.81241 290.763979 
L 156.176671 290.65866 
L 156.235422 290.641724 
L 156.290257 290.662151 
L 156.584015 290.578175 
L 156.595766 290.596721 
L 157.120614 290.816031 
L 157.191116 290.928062 
L 157.2342 290.91357 
L 157.339953 290.865391 
L 157.46529 290.839473 
L 157.469207 290.845335 
L 157.735548 290.73758 
L 157.860885 290.769669 
L 158.009722 290.79989 
L 158.554154 290.940288 
L 158.648157 290.889382 
L 158.679491 290.935141 
L 159.811439 291.032238 
L 159.921109 291.176944 
L 159.952443 291.169844 
L 160.07778 291.151165 
L 160.08953 291.163389 
L 160.207034 291.194913 
L 160.21095 291.192783 
L 160.324537 291.168148 
L 160.336287 291.18955 
L 160.469458 291.168315 
L 160.492958 291.188366 
L 160.594795 291.173434 
L 161.178394 291.1518 
L 161.777661 291.219643 
L 161.883414 291.229113 
L 161.832496 291.198242 
L 161.895164 291.221199 
L 162.114504 291.215293 
L 162.22809 291.268567 
L 162.247674 291.246151 
L 162.913526 291.146148 
L 163.019279 290.746706 
L 163.027113 290.760496 
L 163.551961 291.043889 
L 163.802634 291.603004 
L 163.900554 291.528042 
L 164.006307 291.52493 
L 164.025891 291.546772 
L 164.068975 291.534835 
L 164.100309 291.480356 
L 164.11206 291.47703 
L 164.315732 291.389108 
L 164.433235 291.336892 
L 164.444986 291.35113 
L 164.605574 291.390748 
L 164.60949 291.380847 
L 164.703493 291.416015 
L 164.621241 291.398645 
L 164.711327 291.42615 
L 165.08342 291.443391 
L 165.216591 291.517485 
L 165.89811 291.566398 
L 166.01953 291.534696 
L 166.043031 291.552855 
L 166.634464 291.630999 
L 166.646214 291.644447 
L 166.771551 291.639299 
L 166.943889 291.651707 
L 166.947806 291.645922 
L 167.045725 291.615156 
L 167.073143 291.630936 
L 167.249398 291.693139 
L 168.447931 291.757597 
L 168.557601 291.781221 
L 168.573268 291.75586 
L 168.714272 291.790342 
L 168.722106 291.77692 
L 168.851359 291.799141 
L 169.015864 291.882733 
L 169.180369 291.928423 
L 169.33704 291.943524 
L 169.411458 291.942556 
L 169.528962 291.374231 
L 169.865804 291.137378 
L 169.869721 291.143586 
L 170.006808 291.185608 
L 170.194814 291.41692 
L 170.312317 291.899472 
L 170.465071 291.92777 
L 170.711828 291.966917 
L 170.797997 291.930195 
L 170.735329 291.988268 
L 170.841082 291.951757 
L 170.852832 291.933446 
L 171.02517 291.944806 
L 171.217092 291.987029 
L 171.616604 292.134184 
L 171.628354 292.14518 
L 171.777191 292.099082 
L 171.969113 292.112193 
L 172.219787 292.095309 
L 172.419543 292.118088 
L 172.521379 292.130161 
L 172.478294 292.153047 
L 172.529213 292.13639 
L 172.685884 292.127044 
L 172.705467 292.135228 
L 172.81122 292.08538 
L 173.457489 291.990475 
L 173.574992 292.059025 
L 173.590659 292.042973 
L 174.609021 292.287493 
L 174.726524 292.213074 
L 174.734358 292.219251 
L 174.867528 292.177006 
L 175.129952 292.092167 
L 175.944642 292.409923 
L 176.058228 292.403063 
L 176.062145 292.407394 
L 176.156148 292.408545 
L 176.171815 292.394324 
L 176.289318 292.403062 
L 176.457739 292.451557 
L 176.461656 292.444791 
L 176.606577 292.388046 
L 176.759331 292.36009 
L 176.841583 292.304199 
L 176.8455 292.287114 
L 176.982587 292.211839 
L 177.158842 292.190198 
L 177.303763 292.249338 
L 177.565012 292.292046 
L 177.691524 292.365971 
L 178.079285 292.315879 
L 178.302541 292.328059 
L 178.561048 292.311442 
L 178.709886 292.433553 
L 178.952726 292.605869 
L 179.085896 292.702619 
L 179.097647 292.693145 
L 179.293486 292.732092 
L 179.301319 292.718595 
L 179.587244 292.613568 
L 179.739998 292.539818 
L 179.939754 292.611499 
L 179.94367 292.597378 
L 180.076841 292.594094 
L 184.522382 292.95784 
L 184.628135 292.934103 
L 184.643802 292.944281 
L 184.867058 292.863803 
L 184.933644 292.885832 
L 184.980645 292.861783 
L 185.113815 292.876812 
L 185.254819 292.910998 
L 185.611246 293.044262 
L 185.716999 292.862464 
L 185.724833 292.871229 
L 185.955922 292.733595 
L 185.736583 292.884578 
L 185.959839 292.742212 
L 186.132177 292.804051 
L 186.206596 292.805086 
L 186.23793 292.844186 
L 186.731444 293.162526 
L 186.94295 293.073625 
L 186.946867 293.077408 
L 187.279793 293.133005 
L 187.40513 293.154898 
L 187.597052 293.187554 
L 188.13365 293.119988 
L 188.188485 293.162234 
L 188.247237 293.110906 
L 188.423492 293.150754 
L 188.427408 293.147042 
L 188.940506 293.068423 
L 189.105011 293.154884 
L 189.108927 293.142594 
L 189.179429 293.204513 
L 189.210764 293.182788 
L 189.332184 293.233516 
L 189.343934 293.226072 
L 189.441853 293.198293 
L 189.363518 293.202874 
L 189.453604 293.185313 
L 189.606358 293.111035 
L 189.610275 293.114769 
L 190.276127 293.184344 
L 190.464132 293.231055 
L 190.471966 293.222801 
L 190.542468 293.262932 
L 190.511133 293.261705 
L 190.558135 293.28689 
L 190.800975 293.420348 
L 190.894978 293.419651 
L 190.914561 293.444453 
L 191.122151 293.485547 
L 191.502078 293.298205 
L 191.603914 293.267061 
L 191.545162 293.266397 
L 191.607831 293.262319 
L 191.721417 293.239575 
L 191.737084 293.256868 
L 191.885922 293.263765 
L 191.889839 293.258307 
L 192.04651 293.234247 
L 192.050427 293.242742 
L 192.05826 293.252332 
L 192.117012 293.181754 
L 192.15618 293.209732 
L 192.273683 293.23226 
L 192.281516 293.250534 
L 192.457771 293.319938 
L 192.645777 293.371582 
L 192.798531 293.497193 
L 192.951285 293.577763 
L 193.295962 293.652465 
L 193.433049 293.659745 
L 193.558386 293.673978 
L 193.566219 293.668118 
L 193.781642 293.598341 
L 193.879561 293.547855 
L 194.008815 293.473155 
L 194.051899 293.509886 
L 194.126318 293.463272 
L 195.324852 292.998584 
L 195.473689 293.057002 
L 195.563775 293.077895 
L 195.505023 293.085946 
L 195.575525 293.099898 
L 195.759614 293.236925 
L 195.783115 293.233732 
L 195.841866 293.301547 
L 195.8497 293.290169 
L 195.98287 293.367647 
L 195.998537 293.348368 
L 196.139541 293.313509 
L 196.351047 293.407265 
L 196.480301 293.370395 
L 196.617388 293.398967 
L 196.621305 293.404563 
L 196.770142 293.488442 
L 197.020816 293.637792 
L 197.126569 293.660121 
L 197.087401 293.684716 
L 197.130486 293.665405 
L 197.228405 293.679818 
L 197.240155 293.70088 
L 197.408577 293.692713 
L 198.176265 293.652031 
L 198.536608 293.756213 
L 198.689363 293.789375 
L 198.69328 293.783264 
L 199.045789 293.616807 
L 199.171126 293.62922 
L 199.182877 293.6065 
L 199.4218 293.514736 
L 199.746892 293.6118 
L 199.750809 293.600963 
L 200.937592 293.563625 
L 201.286186 293.682595 
L 201.407606 293.672598 
L 201.419356 293.68392 
L 201.611278 293.767455 
L 201.724865 293.749133 
L 201.744448 293.770746 
L 201.901119 293.874578 
L 201.916787 293.855658 
L 202.484719 293.842393 
L 202.488636 293.855067 
L 202.53172 293.821045 
L 202.590472 293.819905 
L 202.790228 293.859213 
L 204.278603 293.925659 
L 204.431357 294.031364 
L 204.576278 294.065909 
L 204.717282 294.067701 
L 204.830868 294.03323 
L 205.01104 294.037851 
L 205.054125 294.074253 
L 205.12071 294.017262 
L 205.434052 294.087759 
L 205.688642 294.183018 
L 205.692559 294.176381 
L 205.868814 294.115779 
L 205.919732 294.128483 
L 205.978484 294.098427 
L 206.240908 294.011477 
L 206.350578 294.003223 
L 206.272242 293.996998 
L 206.354494 293.995932 
L 206.538583 293.939513 
L 206.691337 294.030597 
L 206.699171 294.019402 
L 206.707004 294.004972 
L 206.754006 294.066522 
L 206.804924 294.048391 
L 207.122183 294.123409 
L 207.235769 294.109195 
L 208.234547 294.116776 
L 208.359884 294.139397 
L 208.551806 294.164685 
L 208.853398 294.13035 
L 208.939567 294.119307 
L 208.966984 294.13473 
L 209.190241 294.209574 
L 209.194157 294.20128 
L 209.346912 294.16121 
L 209.527083 294.142557 
L 209.722922 294.122032 
L 210.01668 294.028824 
L 210.208602 294.098557 
L 210.212519 294.094926 
L 210.35744 294.101468 
L 210.7217 294.196815 
L 210.84312 294.196325 
L 211.054626 294.25164 
L 211.058543 294.241989 
L 211.168213 294.277239 
L 211.176046 294.286786 
L 213.518279 294.323068 
L 213.647532 294.356743 
L 213.835537 294.374654 
L 213.839454 294.383266 
L 214.02746 294.436531 
L 214.152796 294.360705 
L 214.16063 294.363096 
L 214.329051 294.343713 
L 214.430887 294.390292 
L 215.014487 294.532312 
L 215.190742 294.498619 
L 215.194659 294.504008 
L 215.378747 294.513829 
L 215.523668 294.466096 
L 215.688173 294.492348 
L 216.048516 294.482624 
L 216.087684 294.496467 
L 216.130768 294.424635 
L 216.146436 294.433596 
L 216.236521 294.42114 
L 216.256105 294.452005 
L 217.035544 294.287324 
L 217.231383 294.43707 
L 217.348886 294.519753 
L 217.662228 294.643589 
L 218.398582 294.570802 
L 218.523919 294.593602 
L 218.69234 294.589327 
L 218.809844 294.638723 
L 218.821594 294.619549 
L 219.272023 294.611503 
L 219.432611 294.673308 
L 219.569698 294.668188 
L 219.867373 294.712053 
L 219.984877 294.741834 
L 219.996627 294.730029 
L 220.219883 294.751729 
L 220.364804 294.835344 
L 220.372637 294.828525 
L 220.447056 294.845605 
L 220.47839 294.873513 
L 220.611561 294.873127 
L 220.615478 294.865647 
L 220.772149 294.746973 
L 220.893569 294.742669 
L 221.069824 294.666362 
L 221.28133 294.61897 
L 221.285246 294.626624 
L 221.488919 294.675145 
L 221.892347 294.645533 
L 222.049018 294.716329 
L 222.139104 294.709368 
L 222.158688 294.734044 
L 223.020378 294.770556 
L 223.306303 294.89451 
L 223.31022 294.885818 
L 223.404222 294.891116 
L 223.41989 294.916034 
L 223.549143 294.880428 
L 223.635312 294.862298 
L 223.66273 294.890246 
L 223.80765 294.920892 
L 225.155022 294.848657 
L 225.303859 294.820755 
L 225.307776 294.832678 
L 225.534949 294.921583 
L 225.672036 294.921024 
L 225.820874 294.958026 
L 225.82479 294.971821 
L 225.985378 295.007486 
L 226.126382 294.975439 
L 226.259553 294.979287 
L 226.737399 294.903027 
L 226.862736 294.878237 
L 226.866653 294.889309 
L 226.886237 294.911609 
L 226.968489 294.858033 
L 227.097743 294.832591 
L 227.11341 294.850575 
L 227.121243 294.821086 
L 227.238747 293.449488 
L 227.497254 293.011108 
L 227.501171 293.020559 
L 227.614757 293.137433 
L 227.869348 293.709239 
L 227.904599 293.840374 
L 227.990768 294.986477 
L 228.018185 294.960712 
L 228.155272 294.93107 
L 228.253192 294.91359 
L 228.18269 294.918908 
L 228.257109 294.901428 
L 228.43728 294.821687 
L 228.441197 294.828149 
L 228.77804 294.901794 
L 229.146217 295.038442 
L 229.38514 295.070403 
L 229.553562 295.087151 
L 229.557478 295.093743 
L 229.729817 295.093651 
L 229.84732 295.101199 
L 229.953073 295.149407 
L 229.98049 295.136425 
L 230.67376 295.191189 
L 230.80693 295.131782 
L 230.705094 295.208554 
L 230.810847 295.13398 
L 230.963601 295.164835 
L 231.085021 295.185933 
L 231.088938 295.18137 
L 231.198608 295.171813 
L 231.210358 295.193452 
L 231.226025 295.177656 
L 231.359196 295.203087 
L 231.51195 295.192901 
L 231.609869 295.217518 
L 231.625536 295.195806 
L 231.735206 295.192531 
L 231.641203 295.205639 
L 231.746956 295.202143 
L 231.75479 295.214559 
L 231.958462 295.180936 
L 231.981963 295.210386 
L 231.99763 295.133284 
L 232.064215 295.146312 
L 232.220886 295.138006 
L 232.569479 295.025844 
L 232.620398 295.047617 
L 232.643898 294.997531 
L 232.761402 294.82028 
L 233.000325 294.875213 
L 233.109995 294.913546 
L 233.337168 294.930514 
L 233.450754 295.001737 
L 233.478172 294.985663 
L 233.615259 294.957139 
L 233.736679 294.990838 
L 233.858099 294.974204 
L 233.885516 295.017274 
L 234.061771 295.070727 
L 234.159691 295.084748 
L 234.171441 295.094463 
L 234.183191 295.090688 
L 234.198858 295.121273 
L 234.206692 295.119312 
L 234.24586 295.265726 
L 234.320279 295.257123 
L 234.4887 295.188366 
L 234.993964 295.154355 
L 235.134968 295.172284 
L 235.409142 295.157279 
L 235.491395 295.16359 
L 235.510979 295.200199 
L 235.593231 295.224422 
L 235.55798 295.2367 
L 235.612815 295.249807 
L 235.738152 295.271769 
L 235.937907 295.367135 
L 236.078911 295.3523 
L 236.192498 295.40312 
L 236.215998 295.361843 
L 236.392253 295.250453 
L 236.783931 295.235525 
L 236.921018 295.213809 
L 236.924935 295.206485 
L 236.995437 295.236764 
L 236.952352 295.236027 
L 237.018938 295.264127 
L 237.163858 295.286298 
L 237.167775 295.281177 
L 237.308779 295.293145 
L 237.312696 295.298569 
L 237.434116 295.350504 
L 237.438033 295.341824 
L 237.641705 295.321942 
L 239.083079 295.447124 
L 239.098746 295.44573 
L 239.11833 295.490571 
L 239.173165 295.502637 
L 239.298501 295.52372 
L 239.302418 295.515879 
L 239.619677 295.611601 
L 239.623594 295.601266 
L 239.705846 295.560049 
L 239.745014 295.59536 
L 241.068884 295.536006 
L 241.209888 295.457877 
L 241.217722 295.465775 
L 241.350892 295.484679 
L 241.495813 295.445118 
L 241.515397 295.472535 
L 241.636817 295.451084 
L 241.75432 295.445171 
L 241.87574 295.535239 
L 241.899241 295.525523 
L 242.063746 295.547652 
L 242.067662 295.556434 
L 243.677458 295.456038 
L 243.924215 295.61257 
L 244.339393 295.635334 
L 244.417728 295.637848 
L 244.452979 295.612518 
L 244.554816 295.577874 
L 244.578316 295.59369 
L 244.58615 295.585644 
L 244.860324 295.733142 
L 244.985661 295.704099 
L 245.310753 295.766709 
L 245.428257 295.735106 
L 245.432173 295.7368 
L 245.569261 295.800239 
L 245.447841 295.727845 
L 245.577094 295.790085 
L 246.407451 295.694502 
L 246.513204 295.765742 
L 246.536704 295.740393 
L 246.650291 295.727689 
L 246.662041 295.746953 
L 246.803045 295.832268 
L 246.944049 295.847877 
L 246.959716 295.824984 
L 247.120304 295.78213 
L 247.143805 295.797561 
L 247.206473 295.727169 
L 247.22214 295.739389 
L 247.351394 295.728089 
L 247.355311 295.733052 
L 247.492398 295.731299 
L 247.500231 295.713933 
L 248.455925 295.650022 
L 248.561678 295.701857 
L 248.585179 295.692096 
L 248.608679 295.668616 
L 248.816268 295.789379 
L 248.88677 295.782608 
L 248.925938 295.812239 
L 249.047358 295.85586 
L 249.560456 295.789434 
L 249.638791 295.800605 
L 249.662292 295.831652 
L 249.838547 295.93246 
L 249.854214 295.918403 
L 250.19889 296.004858 
L 250.328144 295.970665 
L 250.40648 295.994274 
L 250.449564 295.957012 
L 250.578818 295.94674 
L 250.755073 295.925777 
L 250.762906 295.936637 
L 250.935244 295.968979 
L 251.076248 296.052949 
L 251.217252 296.072157 
L 251.221169 296.062626 
L 251.373923 296.027074 
L 251.538428 296.042603 
L 251.843937 295.958177 
L 253.845409 296.153982 
L 254.1 296.225825 
L 254.103917 296.219062 
L 254.22142 296.166628 
L 254.229254 296.176116 
L 254.358507 296.163354 
L 254.491678 296.114865 
L 254.495594 296.12096 
L 254.566096 296.082406 
L 254.601347 296.088273 
L 255.607959 296.149323 
L 255.768547 296.058494 
L 255.77638 296.071453 
L 255.811631 296.035433 
L 255.8743 296.026109 
L 256.203309 296.114293 
L 256.211142 296.122551 
L 256.336479 296.125809 
L 256.520568 296.256922 
L 256.669405 296.265162 
L 256.779075 296.236575 
L 256.951413 296.225974 
L 257.170753 296.21603 
L 257.797437 296.22776 
L 257.938441 296.252673 
L 257.942358 296.24942 
L 259.912496 296.329746 
L 260.084834 296.368877 
L 260.096585 296.350105 
L 260.229755 296.273088 
L 260.355092 296.330985 
L 260.62535 296.315286 
L 260.789854 296.3204 
L 260.958276 296.284995 
L 261.095363 296.335879 
L 261.279451 296.358854 
L 261.522291 296.450066 
L 261.722047 296.48285 
L 261.733797 296.494487 
L 261.800382 296.443411 
L 261.823883 296.4388 
L 261.980554 296.415043 
L 262.015805 296.363213 
L 262.098057 296.390809 
L 262.454484 296.451317 
L 262.607238 296.465579 
L 262.618989 296.44598 
L 262.850079 296.429076 
L 263.35926 296.407801 
L 263.50418 296.388478 
L 263.621684 296.395883 
L 263.864524 296.375517 
L 263.86844 296.383771 
L 263.997694 296.388211 
L 264.115197 296.430791 
L 264.119114 296.450362 
L 264.401122 296.527329 
L 264.412872 296.506339 
L 264.553876 296.475084 
L 264.569543 296.498414 
L 264.68313 296.498639 
L 264.687047 296.49336 
L 264.878969 296.47598 
L 265.184477 296.448952 
L 265.247146 296.485526 
L 265.305897 296.456728 
L 265.482152 296.490037 
L 265.52132 296.48353 
L 265.583989 296.535431 
L 266.089253 296.575387 
L 266.242007 296.527261 
L 266.402595 296.505949 
L 266.629768 296.496732 
L 266.759022 296.550754 
L 266.762938 296.547301 
L 267.977139 296.668087 
L 268.149477 296.744807 
L 268.161228 296.726389 
L 270.754134 296.792906 
L 270.871637 296.801149 
L 271.020474 296.786619 
L 271.153645 296.700132 
L 271.161478 296.70768 
L 271.177145 296.73263 
L 271.271148 296.686999 
L 271.278982 296.692378 
L 271.349484 296.610728 
L 271.357317 296.615371 
L 271.494404 296.559586 
L 271.502238 296.566126 
L 271.721577 296.578265 
L 271.784246 296.566692 
L 271.835164 296.58995 
L 271.976168 296.643718 
L 271.980085 296.639771 
L 272.379596 296.693444 
L 272.454015 296.666614 
L 272.493182 296.690252 
L 274.024642 296.929265 
L 274.619992 296.87657 
L 274.760996 296.900138 
L 274.831498 296.931922 
L 274.874582 296.904338 
L 274.999919 296.865519 
L 275.148757 296.798292 
L 275.481683 296.830244 
L 275.571769 296.854111 
L 275.599186 296.838563 
L 275.720606 296.87448 
L 276.159285 296.839999 
L 276.327707 296.807542 
L 276.507878 296.828187 
L 276.903473 296.893515 
L 277.130646 296.940706 
L 277.27165 296.890287 
L 277.275566 296.894588 
L 277.471405 296.89994 
L 277.612409 296.916841 
L 277.479239 296.890169 
L 277.631993 296.892877 
L 278.517185 296.862375 
L 278.646438 296.880234 
L 278.842277 296.971802 
L 279.030282 297.026902 
L 279.034199 297.022383 
L 279.116451 297.015821 
L 279.147786 297.039062 
L 279.418043 297.046279 
L 279.43371 297.063659 
L 279.484628 297.002146 
L 279.515963 296.994946 
L 279.633466 297.010995 
L 279.743136 297.048021 
L 279.766636 297.033289 
L 279.844972 297.021837 
L 279.876306 297.054765 
L 280.021227 297.096784 
L 280.683162 296.980973 
L 280.929919 297.112608 
L 280.933836 297.10918 
L 281.08659 297.118678 
L 281.223677 297.135421 
L 281.364681 297.069612 
L 281.376431 297.081737 
L 281.423433 297.066016 
L 281.446933 297.027674 
L 281.466517 297.024369 
L 281.627105 296.956822 
L 282.367376 297.099881 
L 282.555381 296.974581 
L 282.614133 296.969886 
L 282.653301 296.927908 
L 282.919641 296.825629 
L 283.017561 296.822469 
L 283.033228 296.802113 
L 283.178149 296.787787 
L 283.182065 296.791959 
L 283.34657 296.892502 
L 283.47974 296.942942 
L 283.593327 296.966339 
L 283.60116 296.954422 
L 284.047673 297.070532 
L 284.239595 297.024729 
L 284.055507 297.080125 
L 284.243512 297.033053 
L 284.4276 297.136098 
L 284.615606 297.173126 
L 284.682191 297.184163 
L 284.725275 297.151283 
L 284.893697 297.14942 
L 285.073868 297.204687 
L 285.539965 297.200162 
L 285.641801 297.16985 
L 285.598716 297.159534 
L 285.645718 297.166343 
L 285.806306 297.083153 
L 285.888558 297.082952 
L 285.818056 297.072738 
L 285.915975 297.066575 
L 286.037395 297.033574 
L 286.049146 297.042877 
L 286.111814 297.064097 
L 286.158816 297.02113 
L 286.346821 297.070133 
L 286.350738 297.055827 
L 286.801167 297.116004 
L 286.836418 297.086574 
L 286.934337 297.152627 
L 287.185011 297.207278 
L 287.279014 297.195551 
L 287.294681 297.216343 
L 287.455269 297.263078 
L 287.588439 297.190033 
L 287.615856 297.212901 
L 287.709859 297.239647 
L 287.655024 297.192481 
L 287.73336 297.216753 
L 287.846946 297.246995 
L 288.093703 297.256002 
L 288.187706 297.22922 
L 288.215123 297.264668 
L 288.426629 297.264651 
L 289.209984 297.221307 
L 289.374489 297.266664 
L 289.503743 297.232286 
L 289.390156 297.275615 
L 289.511576 297.238193 
L 289.76225 297.276204 
L 290.020757 297.357585 
L 290.12651 297.381489 
L 290.134344 297.394142 
L 291.587468 297.450694 
L 291.697137 297.450126 
L 291.704971 297.446266 
L 291.818558 297.451593 
L 291.955645 297.500627 
L 291.967395 297.48285 
L 292.116233 297.479468 
L 292.652831 297.393928 
L 292.707666 297.361305 
L 292.770334 297.390582 
L 292.907421 297.39132 
L 293.032758 297.411942 
L 293.036675 297.418632 
L 294.313544 297.38042 
L 294.509383 297.484432 
L 294.638637 297.510294 
L 294.64647 297.53217 
L 294.842309 297.556147 
L 295.190902 297.472531 
L 295.324073 297.471511 
L 295.437659 297.485393 
L 295.441576 297.492581 
L 295.798002 297.517561 
L 295.919423 297.513623 
L 296.29935 297.477847 
L 297.255043 297.73682 
L 297.556635 297.606752 
L 297.638887 297.570234 
L 297.654555 297.548597 
L 297.815142 297.525359 
L 297.822976 297.536101 
L 297.971813 297.541607 
L 297.97573 297.537328 
L 298.089317 297.563115 
L 298.093234 297.571749 
L 298.230321 297.682823 
L 298.249905 297.652669 
L 298.68075 297.677387 
L 298.794337 297.288786 
L 298.896173 297.184758 
L 299.025426 297.083501 
L 299.029343 297.086104 
L 299.170347 297.096967 
L 299.291767 297.170605 
L 299.742196 297.690999 
L 300.490301 297.348558 
L 300.498134 297.368077 
L 300.643055 297.428105 
L 300.768392 297.467804 
L 300.893729 297.563693 
L 300.905479 297.552258 
L 301.257989 297.576177 
L 301.375492 297.509387 
L 301.496912 297.473204 
L 301.575248 297.476477 
L 301.606582 297.45062 
L 301.869006 297.52793 
L 301.872923 297.520826 
L 302.182348 297.543452 
L 302.326486 297.641638 
L 302.327269 297.639032 
L 303.576721 297.740268 
L 303.713808 297.706384 
L 303.862645 297.610071 
L 304.011483 297.536958 
L 304.019316 297.545216 
L 305.593861 297.813658 
L 305.93462 297.953801 
L 306.185294 297.931176 
L 306.294964 297.83407 
L 306.322381 297.853188 
L 306.341965 297.864697 
L 306.416384 297.789574 
L 306.4203 297.795499 
L 306.647473 297.693628 
L 306.77281 297.671744 
L 306.776727 297.673866 
L 307.524831 297.81496 
L 308.026179 297.768635 
L 308.159349 297.831678 
L 308.167183 297.82371 
L 308.394356 297.821311 
L 308.507942 297.815684 
L 308.523609 297.834674 
L 308.797784 297.80193 
L 308.919204 297.74339 
L 308.934871 297.755815 
L 309.056291 297.788136 
L 308.942704 297.766203 
L 309.060208 297.795345 
L 309.189461 297.841069 
L 309.412718 297.796924 
L 309.557638 297.797524 
L 309.561555 297.80205 
L 309.972817 297.850617 
L 310.07857 297.887208 
L 310.243074 297.944102 
L 310.246991 297.939041 
L 310.387995 297.942546 
L 310.395829 297.958561 
L 311.210518 298.033549 
L 311.394607 298.01155 
L 311.547361 298.020551 
L 311.895954 297.949134 
L 311.970373 297.941297 
L 312.00954 297.977357 
L 312.538305 297.883046 
L 312.675392 297.936163 
L 313.098404 298.068864 
L 313.208074 298.08618 
L 313.223741 298.0748 
L 315.507222 298.111534 
L 315.632559 298.162865 
L 315.636475 298.16079 
L 315.777479 298.198909 
L 315.91065 298.261666 
L 316.012486 298.204158 
L 316.220075 298.137149 
L 316.317995 298.131616 
L 316.333662 298.122479 
L 316.666588 298.151363 
L 316.670504 298.143678 
L 316.752757 298.218895 
L 316.929012 298.320384 
L 316.932928 298.310265 
L 317.297189 298.264413 
L 317.402942 298.223568 
L 317.422526 298.240418 
L 317.677116 298.196506 
L 317.735868 298.205434 
L 317.782869 298.164008 
L 317.880788 298.175741 
L 317.896456 298.187703 
L 318.06096 298.144408 
L 318.064877 298.13195 
L 318.221548 298.06435 
L 318.393886 298.083167 
L 318.574058 298.097748 
L 318.711145 298.129013 
L 318.844315 298.125423 
L 318.918734 298.141105 
L 318.953985 298.09823 
L 319.079322 298.108561 
L 319.087156 298.099216 
L 319.490584 298.08501 
L 319.733424 298.067167 
L 319.894012 298.016401 
L 320.042849 298.081582 
L 320.0781 298.104552 
L 320.172103 298.069533 
L 321.166964 298.200849 
L 321.386303 298.209916 
L 321.445055 298.203506 
L 321.48814 298.164396 
L 321.680062 298.145043 
L 321.903318 298.28659 
L 321.907235 298.28275 
L 322.024738 298.265202 
L 322.028655 298.2696 
L 322.247994 298.338367 
L 322.369414 298.379451 
L 322.385081 298.362118 
L 322.588754 298.345553 
L 322.592671 298.357465 
L 322.753258 298.334911 
L 322.972598 298.247322 
L 323.141019 298.250005 
L 323.289857 298.254908 
L 323.462195 298.308311 
L 323.579698 298.307168 
L 323.583615 298.310125 
L 323.763787 298.350931 
L 323.795121 298.371911 
L 323.873456 298.329321 
L 324.131964 298.246227 
L 324.363054 298.322166 
L 324.59806 298.374574 
L 324.860484 298.461413 
L 325.009322 298.393321 
L 325.353998 298.376755 
L 325.510669 298.350563 
L 325.663423 298.350197 
L 325.66734 298.342538 
L 325.741759 298.307645 
L 325.784843 298.331653 
L 326.595616 298.413877 
L 326.728787 298.370045 
L 327.038212 298.37682 
L 327.237967 298.475078 
L 327.531726 298.617403 
L 327.535642 298.609934 
L 327.813734 298.588464 
L 327.946904 298.550364 
L 328.295497 298.440068 
L 328.299414 298.44792 
L 329.020101 298.644575 
L 329.184605 298.674178 
L 329.505781 298.650276 
L 329.662452 298.57645 
L 329.783872 298.571365 
L 329.913126 298.571301 
L 329.917043 298.578073 
L 330.081547 298.574668 
L 330.234301 298.639728 
L 330.402723 298.666292 
L 330.524143 298.668929 
L 330.970655 298.547491 
L 331.080325 298.568776 
L 330.998073 298.537479 
L 331.088159 298.554033 
L 331.338832 298.628804 
L 331.526838 298.633228 
L 331.652175 298.676571 
L 331.671758 298.662872 
L 332.267108 298.771434 
L 332.361111 298.746047 
L 332.372861 298.73596 
L 333.199301 298.630102 
L 333.308971 298.636779 
L 333.324638 298.620948 
L 333.399057 298.569957 
L 333.453892 298.608631 
L 333.536144 298.639402 
L 333.579229 298.61655 
L 333.763317 298.650948 
L 334.057075 298.708541 
L 334.170662 298.718137 
L 334.292082 298.69319 
L 334.472254 298.70777 
L 334.636758 298.638985 
L 334.789513 298.614393 
L 334.801263 298.598149 
L 334.942267 298.61989 
L 335.055853 298.608149 
L 335.075437 298.635029 
L 335.196857 298.646615 
L 335.275193 298.654799 
L 335.236025 298.669405 
L 335.298693 298.683476 
L 335.41228 298.750935 
L 335.447531 298.731676 
L 335.565034 298.697747 
L 335.572868 298.702712 
L 335.600285 298.719278 
L 335.682538 298.678301 
L 335.862709 298.611131 
L 336.203469 298.601668 
L 336.356223 298.61643 
L 336.465893 298.624988 
L 336.477643 298.64726 
L 337.253165 298.852989 
L 337.374585 298.848012 
L 337.605675 298.839781 
L 337.699677 298.822322 
L 337.719261 298.843346 
L 337.817181 298.806493 
L 337.785847 298.796665 
L 337.821098 298.800945 
L 337.966018 298.804599 
L 338.103105 298.818907 
L 338.107022 298.81578 
L 338.706289 298.736786 
L 339.137134 298.708326 
L 339.250721 298.675716 
L 339.160635 298.718553 
L 339.258555 298.684369 
L 339.411309 298.719043 
L 339.415226 298.714525 
L 339.536646 298.752731 
L 339.654149 298.817046 
L 339.665899 298.80755 
L 339.79907 298.870093 
L 339.818654 298.855422 
L 340.018409 298.910994 
L 340.214248 298.828183 
L 340.370919 298.758877 
L 340.374836 298.763285 
L 340.652927 298.783063 
L 340.77043 298.779549 
L 340.790014 298.806229 
L 340.872266 298.839519 
L 341.169941 298.972874 
L 341.322696 299.004097 
L 341.455866 298.948791 
L 341.4637 298.965685 
L 341.59687 298.966077 
L 341.941546 298.923228 
L 342.329307 298.894691 
L 342.474228 298.944535 
L 342.482062 298.935032 
L 342.689651 298.953145 
L 342.807154 298.953149 
L 342.811071 298.948518 
L 342.889406 298.916992 
L 342.842405 298.908926 
L 342.90899 298.895306 
L 343.073495 298.879871 
L 343.257583 298.85526 
L 343.398587 298.890076 
L 343.402504 298.884191 
L 343.586593 298.901713 
L 343.72368 298.979687 
L 343.872517 298.937669 
L 343.876434 298.944451 
L 343.96652 298.940547 
L 343.986104 298.923342 
L 344.119274 298.936696 
L 344.236777 298.929899 
L 344.256361 298.973671 
L 344.350364 298.922312 
L 344.467867 298.910812 
L 344.616705 299.004158 
L 344.945714 299.005207 
L 345.090635 298.997406 
L 345.106302 299.015834 
L 345.243389 298.984951 
L 345.251223 298.989867 
L 345.321725 298.920406 
L 345.333475 298.924467 
L 345.490146 298.929115 
L 345.650734 298.990772 
L 345.803488 298.97119 
L 345.807405 298.976665 
L 345.940575 298.963127 
L 346.402755 298.960901 
L 346.543759 298.944886 
L 346.669096 298.954565 
L 346.676929 298.963115 
L 346.970687 298.983482 
L 347.143026 299.015235 
L 347.323197 298.985884 
L 348.372893 299.069622 
L 349.09358 299.254678 
L 349.179749 299.280966 
L 349.211084 299.268025 
L 349.403006 299.20876 
L 349.904353 299.146404 
L 350.088442 299.158472 
L 350.824796 299.201997 
L 350.957966 299.284393 
L 351.435813 299.170777 
L 355.031413 299.315373 
L 355.274254 299.261341 
L 355.37609 299.225747 
L 355.49751 299.218648 
L 355.689432 299.296237 
L 355.783435 299.363048 
L 356.237781 299.495581 
L 356.398368 299.374562 
L 356.515872 299.30924 
L 356.672543 299.232091 
L 356.80963 299.240514 
L 357.16214 299.295472 
L 357.299227 299.355967 
L 357.491149 299.322877 
L 357.765323 299.272936 
L 358.015997 299.259325 
L 358.047331 299.232739 
L 358.157001 299.264002 
L 359.003025 299.54688 
L 359.006942 299.53834 
L 359.116611 299.480759 
L 359.136195 299.498021 
L 359.226281 299.464527 
L 359.171446 299.475657 
L 359.234115 299.460368 
L 359.375119 299.391058 
L 359.429954 299.389771 
L 359.480872 299.36178 
L 360.091889 299.457505 
L 360.221142 299.52258 
L 360.346479 299.548513 
L 360.350396 299.54207 
L 360.73424 299.445289 
L 360.863494 299.439377 
L 360.95358 299.431033 
L 360.980997 299.448683 
L 361.172919 299.518418 
L 361.247338 299.567036 
L 361.298256 299.51605 
L 361.419676 299.5219 
L 361.423593 299.530602 
L 361.552846 299.549446 
L 362.27745 299.516641 
L 362.39887 299.447154 
L 362.402787 299.451176 
L 364.016499 299.544063 
L 364.141836 299.563976 
L 364.557014 299.565195 
L 364.729352 299.62421 
L 364.983943 299.723997 
L 364.987859 299.714674 
L 365.015277 299.750873 
L 365.085779 299.766716 
L 365.571459 299.518925 
L 365.692879 299.479382 
L 365.704629 299.491168 
L 365.923969 299.546248 
L 365.935719 299.558228 
L 366.049306 299.558081 
L 366.174643 299.600035 
L 366.43315 299.61496 
L 366.531069 299.614187 
L 366.468401 299.637441 
L 366.550653 299.626154 
L 366.946248 299.751446 
L 367.052001 299.750165 
L 367.059834 299.741352 
L 367.181254 299.747314 
L 367.98811 299.675567 
L 368.140864 299.604325 
L 368.250534 299.563869 
L 368.254451 299.55312 
L 368.332786 299.5325 
L 368.364121 299.560059 
L 368.497291 299.607935 
L 368.614794 299.630845 
L 368.556043 299.585966 
L 368.618711 299.62343 
L 368.967304 299.636914 
L 369.104391 299.621358 
L 368.979055 299.652036 
L 369.108308 299.626313 
L 371.474041 299.691805 
L 371.68163 299.723281 
L 371.998889 299.902606 
L 372.116393 299.964091 
L 372.229979 300.008983 
L 372.245646 299.998875 
L 372.402317 299.972264 
L 372.558988 299.945221 
L 372.833163 299.735021 
L 372.840996 299.75352 
L 373.013334 299.711046 
L 373.029002 299.734471 
L 373.107337 299.735829 
L 373.138671 299.703695 
L 373.248341 299.69708 
L 373.256175 299.703819 
L 373.361928 299.650678 
L 373.385428 299.701598 
L 373.69877 299.772091 
L 373.847608 299.784115 
L 374.164867 299.842518 
L 374.309787 299.768559 
L 374.478209 299.759589 
L 374.482126 299.75158 
L 374.611379 299.661711 
L 374.63488 299.675838 
L 374.779801 299.695436 
L 375.050058 299.725735 
L 375.198896 299.783894 
L 375.202812 299.780094 
L 375.320316 299.806182 
L 375.382984 299.835871 
L 375.433902 299.803997 
L 375.653242 299.837929 
L 375.864748 299.869944 
L 375.868664 299.860061 
L 375.95875 299.809981 
L 375.990085 299.841416 
L 376.127172 299.866392 
L 376.135005 299.859974 
L 376.268176 299.835266 
L 376.475765 299.810697 
L 376.671604 299.878361 
L 376.777357 299.880546 
L 376.691188 299.89042 
L 376.789107 299.8899 
L 376.930111 299.924021 
L 377.090699 300.027722 
L 377.098532 300.021371 
L 377.216036 300.02349 
L 377.235619 300.05395 
L 377.548962 300.085254 
L 377.686049 300.014883 
L 377.689966 300.023646 
L 377.834886 299.934226 
L 377.987641 299.885897 
L 378.069893 299.831577 
L 378.038559 299.825944 
L 378.077726 299.823639 
L 378.238314 299.84625 
L 378.242231 299.854929 
L 378.42632 299.932388 
L 378.579074 299.926194 
L 378.582991 299.917805 
L 378.629992 299.976444 
L 378.68091 299.966059 
L 378.841498 299.97127 
L 380.737218 299.984149 
L 380.756802 300.003387 
L 380.866471 299.989859 
L 381.015309 300.035197 
L 381.023142 300.028614 
L 381.179813 300.035801 
L 381.297317 300.095183 
L 381.30515 300.09098 
L 381.406986 300.097034 
L 381.418737 300.111177 
L 381.602825 300.056896 
L 381.728162 300.059395 
L 384.520824 300.12248 
L 384.665744 300.176097 
L 385.065256 300.110664 
L 385.073089 300.089571 
L 385.171009 300.139581 
L 385.507851 300.216783 
L 385.590104 300.246128 
L 385.605771 300.26818 
L 385.727191 300.305185 
L 385.731108 300.302521 
L 385.868195 300.330442 
L 385.754608 300.280738 
L 385.876028 300.311832 
L 386.04445 300.232656 
L 386.400876 300.195378 
L 386.404793 300.210566 
L 386.545797 300.253392 
L 386.416544 300.200557 
L 386.561464 300.237105 
L 386.694635 300.247552 
L 386.698551 300.252134 
L 387.278234 300.245069 
L 387.286068 300.237612 
L 387.430989 300.289886 
L 387.560242 300.287457 
L 387.697329 300.341598 
L 387.571993 300.281602 
L 387.701246 300.338151 
L 387.748248 300.298561 
L 387.814833 300.335862 
L 387.96367 300.22153 
L 388.089007 300.175045 
L 388.096841 300.181931 
L 388.19476 300.186406 
L 388.214344 300.205143 
L 388.378849 300.258536 
L 388.386682 300.243065 
L 388.519853 300.223702 
L 388.523769 300.22728 
L 388.649106 300.233809 
L 388.653023 300.227458 
L 388.805777 300.231349 
L 388.817528 300.250334 
L 388.91153 300.235893 
L 388.844945 300.227308 
L 388.919364 300.21692 
L 389.099535 300.137148 
L 389.103452 300.142485 
L 389.228789 300.155164 
L 389.48338 300.225127 
L 389.600883 300.198667 
L 389.61655 300.212651 
L 389.718386 300.230773 
L 389.741887 300.214769 
L 389.863307 300.217124 
L 389.867224 300.213826 
L 390.094397 300.191976 
L 390.121814 300.17646 
L 390.196233 300.230037 
L 390.33332 300.203343 
L 390.497825 300.27999 
L 390.666246 300.316348 
L 390.670163 300.311267 
L 391.046173 300.286932 
L 391.183261 300.322187 
L 391.187177 300.315365 
L 391.684608 300.288873 
L 391.829529 300.321 
L 391.837362 300.314775 
L 392.377877 300.414746 
L 392.601134 300.436712 
L 392.859641 300.419589 
L 392.988895 300.30774 
L 393.004562 300.326266 
L 393.545077 300.330775 
L 393.592078 300.320475 
L 393.642996 300.370489 
L 393.740916 300.420177 
L 393.77225 300.389792 
L 394.602606 300.299781 
L 394.708359 300.311113 
L 394.724027 300.292333 
L 394.849363 300.286802 
L 395.029535 300.390226 
L 395.147038 300.441043 
L 395.19404 300.468376 
L 395.260625 300.419394 
L 395.374211 300.414437 
L 395.542633 300.504424 
L 395.703221 300.459067 
L 395.820724 300.439508 
L 395.828558 300.445229 
L 395.949978 300.444853 
L 395.957811 300.438098 
L 396.03223 300.439938 
L 396.071398 300.465809 
L 396.228069 300.442082 
L 396.353406 300.437052 
L 396.361239 300.44741 
L 396.423908 300.480779 
L 396.478742 300.458002 
L 396.623663 300.484939 
L 396.62758 300.492071 
L 396.854753 300.548066 
L 397.019258 300.50602 
L 397.301265 300.519871 
L 397.305182 300.536208 
L 397.320849 300.546664 
L 397.395268 300.479252 
L 397.403102 300.478777 
L 397.540189 300.473398 
L 397.555856 300.458557 
L 397.669442 300.469407 
L 398.080704 300.481887 
L 398.123789 300.463034 
L 398.18254 300.51658 
L 398.323544 300.527702 
L 398.421464 300.573852 
L 398.339211 300.548718 
L 398.429297 300.586022 
L 398.64472 300.645179 
L 398.648637 300.640005 
L 398.781807 300.675177 
L 398.954145 300.72224 
L 399.545578 300.61098 
L 399.655248 300.587827 
L 399.670915 300.60124 
L 399.858921 300.60939 
L 400.003841 300.60187 
L 400.015592 300.620658 
L 400.168346 300.669434 
L 400.30935 300.604019 
L 400.317183 300.610026 
L 400.579607 300.630492 
L 400.701027 300.620014 
L 400.79503 300.652533 
L 400.720611 300.635484 
L 400.802864 300.657679 
L 400.932117 300.665045 
L 400.936034 300.658117 
L 400.967368 300.655928 
L 400.994786 300.692836 
L 401.03787 300.695227 
L 401.523551 300.691846 
L 401.601886 300.665647 
L 401.574469 300.665672 
L 401.62147 300.646668 
L 401.911311 300.674644 
L 402.032731 300.698513 
L 402.040565 300.689252 
L 402.154152 300.689917 
L 402.314739 300.710576 
L 402.510578 300.646788 
L 402.996259 300.678534 
L 403.172513 300.710596 
L 403.17643 300.705702 
L 403.184264 300.689057 
L 403.270433 300.755705 
L 403.27435 300.753115 
L 403.427104 300.736365 
L 403.556358 300.718167 
L 403.810948 300.609962 
L 403.924535 300.595216 
L 403.940202 300.609146 
L 404.265294 300.559949 
L 404.292712 300.540127 
L 404.363214 300.610232 
L 404.36713 300.60424 
L 406.352936 300.692669 
L 406.403854 300.72608 
L 406.470439 300.698035 
L 406.48219 300.687207 
L 406.646694 300.734855 
L 406.807282 300.788544 
L 406.952203 300.818421 
L 406.95612 300.803765 
L 407.10104 300.780583 
L 407.300796 300.795926 
L 407.433966 300.734679 
L 407.719891 300.622407 
L 407.868728 300.537899 
L 407.880479 300.543795 
L 408.001899 300.542294 
L 408.0254 300.556908 
L 408.111569 300.572449 
L 408.330908 300.657151 
L 408.38966 300.667144 
L 408.342658 300.668409 
L 408.428828 300.706991 
L 409.408022 300.683832 
L 409.576443 300.794286 
L 409.897619 300.758466 
L 409.901535 300.767249 
L 409.975954 300.738902 
L 409.999455 300.705735 
L 410.371549 300.653566 
L 410.590888 300.702378 
L 410.704475 300.686516 
L 410.708391 300.696042 
L 410.868979 300.717819 
L 410.872896 300.711671 
L 411.02565 300.705063 
L 411.186238 300.732508 
L 411.190155 300.727385 
L 411.319409 300.75286 
L 411.691502 300.690017 
L 411.844257 300.665417 
L 411.879508 300.647449 
L 411.96176 300.661281 
L 412.361271 300.782351 
L 412.514025 300.912425 
L 412.713781 300.911302 
L 412.819534 300.872338 
L 412.831284 300.877792 
L 412.937037 300.876577 
L 413.172044 300.887687 
L 413.313048 300.871766 
L 413.477552 300.866866 
L 413.724309 300.903903 
L 413.849646 300.9334 
L 413.85748 300.928789 
L 414.159072 300.991343 
L 414.162988 300.983555 
L 414.578167 300.891012 
L 414.699587 300.934907 
L 414.70742 300.929838 
L 414.856258 300.899612 
L 415.028596 300.919163 
L 415.110848 300.90594 
L 415.142182 300.931119 
L 415.396773 300.927724 
L 415.482942 300.932533 
L 415.420274 300.945023 
L 415.502526 300.965999 
L 415.596529 300.939323 
L 415.557361 300.937338 
L 415.604362 300.930681 
L 415.725782 300.930161 
L 415.729699 300.933899 
L 415.870703 300.93678 
L 416.11746 301.01181 
L 416.332882 301.021923 
L 416.450386 301.038796 
L 416.454303 301.032886 
L 416.587473 301.006076 
L 416.732394 300.974044 
L 417.656753 301.044753 
L 417.778173 301.070449 
L 417.78209 301.067389 
L 417.942678 301.084673 
L 418.326522 301.06947 
L 418.451859 301.057086 
L 418.455775 301.061949 
L 418.675115 301.025797 
L 418.800452 301.032821 
L 418.839619 301.056135 
L 418.914038 301.016803 
L 419.062876 301.033205 
L 419.207796 301.065295 
L 419.344884 301.05002 
L 419.356634 301.063027 
L 420.563001 301.034892 
L 420.696172 301.036095 
L 420.782341 301.037946 
L 420.809758 300.990237 
L 420.935095 300.959431 
L 420.942928 300.968126 
L 421.036931 301.018986 
L 421.068265 301.001543 
L 421.209269 300.97034 
L 421.350273 300.999878 
L 421.518695 301.001132 
L 421.526528 301.016593 
L 422.638893 301.066256 
L 422.764229 301.045746 
L 422.967902 301.082076 
L 423.061905 301.104574 
L 423.073655 301.113238 
L 423.234243 301.159325 
L 423.355663 301.167858 
L 423.5045 301.200508 
L 423.716006 301.097329 
L 423.817842 301.106542 
L 423.727757 301.087201 
L 423.837426 301.091556 
L 424.315273 301.054209 
L 424.56203 301.058017 
L 424.808787 301.054518 
L 425.079044 301.141791 
L 425.082961 301.134745 
L 425.50989 301.121953 
L 425.646977 301.139556 
L 425.650894 301.133518 
L 425.823232 301.062618 
L 425.662644 301.143175 
L 425.831065 301.068847 
L 426.101323 301.071719 
L 426.22666 301.091131 
L 426.355914 301.11632 
L 426.35983 301.110824 
L 426.485167 301.134133 
L 426.489084 301.142182 
L 426.696673 301.245894 
L 426.829844 301.249686 
L 427.010015 301.204283 
L 427.139269 301.179853 
L 427.292023 301.161058 
L 427.409526 301.169462 
L 427.589698 301.20509 
L 427.703285 301.23218 
L 427.832538 301.27713 
L 427.848205 301.263797 
L 429.649923 301.067834 
L 429.826178 301.121238 
L 430.0181 301.123644 
L 430.315775 301.280066 
L 430.511613 301.313609 
L 430.715286 301.434143 
L 430.832789 301.425143 
L 430.836706 301.428043 
L 430.97771 301.450505 
L 430.981627 301.44602 
L 431.103047 301.423209 
L 431.106963 301.427051 
L 431.228384 301.43155 
L 431.134381 301.409453 
L 431.2323 301.427165 
L 431.369387 301.387501 
L 431.57306 301.359182 
L 431.996072 301.293518 
L 432.097908 301.305849 
L 432.121409 301.282032 
L 432.924348 301.331255 
L 433.014434 301.318428 
L 433.030101 301.298919 
L 433.124103 301.317663 
L 433.065352 301.31661 
L 433.135854 301.327275 
L 433.425695 301.232558 
L 433.511864 301.215344 
L 433.539282 301.224014 
L 433.558866 301.208442 
L 433.660702 301.199953 
L 433.860457 301.221525 
L 434.165966 301.283629 
L 434.29522 301.326972 
L 434.299136 301.324428 
L 434.498892 301.275634 
L 434.502809 301.282702 
L 434.588978 301.303248 
L 434.620312 301.290023 
L 434.753482 301.295647 
L 434.882736 301.300921 
L 434.886653 301.306517 
L 435.15691 301.364874 
L 435.438918 301.368484 
L 435.564255 301.36618 
L 435.854097 301.344399 
L 436.014684 301.363191 
L 436.249691 301.391647 
L 436.410279 301.469301 
L 436.422029 301.457151 
L 436.653119 301.41584 
L 436.845041 301.420206 
L 436.848958 301.412706 
L 437.021296 301.403643 
L 437.75765 301.548141 
L 437.75765 301.548141 
" clip-path="url(#p8087769e86)" style="fill: none; stroke: #76b900; stroke-opacity: 0.7; stroke-width: 1.5; stroke-linecap: square"/>
   </g>
   <g id="patch_3">
    <path d="M 46.08 311.04 
L 46.08 69.12 
" style="fill: none; stroke: #000000; stroke-width: 0.8; stroke-linejoin: miter; stroke-linecap: square"/>
   </g>
   <g id="patch_4">
    <path d="M 437.76 311.04 
L 437.76 69.12 
" style="fill: none; stroke: #000000; stroke-width: 0.8; stroke-linejoin: miter; stroke-linecap: square"/>
   </g>
   <g id="patch_5">
    <path d="M 46.08 311.04 
L 437.76 311.04 
" style="fill: none; stroke: #000000; stroke-width: 0.8; stroke-linejoin: miter; stroke-linecap: square"/>
   </g>
   <g id="patch_6">
    <path d="M 46.08 69.12 
L 437.76 69.12 
" style="fill: none; stroke: #000000; stroke-width: 0.8; stroke-linejoin: miter; stroke-linecap: square"/>
   </g>
   <g id="text_17">
    <!-- Transformer layers: 24 | Hidden size: 1024 | Attention heads: 32 | -->
    <g transform="translate(105.486314 53.516812)scale(0.0833 -0.0833)">
     <defs>
      <path id="DejaVuSans-66" d="M 2375 4863 
L 2375 4384 
L 1825 4384 
Q 1516 4384 1395 4259 
Q 1275 4134 1275 3809 
L 1275 3500 
L 2222 3500 
L 2222 3053 
L 1275 3053 
L 1275 0 
L 697 0 
L 697 3053 
L 147 3053 
L 147 3500 
L 697 3500 
L 697 3744 
Q 697 4328 969 4595 
Q 1241 4863 1831 4863 
L 2375 4863 
z
" transform="scale(0.015625)"/>
      <path id="DejaVuSans-6d" d="M 3328 2828 
Q 3544 3216 3844 3400 
Q 4144 3584 4550 3584 
Q 5097 3584 5394 3201 
Q 5691 2819 5691 2113 
L 5691 0 
L 5113 0 
L 5113 2094 
Q 5113 2597 4934 2840 
Q 4756 3084 4391 3084 
Q 3944 3084 3684 2787 
Q 3425 2491 3425 1978 
L 3425 0 
L 2847 0 
L 2847 2094 
Q 2847 2600 2669 2842 
Q 2491 3084 2119 3084 
Q 1678 3084 1418 2786 
Q 1159 2488 1159 1978 
L 1159 0 
L 581 0 
L 581 3500 
L 1159 3500 
L 1159 2956 
Q 1356 3278 1631 3431 
Q 1906 3584 2284 3584 
Q 2666 3584 2933 3390 
Q 3200 3197 3328 2828 
z
" transform="scale(0.015625)"/>
      <path id="DejaVuSans-79" d="M 2059 -325 
Q 1816 -950 1584 -1140 
Q 1353 -1331 966 -1331 
L 506 -1331 
L 506 -850 
L 844 -850 
Q 1081 -850 1212 -737 
Q 1344 -625 1503 -206 
L 1606 56 
L 191 3500 
L 800 3500 
L 1894 763 
L 2988 3500 
L 3597 3500 
L 2059 -325 
z
" transform="scale(0.015625)"/>
      <path id="DejaVuSans-3a" d="M 750 794 
L 1409 794 
L 1409 0 
L 750 0 
L 750 794 
z
M 750 3309 
L 1409 3309 
L 1409 2516 
L 750 2516 
L 750 3309 
z
" transform="scale(0.015625)"/>
      <path id="DejaVuSans-7c" d="M 1344 4891 
L 1344 -1509 
L 813 -1509 
L 813 4891 
L 1344 4891 
z
" transform="scale(0.015625)"/>
      <path id="DejaVuSans-48" d="M 628 4666 
L 1259 4666 
L 1259 2753 
L 3553 2753 
L 3553 4666 
L 4184 4666 
L 4184 0 
L 3553 0 
L 3553 2222 
L 1259 2222 
L 1259 0 
L 628 0 
L 628 4666 
z
" transform="scale(0.015625)"/>
      <path id="DejaVuSans-64" d="M 2906 2969 
L 2906 4863 
L 3481 4863 
L 3481 0 
L 2906 0 
L 2906 525 
Q 2725 213 2448 61 
Q 2172 -91 1784 -91 
Q 1150 -91 751 415 
Q 353 922 353 1747 
Q 353 2572 751 3078 
Q 1150 3584 1784 3584 
Q 2172 3584 2448 3432 
Q 2725 3281 2906 2969 
z
M 947 1747 
Q 947 1113 1208 752 
Q 1469 391 1925 391 
Q 2381 391 2643 752 
Q 2906 1113 2906 1747 
Q 2906 2381 2643 2742 
Q 2381 3103 1925 3103 
Q 1469 3103 1208 2742 
Q 947 2381 947 1747 
z
" transform="scale(0.015625)"/>
      <path id="DejaVuSans-7a" d="M 353 3500 
L 3084 3500 
L 3084 2975 
L 922 459 
L 3084 459 
L 3084 0 
L 275 0 
L 275 525 
L 2438 3041 
L 353 3041 
L 353 3500 
z
" transform="scale(0.015625)"/>
      <path id="DejaVuSans-41" d="M 2188 4044 
L 1331 1722 
L 3047 1722 
L 2188 4044 
z
M 1831 4666 
L 2547 4666 
L 4325 0 
L 3669 0 
L 3244 1197 
L 1141 1197 
L 716 0 
L 50 0 
L 1831 4666 
z
" transform="scale(0.015625)"/>
      <path id="DejaVuSans-68" d="M 3513 2113 
L 3513 0 
L 2938 0 
L 2938 2094 
Q 2938 2591 2744 2837 
Q 2550 3084 2163 3084 
Q 1697 3084 1428 2787 
Q 1159 2491 1159 1978 
L 1159 0 
L 581 0 
L 581 4863 
L 1159 4863 
L 1159 2956 
Q 1366 3272 1645 3428 
Q 1925 3584 2291 3584 
Q 2894 3584 3203 3211 
Q 3513 2838 3513 2113 
z
" transform="scale(0.015625)"/>
     </defs>
     <use xlink:href="#DejaVuSans-54"/>
     <use xlink:href="#DejaVuSans-72" x="46.333984"/>
     <use xlink:href="#DejaVuSans-61" x="87.447266"/>
     <use xlink:href="#DejaVuSans-6e" x="148.726562"/>
     <use xlink:href="#DejaVuSans-73" x="212.105469"/>
     <use xlink:href="#DejaVuSans-66" x="264.205078"/>
     <use xlink:href="#DejaVuSans-6f" x="299.410156"/>
     <use xlink:href="#DejaVuSans-72" x="360.591797"/>
     <use xlink:href="#DejaVuSans-6d" x="399.955078"/>
     <use xlink:href="#DejaVuSans-65" x="497.367188"/>
     <use xlink:href="#DejaVuSans-72" x="558.890625"/>
     <use xlink:href="#DejaVuSans-20" x="600.003906"/>
     <use xlink:href="#DejaVuSans-6c" x="631.791016"/>
     <use xlink:href="#DejaVuSans-61" x="659.574219"/>
     <use xlink:href="#DejaVuSans-79" x="720.853516"/>
     <use xlink:href="#DejaVuSans-65" x="780.033203"/>
     <use xlink:href="#DejaVuSans-72" x="841.556641"/>
     <use xlink:href="#DejaVuSans-73" x="882.669922"/>
     <use xlink:href="#DejaVuSans-3a" x="934.769531"/>
     <use xlink:href="#DejaVuSans-20" x="968.460938"/>
     <use xlink:href="#DejaVuSans-32" x="1000.248047"/>
     <use xlink:href="#DejaVuSans-34" x="1063.871094"/>
     <use xlink:href="#DejaVuSans-20" x="1127.494141"/>
     <use xlink:href="#DejaVuSans-7c" x="1159.28125"/>
     <use xlink:href="#DejaVuSans-20" x="1192.972656"/>
     <use xlink:href="#DejaVuSans-48" x="1224.759766"/>
     <use xlink:href="#DejaVuSans-69" x="1299.955078"/>
     <use xlink:href="#DejaVuSans-64" x="1327.738281"/>
     <use xlink:href="#DejaVuSans-64" x="1391.214844"/>
     <use xlink:href="#DejaVuSans-65" x="1454.691406"/>
     <use xlink:href="#DejaVuSans-6e" x="1516.214844"/>
     <use xlink:href="#DejaVuSans-20" x="1579.59375"/>
     <use xlink:href="#DejaVuSans-73" x="1611.380859"/>
     <use xlink:href="#DejaVuSans-69" x="1663.480469"/>
     <use xlink:href="#DejaVuSans-7a" x="1691.263672"/>
     <use xlink:href="#DejaVuSans-65" x="1743.753906"/>
     <use xlink:href="#DejaVuSans-3a" x="1805.277344"/>
     <use xlink:href="#DejaVuSans-20" x="1838.96875"/>
     <use xlink:href="#DejaVuSans-31" x="1870.755859"/>
     <use xlink:href="#DejaVuSans-30" x="1934.378906"/>
     <use xlink:href="#DejaVuSans-32" x="1998.001953"/>
     <use xlink:href="#DejaVuSans-34" x="2061.625"/>
     <use xlink:href="#DejaVuSans-20" x="2125.248047"/>
     <use xlink:href="#DejaVuSans-7c" x="2157.035156"/>
     <use xlink:href="#DejaVuSans-20" x="2190.726562"/>
     <use xlink:href="#DejaVuSans-41" x="2222.513672"/>
     <use xlink:href="#DejaVuSans-74" x="2289.171875"/>
     <use xlink:href="#DejaVuSans-74" x="2328.380859"/>
     <use xlink:href="#DejaVuSans-65" x="2367.589844"/>
     <use xlink:href="#DejaVuSans-6e" x="2429.113281"/>
     <use xlink:href="#DejaVuSans-74" x="2492.492188"/>
     <use xlink:href="#DejaVuSans-69" x="2531.701172"/>
     <use xlink:href="#DejaVuSans-6f" x="2559.484375"/>
     <use xlink:href="#DejaVuSans-6e" x="2620.666016"/>
     <use xlink:href="#DejaVuSans-20" x="2684.044922"/>
     <use xlink:href="#DejaVuSans-68" x="2715.832031"/>
     <use xlink:href="#DejaVuSans-65" x="2779.210938"/>
     <use xlink:href="#DejaVuSans-61" x="2840.734375"/>
     <use xlink:href="#DejaVuSans-64" x="2902.013672"/>
     <use xlink:href="#DejaVuSans-73" x="2965.490234"/>
     <use xlink:href="#DejaVuSans-3a" x="3017.589844"/>
     <use xlink:href="#DejaVuSans-20" x="3051.28125"/>
     <use xlink:href="#DejaVuSans-33" x="3083.068359"/>
     <use xlink:href="#DejaVuSans-32" x="3146.691406"/>
     <use xlink:href="#DejaVuSans-20" x="3210.314453"/>
     <use xlink:href="#DejaVuSans-7c" x="3242.101562"/>
    </g>
    <!--  Seq_len: 512 | Optimizer: Adam | Tensor Parallelism: 2 -->
    <g transform="translate(127.726763 63.12)scale(0.0833 -0.0833)">
     <defs>
      <path id="DejaVuSans-53" d="M 3425 4513 
L 3425 3897 
Q 3066 4069 2747 4153 
Q 2428 4238 2131 4238 
Q 1616 4238 1336 4038 
Q 1056 3838 1056 3469 
Q 1056 3159 1242 3001 
Q 1428 2844 1947 2747 
L 2328 2669 
Q 3034 2534 3370 2195 
Q 3706 1856 3706 1288 
Q 3706 609 3251 259 
Q 2797 -91 1919 -91 
Q 1588 -91 1214 -16 
Q 841 59 441 206 
L 441 856 
Q 825 641 1194 531 
Q 1563 422 1919 422 
Q 2459 422 2753 634 
Q 3047 847 3047 1241 
Q 3047 1584 2836 1778 
Q 2625 1972 2144 2069 
L 1759 2144 
Q 1053 2284 737 2584 
Q 422 2884 422 3419 
Q 422 4038 858 4394 
Q 1294 4750 2059 4750 
Q 2388 4750 2728 4690 
Q 3069 4631 3425 4513 
z
" transform="scale(0.015625)"/>
      <path id="DejaVuSans-71" d="M 947 1747 
Q 947 1113 1208 752 
Q 1469 391 1925 391 
Q 2381 391 2643 752 
Q 2906 1113 2906 1747 
Q 2906 2381 2643 2742 
Q 2381 3103 1925 3103 
Q 1469 3103 1208 2742 
Q 947 2381 947 1747 
z
M 2906 525 
Q 2725 213 2448 61 
Q 2172 -91 1784 -91 
Q 1150 -91 751 415 
Q 353 922 353 1747 
Q 353 2572 751 3078 
Q 1150 3584 1784 3584 
Q 2172 3584 2448 3432 
Q 2725 3281 2906 2969 
L 2906 3500 
L 3481 3500 
L 3481 -1331 
L 2906 -1331 
L 2906 525 
z
" transform="scale(0.015625)"/>
      <path id="DejaVuSans-5f" d="M 3263 -1063 
L 3263 -1509 
L -63 -1509 
L -63 -1063 
L 3263 -1063 
z
" transform="scale(0.015625)"/>
      <path id="DejaVuSans-4f" d="M 2522 4238 
Q 1834 4238 1429 3725 
Q 1025 3213 1025 2328 
Q 1025 1447 1429 934 
Q 1834 422 2522 422 
Q 3209 422 3611 934 
Q 4013 1447 4013 2328 
Q 4013 3213 3611 3725 
Q 3209 4238 2522 4238 
z
M 2522 4750 
Q 3503 4750 4090 4092 
Q 4678 3434 4678 2328 
Q 4678 1225 4090 567 
Q 3503 -91 2522 -91 
Q 1538 -91 948 565 
Q 359 1222 359 2328 
Q 359 3434 948 4092 
Q 1538 4750 2522 4750 
z
" transform="scale(0.015625)"/>
      <path id="DejaVuSans-70" d="M 1159 525 
L 1159 -1331 
L 581 -1331 
L 581 3500 
L 1159 3500 
L 1159 2969 
Q 1341 3281 1617 3432 
Q 1894 3584 2278 3584 
Q 2916 3584 3314 3078 
Q 3713 2572 3713 1747 
Q 3713 922 3314 415 
Q 2916 -91 2278 -91 
Q 1894 -91 1617 61 
Q 1341 213 1159 525 
z
M 3116 1747 
Q 3116 2381 2855 2742 
Q 2594 3103 2138 3103 
Q 1681 3103 1420 2742 
Q 1159 2381 1159 1747 
Q 1159 1113 1420 752 
Q 1681 391 2138 391 
Q 2594 391 2855 752 
Q 3116 1113 3116 1747 
z
" transform="scale(0.015625)"/>
      <path id="DejaVuSans-50" d="M 1259 4147 
L 1259 2394 
L 2053 2394 
Q 2494 2394 2734 2622 
Q 2975 2850 2975 3272 
Q 2975 3691 2734 3919 
Q 2494 4147 2053 4147 
L 1259 4147 
z
M 628 4666 
L 2053 4666 
Q 2838 4666 3239 4311 
Q 3641 3956 3641 3272 
Q 3641 2581 3239 2228 
Q 2838 1875 2053 1875 
L 1259 1875 
L 1259 0 
L 628 0 
L 628 4666 
z
" transform="scale(0.015625)"/>
     </defs>
     <use xlink:href="#DejaVuSans-20"/>
     <use xlink:href="#DejaVuSans-53" x="31.787109"/>
     <use xlink:href="#DejaVuSans-65" x="95.263672"/>
     <use xlink:href="#DejaVuSans-71" x="156.787109"/>
     <use xlink:href="#DejaVuSans-5f" x="220.263672"/>
     <use xlink:href="#DejaVuSans-6c" x="270.263672"/>
     <use xlink:href="#DejaVuSans-65" x="298.046875"/>
     <use xlink:href="#DejaVuSans-6e" x="359.570312"/>
     <use xlink:href="#DejaVuSans-3a" x="422.949219"/>
     <use xlink:href="#DejaVuSans-20" x="456.640625"/>
     <use xlink:href="#DejaVuSans-35" x="488.427734"/>
     <use xlink:href="#DejaVuSans-31" x="552.050781"/>
     <use xlink:href="#DejaVuSans-32" x="615.673828"/>
     <use xlink:href="#DejaVuSans-20" x="679.296875"/>
     <use xlink:href="#DejaVuSans-7c" x="711.083984"/>
     <use xlink:href="#DejaVuSans-20" x="744.775391"/>
     <use xlink:href="#DejaVuSans-4f" x="776.5625"/>
     <use xlink:href="#DejaVuSans-70" x="855.273438"/>
     <use xlink:href="#DejaVuSans-74" x="918.75"/>
     <use xlink:href="#DejaVuSans-69" x="957.958984"/>
     <use xlink:href="#DejaVuSans-6d" x="985.742188"/>
     <use xlink:href="#DejaVuSans-69" x="1083.154297"/>
     <use xlink:href="#DejaVuSans-7a" x="1110.9375"/>
     <use xlink:href="#DejaVuSans-65" x="1163.427734"/>
     <use xlink:href="#DejaVuSans-72" x="1224.951172"/>
     <use xlink:href="#DejaVuSans-3a" x="1264.314453"/>
     <use xlink:href="#DejaVuSans-20" x="1298.005859"/>
     <use xlink:href="#DejaVuSans-41" x="1329.792969"/>
     <use xlink:href="#DejaVuSans-64" x="1396.451172"/>
     <use xlink:href="#DejaVuSans-61" x="1459.927734"/>
     <use xlink:href="#DejaVuSans-6d" x="1521.207031"/>
     <use xlink:href="#DejaVuSans-20" x="1618.619141"/>
     <use xlink:href="#DejaVuSans-7c" x="1650.40625"/>
     <use xlink:href="#DejaVuSans-20" x="1684.097656"/>
     <use xlink:href="#DejaVuSans-54" x="1715.884766"/>
     <use xlink:href="#DejaVuSans-65" x="1759.96875"/>
     <use xlink:href="#DejaVuSans-6e" x="1821.492188"/>
     <use xlink:href="#DejaVuSans-73" x="1884.871094"/>
     <use xlink:href="#DejaVuSans-6f" x="1936.970703"/>
     <use xlink:href="#DejaVuSans-72" x="1998.152344"/>
     <use xlink:href="#DejaVuSans-20" x="2039.265625"/>
     <use xlink:href="#DejaVuSans-50" x="2071.052734"/>
     <use xlink:href="#DejaVuSans-61" x="2126.855469"/>
     <use xlink:href="#DejaVuSans-72" x="2188.134766"/>
     <use xlink:href="#DejaVuSans-61" x="2229.248047"/>
     <use xlink:href="#DejaVuSans-6c" x="2290.527344"/>
     <use xlink:href="#DejaVuSans-6c" x="2318.310547"/>
     <use xlink:href="#DejaVuSans-65" x="2346.09375"/>
     <use xlink:href="#DejaVuSans-6c" x="2407.617188"/>
     <use xlink:href="#DejaVuSans-69" x="2435.400391"/>
     <use xlink:href="#DejaVuSans-73" x="2463.183594"/>
     <use xlink:href="#DejaVuSans-6d" x="2515.283203"/>
     <use xlink:href="#DejaVuSans-3a" x="2612.695312"/>
     <use xlink:href="#DejaVuSans-20" x="2646.386719"/>
     <use xlink:href="#DejaVuSans-32" x="2678.173828"/>
    </g>
   </g>
  </g>
  <g id="text_18">
   <!-- 3B T5 Training Loss -->
   <g transform="translate(172.431563 26.398125)scale(0.12 -0.12)">
    <defs>
     <path id="DejaVuSans-42" d="M 1259 2228 
L 1259 519 
L 2272 519 
Q 2781 519 3026 730 
Q 3272 941 3272 1375 
Q 3272 1813 3026 2020 
Q 2781 2228 2272 2228 
L 1259 2228 
z
M 1259 4147 
L 1259 2741 
L 2194 2741 
Q 2656 2741 2882 2914 
Q 3109 3088 3109 3444 
Q 3109 3797 2882 3972 
Q 2656 4147 2194 4147 
L 1259 4147 
z
M 628 4666 
L 2241 4666 
Q 2963 4666 3353 4366 
Q 3744 4066 3744 3513 
Q 3744 3084 3544 2831 
Q 3344 2578 2956 2516 
Q 3422 2416 3680 2098 
Q 3938 1781 3938 1306 
Q 3938 681 3513 340 
Q 3088 0 2303 0 
L 628 0 
L 628 4666 
z
" transform="scale(0.015625)"/>
     <path id="DejaVuSans-4c" d="M 628 4666 
L 1259 4666 
L 1259 531 
L 3531 531 
L 3531 0 
L 628 0 
L 628 4666 
z
" transform="scale(0.015625)"/>
    </defs>
    <use xlink:href="#DejaVuSans-33"/>
    <use xlink:href="#DejaVuSans-42" x="63.623047"/>
    <use xlink:href="#DejaVuSans-20" x="132.226562"/>
    <use xlink:href="#DejaVuSans-54" x="164.013672"/>
    <use xlink:href="#DejaVuSans-35" x="225.097656"/>
    <use xlink:href="#DejaVuSans-20" x="288.720703"/>
    <use xlink:href="#DejaVuSans-54" x="320.507812"/>
    <use xlink:href="#DejaVuSans-72" x="366.841797"/>
    <use xlink:href="#DejaVuSans-61" x="407.955078"/>
    <use xlink:href="#DejaVuSans-69" x="469.234375"/>
    <use xlink:href="#DejaVuSans-6e" x="497.017578"/>
    <use xlink:href="#DejaVuSans-69" x="560.396484"/>
    <use xlink:href="#DejaVuSans-6e" x="588.179688"/>
    <use xlink:href="#DejaVuSans-67" x="651.558594"/>
    <use xlink:href="#DejaVuSans-20" x="715.035156"/>
    <use xlink:href="#DejaVuSans-4c" x="746.822266"/>
    <use xlink:href="#DejaVuSans-6f" x="800.785156"/>
    <use xlink:href="#DejaVuSans-73" x="861.966797"/>
    <use xlink:href="#DejaVuSans-73" x="914.066406"/>
   </g>
  </g>
 </g>
 <defs>
  <clipPath id="p8087769e86">
   <rect x="46.08" y="69.12" width="391.68" height="241.92"/>
  </clipPath>
 </defs>
</svg>
