<svg version="1.1" viewBox="0.0 0.0 600.0 371.0" fill="none" stroke="none" stroke-linecap="square" stroke-miterlimit="10" width="600" height="371" xmlns:xlink="http://www.w3.org/1999/xlink" xmlns="http://www.w3.org/2000/svg"><path fill="#ffffff" d="M0 0L600.0 0L600.0 371.0L0 371.0L0 0Z" fill-rule="nonzero"/><path stroke="#333333" stroke-width="1.0" stroke-linecap="butt" d="M77.5 300.5L581.5 300.5" fill-rule="nonzero"/><path stroke="#cccccc" stroke-width="1.0" stroke-linecap="butt" d="M77.5 240.5L581.5 240.5" fill-rule="nonzero"/><path stroke="#cccccc" stroke-width="1.0" stroke-linecap="butt" d="M77.5 181.5L581.5 181.5" fill-rule="nonzero"/><path stroke="#cccccc" stroke-width="1.0" stroke-linecap="butt" d="M77.5 121.5L581.5 121.5" fill-rule="nonzero"/><path stroke="#cccccc" stroke-width="1.0" stroke-linecap="butt" d="M77.5 61.5L581.5 61.5" fill-rule="nonzero"/><clipPath id="id_0"><path d="M77.55 61.916668L581.45 61.916668L581.45 300.45L77.55 300.45L77.55 61.916668Z" clip-rule="nonzero"/></clipPath><path stroke="#000000" stroke-width="2.0" stroke-linecap="butt" stroke-opacity="0.0" clip-path="url(#id_0)" d="M194.0 300.0L119.0 300.0L119.0 246.0C119.0 244.89543 119.89543 244.0 121.0 244.0L192.0 244.0C193.10457 244.0 194.0 244.89543 194.0 246.0Z" fill-rule="nonzero"/><path fill="#76b900" clip-path="url(#id_0)" d="M194.0 300.0L119.0 300.0L119.0 246.0C119.0 244.89543 119.89543 244.0 121.0 244.0L192.0 244.0C193.10457 244.0 194.0 244.89543 194.0 246.0Z" fill-rule="nonzero"/><path stroke="#000000" stroke-width="2.0" stroke-linecap="butt" stroke-opacity="0.0" clip-path="url(#id_0)" d="M310.0 300.0L235.0 300.0L235.0 229.0C235.0 227.89543 235.89543 227.0 237.0 227.0L308.0 227.0C309.10458 227.0 310.0 227.89543 310.0 229.0Z" fill-rule="nonzero"/><path fill="#76b900" clip-path="url(#id_0)" d="M310.0 300.0L235.0 300.0L235.0 229.0C235.0 227.89543 235.89543 227.0 237.0 227.0L308.0 227.0C309.10458 227.0 310.0 227.89543 310.0 229.0Z" fill-rule="nonzero"/><path stroke="#000000" stroke-width="2.0" stroke-linecap="butt" stroke-opacity="0.0" clip-path="url(#id_0)" d="M425.0 300.0L350.0 300.0L350.0 175.0C350.0 173.89543 350.89542 173.0 352.0 173.0L423.0 173.0C424.10458 173.0 425.0 173.89543 425.0 175.0Z" fill-rule="nonzero"/><path fill="#76b900" clip-path="url(#id_0)" d="M425.0 300.0L350.0 300.0L350.0 175.0C350.0 173.89543 350.89542 173.0 352.0 173.0L423.0 173.0C424.10458 173.0 425.0 173.89543 425.0 175.0Z" fill-rule="nonzero"/><path stroke="#000000" stroke-width="2.0" stroke-linecap="butt" stroke-opacity="0.0" clip-path="url(#id_0)" d="M541.0 300.0L466.0 300.0L466.0 104.0C466.0 102.89543 466.89542 102.0 468.0 102.0L539.0 102.0C540.10455 102.0 541.0 102.89543 541.0 104.0Z" fill-rule="nonzero"/><path fill="#76b900" clip-path="url(#id_0)" d="M541.0 300.0L466.0 300.0L466.0 104.0C466.0 102.89543 466.89542 102.0 468.0 102.0L539.0 102.0C540.10455 102.0 541.0 102.89543 541.0 104.0Z" fill-rule="nonzero"/><path fill="#000000" d="M295.10938 349.45L295.10938 341.8719L292.28125 341.8719L292.28125 340.85626L299.09375 340.85626L299.09375 341.8719L296.25 341.8719L296.25 349.45L295.10938 349.45ZM299.5 347.2L300.60938 347.10626Q300.73438 347.91876 301.17188 348.325Q301.625 348.73126 302.26562 348.73126Q303.01562 348.73126 303.54688 348.15314Q304.07812 347.575 304.07812 346.6375Q304.07812 345.73126 303.5625 345.21564Q303.0625 344.6844 302.23438 344.6844Q301.73438 344.6844 301.3125 344.91876Q300.90625 345.15314 300.67188 345.5125L299.6875 345.3875L300.51562 340.98126L304.79688 340.98126L304.79688 341.98126L301.35938 341.98126L300.90625 344.29376Q301.67188 343.7469 302.51562 343.7469Q303.64062 343.7469 304.40625 344.52814Q305.1875 345.3094 305.1875 346.54376Q305.1875 347.7 304.51562 348.5594Q303.6875 349.59064 302.26562 349.59064Q301.09375 349.59064 300.34375 348.9344Q299.60938 348.27814 299.5 347.2ZM309.89062 349.45L309.89062 340.85626L311.60938 340.85626L313.64062 346.9344Q313.92188 347.79376 314.04688 348.21564Q314.1875 347.7469 314.5 346.84064L316.5625 340.85626L318.09375 340.85626L318.09375 349.45L317.0 349.45L317.0 342.2625L314.5 349.45L313.46875 349.45L310.98438 342.1375L310.98438 349.45L309.89062 349.45ZM318.40625 346.34064Q318.40625 344.60626 319.35938 343.77814Q320.15625 343.09064 321.3125 343.09064Q322.59375 343.09064 323.40625 343.9344Q324.23438 344.7625 324.23438 346.2469Q324.23438 347.45 323.875 348.1375Q323.51562 348.825 322.8125 349.21564Q322.125 349.59064 321.3125 349.59064Q320.01562 349.59064 319.20312 348.7625Q318.40625 347.91876 318.40625 346.34064ZM319.48438 346.34064Q319.48438 347.52814 320.0 348.1219Q320.53125 348.71564 321.3125 348.71564Q322.10938 348.71564 322.625 348.1219Q323.14062 347.52814 323.14062 346.3094Q323.14062 345.15314 322.60938 344.5594Q322.09375 343.96564 321.3125 343.96564Q320.53125 343.96564 320.0 344.5594Q319.48438 345.1375 319.48438 346.34064ZM329.82812 349.45L329.82812 348.66876Q329.23438 349.59064 328.09375 349.59064Q327.34375 349.59064 326.71875 349.1844Q326.09375 348.7625 325.75 348.02814Q325.40625 347.29376 325.40625 346.34064Q325.40625 345.41876 325.71875 344.65314Q326.03125 343.8875 326.65625 343.4969Q327.28125 343.09064 328.04688 343.09064Q328.60938 343.09064 329.04688 343.325Q329.48438 343.5594 329.76562 343.9344L329.76562 340.85626L330.8125 340.85626L330.8125 349.45L329.82812 349.45ZM326.5 346.34064Q326.5 347.54376 327.0 348.1375Q327.5 348.71564 328.1875 348.71564Q328.875 348.71564 329.35938 348.15314Q329.84375 347.59064 329.84375 346.4344Q329.84375 345.15314 329.34375 344.5594Q328.85938 343.96564 328.14062 343.96564Q327.4375 343.96564 326.96875 344.54376Q326.5 345.10626 326.5 346.34064ZM337.04688 347.45L338.14062 347.575Q337.89062 348.52814 337.1875 349.0594Q336.48438 349.59064 335.40625 349.59064Q334.04688 349.59064 333.23438 348.7469Q332.4375 347.90314 332.4375 346.3875Q332.4375 344.825 333.25 343.96564Q334.0625 343.09064 335.34375 343.09064Q336.59375 343.09064 337.375 343.9344Q338.17188 344.77814 338.17188 346.325Q338.17188 346.41876 338.17188 346.60626L333.53125 346.60626Q333.59375 347.6375 334.10938 348.1844Q334.625 348.71564 335.40625 348.71564Q335.98438 348.71564 336.39062 348.41876Q336.8125 348.10626 337.04688 347.45ZM333.59375 345.7469L337.0625 345.7469Q337.0 344.95 336.67188 344.5594Q336.15625 343.95 335.35938 343.95Q334.625 343.95 334.125 344.4344Q333.64062 344.91876 333.59375 345.7469ZM339.76562 349.45L339.76562 340.85626L340.82812 340.85626L340.82812 349.45L339.76562 349.45ZM345.375 347.59064L346.40625 347.4344Q346.5 348.0594 346.89062 348.3875Q347.29688 348.71564 348.03125 348.71564Q348.75 348.71564 349.09375 348.4344Q349.45312 348.1375 349.45312 347.73126Q349.45312 347.3719 349.14062 347.16876Q348.92188 347.02814 348.0625 346.8094Q346.90625 346.5125 346.45312 346.3094Q346.01562 346.09064 345.78125 345.71564Q345.54688 345.34064 345.54688 344.8719Q345.54688 344.46564 345.73438 344.10626Q345.92188 343.7469 346.25 343.5125Q346.5 343.34064 346.92188 343.21564Q347.34375 343.09064 347.84375 343.09064Q348.5625 343.09064 349.10938 343.3094Q349.67188 343.5125 349.9375 343.8719Q350.20312 344.23126 350.29688 344.825L349.26562 344.96564Q349.20312 344.4969 348.85938 344.23126Q348.53125 343.95 347.90625 343.95Q347.1875 343.95 346.875 344.2Q346.5625 344.4344 346.5625 344.7625Q346.5625 344.96564 346.6875 345.1219Q346.82812 345.29376 347.09375 345.40314Q347.25 345.46564 348.03125 345.66876Q349.15625 345.98126 349.59375 346.16876Q350.03125 346.35626 350.28125 346.71564Q350.53125 347.075 350.53125 347.6219Q350.53125 348.15314 350.21875 348.6219Q349.92188 349.075 349.34375 349.34064Q348.76562 349.59064 348.03125 349.59064Q346.8125 349.59064 346.17188 349.09064Q345.54688 348.575 345.375 347.59064ZM352.79688 342.075L352.79688 340.85626L353.85938 340.85626L353.85938 342.075L352.79688 342.075ZM352.79688 349.45L352.79688 343.23126L353.85938 343.23126L353.85938 349.45L352.79688 349.45ZM355.23438 349.45L355.23438 348.59064L359.20312 344.04376Q358.51562 344.075 358.0 344.075L355.46875 344.075L355.46875 343.23126L360.5625 343.23126L360.5625 343.91876L357.1875 347.8719L356.53125 348.59064Q357.25 348.54376 357.85938 348.54376L360.75 348.54376L360.75 349.45L355.23438 349.45ZM365.04688 347.45L366.14062 347.575Q365.89062 348.52814 365.1875 349.0594Q364.48438 349.59064 363.40625 349.59064Q362.04688 349.59064 361.23438 348.7469Q360.4375 347.90314 360.4375 346.3875Q360.4375 344.825 361.25 343.96564Q362.0625 343.09064 363.34375 343.09064Q364.59375 343.09064 365.375 343.9344Q366.17188 344.77814 366.17188 346.325Q366.17188 346.41876 366.17188 346.60626L361.53125 346.60626Q361.59375 347.6375 362.10938 348.1844Q362.625 348.71564 363.40625 348.71564Q363.98438 348.71564 364.39062 348.41876Q364.8125 348.10626 365.04688 347.45ZM361.59375 345.7469L365.0625 345.7469Q365.0 344.95 364.67188 344.5594Q364.15625 343.95 363.35938 343.95Q362.625 343.95 362.125 344.4344Q361.64062 344.91876 361.59375 345.7469Z" fill-rule="nonzero"/><path fill="#000000" d="M29.550013 243.69896L20.956263 240.40208L20.956263 239.18333L29.550013 235.66771L29.550013 236.94896L26.940638 237.96458L26.940638 241.54271L29.550013 242.49583L29.550013 243.69896ZM26.018763 241.21458L26.018763 238.30833L23.643763 239.19896Q22.565638 239.62083 21.862513 239.80833Q22.690638 239.98021 23.503138 240.27708L26.018763 241.21458ZM29.550013 234.16771L23.331263 236.52708L23.331263 235.41771L27.050013 234.07396Q27.659388 233.87083 28.300013 233.68333Q27.815638 233.54271 27.128138 233.29271L23.331263 231.90208L23.331263 230.82396L29.550013 233.18333L29.550013 234.16771ZM27.550013 226.63646L27.675013 225.54271Q28.628138 225.79271 29.159388 226.49583Q29.690638 227.19896 29.690638 228.27708Q29.690638 229.63646 28.846888 230.44896Q28.003138 231.24583 26.487513 231.24583Q24.925013 231.24583 24.065638 230.43333Q23.190638 229.62083 23.190638 228.33958Q23.190638 227.08958 24.034388 226.30833Q24.878138 225.51146 26.425013 225.51146Q26.518763 225.51146 26.706263 225.51146L26.706263 230.15208Q27.737513 230.08958 28.284388 229.57396Q28.815638 229.05833 28.815638 228.27708Q28.815638 227.69896 28.518763 227.29271Q28.206263 226.87083 27.550013 226.63646ZM25.846888 230.08958L25.846888 226.62083Q25.050013 226.68333 24.659388 227.01146Q24.050013 227.52708 24.050013 228.32396Q24.050013 229.05833 24.534388 229.55833Q25.018763 230.04271 25.846888 230.08958ZM29.550013 223.90208L23.331263 223.90208L23.331263 222.94896L24.268763 222.94896Q23.612513 222.58958 23.409388 222.29271Q23.190638 221.98021 23.190638 221.60521Q23.190638 221.07396 23.518763 220.52708L24.503138 220.88646Q24.268763 221.27708 24.268763 221.65208Q24.268763 222.01146 24.487513 222.29271Q24.690638 222.55833 25.065638 222.66771Q25.628138 222.85521 26.284388 222.85521L29.550013 222.85521L29.550013 223.90208ZM28.784388 215.82396Q29.284388 216.41771 29.487513 216.96458Q29.690638 217.49583 29.690638 218.12083Q29.690638 219.15208 29.190638 219.69896Q28.690638 220.24583 27.909388 220.24583Q27.456263 220.24583 27.081263 220.04271Q26.690638 219.83958 26.471888 219.49583Q26.237513 219.15208 26.128138 218.73021Q26.034388 218.43333 25.956263 217.79271Q25.815638 216.52708 25.596888 215.91771Q25.378138 215.91771 25.331263 215.91771Q24.675013 215.91771 24.409388 216.21458Q24.065638 216.62083 24.065638 217.41771Q24.065638 218.15208 24.331263 218.51146Q24.581263 218.87083 25.237513 219.04271L25.096888 220.07396Q24.440638 219.93333 24.034388 219.60521Q23.628138 219.27708 23.409388 218.66771Q23.190638 218.05833 23.190638 217.26146Q23.190638 216.46458 23.378138 215.96458Q23.565638 215.46458 23.846888 215.23021Q24.128138 214.99583 24.565638 214.90208Q24.831263 214.85521 25.534388 214.85521L26.940638 214.85521Q28.409388 214.85521 28.800013 214.79271Q29.190638 214.71458 29.550013 214.51146L29.550013 215.62083Q29.221888 215.77708 28.784388 215.82396ZM26.425013 215.91771Q26.659388 216.49583 26.831263 217.63646Q26.925013 218.29271 27.050013 218.55833Q27.159388 218.82396 27.378138 218.98021Q27.596888 219.12083 27.878138 219.12083Q28.300013 219.12083 28.581263 218.80833Q28.862513 218.48021 28.862513 217.87083Q28.862513 217.26146 28.596888 216.79271Q28.331263 216.30833 27.862513 216.08958Q27.503138 215.91771 26.815638 215.91771L26.425013 215.91771ZM30.065638 213.08958L30.221888 212.05833Q30.690638 211.99583 30.909388 211.69896Q31.206263 211.30833 31.206263 210.63646Q31.206263 209.90208 30.909388 209.51146Q30.612513 209.10521 30.096888 208.96458Q29.768763 208.87083 28.737513 208.88646Q29.550013 209.57396 29.550013 210.60521Q29.550013 211.88646 28.628138 212.58958Q27.690638 213.29271 26.409388 213.29271Q25.518763 213.29271 24.768763 212.98021Q24.003138 212.65208 23.596888 212.04271Q23.190638 211.43333 23.190638 210.60521Q23.190638 209.49583 24.081263 208.77708L23.331263 208.77708L23.331263 207.80833L28.706263 207.80833Q30.159388 207.80833 30.768763 208.10521Q31.378138 208.40208 31.721888 209.04271Q32.08126 209.68333 32.08126 210.62083Q32.08126 211.73021 31.581263 212.41771Q31.081263 213.10521 30.065638 213.08958ZM26.331263 212.21458Q27.550013 212.21458 28.112513 211.73021Q28.675013 211.24583 28.675013 210.51146Q28.675013 209.77708 28.112513 209.29271Q27.550013 208.79271 26.362513 208.79271Q25.221888 208.79271 24.643763 209.30833Q24.065638 209.80833 24.065638 210.52708Q24.065638 211.23021 24.643763 211.73021Q25.206263 212.21458 26.331263 212.21458ZM27.550013 201.63646L27.675013 200.54271Q28.628138 200.79271 29.159388 201.49583Q29.690638 202.19896 29.690638 203.27708Q29.690638 204.63646 28.846888 205.44896Q28.003138 206.24583 26.487513 206.24583Q24.925013 206.24583 24.065638 205.43333Q23.190638 204.62083 23.190638 203.33958Q23.190638 202.08958 24.034388 201.30833Q24.878138 200.51146 26.425013 200.51146Q26.518763 200.51146 26.706263 200.51146L26.706263 205.15208Q27.737513 205.08958 28.284388 204.57396Q28.815638 204.05833 28.815638 203.27708Q28.815638 202.69896 28.518763 202.29271Q28.206263 201.87083 27.550013 201.63646ZM25.846888 205.08958L25.846888 201.62083Q25.050013 201.68333 24.659388 202.01146Q24.050013 202.52708 24.050013 203.32396Q24.050013 204.05833 24.534388 204.55833Q25.018763 205.04271 25.846888 205.08958ZM29.550013 195.91771L20.956263 195.91771L20.956263 194.85521L29.550013 194.85521L29.550013 195.91771ZM28.784388 188.82396Q29.284388 189.41771 29.487513 189.96458Q29.690638 190.49583 29.690638 191.12083Q29.690638 192.15208 29.190638 192.69896Q28.690638 193.24583 27.909388 193.24583Q27.456263 193.24583 27.081263 193.04271Q26.690638 192.83958 26.471888 192.49583Q26.237513 192.15208 26.128138 191.73021Q26.034388 191.43333 25.956263 190.79271Q25.815638 189.52708 25.596888 188.91771Q25.378138 188.91771 25.331263 188.91771Q24.675013 188.91771 24.409388 189.21458Q24.065638 189.62083 24.065638 190.41771Q24.065638 191.15208 24.331263 191.51146Q24.581263 191.87083 25.237513 192.04271L25.096888 193.07396Q24.440638 192.93333 24.034388 192.60521Q23.628138 192.27708 23.409388 191.66771Q23.190638 191.05833 23.190638 190.26146Q23.190638 189.46458 23.378138 188.96458Q23.565638 188.46458 23.846888 188.23021Q24.128138 187.99583 24.565638 187.90208Q24.831263 187.85521 25.534388 187.85521L26.940638 187.85521Q28.409388 187.85521 28.800013 187.79271Q29.190638 187.71458 29.550013 187.51146L29.550013 188.62083Q29.221888 188.77708 28.784388 188.82396ZM26.425013 188.91771Q26.659388 189.49583 26.831263 190.63646Q26.925013 191.29271 27.050013 191.55833Q27.159388 191.82396 27.378138 191.98021Q27.596888 192.12083 27.878138 192.12083Q28.300013 192.12083 28.581263 191.80833Q28.862513 191.48021 28.862513 190.87083Q28.862513 190.26146 28.596888 189.79271Q28.331263 189.30833 27.862513 189.08958Q27.503138 188.91771 26.815638 188.91771L26.425013 188.91771ZM28.612513 183.58958L29.534388 183.43333Q29.628138 183.88646 29.628138 184.23021Q29.628138 184.80833 29.456263 185.12083Q29.268763 185.43333 28.971888 185.57396Q28.675013 185.69896 27.721888 185.69896L24.143763 185.69896L24.143763 186.46458L23.331263 186.46458L23.331263 185.69896L21.784388 185.69896L21.159388 184.65208L23.331263 184.65208L23.331263 183.58958L24.143763 183.58958L24.143763 184.65208L27.784388 184.65208Q28.237513 184.65208 28.362513 184.60521Q28.487513 184.54271 28.565638 184.41771Q28.643763 184.29271 28.643763 184.05833Q28.643763 183.87083 28.612513 183.58958ZM27.550013 178.63646L27.675013 177.54271Q28.628138 177.79271 29.159388 178.49583Q29.690638 179.19896 29.690638 180.27708Q29.690638 181.63646 28.846888 182.44896Q28.003138 183.24583 26.487513 183.24583Q24.925013 183.24583 24.065638 182.43333Q23.190638 181.62083 23.190638 180.33958Q23.190638 179.08958 24.034388 178.30833Q24.878138 177.51146 26.425013 177.51146Q26.518763 177.51146 26.706263 177.51146L26.706263 182.15208Q27.737513 182.08958 28.284388 181.57396Q28.815638 181.05833 28.815638 180.27708Q28.815638 179.69896 28.518763 179.29271Q28.206263 178.87083 27.550013 178.63646ZM25.846888 182.08958L25.846888 178.62083Q25.050013 178.68333 24.659388 179.01146Q24.050013 179.52708 24.050013 180.32396Q24.050013 181.05833 24.534388 181.55833Q25.018763 182.04271 25.846888 182.08958ZM29.550013 175.88646L23.331263 175.88646L23.331263 174.94896L24.206263 174.94896Q23.190638 174.26146 23.190638 172.96458Q23.190638 172.40208 23.393763 171.93333Q23.596888 171.44896 23.925013 171.21458Q24.253138 170.98021 24.690638 170.88646Q24.987513 170.83958 25.721888 170.83958L29.550013 170.83958L29.550013 171.88646L25.768763 171.88646Q25.112513 171.88646 24.800013 172.01146Q24.487513 172.13646 24.300013 172.44896Q24.096888 172.76146 24.096888 173.18333Q24.096888 173.85521 24.534388 174.35521Q24.956263 174.83958 26.143763 174.83958L29.550013 174.83958L29.550013 175.88646ZM27.268763 164.82396L27.409388 163.79271Q28.471888 163.96458 29.081263 164.66771Q29.690638 165.37083 29.690638 166.38646Q29.690638 167.66771 28.862513 168.44896Q28.018763 169.21458 26.456263 169.21458Q25.456263 169.21458 24.706263 168.88646Q23.940638 168.54271 23.565638 167.87083Q23.190638 167.18333 23.190638 166.37083Q23.190638 165.37083 23.706263 164.73021Q24.206263 164.07396 25.159388 163.88646L25.315638 164.91771Q24.690638 165.05833 24.378138 165.43333Q24.050013 165.80833 24.050013 166.33958Q24.050013 167.13646 24.628138 167.63646Q25.190638 168.13646 26.425013 168.13646Q27.690638 168.13646 28.253138 167.65208Q28.815638 167.16771 28.815638 166.40208Q28.815638 165.77708 28.440638 165.37083Q28.065638 164.94896 27.268763 164.82396ZM31.940638 162.93333L30.956263 163.05833Q31.050013 162.71458 31.050013 162.44896Q31.050013 162.10521 30.925013 161.90208Q30.815638 161.68333 30.612513 161.54271Q30.440638 161.44896 29.815638 161.21458Q29.737513 161.19896 29.565638 161.12083L23.331263 163.49583L23.331263 162.35521L26.925013 161.05833Q27.612513 160.80833 28.378138 160.60521Q27.643763 160.41771 26.956263 160.16771L23.331263 158.83958L23.331263 157.79271L29.659388 160.15208Q30.675013 160.54271 31.065638 160.74583Q31.596888 161.02708 31.831263 161.40208Q32.08126 161.76146 32.08126 162.26146Q32.08126 162.55833 31.940638 162.93333ZM31.940638 154.87083L20.956263 154.87083L20.956263 152.54271L21.831263 152.54271L21.831263 153.80833L31.065638 153.80833L31.065638 152.54271L31.940638 152.54271L31.940638 154.87083ZM29.550013 151.88646L23.331263 151.88646L23.331263 150.94896L24.206263 150.94896Q23.737513 150.65208 23.471888 150.16771Q23.190638 149.68333 23.190638 149.05833Q23.190638 148.37083 23.471888 147.93333Q23.753138 147.48021 24.268763 147.30833Q23.190638 146.55833 23.190638 145.38646Q23.190638 144.44896 23.706263 143.96458Q24.206263 143.46458 25.284388 143.46458L29.550013 143.46458L29.550013 144.51146L25.628138 144.51146Q25.003138 144.51146 24.721888 144.62083Q24.440638 144.71458 24.268763 144.98021Q24.096888 145.24583 24.096888 145.62083Q24.096888 146.27708 24.534388 146.71458Q24.971888 147.13646 25.940638 147.13646L29.550013 147.13646L29.550013 148.19896L25.503138 148.19896Q24.800013 148.19896 24.456263 148.46458Q24.096888 148.71458 24.096888 149.29271Q24.096888 149.74583 24.331263 150.12083Q24.565638 150.49583 25.018763 150.66771Q25.471888 150.83958 26.315638 150.83958L29.550013 150.83958L29.550013 151.88646ZM27.690638 141.30833L27.534388 140.27708Q28.159388 140.18333 28.487513 139.79271Q28.815638 139.38646 28.815638 138.65208Q28.815638 137.93333 28.534388 137.58958Q28.237513 137.23021 27.831263 137.23021Q27.471888 137.23021 27.268763 137.54271Q27.128138 137.76146 26.909388 138.62083Q26.612513 139.77708 26.409388 140.23021Q26.190638 140.66771 25.815638 140.90208Q25.440638 141.13646 24.971888 141.13646Q24.565638 141.13646 24.206263 140.94896Q23.846888 140.76146 23.612513 140.43333Q23.440638 140.18333 23.315638 139.76146Q23.190638 139.33958 23.190638 138.83958Q23.190638 138.12083 23.409388 137.57396Q23.612513 137.01146 23.971888 136.74583Q24.331263 136.48021 24.925013 136.38646L25.065638 137.41771Q24.596888 137.48021 24.331263 137.82396Q24.050013 138.15208 24.050013 138.77708Q24.050013 139.49583 24.300013 139.80833Q24.534388 140.12083 24.862513 140.12083Q25.065638 140.12083 25.221888 139.99583Q25.393763 139.85521 25.503138 139.58958Q25.565638 139.43333 25.768763 138.65208Q26.081263 137.52708 26.268763 137.08958Q26.456263 136.65208 26.815638 136.40208Q27.175013 136.15208 27.721888 136.15208Q28.253138 136.15208 28.721888 136.46458Q29.175013 136.76146 29.440638 137.33958Q29.690638 137.91771 29.690638 138.65208Q29.690638 139.87083 29.190638 140.51146Q28.675013 141.13646 27.690638 141.30833ZM31.940638 132.12083L31.940638 134.44896L31.065638 134.44896L31.065638 133.18333L21.831263 133.18333L21.831263 134.44896L20.956263 134.44896L20.956263 132.12083L31.940638 132.12083Z" fill-rule="nonzero"/><path fill="#000000" d="M65.05 300.21564Q65.05 298.6844 65.3625 297.7625Q65.675 296.825 66.28438 296.325Q66.90938 295.825 67.84688 295.825Q68.53438 295.825 69.05 296.10626Q69.58125 296.3875 69.925 296.91876Q70.26875 297.4344 70.45625 298.1844Q70.64375 298.9344 70.64375 300.21564Q70.64375 301.73126 70.33125 302.65314Q70.03438 303.575 69.40938 304.09064Q68.8 304.59064 67.84688 304.59064Q66.6125 304.59064 65.89375 303.7Q65.05 302.6375 65.05 300.21564ZM66.12813 300.21564Q66.12813 302.325 66.62813 303.02814Q67.12813 303.73126 67.84688 303.73126Q68.58125 303.73126 69.06563 303.02814Q69.56563 302.325 69.56563 300.21564Q69.56563 298.09064 69.06563 297.40314Q68.58125 296.7 67.83125 296.7Q67.1125 296.7 66.675 297.3094Q66.12813 298.09064 66.12813 300.21564Z" fill-rule="nonzero"/><path fill="#000000" d="M55.01875 244.81667L53.971874 244.81667L53.971874 238.09792Q53.58125 238.45729 52.95625 238.83229Q52.346874 239.19167 51.8625 239.36354L51.8625 238.34792Q52.7375 237.92604 53.39375 237.34792Q54.065624 236.75417 54.346874 236.19167L55.01875 236.19167L55.01875 244.81667ZM58.05 240.58229Q58.05 239.05104 58.3625 238.12917Q58.675 237.19167 59.284374 236.69167Q59.909374 236.19167 60.846874 236.19167Q61.534374 236.19167 62.05 236.47292Q62.58125 236.75417 62.925 237.28542Q63.26875 237.80104 63.45625 238.55104Q63.64375 239.30104 63.64375 240.58229Q63.64375 242.09792 63.33125 243.01979Q63.034374 243.94167 62.409374 244.45729Q61.8 244.95729 60.846874 244.95729Q59.6125 244.95729 58.89375 244.06667Q58.05 243.00417 58.05 240.58229ZM59.128124 240.58229Q59.128124 242.69167 59.628124 243.39479Q60.128124 244.09792 60.846874 244.09792Q61.58125 244.09792 62.065624 243.39479Q62.565624 242.69167 62.565624 240.58229Q62.565624 238.45729 62.065624 237.76979Q61.58125 237.06667 60.83125 237.06667Q60.1125 237.06667 59.675 237.67604Q59.128124 238.45729 59.128124 240.58229ZM65.05 240.58229Q65.05 239.05104 65.3625 238.12917Q65.675 237.19167 66.28438 236.69167Q66.90938 236.19167 67.84688 236.19167Q68.53438 236.19167 69.05 236.47292Q69.58125 236.75417 69.925 237.28542Q70.26875 237.80104 70.45625 238.55104Q70.64375 239.30104 70.64375 240.58229Q70.64375 242.09792 70.33125 243.01979Q70.03438 243.94167 69.40938 244.45729Q68.8 244.95729 67.84688 244.95729Q66.6125 244.95729 65.89375 244.06667Q65.05 243.00417 65.05 240.58229ZM66.12813 240.58229Q66.12813 242.69167 66.62813 243.39479Q67.12813 244.09792 67.84688 244.09792Q68.58125 244.09792 69.06563 243.39479Q69.56563 242.69167 69.56563 240.58229Q69.56563 238.45729 69.06563 237.76979Q68.58125 237.06667 67.83125 237.06667Q67.1125 237.06667 66.675 237.67604Q66.12813 238.45729 66.12813 240.58229Z" fill-rule="nonzero"/><path fill="#000000" d="M56.596874 184.16771L56.596874 185.18333L50.909374 185.18333Q50.909374 184.80833 51.034374 184.44896Q51.253124 183.87083 51.721874 183.30833Q52.20625 182.74583 53.1125 182.01146Q54.51875 180.85521 55.003124 180.18333Q55.503124 179.51146 55.503124 178.91771Q55.503124 178.29271 55.05 177.87083Q54.596874 177.43333 53.878124 177.43333Q53.1125 177.43333 52.659374 177.88646Q52.20625 178.33958 52.190624 179.15208L51.1125 179.04271Q51.221874 177.82396 51.940624 177.19896Q52.675 176.55833 53.909374 176.55833Q55.14375 176.55833 55.8625 177.24583Q56.58125 177.93333 56.58125 178.94896Q56.58125 179.46458 56.3625 179.96458Q56.159374 180.44896 55.659374 181.01146Q55.175 181.55833 54.05 182.51146Q53.096874 183.30833 52.815624 183.60521Q52.55 183.88646 52.378124 184.16771L56.596874 184.16771ZM58.05 180.94896Q58.05 179.41771 58.3625 178.49583Q58.675 177.55833 59.284374 177.05833Q59.909374 176.55833 60.846874 176.55833Q61.534374 176.55833 62.05 176.83958Q62.58125 177.12083 62.925 177.65208Q63.26875 178.16771 63.45625 178.91771Q63.64375 179.66771 63.64375 180.94896Q63.64375 182.46458 63.33125 183.38646Q63.034374 184.30833 62.409374 184.82396Q61.8 185.32396 60.846874 185.32396Q59.6125 185.32396 58.89375 184.43333Q58.05 183.37083 58.05 180.94896ZM59.128124 180.94896Q59.128124 183.05833 59.628124 183.76146Q60.128124 184.46458 60.846874 184.46458Q61.58125 184.46458 62.065624 183.76146Q62.565624 183.05833 62.565624 180.94896Q62.565624 178.82396 62.065624 178.13646Q61.58125 177.43333 60.83125 177.43333Q60.1125 177.43333 59.675 178.04271Q59.128124 178.82396 59.128124 180.94896ZM65.05 180.94896Q65.05 179.41771 65.3625 178.49583Q65.675 177.55833 66.28438 177.05833Q66.90938 176.55833 67.84688 176.55833Q68.53438 176.55833 69.05 176.83958Q69.58125 177.12083 69.925 177.65208Q70.26875 178.16771 70.45625 178.91771Q70.64375 179.66771 70.64375 180.94896Q70.64375 182.46458 70.33125 183.38646Q70.03438 184.30833 69.40938 184.82396Q68.8 185.32396 67.84688 185.32396Q66.6125 185.32396 65.89375 184.43333Q65.05 183.37083 65.05 180.94896ZM66.12813 180.94896Q66.12813 183.05833 66.62813 183.76146Q67.12813 184.46458 67.84688 184.46458Q68.58125 184.46458 69.06563 183.76146Q69.56563 183.05833 69.56563 180.94896Q69.56563 178.82396 69.06563 178.13646Q68.58125 177.43333 67.83125 177.43333Q67.1125 177.43333 66.675 178.04271Q66.12813 178.82396 66.12813 180.94896Z" fill-rule="nonzero"/><path fill="#000000" d="M51.05 123.28438L52.1125 123.14375Q52.284374 124.03438 52.721874 124.44063Q53.159374 124.83125 53.784374 124.83125Q54.534374 124.83125 55.05 124.31563Q55.565624 123.8 55.565624 123.03438Q55.565624 122.31563 55.08125 121.84688Q54.6125 121.3625 53.878124 121.3625Q53.58125 121.3625 53.128124 121.4875L53.253124 120.55Q53.3625 120.56563 53.425 120.56563Q54.096874 120.56563 54.628124 120.22188Q55.175 119.8625 55.175 119.12813Q55.175 118.55 54.784374 118.175Q54.39375 117.78438 53.76875 117.78438Q53.159374 117.78438 52.7375 118.175Q52.33125 118.56563 52.221874 119.33125L51.159374 119.14375Q51.346874 118.09688 52.034374 117.51875Q52.721874 116.925 53.7375 116.925Q54.440624 116.925 55.034374 117.2375Q55.628124 117.53438 55.940624 118.05Q56.253124 118.56563 56.253124 119.15938Q56.253124 119.70625 55.95625 120.175Q55.659374 120.62813 55.08125 120.89375Q55.83125 121.06563 56.253124 121.62813Q56.675 122.175 56.675 123.01875Q56.675 124.14375 55.846874 124.925Q55.034374 125.70625 53.784374 125.70625Q52.659374 125.70625 51.909374 125.03438Q51.159374 124.34688 51.05 123.28438ZM58.05 121.31563Q58.05 119.78438 58.3625 118.8625Q58.675 117.925 59.284374 117.425Q59.909374 116.925 60.846874 116.925Q61.534374 116.925 62.05 117.20625Q62.58125 117.4875 62.925 118.01875Q63.26875 118.53438 63.45625 119.28438Q63.64375 120.03438 63.64375 121.31563Q63.64375 122.83125 63.33125 123.75313Q63.034374 124.675 62.409374 125.19063Q61.8 125.69063 60.846874 125.69063Q59.6125 125.69063 58.89375 124.8Q58.05 123.7375 58.05 121.31563ZM59.128124 121.31563Q59.128124 123.425 59.628124 124.12813Q60.128124 124.83125 60.846874 124.83125Q61.58125 124.83125 62.065624 124.12813Q62.565624 123.425 62.565624 121.31563Q62.565624 119.19063 62.065624 118.50313Q61.58125 117.8 60.83125 117.8Q60.1125 117.8 59.675 118.40938Q59.128124 119.19063 59.128124 121.31563ZM65.05 121.31563Q65.05 119.78438 65.3625 118.8625Q65.675 117.925 66.28438 117.425Q66.90938 116.925 67.84688 116.925Q68.53438 116.925 69.05 117.20625Q69.58125 117.4875 69.925 118.01875Q70.26875 118.53438 70.45625 119.28438Q70.64375 120.03438 70.64375 121.31563Q70.64375 122.83125 70.33125 123.75313Q70.03438 124.675 69.40938 125.19063Q68.8 125.69063 67.84688 125.69063Q66.6125 125.69063 65.89375 124.8Q65.05 123.7375 65.05 121.31563ZM66.12813 121.31563Q66.12813 123.425 66.62813 124.12813Q67.12813 124.83125 67.84688 124.83125Q68.58125 124.83125 69.06563 124.12813Q69.56563 123.425 69.56563 121.31563Q69.56563 119.19063 69.06563 118.50313Q68.58125 117.8 67.83125 117.8Q67.1125 117.8 66.675 118.40938Q66.12813 119.19063 66.12813 121.31563Z" fill-rule="nonzero"/><path fill="#000000" d="M54.425 65.916664L54.425 63.854164L50.70625 63.854164L50.70625 62.885414L54.628124 57.322914L55.4875 57.322914L55.4875 62.885414L56.64375 62.885414L56.64375 63.854164L55.4875 63.854164L55.4875 65.916664L54.425 65.916664ZM54.425 62.885414L54.425 59.02604L51.7375 62.885414L54.425 62.885414ZM58.05 61.68229Q58.05 60.15104 58.3625 59.229164Q58.675 58.291664 59.284374 57.791664Q59.909374 57.291664 60.846874 57.291664Q61.534374 57.291664 62.05 57.572914Q62.58125 57.854164 62.925 58.385414Q63.26875 58.90104 63.45625 59.65104Q63.64375 60.40104 63.64375 61.68229Q63.64375 63.197914 63.33125 64.11979Q63.034374 65.041664 62.409374 65.55729Q61.8 66.05729 60.846874 66.05729Q59.6125 66.05729 58.89375 65.166664Q58.05 64.104164 58.05 61.68229ZM59.128124 61.68229Q59.128124 63.791664 59.628124 64.49479Q60.128124 65.197914 60.846874 65.197914Q61.58125 65.197914 62.065624 64.49479Q62.565624 63.791664 62.565624 61.68229Q62.565624 59.55729 62.065624 58.86979Q61.58125 58.166664 60.83125 58.166664Q60.1125 58.166664 59.675 58.77604Q59.128124 59.55729 59.128124 61.68229ZM65.05 61.68229Q65.05 60.15104 65.3625 59.229164Q65.675 58.291664 66.28438 57.791664Q66.90938 57.291664 67.84688 57.291664Q68.53438 57.291664 69.05 57.572914Q69.58125 57.854164 69.925 58.385414Q70.26875 58.90104 70.45625 59.65104Q70.64375 60.40104 70.64375 61.68229Q70.64375 63.197914 70.33125 64.11979Q70.03438 65.041664 69.40938 65.55729Q68.8 66.05729 67.84688 66.05729Q66.6125 66.05729 65.89375 65.166664Q65.05 64.104164 65.05 61.68229ZM66.12813 61.68229Q66.12813 63.791664 66.62813 64.49479Q67.12813 65.197914 67.84688 65.197914Q68.58125 65.197914 69.06563 64.49479Q69.56563 63.791664 69.56563 61.68229Q69.56563 59.55729 69.06563 58.86979Q68.58125 58.166664 67.83125 58.166664Q67.1125 58.166664 66.675 58.77604Q66.12813 59.55729 66.12813 61.68229Z" fill-rule="nonzero"/><path fill="#000000" d="M148.74138 315.1844L149.80388 315.04376Q149.97575 315.9344 150.41325 316.34064Q150.85075 316.73126 151.47575 316.73126Q152.22575 316.73126 152.74138 316.21564Q153.257 315.7 153.257 314.9344Q153.257 314.21564 152.77263 313.7469Q152.30388 313.2625 151.5695 313.2625Q151.27263 313.2625 150.8195 313.3875L150.9445 312.45Q151.05388 312.46564 151.11638 312.46564Q151.78825 312.46564 152.3195 312.1219Q152.86638 311.7625 152.86638 311.02814Q152.86638 310.45 152.47575 310.075Q152.08513 309.6844 151.46013 309.6844Q150.85075 309.6844 150.42888 310.075Q150.02263 310.46564 149.91325 311.23126L148.85075 311.04376Q149.03825 309.9969 149.72575 309.41876Q150.41325 308.825 151.42888 308.825Q152.132 308.825 152.72575 309.1375Q153.3195 309.4344 153.632 309.95Q153.9445 310.46564 153.9445 311.0594Q153.9445 311.60626 153.64763 312.075Q153.35075 312.52814 152.77263 312.79376Q153.52263 312.96564 153.9445 313.52814Q154.36638 314.075 154.36638 314.91876Q154.36638 316.04376 153.53825 316.825Q152.72575 317.60626 151.47575 317.60626Q150.35075 317.60626 149.60075 316.9344Q148.85075 316.2469 148.74138 315.1844ZM156.11638 317.45L156.11638 308.85626L159.35075 308.85626Q160.33513 308.85626 160.92888 309.1219Q161.52263 309.3875 161.85075 309.9344Q162.1945 310.46564 162.1945 311.0594Q162.1945 311.60626 161.89763 312.09064Q161.60075 312.575 160.99138 312.8719Q161.77263 313.10626 162.17888 313.66876Q162.60075 314.21564 162.60075 314.96564Q162.60075 315.5594 162.35075 316.09064Q162.10075 316.60626 161.72575 316.8875Q161.35075 317.16876 160.77263 317.3094Q160.21013 317.45 159.39763 317.45L156.11638 317.45ZM157.257 312.46564L159.11638 312.46564Q159.86638 312.46564 160.1945 312.3719Q160.632 312.2469 160.85075 311.95Q161.0695 311.6375 161.0695 311.1844Q161.0695 310.7625 160.86638 310.4344Q160.66325 310.10626 160.27263 309.9969Q159.89763 309.8719 158.97575 309.8719L157.257 309.8719L157.257 312.46564ZM157.257 316.4344L159.39763 316.4344Q159.9445 316.4344 160.16325 316.3875Q160.5695 316.325 160.8195 316.16876Q161.08513 315.9969 161.257 315.6844Q161.42888 315.3719 161.42888 314.96564Q161.42888 314.48126 161.17888 314.1219Q160.9445 313.7625 160.507 313.6219Q160.0695 313.48126 159.24138 313.48126L157.257 313.48126L157.257 316.4344Z" fill-rule="nonzero"/><path fill="#000000" d="M265.04922 317.45L264.00235 317.45L264.00235 310.73126Q263.61172 311.09064 262.98672 311.46564Q262.37735 311.825 261.89297 311.9969L261.89297 310.98126Q262.76797 310.5594 263.42422 309.98126Q264.0961 309.3875 264.37735 308.825L265.04922 308.825L265.04922 317.45ZM272.04922 317.45L271.00235 317.45L271.00235 310.73126Q270.61172 311.09064 269.98672 311.46564Q269.37735 311.825 268.89297 311.9969L268.89297 310.98126Q269.76797 310.5594 270.42422 309.98126Q271.0961 309.3875 271.37735 308.825L272.04922 308.825L272.04922 317.45ZM275.45547 317.45L275.45547 308.85626L278.68985 308.85626Q279.67422 308.85626 280.26797 309.1219Q280.86172 309.3875 281.18985 309.9344Q281.5336 310.46564 281.5336 311.0594Q281.5336 311.60626 281.23672 312.09064Q280.93985 312.575 280.33047 312.8719Q281.11172 313.10626 281.51797 313.66876Q281.93985 314.21564 281.93985 314.96564Q281.93985 315.5594 281.68985 316.09064Q281.43985 316.60626 281.06485 316.8875Q280.68985 317.16876 280.11172 317.3094Q279.54922 317.45 278.73672 317.45L275.45547 317.45ZM276.5961 312.46564L278.45547 312.46564Q279.20547 312.46564 279.5336 312.3719Q279.9711 312.2469 280.18985 311.95Q280.4086 311.6375 280.4086 311.1844Q280.4086 310.7625 280.20547 310.4344Q280.00235 310.10626 279.61172 309.9969Q279.23672 309.8719 278.31485 309.8719L276.5961 309.8719L276.5961 312.46564ZM276.5961 316.4344L278.73672 316.4344Q279.2836 316.4344 279.50235 316.3875Q279.9086 316.325 280.1586 316.16876Q280.42422 315.9969 280.5961 315.6844Q280.76797 315.3719 280.76797 314.96564Q280.76797 314.48126 280.51797 314.1219Q280.2836 313.7625 279.8461 313.6219Q279.4086 313.48126 278.58047 313.48126L276.5961 313.48126L276.5961 316.4344Z" fill-rule="nonzero"/><path fill="#000000" d="M382.4664 316.4344L382.4664 317.45L376.7789 317.45Q376.7789 317.075 376.9039 316.71564Q377.12265 316.1375 377.5914 315.575Q378.07578 315.0125 378.98203 314.27814Q380.38828 313.1219 380.87265 312.45Q381.37265 311.77814 381.37265 311.1844Q381.37265 310.5594 380.91953 310.1375Q380.4664 309.7 379.74765 309.7Q378.98203 309.7 378.5289 310.15314Q378.07578 310.60626 378.06015 311.41876L376.98203 311.3094Q377.0914 310.09064 377.81015 309.46564Q378.54453 308.825 379.7789 308.825Q381.01328 308.825 381.73203 309.5125Q382.45078 310.2 382.45078 311.21564Q382.45078 311.73126 382.23203 312.23126Q382.0289 312.71564 381.5289 313.27814Q381.04453 313.825 379.91953 314.77814Q378.9664 315.575 378.68515 315.8719Q378.41953 316.15314 378.24765 316.4344L382.4664 316.4344ZM383.91953 315.1844L384.98203 315.04376Q385.1539 315.9344 385.5914 316.34064Q386.0289 316.73126 386.6539 316.73126Q387.4039 316.73126 387.91953 316.21564Q388.43515 315.7 388.43515 314.9344Q388.43515 314.21564 387.95078 313.7469Q387.48203 313.2625 386.74765 313.2625Q386.45078 313.2625 385.99765 313.3875L386.12265 312.45Q386.23203 312.46564 386.29453 312.46564Q386.9664 312.46564 387.49765 312.1219Q388.04453 311.7625 388.04453 311.02814Q388.04453 310.45 387.6539 310.075Q387.26328 309.6844 386.63828 309.6844Q386.0289 309.6844 385.60703 310.075Q385.20078 310.46564 385.0914 311.23126L384.0289 311.04376Q384.2164 309.9969 384.9039 309.41876Q385.5914 308.825 386.60703 308.825Q387.31015 308.825 387.9039 309.1375Q388.49765 309.4344 388.81015 309.95Q389.12265 310.46564 389.12265 311.0594Q389.12265 311.60626 388.82578 312.075Q388.5289 312.52814 387.95078 312.79376Q388.70078 312.96564 389.12265 313.52814Q389.54453 314.075 389.54453 314.91876Q389.54453 316.04376 388.7164 316.825Q387.9039 317.60626 386.6539 317.60626Q385.5289 317.60626 384.7789 316.9344Q384.0289 316.2469 383.91953 315.1844ZM391.29453 317.45L391.29453 308.85626L394.5289 308.85626Q395.51328 308.85626 396.10703 309.1219Q396.70078 309.3875 397.0289 309.9344Q397.37265 310.46564 397.37265 311.0594Q397.37265 311.60626 397.07578 312.09064Q396.7789 312.575 396.16953 312.8719Q396.95078 313.10626 397.35703 313.66876Q397.7789 314.21564 397.7789 314.96564Q397.7789 315.5594 397.5289 316.09064Q397.2789 316.60626 396.9039 316.8875Q396.5289 317.16876 395.95078 317.3094Q395.38828 317.45 394.57578 317.45L391.29453 317.45ZM392.43515 312.46564L394.29453 312.46564Q395.04453 312.46564 395.37265 312.3719Q395.81015 312.2469 396.0289 311.95Q396.24765 311.6375 396.24765 311.1844Q396.24765 310.7625 396.04453 310.4344Q395.8414 310.10626 395.45078 309.9969Q395.07578 309.8719 394.1539 309.8719L392.43515 309.8719L392.43515 312.46564ZM392.43515 316.4344L394.57578 316.4344Q395.12265 316.4344 395.3414 316.3875Q395.74765 316.325 395.99765 316.16876Q396.26328 315.9969 396.43515 315.6844Q396.60703 315.3719 396.60703 314.96564Q396.60703 314.48126 396.35703 314.1219Q396.12265 313.7625 395.68515 313.6219Q395.24765 313.48126 394.41953 313.48126L392.43515 313.48126L392.43515 316.4344Z" fill-rule="nonzero"/><path fill="#000000" d="M496.1336 317.45L496.1336 315.3875L492.41486 315.3875L492.41486 314.41876L496.33673 308.85626L497.1961 308.85626L497.1961 314.41876L498.35236 314.41876L498.35236 315.3875L497.1961 315.3875L497.1961 317.45L496.1336 317.45ZM496.1336 314.41876L496.1336 310.5594L493.4461 314.41876L496.1336 314.41876ZM503.72736 317.45L502.68048 317.45L502.68048 310.73126Q502.28986 311.09064 501.66486 311.46564Q501.05548 311.825 500.5711 311.9969L500.5711 310.98126Q501.4461 310.5594 502.10236 309.98126Q502.77423 309.3875 503.05548 308.825L503.72736 308.825L503.72736 317.45ZM507.1336 317.45L507.1336 308.85626L510.36798 308.85626Q511.35236 308.85626 511.9461 309.1219Q512.53986 309.3875 512.868 309.9344Q513.21173 310.46564 513.21173 311.0594Q513.21173 311.60626 512.91486 312.09064Q512.618 312.575 512.0086 312.8719Q512.78986 313.10626 513.1961 313.66876Q513.618 314.21564 513.618 314.96564Q513.618 315.5594 513.368 316.09064Q513.118 316.60626 512.743 316.8875Q512.368 317.16876 511.78986 317.3094Q511.22736 317.45 510.41486 317.45L507.1336 317.45ZM508.27423 312.46564L510.1336 312.46564Q510.8836 312.46564 511.21173 312.3719Q511.64923 312.2469 511.86798 311.95Q512.08673 311.6375 512.08673 311.1844Q512.08673 310.7625 511.8836 310.4344Q511.68048 310.10626 511.28986 309.9969Q510.91486 309.8719 509.99298 309.8719L508.27423 309.8719L508.27423 312.46564ZM508.27423 316.4344L510.41486 316.4344Q510.96173 316.4344 511.18048 316.3875Q511.58673 316.325 511.83673 316.16876Q512.10236 315.9969 512.27423 315.6844Q512.4461 315.3719 512.4461 314.96564Q512.4461 314.48126 512.1961 314.1219Q511.96173 313.7625 511.52423 313.6219Q511.08673 313.48126 510.2586 313.48126L508.27423 313.48126L508.27423 316.4344Z" fill-rule="nonzero"/><path fill="#757575" d="M18.51875 37.55L24.01875 23.2375L26.065624 23.2375L31.925 37.55L29.76875 37.55L28.096874 33.20625L22.1125 33.20625L20.534374 37.55L18.51875 37.55ZM22.659374 31.675L27.503124 31.675L26.01875 27.70625Q25.33125 25.89375 25.003124 24.7375Q24.721874 26.1125 24.221874 27.471874L22.659374 31.675ZM35.753124 37.55L31.8 27.175L33.659374 27.175L35.89375 33.39375Q36.253124 34.39375 36.55 35.471874Q36.784374 34.659374 37.20625 33.503124L39.503124 27.175L41.315624 27.175L37.39375 37.55L35.753124 37.55ZM48.971874 34.20625L50.784374 34.440624Q50.3625 36.01875 49.190624 36.909374Q48.034374 37.784374 46.221874 37.784374Q43.95625 37.784374 42.6125 36.39375Q41.284374 34.9875 41.284374 32.45625Q41.284374 29.83125 42.628124 28.39375Q43.971874 26.940624 46.128124 26.940624Q48.20625 26.940624 49.51875 28.3625Q50.846874 29.76875 50.846874 32.346874Q50.846874 32.503124 50.83125 32.815624L43.096874 32.815624Q43.190624 34.51875 44.065624 35.425Q44.940624 36.33125 46.2375 36.33125Q47.20625 36.33125 47.878124 35.83125Q48.565624 35.315624 48.971874 34.20625ZM43.190624 31.3625L48.9875 31.3625Q48.878124 30.065624 48.33125 29.409374Q47.4875 28.39375 46.14375 28.39375Q44.940624 28.39375 44.1125 29.20625Q43.284374 30.003124 43.190624 31.3625ZM52.846874 37.55L52.846874 27.175L54.425 27.175L54.425 28.753124Q55.034374 27.64375 55.55 27.3Q56.065624 26.940624 56.675 26.940624Q57.565624 26.940624 58.4875 27.503124L57.878124 29.14375Q57.2375 28.753124 56.596874 28.753124Q56.01875 28.753124 55.55 29.1125Q55.096874 29.45625 54.89375 30.065624Q54.6125 31.003124 54.6125 32.1125L54.6125 37.55L52.846874 37.55ZM66.64375 36.26875Q65.65938 37.096874 64.75313 37.440624Q63.846874 37.784374 62.815624 37.784374Q61.1125 37.784374 60.190624 36.95625Q59.26875 36.1125 59.26875 34.815624Q59.26875 34.05 59.6125 33.425Q59.971874 32.8 60.534374 32.425Q61.096874 32.034374 61.8 31.83125Q62.315624 31.70625 63.3625 31.565624Q65.4875 31.315624 66.4875 30.971874Q66.50313 30.6125 66.50313 30.503124Q66.50313 29.440624 66.00313 28.9875Q65.33125 28.39375 64.00313 28.39375Q62.753124 28.39375 62.159374 28.83125Q61.58125 29.26875 61.3 30.378124L59.58125 30.14375Q59.815624 29.034374 60.346874 28.3625Q60.878124 27.675 61.89375 27.315624Q62.909374 26.940624 64.25313 26.940624Q65.58125 26.940624 66.40938 27.253124Q67.2375 27.565624 67.62813 28.05Q68.01875 28.51875 68.175 29.2375Q68.26875 29.690624 68.26875 30.8625L68.26875 33.20625Q68.26875 35.659374 68.37813 36.315624Q68.4875 36.95625 68.83125 37.55L66.9875 37.55Q66.72188 37.003124 66.64375 36.26875ZM66.4875 32.346874Q65.53438 32.7375 63.6125 33.003124Q62.534374 33.159374 62.08125 33.3625Q61.64375 33.55 61.39375 33.925Q61.14375 34.3 61.14375 34.76875Q61.14375 35.471874 61.675 35.940624Q62.20625 36.409374 63.2375 36.409374Q64.25313 36.409374 65.03438 35.971874Q65.83125 35.51875 66.20625 34.753124Q66.4875 34.14375 66.4875 32.9875L66.4875 32.346874ZM70.55 38.409374L72.25313 38.659374Q72.3625 39.45625 72.84688 39.815624Q73.50313 40.3 74.64375 40.3Q75.8625 40.3 76.51875 39.815624Q77.19063 39.33125 77.425 38.45625Q77.56563 37.909374 77.55 36.190624Q76.39375 37.55 74.675 37.55Q72.53438 37.55 71.3625 36.003124Q70.19063 34.45625 70.19063 32.3Q70.19063 30.815624 70.72188 29.565624Q71.26875 28.315624 72.28438 27.628124Q73.31563 26.940624 74.69063 26.940624Q76.51875 26.940624 77.72188 28.425L77.72188 27.175L79.33125 27.175L79.33125 36.14375Q79.33125 38.565624 78.83125 39.565624Q78.34688 40.58125 77.26875 41.159374Q76.20625 41.753124 74.64375 41.753124Q72.8 41.753124 71.64375 40.925Q70.50313 40.096874 70.55 38.409374ZM72.00313 32.175Q72.00313 34.221874 72.81563 35.159374Q73.62813 36.096874 74.84688 36.096874Q76.05 36.096874 76.8625 35.159374Q77.69063 34.221874 77.69063 32.2375Q77.69063 30.33125 76.84688 29.3625Q76.00313 28.39375 74.81563 28.39375Q73.64375 28.39375 72.81563 29.346874Q72.00313 30.3 72.00313 32.175ZM88.97188 34.20625L90.78438 34.440624Q90.3625 36.01875 89.19063 36.909374Q88.03438 37.784374 86.22188 37.784374Q83.95625 37.784374 82.6125 36.39375Q81.28438 34.9875 81.28438 32.45625Q81.28438 29.83125 82.62813 28.39375Q83.97188 26.940624 86.12813 26.940624Q88.20625 26.940624 89.51875 28.3625Q90.84688 29.76875 90.84688 32.346874Q90.84688 32.503124 90.83125 32.815624L83.09688 32.815624Q83.19063 34.51875 84.06563 35.425Q84.94063 36.33125 86.2375 36.33125Q87.20625 36.33125 87.87813 35.83125Q88.56563 35.315624 88.97188 34.20625ZM83.19063 31.3625L88.9875 31.3625Q88.87813 30.065624 88.33125 29.409374Q87.4875 28.39375 86.14375 28.39375Q84.94063 28.39375 84.1125 29.20625Q83.28438 30.003124 83.19063 31.3625ZM98.83125 37.55L98.83125 23.2375L100.58125 23.2375L100.58125 37.55L98.83125 37.55ZM109.64375 36.26875Q108.65938 37.096874 107.75313 37.440624Q106.84688 37.784374 105.81563 37.784374Q104.1125 37.784374 103.19063 36.95625Q102.26875 36.1125 102.26875 34.815624Q102.26875 34.05 102.6125 33.425Q102.97188 32.8 103.53438 32.425Q104.09688 32.034374 104.8 31.83125Q105.31563 31.70625 106.3625 31.565624Q108.4875 31.315624 109.4875 30.971874Q109.50313 30.6125 109.50313 30.503124Q109.50313 29.440624 109.00313 28.9875Q108.33125 28.39375 107.00313 28.39375Q105.75313 28.39375 105.15938 28.83125Q104.58125 29.26875 104.3 30.378124L102.58125 30.14375Q102.81563 29.034374 103.34688 28.3625Q103.87813 27.675 104.89375 27.315624Q105.90938 26.940624 107.25313 26.940624Q108.58125 26.940624 109.40938 27.253124Q110.2375 27.565624 110.62813 28.05Q111.01875 28.51875 111.175 29.2375Q111.26875 29.690624 111.26875 30.8625L111.26875 33.20625Q111.26875 35.659374 111.37813 36.315624Q111.4875 36.95625 111.83125 37.55L109.9875 37.55Q109.72188 37.003124 109.64375 36.26875ZM109.4875 32.346874Q108.53438 32.7375 106.6125 33.003124Q105.53438 33.159374 105.08125 33.3625Q104.64375 33.55 104.39375 33.925Q104.14375 34.3 104.14375 34.76875Q104.14375 35.471874 104.675 35.940624Q105.20625 36.409374 106.2375 36.409374Q107.25313 36.409374 108.03438 35.971874Q108.83125 35.51875 109.20625 34.753124Q109.4875 34.14375 109.4875 32.9875L109.4875 32.346874ZM117.70625 35.971874L117.95625 37.534374Q117.22188 37.690624 116.62813 37.690624Q115.675 37.690624 115.14375 37.39375Q114.62813 37.08125 114.40938 36.596874Q114.19063 36.096874 114.19063 34.51875L114.19063 28.55L112.90938 28.55L112.90938 27.175L114.19063 27.175L114.19063 24.6125L115.94063 23.55L115.94063 27.175L117.70625 27.175L117.70625 28.55L115.94063 28.55L115.94063 34.6125Q115.94063 35.3625 116.03438 35.58125Q116.12813 35.784374 116.33125 35.925Q116.55 36.05 116.94063 36.05Q117.22188 36.05 117.70625 35.971874ZM126.97188 34.20625L128.78438 34.440624Q128.3625 36.01875 127.19063 36.909374Q126.03438 37.784374 124.22188 37.784374Q121.95625 37.784374 120.6125 36.39375Q119.28438 34.9875 119.28438 32.45625Q119.28438 29.83125 120.62813 28.39375Q121.97188 26.940624 124.12813 26.940624Q126.20625 26.940624 127.51875 28.3625Q128.84688 29.76875 128.84688 32.346874Q128.84688 32.503124 128.83125 32.815624L121.09688 32.815624Q121.19063 34.51875 122.06563 35.425Q122.94063 36.33125 124.2375 36.33125Q125.20625 36.33125 125.87813 35.83125Q126.56563 35.315624 126.97188 34.20625ZM121.19063 31.3625L126.9875 31.3625Q126.87813 30.065624 126.33125 29.409374Q125.4875 28.39375 124.14375 28.39375Q122.94063 28.39375 122.1125 29.20625Q121.28438 30.003124 121.19063 31.3625ZM130.8625 37.55L130.8625 27.175L132.45625 27.175L132.45625 28.659374Q133.59688 26.940624 135.75313 26.940624Q136.69063 26.940624 137.47188 27.284374Q138.26875 27.6125 138.65938 28.159374Q139.05 28.70625 139.20625 29.45625Q139.3 29.95625 139.3 31.175L139.3 37.55L137.53438 37.55L137.53438 31.2375Q137.53438 30.159374 137.33125 29.628124Q137.12813 29.096874 136.59688 28.784374Q136.08125 28.471874 135.37813 28.471874Q134.25313 28.471874 133.44063 29.190624Q132.62813 29.89375 132.62813 31.878124L132.62813 37.55L130.8625 37.55ZM147.64375 33.753124L149.3625 33.971874Q149.08125 35.76875 147.90938 36.784374Q146.75313 37.784374 145.05 37.784374Q142.925 37.784374 141.62813 36.39375Q140.33125 35.003124 140.33125 32.409374Q140.33125 30.721874 140.87813 29.471874Q141.44063 28.20625 142.58125 27.58125Q143.72188 26.940624 145.06563 26.940624Q146.75313 26.940624 147.81563 27.8Q148.89375 28.659374 149.20625 30.221874L147.4875 30.4875Q147.25313 29.440624 146.62813 28.925Q146.00313 28.39375 145.12813 28.39375Q143.8 28.39375 142.97188 29.346874Q142.14375 30.3 142.14375 32.346874Q142.14375 34.440624 142.94063 35.39375Q143.7375 36.33125 145.03438 36.33125Q146.06563 36.33125 146.75313 35.70625Q147.45625 35.065624 147.64375 33.753124ZM150.78438 41.55L150.59688 39.89375Q151.175 40.05 151.59688 40.05Q152.19063 40.05 152.53438 39.846874Q152.89375 39.659374 153.1125 39.315624Q153.28438 39.05 153.65938 38.003124Q153.70625 37.846874 153.81563 37.565624L149.87813 27.175L151.76875 27.175L153.925 33.190624Q154.34688 34.33125 154.675 35.58125Q154.9875 34.378124 155.39375 33.221874L157.6125 27.175L159.37813 27.175L155.425 37.721874Q154.8 39.440624 154.44063 40.08125Q153.97188 40.95625 153.3625 41.346874Q152.76875 41.753124 151.925 41.753124Q151.40938 41.753124 150.78438 41.55ZM169.75313 37.55L165.8 27.175L167.65938 27.175L169.89375 33.39375Q170.25313 34.39375 170.55 35.471874Q170.78438 34.659374 171.20625 33.503124L173.50313 27.175L175.31563 27.175L171.39375 37.55L169.75313 37.55ZM175.15938 34.45625L176.90938 34.175Q177.05 35.221874 177.72188 35.784374Q178.39375 36.33125 179.59688 36.33125Q180.8 36.33125 181.37813 35.846874Q181.97188 35.346874 181.97188 34.690624Q181.97188 34.096874 181.45625 33.753124Q181.09688 33.51875 179.65938 33.159374Q177.72188 32.659374 176.97188 32.315624Q176.2375 31.95625 175.84688 31.33125Q175.45625 30.690624 175.45625 29.925Q175.45625 29.2375 175.76875 28.64375Q176.09688 28.05 176.64375 27.659374Q177.05 27.3625 177.75313 27.159374Q178.47188 26.940624 179.28438 26.940624Q180.50313 26.940624 181.425 27.3Q182.34688 27.64375 182.78438 28.253124Q183.22188 28.846874 183.39375 29.846874L181.675 30.08125Q181.55 29.284374 180.9875 28.846874Q180.425 28.39375 179.40938 28.39375Q178.19063 28.39375 177.675 28.8Q177.15938 29.190624 177.15938 29.721874Q177.15938 30.065624 177.37813 30.346874Q177.58125 30.628124 178.05 30.815624Q178.31563 30.909374 179.59688 31.253124Q181.47188 31.753124 182.20625 32.08125Q182.94063 32.39375 183.3625 33.003124Q183.78438 33.596874 183.78438 34.503124Q183.78438 35.378124 183.26875 36.159374Q182.75313 36.940624 181.78438 37.3625Q180.81563 37.784374 179.59688 37.784374Q177.58125 37.784374 176.51875 36.940624Q175.45625 36.096874 175.15938 34.45625ZM186.3625 37.55L186.3625 35.55L188.3625 35.55L188.3625 37.55L186.3625 37.55ZM201.7375 37.55L201.7375 24.925L197.01875 24.925L197.01875 23.2375L208.3625 23.2375L208.3625 24.925L203.62813 24.925L203.62813 37.55L201.7375 37.55ZM209.37813 33.8L211.22188 33.64375Q211.425 34.9875 212.175 35.675Q212.925 36.346874 213.9875 36.346874Q215.25313 36.346874 216.12813 35.39375Q217.00313 34.440624 217.00313 32.846874Q217.00313 31.346874 216.15938 30.4875Q215.31563 29.6125 213.95625 29.6125Q213.09688 29.6125 212.40938 30.003124Q211.7375 30.378124 211.34688 31.003124L209.69063 30.784374L211.08125 23.425L218.20625 23.425L218.20625 25.1125L212.4875 25.1125L211.72188 28.95625Q213.00313 28.05 214.425 28.05Q216.3 28.05 217.58125 29.3625Q218.87813 30.659374 218.87813 32.690624Q218.87813 34.64375 217.7375 36.05Q216.3625 37.8 213.9875 37.8Q212.03438 37.8 210.78438 36.70625Q209.55 35.6125 209.37813 33.8ZM227.03438 37.55L227.03438 23.2375L229.89375 23.2375L233.26875 33.3625Q233.7375 34.784374 233.95625 35.4875Q234.20625 34.70625 234.72188 33.190624L238.14375 23.2375L240.69063 23.2375L240.69063 37.55L238.87813 37.55L238.87813 25.565624L234.70625 37.55L233.00313 37.55L228.8625 25.3625L228.8625 37.55L227.03438 37.55ZM243.22188 32.3625Q243.22188 29.4875 244.81563 28.096874Q246.15938 26.940624 248.08125 26.940624Q250.22188 26.940624 251.56563 28.346874Q252.925 29.753124 252.925 32.221874Q252.925 34.221874 252.33125 35.378124Q251.7375 36.51875 250.58125 37.159374Q249.44063 37.784374 248.08125 37.784374Q245.89375 37.784374 244.55 36.39375Q243.22188 34.9875 243.22188 32.3625ZM245.01875 32.3625Q245.01875 34.3625 245.87813 35.346874Q246.75313 36.33125 248.08125 36.33125Q249.39375 36.33125 250.25313 35.346874Q251.12813 34.346874 251.12813 32.3Q251.12813 30.378124 250.25313 29.39375Q249.37813 28.39375 248.08125 28.39375Q246.75313 28.39375 245.87813 29.39375Q245.01875 30.378124 245.01875 32.3625ZM261.59686 37.55L261.59686 36.2375Q260.6125 37.784374 258.6906 37.784374Q257.45624 37.784374 256.40936 37.096874Q255.37813 36.409374 254.8 35.190624Q254.2375 33.971874 254.2375 32.378124Q254.2375 30.815624 254.75313 29.55Q255.26875 28.284374 256.3 27.6125Q257.34686 26.940624 258.6125 26.940624Q259.55 26.940624 260.28436 27.346874Q261.01874 27.7375 261.4875 28.3625L261.4875 23.2375L263.22186 23.2375L263.22186 37.55L261.59686 37.55ZM256.03436 32.378124Q256.03436 34.3625 256.8781 35.346874Q257.72186 36.33125 258.8625 36.33125Q260.01874 36.33125 260.8156 35.39375Q261.6281 34.45625 261.6281 32.51875Q261.6281 30.39375 260.8 29.39375Q259.9875 28.39375 258.78436 28.39375Q257.6125 28.39375 256.8156 29.3625Q256.03436 30.315624 256.03436 32.378124ZM272.97186 34.20625L274.78436 34.440624Q274.3625 36.01875 273.1906 36.909374Q272.03436 37.784374 270.22186 37.784374Q267.95624 37.784374 266.6125 36.39375Q265.28436 34.9875 265.28436 32.45625Q265.28436 29.83125 266.6281 28.39375Q267.97186 26.940624 270.1281 26.940624Q272.20624 26.940624 273.51874 28.3625Q274.84686 29.76875 274.84686 32.346874Q274.84686 32.503124 274.83124 32.815624L267.09686 32.815624Q267.1906 34.51875 268.0656 35.425Q268.9406 36.33125 270.2375 36.33125Q271.20624 36.33125 271.8781 35.83125Q272.5656 35.315624 272.97186 34.20625ZM267.1906 31.3625L272.9875 31.3625Q272.8781 30.065624 272.33124 29.409374Q271.4875 28.39375 270.14374 28.39375Q268.9406 28.39375 268.1125 29.20625Q267.28436 30.003124 267.1906 31.3625ZM276.83124 37.55L276.83124 23.2375L278.58124 23.2375L278.58124 37.55L276.83124 37.55ZM286.15936 34.45625L287.90936 34.175Q288.05 35.221874 288.72186 35.784374Q289.39374 36.33125 290.59686 36.33125Q291.8 36.33125 292.3781 35.846874Q292.97186 35.346874 292.97186 34.690624Q292.97186 34.096874 292.45624 33.753124Q292.09686 33.51875 290.65936 33.159374Q288.72186 32.659374 287.97186 32.315624Q287.2375 31.95625 286.84686 31.33125Q286.45624 30.690624 286.45624 29.925Q286.45624 29.2375 286.76874 28.64375Q287.09686 28.05 287.64374 27.659374Q288.05 27.3625 288.7531 27.159374Q289.47186 26.940624 290.28436 26.940624Q291.5031 26.940624 292.425 27.3Q293.34686 27.64375 293.78436 28.253124Q294.22186 28.846874 294.39374 29.846874L292.675 30.08125Q292.55 29.284374 291.9875 28.846874Q291.425 28.39375 290.40936 28.39375Q289.1906 28.39375 288.675 28.8Q288.15936 29.190624 288.15936 29.721874Q288.15936 30.065624 288.3781 30.346874Q288.58124 30.628124 289.05 30.815624Q289.3156 30.909374 290.59686 31.253124Q292.47186 31.753124 293.20624 32.08125Q293.9406 32.39375 294.3625 33.003124Q294.78436 33.596874 294.78436 34.503124Q294.78436 35.378124 294.26874 36.159374Q293.7531 36.940624 292.78436 37.3625Q291.8156 37.784374 290.59686 37.784374Q288.58124 37.784374 287.51874 36.940624Q286.45624 36.096874 286.15936 34.45625ZM296.8781 25.253124L296.8781 23.2375L298.64374 23.2375L298.64374 25.253124L296.8781 25.253124ZM296.8781 37.55L296.8781 27.175L298.64374 27.175L298.64374 37.55L296.8781 37.55ZM299.9406 37.55L299.9406 36.128124L306.55 28.55Q305.425 28.596874 304.5656 28.596874L300.33124 28.596874L300.33124 27.175L308.8156 27.175L308.8156 28.346874L303.1906 34.925L302.1125 36.128124Q303.28436 36.034374 304.33124 36.034374L309.1281 36.034374L309.1281 37.55L299.9406 37.55ZM316.97186 34.20625L318.78436 34.440624Q318.3625 36.01875 317.1906 36.909374Q316.03436 37.784374 314.22186 37.784374Q311.95624 37.784374 310.6125 36.39375Q309.28436 34.9875 309.28436 32.45625Q309.28436 29.83125 310.6281 28.39375Q311.97186 26.940624 314.1281 26.940624Q316.20624 26.940624 317.51874 28.3625Q318.84686 29.76875 318.84686 32.346874Q318.84686 32.503124 318.83124 32.815624L311.09686 32.815624Q311.1906 34.51875 312.0656 35.425Q312.9406 36.33125 314.2375 36.33125Q315.20624 36.33125 315.8781 35.83125Q316.5656 35.315624 316.97186 34.20625ZM311.1906 31.3625L316.9875 31.3625Q316.8781 30.065624 316.33124 29.409374Q315.4875 28.39375 314.14374 28.39375Q312.9406 28.39375 312.1125 29.20625Q311.28436 30.003124 311.1906 31.3625Z" fill-rule="nonzero"/></svg>