<svg id="Layer_1" data-name="Layer 1" xmlns="http://www.w3.org/2000/svg" viewBox="0 0 16 16">
  <defs>
    <style>
      .cls-1 {
        fill: #76b900;
      }
    </style>
  </defs>
  <g id="NVIDIA_Logo" data-name="NVIDIA Logo">
    <path id="Eye_Mark" data-name="Eye Mark" class="cls-1" d="M5.9698,5.86543V4.90907c.09285-.00661.18663-.01156.28219-.01456A5.75152,5.75152,0,0,1,10.58372,7.142S8.73032,9.71631,6.74309,9.71631a2.40975,2.40975,0,0,1-.77329-.12364v-2.9c1.01832.123,1.223.57279,1.83539,1.59325l1.36157-1.148A3.60517,3.60517,0,0,0,6.49742,5.83431a4.93745,4.93745,0,0,0-.52762.03112m0-3.15922V4.13474c.09389-.00742.1879-.0134.28219-.0168,3.63754-.12254,6.0073,2.98317,6.0073,2.98317s-2.722,3.31-5.55774,3.31a4.18488,4.18488,0,0,1-.73175-.06444v.883a4.81728,4.81728,0,0,0,.60938.03947c2.639,0,4.54736-1.34759,6.39542-2.94267.30618.24532,1.56062.8421,1.8186,1.1037-1.75722,1.47088-5.852,2.65644-8.17346,2.65644-.22369,0-.43886-.01352-.64994-.03376v1.241H16V2.70621Zm0,6.88646v.754A4.26109,4.26109,0,0,1,2.85159,7.37428,5.27645,5.27645,0,0,1,5.9698,5.86543v.8272l-.0038-.0004a2.34214,2.34214,0,0,0-1.81935.83163A3.25091,3.25091,0,0,0,5.9698,9.59267M1.63473,7.26433A6.045,6.045,0,0,1,5.9698,4.90907V4.13474C2.77053,4.39151,0,7.10111,0,7.10111s1.56908,4.53638,5.9698,4.95171v-.82318C2.74044,10.82334,1.63473,7.26433,1.63473,7.26433Z"/>
  </g>
</svg>
