<?xml version="1.0" encoding="utf-8"?>
<!-- Generator: Adobe Illustrator 26.0.1, SVG Export Plug-In . SVG Version: 6.00 Build 0)  -->
<svg version="1.1" id="Layer_1" xmlns="http://www.w3.org/2000/svg" xmlns:xlink="http://www.w3.org/1999/xlink" x="0px" y="0px"
	 viewBox="0 0 2600 1472" style="enable-background:new 0 0 2600 1472;" xml:space="preserve">
<style type="text/css">
	.st0{fill:#FFFFFF;}
	.st1{fill:none;stroke:#000000;stroke-width:3.7368;stroke-miterlimit:10;}
	.st2{fill:none;stroke:#000000;stroke-width:3.7368;stroke-miterlimit:10;stroke-dasharray:15.7752,15.7752;}
	.st3{fill:none;stroke:#000000;stroke-width:3.7368;stroke-miterlimit:10;stroke-dasharray:14.9473;}
	.st4{clip-path:url(#SVGID_00000048495239199354135460000011592259084514416259_);}
	.st5{clip-path:url(#SVGID_00000178907146753477912230000014876610315220944036_);}
	.st6{clip-path:url(#SVGID_00000127741091775748561120000003450823326547650748_);}
	.st7{clip-path:url(#SVGID_00000160167373373449032900000005663013334829967235_);}
	.st8{fill:none;stroke:#76B900;stroke-width:7.4737;stroke-miterlimit:10;}
	.st9{fill:#76B900;}
	.st10{opacity:0.18;fill:none;stroke:#000000;stroke-width:3.7368;stroke-miterlimit:10;}
	.st11{fill:none;stroke:#76B900;stroke-width:3.7368;stroke-linejoin:round;}
	.st12{fill:none;stroke:#76B900;stroke-width:3.7368;stroke-linecap:square;stroke-miterlimit:10;}
	.st13{fill:none;stroke:#76B900;stroke-width:3.7368;stroke-linejoin:round;stroke-miterlimit:10;}
	.st14{fill:#76B900;stroke:#76B900;stroke-width:3.7368;stroke-miterlimit:10;}
	.st15{fill:none;stroke:#76B900;stroke-width:3.7368;stroke-miterlimit:10;}
</style>
<rect class="st0" width="2600" height="1472"/>
<g>
	<g>
		<g>
			<line class="st1" x1="1476.1" y1="276.5" x2="1476.1" y2="284"/>
			<line class="st2" x1="1476.1" y1="299.8" x2="1476.1" y2="512.8"/>
			<line class="st1" x1="1476.1" y1="520.6" x2="1476.1" y2="528.1"/>
		</g>
	</g>
	<line class="st3" x1="1315.5" y1="402.3" x2="1570.1" y2="402.3"/>
	<g>
		<g>
			<circle class="st1" cx="1427.5" cy="298.4" r="8.6"/>
			<circle class="st1" cx="1427.5" cy="361.9" r="8.6"/>
			<circle class="st1" cx="1427.5" cy="425.4" r="8.6"/>
			<circle class="st1" cx="1427.5" cy="506.1" r="8.6"/>
		</g>
		<g>
			<circle class="st1" cx="1520.9" cy="361.7" r="8.6"/>
			<circle class="st1" cx="1520.9" cy="462.9" r="8.6"/>
			<circle class="st1" cx="1520.9" cy="412.3" r="8.6"/>
		</g>
		<g>
			<circle class="st1" cx="1341.4" cy="361.7" r="8.6"/>
			<circle class="st1" cx="1341.4" cy="462.9" r="8.6"/>
			<circle class="st1" cx="1341.4" cy="412.3" r="8.6"/>
		</g>
		<g>
			<line class="st1" x1="1418.9" y1="361.7" x2="1349.9" y2="361.7"/>
			<line class="st1" x1="1512.3" y1="361.7" x2="1436.1" y2="361.7"/>
			<g>
				<line class="st1" x1="1348.4" y1="356.6" x2="1420.6" y2="303.5"/>
				<line class="st1" x1="1434.2" y1="500.6" x2="1514.2" y2="417.8"/>
				<line class="st1" x1="1512.6" y1="465.2" x2="1435.7" y2="503.3"/>
				<line class="st1" x1="1420.6" y1="420.8" x2="1348.4" y2="366.9"/>
				<line class="st1" x1="1349.9" y1="413.7" x2="1418.9" y2="424.6"/>
				<line class="st1" x1="1347" y1="456.4" x2="1421.8" y2="368.5"/>
				<line class="st1" x1="1419.5" y1="503.1" x2="1349.7" y2="465.4"/>
				<line class="st1" x1="1347.9" y1="418" x2="1421.4" y2="500.1"/>
				<line class="st1" x1="1515.8" y1="368.6" x2="1432.4" y2="499"/>
				<line class="st1" x1="1434.2" y1="302.9" x2="1513.8" y2="356.9"/>
				<line class="st1" x1="1434.9" y1="420.9" x2="1513.8" y2="366.6"/>
				<line class="st1" x1="1512.3" y1="413.6" x2="1436.1" y2="424.7"/>
				<line class="st1" x1="1512.3" y1="459.5" x2="1435" y2="429"/>
				<line class="st1" x1="1513.3" y1="408.2" x2="1435" y2="365.7"/>
				<line class="st1" x1="1433" y1="305.1" x2="1515.4" y2="405.7"/>
			</g>
		</g>
	</g>
</g>
<g>
	<g>
		<defs>
			<rect id="SVGID_1_" x="1697.5" y="257.9" width="160.5" height="130"/>
		</defs>
		<clipPath id="SVGID_00000171703193106611996600000006639368364308239756_">
			<use xlink:href="#SVGID_1_"  style="overflow:visible;"/>
		</clipPath>
		<g style="clip-path:url(#SVGID_00000171703193106611996600000006639368364308239756_);">
			<g>
				<circle class="st1" cx="1809.5" cy="284" r="8.6"/>
				<circle class="st1" cx="1809.5" cy="347.5" r="8.6"/>
				<circle class="st1" cx="1809.5" cy="411" r="8.6"/>
				<circle class="st1" cx="1809.5" cy="491.7" r="8.6"/>
			</g>
			<g>
				<circle class="st1" cx="1902.8" cy="347.3" r="8.6"/>
				<circle class="st1" cx="1902.8" cy="448.5" r="8.6"/>
				<circle class="st1" cx="1902.8" cy="397.9" r="8.6"/>
			</g>
			<g>
				<circle class="st1" cx="1723.4" cy="347.3" r="8.6"/>
				<circle class="st1" cx="1723.4" cy="448.5" r="8.6"/>
				<circle class="st1" cx="1723.4" cy="397.9" r="8.6"/>
			</g>
			<g>
				<line class="st1" x1="1800.9" y1="347.3" x2="1731.9" y2="347.3"/>
				<line class="st1" x1="1894.2" y1="347.3" x2="1818.1" y2="347.3"/>
				<g>
					<line class="st1" x1="1730.3" y1="342.2" x2="1802.5" y2="289.1"/>
					<line class="st1" x1="1816.1" y1="486.2" x2="1896.2" y2="403.3"/>
					<line class="st1" x1="1894.5" y1="450.8" x2="1817.6" y2="488.9"/>
					<line class="st1" x1="1802.5" y1="406.4" x2="1730.3" y2="352.4"/>
					<line class="st1" x1="1731.9" y1="399.2" x2="1800.9" y2="410.2"/>
					<line class="st1" x1="1728.9" y1="442" x2="1803.7" y2="354"/>
					<line class="st1" x1="1801.4" y1="488.7" x2="1731.6" y2="451"/>
					<line class="st1" x1="1729.8" y1="403.6" x2="1803.3" y2="485.7"/>
					<line class="st1" x1="1897.7" y1="354.2" x2="1814.3" y2="484.6"/>
					<line class="st1" x1="1816.1" y1="288.5" x2="1895.7" y2="342.4"/>
					<line class="st1" x1="1816.8" y1="406.5" x2="1895.7" y2="352.1"/>
					<line class="st1" x1="1894.2" y1="399.2" x2="1818" y2="410.3"/>
					<line class="st1" x1="1894.2" y1="445.1" x2="1816.9" y2="414.5"/>
					<line class="st1" x1="1895.3" y1="393.8" x2="1816.9" y2="351.3"/>
					<line class="st1" x1="1814.9" y1="290.7" x2="1897.4" y2="391.2"/>
				</g>
			</g>
		</g>
		<use xlink:href="#SVGID_1_"  style="overflow:visible;fill:none;stroke:#000000;stroke-width:3.7368;stroke-miterlimit:10;"/>
	</g>
	<g>
		<defs>
			<rect id="SVGID_00000086692127866192352370000006429416892980341632_" x="1697.5" y="416.5" width="160.5" height="130"/>
		</defs>
		<clipPath id="SVGID_00000174570784813973148250000017053957606739648155_">
			<use xlink:href="#SVGID_00000086692127866192352370000006429416892980341632_"  style="overflow:visible;"/>
		</clipPath>
		<g style="clip-path:url(#SVGID_00000174570784813973148250000017053957606739648155_);">
			<g>
				<circle class="st1" cx="1809.5" cy="312.9" r="8.6"/>
				<circle class="st1" cx="1809.5" cy="376.4" r="8.6"/>
				<circle class="st1" cx="1809.5" cy="439.9" r="8.6"/>
				<circle class="st1" cx="1809.5" cy="520.5" r="8.6"/>
			</g>
			<g>
				<circle class="st1" cx="1902.8" cy="376.1" r="8.6"/>
				<circle class="st1" cx="1902.8" cy="477.4" r="8.6"/>
				<circle class="st1" cx="1902.8" cy="426.7" r="8.6"/>
			</g>
			<g>
				<circle class="st1" cx="1723.4" cy="376.1" r="8.6"/>
				<circle class="st1" cx="1723.4" cy="477.4" r="8.6"/>
				<circle class="st1" cx="1723.4" cy="426.7" r="8.6"/>
			</g>
			<g>
				<line class="st1" x1="1800.9" y1="376.1" x2="1731.9" y2="376.1"/>
				<line class="st1" x1="1894.2" y1="376.1" x2="1818.1" y2="376.1"/>
				<g>
					<line class="st1" x1="1730.3" y1="371" x2="1802.5" y2="317.9"/>
					<line class="st1" x1="1816.1" y1="515.1" x2="1896.2" y2="432.2"/>
					<line class="st1" x1="1894.5" y1="479.6" x2="1817.6" y2="517.7"/>
					<line class="st1" x1="1802.5" y1="435.3" x2="1730.3" y2="381.3"/>
					<line class="st1" x1="1731.9" y1="428.1" x2="1800.9" y2="439.1"/>
					<line class="st1" x1="1728.9" y1="470.8" x2="1803.7" y2="382.9"/>
					<line class="st1" x1="1801.4" y1="517.6" x2="1731.6" y2="479.8"/>
					<line class="st1" x1="1729.8" y1="432.4" x2="1803.3" y2="514.5"/>
					<line class="st1" x1="1897.7" y1="383" x2="1814.3" y2="513.4"/>
					<line class="st1" x1="1816.1" y1="317.4" x2="1895.7" y2="371.3"/>
					<line class="st1" x1="1816.8" y1="435.3" x2="1895.7" y2="381"/>
					<line class="st1" x1="1894.2" y1="428" x2="1818" y2="439.2"/>
					<line class="st1" x1="1894.2" y1="474" x2="1816.9" y2="443.4"/>
					<line class="st1" x1="1895.3" y1="422.6" x2="1816.9" y2="380.2"/>
					<line class="st1" x1="1814.9" y1="319.5" x2="1897.4" y2="420.1"/>
				</g>
			</g>
		</g>
		
			<use xlink:href="#SVGID_00000086692127866192352370000006429416892980341632_"  style="overflow:visible;fill:none;stroke:#000000;stroke-width:3.7368;stroke-miterlimit:10;"/>
	</g>
	<g>
		<defs>
			<rect id="SVGID_00000098936518794853131110000001177501281069357230_" x="1886.9" y="416.5" width="79.1" height="130"/>
		</defs>
		<clipPath id="SVGID_00000038383109383337514320000006627127302156317588_">
			<use xlink:href="#SVGID_00000098936518794853131110000001177501281069357230_"  style="overflow:visible;"/>
		</clipPath>
		<g style="clip-path:url(#SVGID_00000038383109383337514320000006627127302156317588_);">
			<g>
				<circle class="st1" cx="1838.3" cy="312.9" r="8.6"/>
				<circle class="st1" cx="1838.3" cy="376.4" r="8.6"/>
				<circle class="st1" cx="1838.3" cy="439.9" r="8.6"/>
				<circle class="st1" cx="1838.3" cy="520.5" r="8.6"/>
			</g>
			<g>
				<circle class="st1" cx="1931.7" cy="376.1" r="8.6"/>
				<circle class="st1" cx="1931.7" cy="477.4" r="8.6"/>
				<circle class="st1" cx="1931.7" cy="426.7" r="8.6"/>
			</g>
			<g>
				<circle class="st1" cx="1752.2" cy="376.1" r="8.6"/>
				<circle class="st1" cx="1752.2" cy="477.4" r="8.6"/>
				<circle class="st1" cx="1752.2" cy="426.7" r="8.6"/>
			</g>
			<g>
				<line class="st1" x1="1829.7" y1="376.1" x2="1760.7" y2="376.1"/>
				<line class="st1" x1="1923.1" y1="376.1" x2="1846.9" y2="376.1"/>
				<g>
					<line class="st1" x1="1759.1" y1="371" x2="1831.4" y2="317.9"/>
					<line class="st1" x1="1845" y1="515.1" x2="1925" y2="432.2"/>
					<line class="st1" x1="1923.4" y1="479.6" x2="1846.5" y2="517.7"/>
					<line class="st1" x1="1831.4" y1="435.3" x2="1759.1" y2="381.3"/>
					<line class="st1" x1="1760.7" y1="428.1" x2="1829.7" y2="439.1"/>
					<line class="st1" x1="1757.8" y1="470.8" x2="1832.6" y2="382.9"/>
					<line class="st1" x1="1830.2" y1="517.6" x2="1760.5" y2="479.8"/>
					<line class="st1" x1="1758.7" y1="432.4" x2="1832.2" y2="514.5"/>
					<line class="st1" x1="1926.6" y1="383" x2="1843.1" y2="513.4"/>
					<line class="st1" x1="1845" y1="317.4" x2="1924.6" y2="371.3"/>
					<line class="st1" x1="1845.7" y1="435.3" x2="1924.6" y2="381"/>
					<line class="st1" x1="1923.1" y1="428" x2="1846.9" y2="439.2"/>
					<line class="st1" x1="1923.1" y1="474" x2="1845.8" y2="443.4"/>
					<line class="st1" x1="1924.1" y1="422.6" x2="1845.8" y2="380.2"/>
					<line class="st1" x1="1843.8" y1="319.5" x2="1926.2" y2="420.1"/>
				</g>
			</g>
		</g>
		
			<use xlink:href="#SVGID_00000098936518794853131110000001177501281069357230_"  style="overflow:visible;fill:none;stroke:#000000;stroke-width:3.7368;stroke-miterlimit:10;"/>
	</g>
	<g>
		<defs>
			<rect id="SVGID_00000132803843851606725060000002031923751860014760_" x="1886.9" y="257.9" width="79.1" height="130"/>
		</defs>
		<clipPath id="SVGID_00000157267510579632821260000008345549758644230541_">
			<use xlink:href="#SVGID_00000132803843851606725060000002031923751860014760_"  style="overflow:visible;"/>
		</clipPath>
		<g style="clip-path:url(#SVGID_00000157267510579632821260000008345549758644230541_);">
			<g>
				<circle class="st1" cx="1838.3" cy="284" r="8.6"/>
				<circle class="st1" cx="1838.3" cy="347.5" r="8.6"/>
				<circle class="st1" cx="1838.3" cy="411" r="8.6"/>
				<circle class="st1" cx="1838.3" cy="491.7" r="8.6"/>
			</g>
			<g>
				<circle class="st1" cx="1931.7" cy="347.3" r="8.6"/>
				<circle class="st1" cx="1931.7" cy="448.5" r="8.6"/>
				<circle class="st1" cx="1931.7" cy="397.9" r="8.6"/>
			</g>
			<g>
				<circle class="st1" cx="1752.2" cy="347.3" r="8.6"/>
				<circle class="st1" cx="1752.2" cy="448.5" r="8.6"/>
				<circle class="st1" cx="1752.2" cy="397.9" r="8.6"/>
			</g>
			<g>
				<line class="st1" x1="1829.7" y1="347.3" x2="1760.7" y2="347.3"/>
				<line class="st1" x1="1923.1" y1="347.3" x2="1846.9" y2="347.3"/>
				<g>
					<line class="st1" x1="1759.1" y1="342.2" x2="1831.4" y2="289.1"/>
					<line class="st1" x1="1845" y1="486.2" x2="1925" y2="403.3"/>
					<line class="st1" x1="1923.4" y1="450.8" x2="1846.5" y2="488.9"/>
					<line class="st1" x1="1831.4" y1="406.4" x2="1759.1" y2="352.4"/>
					<line class="st1" x1="1760.7" y1="399.2" x2="1829.7" y2="410.2"/>
					<line class="st1" x1="1757.8" y1="442" x2="1832.6" y2="354"/>
					<line class="st1" x1="1830.2" y1="488.7" x2="1760.5" y2="451"/>
					<line class="st1" x1="1758.7" y1="403.6" x2="1832.2" y2="485.7"/>
					<line class="st1" x1="1926.6" y1="354.2" x2="1843.1" y2="484.6"/>
					<line class="st1" x1="1845" y1="288.5" x2="1924.6" y2="342.4"/>
					<line class="st1" x1="1845.7" y1="406.5" x2="1924.6" y2="352.1"/>
					<line class="st1" x1="1923.1" y1="399.2" x2="1846.9" y2="410.3"/>
					<line class="st1" x1="1923.1" y1="445.1" x2="1845.8" y2="414.5"/>
					<line class="st1" x1="1924.1" y1="393.8" x2="1845.8" y2="351.3"/>
					<line class="st1" x1="1843.8" y1="290.7" x2="1926.2" y2="391.2"/>
				</g>
			</g>
		</g>
		
			<use xlink:href="#SVGID_00000132803843851606725060000002031923751860014760_"  style="overflow:visible;fill:none;stroke:#000000;stroke-width:3.7368;stroke-miterlimit:10;"/>
	</g>
</g>
<g>
	<path d="M684.6,177l-2.4-6.9h-13.7l-2.4,6.9h-5.6l12.7-34.6h4.2l12.7,34.6H684.6z M675.5,150.2l-5.4,15.4h10.6L675.5,150.2z"/>
	<path d="M709.3,177v-2.5c-1.7,1.8-4.1,2.8-6.6,2.8c-2.5,0-4.6-0.8-6.1-2.2c-1.9-1.8-2.5-4.2-2.5-6.9v-15.7h5v15
		c0,3.8,2.2,5.5,5,5.5s5.1-1.7,5.1-5.5v-15h5V177H709.3z"/>
	<path d="M729.4,177c-4.6,0-6.8-3.3-6.8-6.9v-13.6h-2.8v-3.8h2.8v-7.5h5v7.5h4.8v3.8h-4.8v13.3c0,1.8,0.9,2.9,2.7,2.9h2v4.2H729.4z"
		/>
	<path d="M755,174.3c-1.6,1.7-4,2.9-7.4,2.9s-5.7-1.3-7.3-2.9c-2.3-2.4-2.9-5.5-2.9-9.7c0-4.1,0.6-7.2,2.9-9.7
		c1.6-1.7,4-2.9,7.3-2.9s5.8,1.3,7.4,2.9c2.3,2.4,2.9,5.5,2.9,9.7C757.9,168.8,757.3,171.9,755,174.3z M751.2,157.9
		c-0.9-0.9-2.2-1.4-3.6-1.4s-2.7,0.5-3.6,1.4c-1.5,1.5-1.7,4.1-1.7,6.8s0.2,5.2,1.7,6.8c0.9,0.9,2.1,1.5,3.6,1.5s2.7-0.5,3.6-1.5
		c1.5-1.5,1.7-4.1,1.7-6.8S752.8,159.4,751.2,157.9z"/>
	<path d="M794.6,177v-15c0-3.8-2.2-5.5-5-5.5c-2.7,0-5.1,1.7-5.1,5.2V177h-5v-15c0-3.8-2.2-5.5-5-5.5s-5.1,1.7-5.1,5.5v15h-5v-24.6
		h4.9v2.5c1.7-1.8,4.1-2.8,6.6-2.8c3.1,0,5.4,1.2,7,3.6c2-2.4,4.5-3.6,7.7-3.6c2.5,0,4.8,0.8,6.2,2.2c1.9,1.8,2.6,4.2,2.6,6.9V177
		H794.6z"/>
	<path d="M820.5,177v-2.2c-1.8,1.8-3.5,2.5-6.6,2.5s-5.1-0.7-6.6-2.2c-1.3-1.3-1.9-3.2-1.9-5.3c0-4.1,2.9-7.1,8.5-7.1h6.5v-1.7
		c0-3.1-1.6-4.6-5.4-4.6c-2.7,0-4,0.6-5.4,2.4l-3.3-3.1c2.3-2.7,4.8-3.5,8.8-3.5c6.8,0,10.2,2.9,10.2,8.5V177H820.5z M820.4,166.1
		h-5.8c-2.9,0-4.4,1.3-4.4,3.5c0,2.2,1.4,3.5,4.5,3.5c1.9,0,3.3-0.1,4.6-1.4c0.7-0.7,1.1-1.9,1.1-3.6V166.1z"/>
	<path d="M840.3,177c-4.6,0-6.8-3.3-6.8-6.9v-13.6h-2.8v-3.8h2.8v-7.5h5v7.5h4.8v3.8h-4.8v13.3c0,1.8,0.9,2.9,2.7,2.9h2v4.2H840.3z"
		/>
	<path d="M853.1,166.1c0,4.2,2.2,6.9,6.3,6.9c2.8,0,4.2-0.8,6-2.5l3.2,3c-2.5,2.5-4.9,3.8-9.2,3.8c-6.2,0-11.1-3.3-11.1-12.6
		c0-8,4.1-12.6,10.4-12.6c6.6,0,10.4,4.9,10.4,11.9v2.2H853.1z M863.5,159.3c-0.8-1.8-2.5-3.1-4.9-3.1s-4.1,1.3-4.9,3.1
		c-0.5,1.1-0.6,1.8-0.6,3.4h11.1C864.1,161.1,864,160.4,863.5,159.3z"/>
	<path d="M889.7,177v-2.6c-1.8,2.2-3.8,2.9-6.5,2.9c-2.5,0-4.7-0.8-6-2.2c-2.5-2.5-2.8-6.7-2.8-10.4s0.3-7.9,2.8-10.4
		c1.4-1.4,3.5-2.2,6-2.2c2.6,0,4.7,0.6,6.5,2.8v-12.4h5V177H889.7z M884.5,156.5c-4.5,0-5.2,3.8-5.2,8.2s0.7,8.2,5.2,8.2
		s5.1-3.8,5.1-8.2S889,156.5,884.5,156.5z"/>
	<path d="M935.8,173.7c-2.2,2.2-5.3,3.3-8.9,3.3h-12.1v-34.6h12.1c3.6,0,6.8,1.1,8.9,3.3c3.7,3.7,3.5,8.8,3.5,13.8
		C939.3,164.4,939.5,170,935.8,173.7z M932.2,149.4c-1.5-1.6-3.4-2.3-5.9-2.3H920v25.2h6.4c2.5,0,4.4-0.7,5.9-2.3
		c1.8-2,1.8-5.7,1.8-10.5C934,154.7,934,151.4,932.2,149.4z"/>
	<path d="M959.7,177v-2.2c-1.8,1.8-3.5,2.5-6.6,2.5s-5.1-0.7-6.6-2.2c-1.3-1.3-1.9-3.2-1.9-5.3c0-4.1,2.9-7.1,8.5-7.1h6.5v-1.7
		c0-3.1-1.6-4.6-5.4-4.6c-2.7,0-4,0.6-5.4,2.4l-3.3-3.1c2.3-2.7,4.8-3.5,8.8-3.5c6.8,0,10.2,2.9,10.2,8.5V177H959.7z M959.7,166.1
		h-5.8c-2.9,0-4.4,1.3-4.4,3.5c0,2.2,1.4,3.5,4.5,3.5c1.9,0,3.3-0.1,4.6-1.4c0.7-0.7,1.1-1.9,1.1-3.6V166.1z"/>
	<path d="M979.6,177c-4.6,0-6.8-3.3-6.8-6.9v-13.6H970v-3.8h2.8v-7.5h5v7.5h4.8v3.8h-4.8v13.3c0,1.8,0.9,2.9,2.7,2.9h2v4.2H979.6z"
		/>
	<path d="M1002,177v-2.2c-1.8,1.8-3.5,2.5-6.6,2.5s-5.1-0.7-6.6-2.2c-1.3-1.3-1.9-3.2-1.9-5.3c0-4.1,2.9-7.1,8.5-7.1h6.5v-1.7
		c0-3.1-1.6-4.6-5.4-4.6c-2.7,0-4,0.6-5.4,2.4l-3.3-3.1c2.3-2.7,4.8-3.5,8.8-3.5c6.8,0,10.2,2.9,10.2,8.5V177H1002z M1001.9,166.1
		h-5.8c-2.9,0-4.4,1.3-4.4,3.5c0,2.2,1.4,3.5,4.5,3.5c1.9,0,3.3-0.1,4.6-1.4c0.7-0.7,1.1-1.9,1.1-3.6V166.1z"/>
	<path d="M1037.9,177.3c-3.6,0-6.7-1.3-9.1-3.7c-3.4-3.4-3.4-7.2-3.4-13.9s0-10.5,3.4-13.9c2.4-2.4,5.5-3.7,9.1-3.7
		c6.4,0,11.1,3.7,12.3,10.6h-5.3c-0.8-3.5-3.2-5.9-7-5.9c-2,0-3.9,0.8-5.1,2.1c-1.7,1.8-2.1,3.8-2.1,10.8s0.4,8.9,2.1,10.8
		c1.2,1.3,3.1,2.1,5.1,2.1c3.8,0,6.2-2.4,7-5.9h5.3C1049,173.5,1044.1,177.3,1037.9,177.3z"/>
	<path d="M1071.5,177v-2.5c-1.7,1.8-4.1,2.8-6.6,2.8c-2.5,0-4.6-0.8-6.1-2.2c-1.9-1.8-2.5-4.2-2.5-6.9v-15.7h5v15
		c0,3.8,2.2,5.5,5,5.5s5.1-1.7,5.1-5.5v-15h5V177H1071.5z"/>
	<path d="M1097.8,158.1c-1.1-1.1-2-1.7-3.7-1.7c-2.7,0-4.9,2.1-4.9,5.5v15h-5v-24.6h4.9v2.7c1.3-1.7,3.8-3,6.6-3
		c2.4,0,4.2,0.6,5.9,2.3L1097.8,158.1z"/>
	<path d="M1118.3,177v-2.2c-1.8,1.8-3.5,2.5-6.6,2.5c-3.1,0-5.1-0.7-6.6-2.2c-1.3-1.3-1.9-3.2-1.9-5.3c0-4.1,2.9-7.1,8.5-7.1h6.5
		v-1.7c0-3.1-1.6-4.6-5.4-4.6c-2.7,0-4,0.6-5.4,2.4l-3.3-3.1c2.3-2.7,4.8-3.5,8.8-3.5c6.8,0,10.2,2.9,10.2,8.5V177H1118.3z
		 M1118.2,166.1h-5.8c-2.9,0-4.4,1.3-4.4,3.5c0,2.2,1.4,3.5,4.5,3.5c1.9,0,3.3-0.1,4.6-1.4c0.7-0.7,1.1-1.9,1.1-3.6V166.1z"/>
	<path d="M1138.1,177c-4.6,0-6.8-3.3-6.8-6.9v-13.6h-2.8v-3.8h2.8v-7.5h5v7.5h4.8v3.8h-4.8v13.3c0,1.8,0.9,2.9,2.7,2.9h2v4.2H1138.1
		z"/>
	<path d="M1147.3,147.5v-5.2h5.2v5.2H1147.3z M1147.4,177v-24.6h5V177H1147.4z"/>
	<path d="M1176.7,174.3c-1.6,1.7-4,2.9-7.4,2.9s-5.7-1.3-7.3-2.9c-2.3-2.4-2.9-5.5-2.9-9.7c0-4.1,0.6-7.2,2.9-9.7
		c1.6-1.7,4-2.9,7.3-2.9s5.8,1.3,7.4,2.9c2.3,2.4,2.9,5.5,2.9,9.7C1179.6,168.8,1179,171.9,1176.7,174.3z M1173,157.9
		c-0.9-0.9-2.2-1.4-3.6-1.4s-2.7,0.5-3.6,1.4c-1.5,1.5-1.7,4.1-1.7,6.8s0.2,5.2,1.7,6.8c0.9,0.9,2.1,1.5,3.6,1.5s2.7-0.5,3.6-1.5
		c1.5-1.5,1.7-4.1,1.7-6.8S1174.5,159.4,1173,157.9z"/>
	<path d="M1201.3,177v-15c0-3.8-2.2-5.5-5-5.5s-5.1,1.7-5.1,5.5v15h-5v-24.6h4.9v2.5c1.7-1.8,4.1-2.8,6.6-2.8c2.5,0,4.6,0.8,6.1,2.2
		c1.9,1.8,2.5,4.2,2.5,6.9V177H1201.3z"/>
</g>
<g>
	<g>
		<path d="M1421.4,173.7c-2.2,2.2-5.3,3.3-8.9,3.3h-12.1v-34.6h12.1c3.6,0,6.8,1.1,8.9,3.3c3.7,3.7,3.5,8.8,3.5,13.8
			C1424.9,164.4,1425.1,170,1421.4,173.7z M1417.8,149.4c-1.5-1.6-3.4-2.3-5.9-2.3h-6.4v25.2h6.4c2.5,0,4.4-0.7,5.9-2.3
			c1.8-2,1.8-5.7,1.8-10.5C1419.7,154.7,1419.6,151.4,1417.8,149.4z"/>
		<path d="M1431.9,147.5v-5.2h5.2v5.2H1431.9z M1432.1,177v-24.6h5V177H1432.1z"/>
		<path d="M1452.9,177.3c-4,0-7.4-0.7-10.3-3.5l3.3-3.3c2,2,4.7,2.6,7.1,2.6c3,0,5.4-1.1,5.4-3.4c0-1.7-0.9-2.7-3.3-2.9l-3.9-0.3
			c-4.6-0.4-7.3-2.5-7.3-6.8c0-4.8,4.1-7.5,9.3-7.5c3.7,0,6.9,0.8,9.1,2.8l-3.1,3.2c-1.6-1.3-3.7-1.8-6.1-1.8c-3,0-4.5,1.3-4.5,3.2
			c0,1.5,0.8,2.6,3.4,2.8l3.9,0.3c4.6,0.4,7.3,2.6,7.3,6.9C1463.1,174.6,1458.8,177.3,1452.9,177.3z"/>
		<path d="M1476,177c-4.6,0-6.8-3.3-6.8-6.9v-13.6h-2.8v-3.8h2.8v-7.5h5v7.5h4.8v3.8h-4.8v13.3c0,1.8,0.9,2.9,2.7,2.9h2v4.2H1476z"
			/>
		<path d="M1498.8,158.1c-1.1-1.1-2-1.7-3.7-1.7c-2.7,0-4.9,2.1-4.9,5.5v15h-5v-24.6h4.9v2.7c1.3-1.7,3.8-3,6.6-3
			c2.4,0,4.2,0.6,5.9,2.3L1498.8,158.1z"/>
		<path d="M1506.5,147.5v-5.2h5.2v5.2H1506.5z M1506.6,177v-24.6h5V177H1506.6z"/>
		<path d="M1536.8,175.1c-1.4,1.4-3.5,2.2-6,2.2c-2.7,0-4.7-0.7-6.5-2.9v2.6h-4.9v-34.6h5v12.4c1.8-2.1,3.8-2.8,6.5-2.8
			c2.5,0,4.6,0.8,6,2.2c2.5,2.5,2.8,6.7,2.8,10.4S1539.3,172.6,1536.8,175.1z M1529.5,156.5c-4.5,0-5.2,3.8-5.2,8.2s0.7,8.2,5.2,8.2
			s5.1-3.8,5.1-8.2S1534,156.5,1529.5,156.5z"/>
		<path d="M1561.2,177v-2.5c-1.7,1.8-4.1,2.8-6.6,2.8c-2.5,0-4.6-0.8-6.1-2.2c-1.9-1.8-2.5-4.2-2.5-6.9v-15.7h5v15
			c0,3.8,2.2,5.5,5,5.5s5.1-1.7,5.1-5.5v-15h5V177H1561.2z"/>
		<path d="M1581.2,177c-4.6,0-6.8-3.3-6.8-6.9v-13.6h-2.8v-3.8h2.8v-7.5h5v7.5h4.8v3.8h-4.8v13.3c0,1.8,0.9,2.9,2.7,2.9h2v4.2
			H1581.2z"/>
		<path d="M1594,166.1c0,4.2,2.2,6.9,6.3,6.9c2.8,0,4.2-0.8,6-2.5l3.2,3c-2.5,2.5-4.9,3.8-9.2,3.8c-6.2,0-11.1-3.3-11.1-12.6
			c0-8,4.1-12.6,10.4-12.6c6.6,0,10.4,4.9,10.4,11.9v2.2H1594z M1604.4,159.3c-0.8-1.8-2.5-3.1-4.9-3.1s-4.1,1.3-4.9,3.1
			c-0.5,1.1-0.6,1.8-0.6,3.4h11.1C1605,161.1,1604.9,160.4,1604.4,159.3z"/>
		<path d="M1630.7,177v-2.6c-1.8,2.2-3.8,2.9-6.5,2.9c-2.5,0-4.7-0.8-6-2.2c-2.5-2.5-2.8-6.7-2.8-10.4s0.3-7.9,2.8-10.4
			c1.4-1.4,3.5-2.2,6-2.2c2.6,0,4.7,0.6,6.5,2.8v-12.4h5V177H1630.7z M1625.5,156.5c-4.5,0-5.2,3.8-5.2,8.2s0.7,8.2,5.2,8.2
			s5.1-3.8,5.1-8.2S1629.9,156.5,1625.5,156.5z"/>
		<path d="M1667.3,147.1V177h-5.2v-29.9h-9.5v-4.7h24.3v4.7H1667.3z"/>
		<path d="M1693.9,158.1c-1.1-1.1-2-1.7-3.7-1.7c-2.7,0-4.9,2.1-4.9,5.5v15h-5v-24.6h4.9v2.7c1.3-1.7,3.8-3,6.6-3
			c2.4,0,4.2,0.6,5.9,2.3L1693.9,158.1z"/>
		<path d="M1714.5,177v-2.2c-1.8,1.8-3.5,2.5-6.6,2.5c-3.1,0-5.1-0.7-6.6-2.2c-1.3-1.3-1.9-3.2-1.9-5.3c0-4.1,2.9-7.1,8.5-7.1h6.5
			v-1.7c0-3.1-1.6-4.6-5.4-4.6c-2.7,0-4,0.6-5.4,2.4l-3.3-3.1c2.3-2.7,4.8-3.5,8.8-3.5c6.8,0,10.2,2.9,10.2,8.5V177H1714.5z
			 M1714.4,166.1h-5.8c-2.9,0-4.4,1.3-4.4,3.5c0,2.2,1.4,3.5,4.5,3.5c1.9,0,3.3-0.1,4.6-1.4c0.7-0.7,1.1-1.9,1.1-3.6V166.1z"/>
		<path d="M1726.8,147.5v-5.2h5.2v5.2H1726.8z M1727,177v-24.6h5V177H1727z"/>
		<path d="M1754.8,177v-15c0-3.8-2.2-5.5-5-5.5s-5.1,1.7-5.1,5.5v15h-5v-24.6h4.9v2.5c1.7-1.8,4.1-2.8,6.6-2.8
			c2.5,0,4.6,0.8,6.1,2.2c1.9,1.8,2.5,4.2,2.5,6.9V177H1754.8z"/>
		<path d="M1767.2,147.5v-5.2h5.2v5.2H1767.2z M1767.4,177v-24.6h5V177H1767.4z"/>
		<path d="M1795.2,177v-15c0-3.8-2.2-5.5-5-5.5s-5.1,1.7-5.1,5.5v15h-5v-24.6h4.9v2.5c1.7-1.8,4.1-2.8,6.6-2.8
			c2.5,0,4.6,0.8,6.1,2.2c1.9,1.8,2.5,4.2,2.5,6.9V177H1795.2z"/>
		<path d="M1816,187.2c-3.7,0-6.1-0.9-8.7-3.3l3.2-3.2c1.6,1.5,2.9,2.2,5.3,2.2c4.2,0,5.8-3,5.8-6.3v-3.2c-1.8,2.1-3.8,2.8-6.4,2.8
			c-2.5,0-4.5-0.8-5.9-2.2c-2.4-2.4-2.8-5.8-2.8-10c0-4.2,0.4-7.6,2.8-10c1.4-1.4,3.4-2.1,5.9-2.1c2.6,0,4.6,0.7,6.5,2.9v-2.6h4.8
			v24.5C1826.6,182.8,1822.6,187.2,1816,187.2z M1816.6,156.5c-4.5,0-5.1,3.8-5.1,7.7s0.6,7.7,5.1,7.7s5-3.8,5-7.7
			S1821.1,156.5,1816.6,156.5z"/>
	</g>
</g>
<rect x="603.9" y="77.2" class="st8" width="1421.3" height="754.3"/>
<rect x="603.9" y="683.1" class="st9" width="1421.3" height="148.3"/>
<g>
	<path class="st0" d="M1045.9,782.5l-24.1-36.8v36.8h-7.9v-52.2h7.3l24.1,36.7v-36.7h7.9v52.2H1045.9z"/>
	<path class="st0" d="M1066.8,782.5v-52.2h33.4v7.1h-25.5v15.3h21.7v7h-21.7v15.7h25.5v7.1H1066.8z"/>
	<path class="st0" d="M1149.2,782.5v-34.9l-12,25.5h-5.9l-12.3-25.5v34.9h-7.9v-52.2h7.9l15.3,32.5l15-32.5h7.9v52.2H1149.2z"/>
	<path class="st0" d="M1201.4,777.4c-3.6,3.6-8.2,5.6-13.8,5.6c-5.6,0-10.1-2-13.7-5.6c-5.1-5.1-5.1-10.9-5.1-21s-0.1-15.8,5.1-21
		c3.6-3.6,8.1-5.6,13.7-5.6c5.6,0,10.2,2,13.8,5.6c5.1,5.1,5,10.9,5,21S1206.5,772.2,1201.4,777.4z M1195.4,740.2
		c-1.8-2-4.7-3.2-7.8-3.2c-3.1,0-5.9,1.2-7.8,3.2c-2.6,2.8-3.1,5.7-3.1,16.2s0.5,13.4,3.1,16.2c1.8,2,4.7,3.2,7.8,3.2
		c3.1,0,5.9-1.2,7.8-3.2c2.6-2.8,3.1-5.7,3.1-16.2S1197.9,742.9,1195.4,740.2z"/>
	<path class="st0" d="M1273.9,782.5v-34.9l-12,25.5h-5.9l-12.3-25.5v34.9h-7.9v-52.2h7.9l15.3,32.5l15-32.5h7.9v52.2H1273.9z"/>
	<path class="st0" d="M1295.4,782.5v-52.2h33.4v7.1h-25.5v15.3h21.7v7h-21.7v15.7h25.5v7.1H1295.4z"/>
	<path class="st0" d="M1370.9,777c-4,4.2-8.9,5.9-14.4,5.9c-5.4,0-10.1-2-13.7-5.6c-5.1-5.1-5.1-10.9-5.1-21s-0.1-15.8,5.1-21
		c3.6-3.6,8.1-5.6,13.7-5.6c11.1,0,17.5,7.3,19,16.2h-8c-1.3-5.7-5.1-9.1-11-9.1c-3.1,0-5.9,1.2-7.7,3.2c-2.6,2.8-3.2,5.7-3.2,16.2
		s0.6,13.5,3.2,16.3c1.8,2,4.6,3.2,7.7,3.2c3.4,0,6.5-1.3,8.5-3.7c1.9-2.2,2.6-4.8,2.6-8.2V761h-11.2v-6.8h19.1v8
		C1375.6,769,1374.3,773.3,1370.9,777z"/>
	<path class="st0" d="M1416.5,782.5l-3.6-10.5h-20.6l-3.6,10.5h-8.4l19.2-52.2h6.4l19.2,52.2H1416.5z M1402.8,742.1l-8.1,23.2h16.1
		L1402.8,742.1z"/>
	<path class="st0" d="M1445.7,737.4v45.1h-7.9v-45.1h-14.4v-7.1h36.7v7.1H1445.7z"/>
	<path class="st0" d="M1497.9,782.5l-11-22h-9.9v22h-7.9v-52.2h20.3c9.9,0,16.2,6.4,16.2,15.3c0,7.5-4.5,12.3-10.4,13.9l12,23.1
		H1497.9z M1488.7,737.4H1477v16.4h11.7c5.3,0,8.9-3,8.9-8.1S1494,737.4,1488.7,737.4z"/>
	<path class="st0" d="M1547.8,777.4c-3.6,3.6-8.2,5.6-13.8,5.6c-5.6,0-10.1-2-13.7-5.6c-5.1-5.1-5.1-10.9-5.1-21s-0.1-15.8,5.1-21
		c3.6-3.6,8.1-5.6,13.7-5.6c5.6,0,10.2,2,13.8,5.6c5.1,5.1,5,10.9,5,21S1552.9,772.2,1547.8,777.4z M1541.8,740.2
		c-1.8-2-4.7-3.2-7.8-3.2c-3.1,0-5.9,1.2-7.8,3.2c-2.6,2.8-3.1,5.7-3.1,16.2s0.5,13.4,3.1,16.2c1.8,2,4.7,3.2,7.8,3.2
		c3.1,0,5.9-1.2,7.8-3.2c2.6-2.8,3.1-5.7,3.1-16.2S1544.4,742.9,1541.8,740.2z"/>
	<path class="st0" d="M1596.6,782.5l-24.1-36.8v36.8h-7.9v-52.2h7.3l24.1,36.7v-36.7h7.9v52.2H1596.6z"/>
</g>
<line class="st10" x1="1248.4" y1="189.6" x2="1248.4" y2="600"/>
<g>
	<g>
		<line class="st1" x1="1594.2" y1="402.2" x2="1645.1" y2="402.2"/>
		<g>
			<polygon points="1642.9,409.9 1656.1,402.2 1642.9,394.6 			"/>
		</g>
	</g>
</g>
<g>
	<g>
		<line class="st1" x1="886.6" y1="402.2" x2="937.4" y2="402.2"/>
		<g>
			<polygon points="935.2,409.9 948.4,402.2 935.2,394.6 			"/>
		</g>
	</g>
</g>
<rect x="697.7" y="263.7" class="st1" width="119" height="63.7"/>
<rect x="697.7" y="334.8" class="st1" width="119" height="63.7"/>
<rect x="697.7" y="405.9" class="st1" width="119" height="63.7"/>
<rect x="697.7" y="477.1" class="st1" width="119" height="63.7"/>
<rect x="830.2" y="512" transform="matrix(-1 -1.224647e-16 1.224647e-16 -1 1676.234 1052.7266)" class="st1" width="15.8" height="28.8"/>
<rect x="853.8" y="512" transform="matrix(-1 -1.224647e-16 1.224647e-16 -1 1723.4601 1052.7266)" class="st1" width="15.8" height="28.8"/>
<rect x="830.2" y="263.7" class="st1" width="42.9" height="63.7"/>
<g>
	<line class="st1" x1="842.2" y1="277.7" x2="861.1" y2="313.4"/>
	<line class="st1" x1="861.1" y1="277.7" x2="842.2" y2="313.4"/>
</g>
<rect x="830.2" y="405.9" transform="matrix(-1 -1.224647e-16 1.224647e-16 -1 1676.234 875.5698)" class="st1" width="15.8" height="63.7"/>
<g>
	<rect x="999.1" y="334.8" class="st1" width="119" height="63.7"/>
	<polygon class="st1" points="1118.1,477.1 999.1,477.1 999.1,540.8 1118.1,540.8 1133.9,540.8 1133.9,477.1 	"/>
	<polygon class="st1" points="1118.1,263.7 999.1,263.7 999.1,327.4 1118.1,327.4 1161,327.4 1161,263.7 	"/>
	
		<rect x="999.1" y="405.9" transform="matrix(-1 -1.224647e-16 1.224647e-16 -1 2013.9996 875.5699)" class="st1" width="15.8" height="63.7"/>
</g>
<g>
	<g>
		<line class="st1" x1="1314.6" y1="873.7" x2="1314.6" y2="918.4"/>
		<g>
			<polygon points="1299.7,914 1314.6,939.8 1329.5,914 			"/>
		</g>
	</g>
</g>
<g>
	<g>
		<line class="st11" x1="740.5" y1="1140.4" x2="793.4" y2="1140.4"/>
		<g>
			<polygon class="st9" points="742.7,1147.9 729.8,1140.4 742.7,1133 			"/>
		</g>
		<g>
			<polygon class="st9" points="791.2,1147.9 804.1,1140.4 791.2,1133 			"/>
		</g>
	</g>
</g>
<g>
	<g>
		
			<rect x="629" y="1094.8" transform="matrix(-1 -1.224647e-16 1.224647e-16 -1 1349.3026 2280.8552)" class="st12" width="91.3" height="91.3"/>
		
			<rect x="698.4" y="1105.3" transform="matrix(-1 -1.224647e-16 1.224647e-16 -1 1408.1594 2221.9985)" class="st12" width="11.4" height="11.4"/>
		
			<rect x="698.4" y="1164.2" transform="matrix(-1 -1.224647e-16 1.224647e-16 -1 1408.1594 2339.7122)" class="st12" width="11.4" height="11.4"/>
		
			<rect x="698.4" y="1144.5" transform="matrix(-1 -1.224647e-16 1.224647e-16 -1 1408.1594 2300.4741)" class="st12" width="11.4" height="11.4"/>
		
			<rect x="698.4" y="1124.9" transform="matrix(-1 -1.224647e-16 1.224647e-16 -1 1408.1594 2261.2363)" class="st12" width="11.4" height="11.4"/>
		
			<rect x="678.8" y="1105.3" transform="matrix(-1 -1.224647e-16 1.224647e-16 -1 1368.9215 2221.9985)" class="st12" width="11.4" height="11.4"/>
		
			<rect x="678.8" y="1164.2" transform="matrix(-1 -1.224647e-16 1.224647e-16 -1 1368.9215 2339.7122)" class="st12" width="11.4" height="11.4"/>
		
			<rect x="678.8" y="1144.5" transform="matrix(-1 -1.224647e-16 1.224647e-16 -1 1368.9215 2300.4741)" class="st12" width="11.4" height="11.4"/>
		
			<rect x="678.8" y="1124.9" transform="matrix(-1 -1.224647e-16 1.224647e-16 -1 1368.9215 2261.2363)" class="st12" width="11.4" height="11.4"/>
		
			<rect x="659.1" y="1105.3" transform="matrix(-1 -1.224647e-16 1.224647e-16 -1 1329.6837 2221.9985)" class="st12" width="11.4" height="11.4"/>
		
			<rect x="659.1" y="1164.2" transform="matrix(-1 -1.224647e-16 1.224647e-16 -1 1329.6837 2339.7122)" class="st12" width="11.4" height="11.4"/>
		
			<rect x="659.1" y="1144.5" transform="matrix(-1 -1.224647e-16 1.224647e-16 -1 1329.6837 2300.4741)" class="st12" width="11.4" height="11.4"/>
		
			<rect x="659.1" y="1124.9" transform="matrix(-1 -1.224647e-16 1.224647e-16 -1 1329.6837 2261.2363)" class="st12" width="11.4" height="11.4"/>
		
			<rect x="639.5" y="1105.3" transform="matrix(-1 -1.224647e-16 1.224647e-16 -1 1290.4458 2221.9985)" class="st12" width="11.4" height="11.4"/>
		
			<rect x="639.5" y="1164.2" transform="matrix(-1 -1.224647e-16 1.224647e-16 -1 1290.4458 2339.7122)" class="st12" width="11.4" height="11.4"/>
		
			<rect x="639.5" y="1144.5" transform="matrix(-1 -1.224647e-16 1.224647e-16 -1 1290.4458 2300.4741)" class="st12" width="11.4" height="11.4"/>
		
			<rect x="639.5" y="1124.9" transform="matrix(-1 -1.224647e-16 1.224647e-16 -1 1290.4458 2261.2363)" class="st12" width="11.4" height="11.4"/>
	</g>
	<g>
		
			<rect x="813.6" y="1094.8" transform="matrix(-1 -1.224647e-16 1.224647e-16 -1 1718.4402 2280.8552)" class="st12" width="91.3" height="91.3"/>
		
			<rect x="882.9" y="1105.3" transform="matrix(-1 -1.224647e-16 1.224647e-16 -1 1777.297 2221.9985)" class="st12" width="11.4" height="11.4"/>
		
			<rect x="882.9" y="1164.2" transform="matrix(-1 -1.224647e-16 1.224647e-16 -1 1777.297 2339.7122)" class="st12" width="11.4" height="11.4"/>
		
			<rect x="882.9" y="1144.5" transform="matrix(-1 -1.224647e-16 1.224647e-16 -1 1777.297 2300.4741)" class="st12" width="11.4" height="11.4"/>
		
			<rect x="882.9" y="1124.9" transform="matrix(-1 -1.224647e-16 1.224647e-16 -1 1777.297 2261.2363)" class="st12" width="11.4" height="11.4"/>
		
			<rect x="863.3" y="1105.3" transform="matrix(-1 -1.224647e-16 1.224647e-16 -1 1738.0591 2221.9985)" class="st12" width="11.4" height="11.4"/>
		
			<rect x="863.3" y="1164.2" transform="matrix(-1 -1.224647e-16 1.224647e-16 -1 1738.0591 2339.7122)" class="st12" width="11.4" height="11.4"/>
		
			<rect x="863.3" y="1144.5" transform="matrix(-1 -1.224647e-16 1.224647e-16 -1 1738.0591 2300.4741)" class="st12" width="11.4" height="11.4"/>
		
			<rect x="863.3" y="1124.9" transform="matrix(-1 -1.224647e-16 1.224647e-16 -1 1738.0591 2261.2363)" class="st12" width="11.4" height="11.4"/>
		
			<rect x="843.7" y="1105.3" transform="matrix(-1 -1.224647e-16 1.224647e-16 -1 1698.8213 2221.9985)" class="st12" width="11.4" height="11.4"/>
		
			<rect x="843.7" y="1164.2" transform="matrix(-1 -1.224647e-16 1.224647e-16 -1 1698.8213 2339.7122)" class="st12" width="11.4" height="11.4"/>
		
			<rect x="843.7" y="1144.5" transform="matrix(-1 -1.224647e-16 1.224647e-16 -1 1698.8213 2300.4741)" class="st12" width="11.4" height="11.4"/>
		
			<rect x="843.7" y="1124.9" transform="matrix(-1 -1.224647e-16 1.224647e-16 -1 1698.8213 2261.2363)" class="st12" width="11.4" height="11.4"/>
		
			<rect x="824.1" y="1105.3" transform="matrix(-1 -1.224647e-16 1.224647e-16 -1 1659.5835 2221.9985)" class="st12" width="11.4" height="11.4"/>
		
			<rect x="824.1" y="1164.2" transform="matrix(-1 -1.224647e-16 1.224647e-16 -1 1659.5835 2339.7122)" class="st12" width="11.4" height="11.4"/>
		
			<rect x="824.1" y="1144.5" transform="matrix(-1 -1.224647e-16 1.224647e-16 -1 1659.5835 2300.4741)" class="st12" width="11.4" height="11.4"/>
		
			<rect x="824.1" y="1124.9" transform="matrix(-1 -1.224647e-16 1.224647e-16 -1 1659.5835 2261.2363)" class="st12" width="11.4" height="11.4"/>
	</g>
</g>
<g>
	<g>
		<line class="st11" x1="742.7" y1="1254.9" x2="791.2" y2="1206.4"/>
		<g>
			<polygon class="st9" points="749.5,1258.6 735.1,1262.5 739,1248.1 			"/>
		</g>
		<g>
			<polygon class="st9" points="794.9,1213.2 798.8,1198.8 784.4,1202.7 			"/>
		</g>
	</g>
</g>
<g>
	<g>
		<line class="st11" x1="742.7" y1="1206.4" x2="791.2" y2="1254.9"/>
		<g>
			<polygon class="st9" points="739,1213.2 735.1,1198.8 749.5,1202.6 			"/>
		</g>
		<g>
			<polygon class="st9" points="784.4,1258.6 798.8,1262.5 794.9,1248.1 			"/>
		</g>
	</g>
</g>
<g>
	<g>
		<line class="st11" x1="673.5" y1="1259.4" x2="673.5" y2="1206.6"/>
		<g>
			<polygon class="st9" points="680.9,1257.2 673.5,1270.1 666,1257.2 			"/>
		</g>
		<g>
			<polygon class="st9" points="680.9,1208.7 673.5,1195.8 666,1208.7 			"/>
		</g>
	</g>
</g>
<g>
	<g>
		
			<rect x="629" y="1277.6" transform="matrix(-1 -1.224647e-16 1.224647e-16 -1 1349.3026 2646.4163)" class="st12" width="91.3" height="91.3"/>
		
			<rect x="698.4" y="1288.1" transform="matrix(-1 -1.224647e-16 1.224647e-16 -1 1408.1594 2587.5593)" class="st12" width="11.4" height="11.4"/>
		
			<rect x="698.4" y="1346.9" transform="matrix(-1 -1.224647e-16 1.224647e-16 -1 1408.1594 2705.2732)" class="st12" width="11.4" height="11.4"/>
		
			<rect x="698.4" y="1327.3" transform="matrix(-1 -1.224647e-16 1.224647e-16 -1 1408.1594 2666.0352)" class="st12" width="11.4" height="11.4"/>
		
			<rect x="698.4" y="1307.7" transform="matrix(-1 -1.224647e-16 1.224647e-16 -1 1408.1594 2626.7974)" class="st12" width="11.4" height="11.4"/>
		
			<rect x="678.8" y="1288.1" transform="matrix(-1 -1.224647e-16 1.224647e-16 -1 1368.9215 2587.5593)" class="st12" width="11.4" height="11.4"/>
		
			<rect x="678.8" y="1346.9" transform="matrix(-1 -1.224647e-16 1.224647e-16 -1 1368.9215 2705.2732)" class="st12" width="11.4" height="11.4"/>
		
			<rect x="678.8" y="1327.3" transform="matrix(-1 -1.224647e-16 1.224647e-16 -1 1368.9215 2666.0352)" class="st12" width="11.4" height="11.4"/>
		
			<rect x="678.8" y="1307.7" transform="matrix(-1 -1.224647e-16 1.224647e-16 -1 1368.9215 2626.7974)" class="st12" width="11.4" height="11.4"/>
		
			<rect x="659.1" y="1288.1" transform="matrix(-1 -1.224647e-16 1.224647e-16 -1 1329.6837 2587.5593)" class="st12" width="11.4" height="11.4"/>
		
			<rect x="659.1" y="1346.9" transform="matrix(-1 -1.224647e-16 1.224647e-16 -1 1329.6837 2705.2732)" class="st12" width="11.4" height="11.4"/>
		
			<rect x="659.1" y="1327.3" transform="matrix(-1 -1.224647e-16 1.224647e-16 -1 1329.6837 2666.0352)" class="st12" width="11.4" height="11.4"/>
		
			<rect x="659.1" y="1307.7" transform="matrix(-1 -1.224647e-16 1.224647e-16 -1 1329.6837 2626.7974)" class="st12" width="11.4" height="11.4"/>
		
			<rect x="639.5" y="1288.1" transform="matrix(-1 -1.224647e-16 1.224647e-16 -1 1290.4458 2587.5593)" class="st12" width="11.4" height="11.4"/>
		
			<rect x="639.5" y="1346.9" transform="matrix(-1 -1.224647e-16 1.224647e-16 -1 1290.4458 2705.2732)" class="st12" width="11.4" height="11.4"/>
		
			<rect x="639.5" y="1327.3" transform="matrix(-1 -1.224647e-16 1.224647e-16 -1 1290.4458 2666.0352)" class="st12" width="11.4" height="11.4"/>
		
			<rect x="639.5" y="1307.7" transform="matrix(-1 -1.224647e-16 1.224647e-16 -1 1290.4458 2626.7974)" class="st12" width="11.4" height="11.4"/>
	</g>
	<g>
		
			<rect x="813.6" y="1277.6" transform="matrix(-1 -1.224647e-16 1.224647e-16 -1 1718.4402 2646.4163)" class="st12" width="91.3" height="91.3"/>
		
			<rect x="882.9" y="1288.1" transform="matrix(-1 -1.224647e-16 1.224647e-16 -1 1777.297 2587.5593)" class="st12" width="11.4" height="11.4"/>
		
			<rect x="882.9" y="1346.9" transform="matrix(-1 -1.224647e-16 1.224647e-16 -1 1777.297 2705.2732)" class="st12" width="11.4" height="11.4"/>
		
			<rect x="882.9" y="1327.3" transform="matrix(-1 -1.224647e-16 1.224647e-16 -1 1777.297 2666.0352)" class="st12" width="11.4" height="11.4"/>
		
			<rect x="882.9" y="1307.7" transform="matrix(-1 -1.224647e-16 1.224647e-16 -1 1777.297 2626.7974)" class="st12" width="11.4" height="11.4"/>
		
			<rect x="863.3" y="1288.1" transform="matrix(-1 -1.224647e-16 1.224647e-16 -1 1738.0591 2587.5593)" class="st12" width="11.4" height="11.4"/>
		
			<rect x="863.3" y="1346.9" transform="matrix(-1 -1.224647e-16 1.224647e-16 -1 1738.0591 2705.2732)" class="st12" width="11.4" height="11.4"/>
		
			<rect x="863.3" y="1327.3" transform="matrix(-1 -1.224647e-16 1.224647e-16 -1 1738.0591 2666.0352)" class="st12" width="11.4" height="11.4"/>
		
			<rect x="863.3" y="1307.7" transform="matrix(-1 -1.224647e-16 1.224647e-16 -1 1738.0591 2626.7974)" class="st12" width="11.4" height="11.4"/>
		
			<rect x="843.7" y="1288.1" transform="matrix(-1 -1.224647e-16 1.224647e-16 -1 1698.8213 2587.5593)" class="st12" width="11.4" height="11.4"/>
		
			<rect x="843.7" y="1346.9" transform="matrix(-1 -1.224647e-16 1.224647e-16 -1 1698.8213 2705.2732)" class="st12" width="11.4" height="11.4"/>
		
			<rect x="843.7" y="1327.3" transform="matrix(-1 -1.224647e-16 1.224647e-16 -1 1698.8213 2666.0352)" class="st12" width="11.4" height="11.4"/>
		
			<rect x="843.7" y="1307.7" transform="matrix(-1 -1.224647e-16 1.224647e-16 -1 1698.8213 2626.7974)" class="st12" width="11.4" height="11.4"/>
		
			<rect x="824.1" y="1288.1" transform="matrix(-1 -1.224647e-16 1.224647e-16 -1 1659.5835 2587.5593)" class="st12" width="11.4" height="11.4"/>
		
			<rect x="824.1" y="1346.9" transform="matrix(-1 -1.224647e-16 1.224647e-16 -1 1659.5835 2705.2732)" class="st12" width="11.4" height="11.4"/>
		
			<rect x="824.1" y="1327.3" transform="matrix(-1 -1.224647e-16 1.224647e-16 -1 1659.5835 2666.0352)" class="st12" width="11.4" height="11.4"/>
		
			<rect x="824.1" y="1307.7" transform="matrix(-1 -1.224647e-16 1.224647e-16 -1 1659.5835 2626.7974)" class="st12" width="11.4" height="11.4"/>
	</g>
</g>
<g>
	<g>
		<line class="st11" x1="740.5" y1="1321.2" x2="793.4" y2="1321.2"/>
		<g>
			<polygon class="st9" points="742.7,1328.6 729.8,1321.2 742.7,1313.7 			"/>
		</g>
		<g>
			<polygon class="st9" points="791.2,1328.6 804.1,1321.2 791.2,1313.7 			"/>
		</g>
	</g>
</g>
<g>
	<g>
		<line class="st11" x1="859.4" y1="1259.4" x2="859.4" y2="1206.6"/>
		<g>
			<polygon class="st9" points="866.9,1257.2 859.4,1270.1 851.9,1257.2 			"/>
		</g>
		<g>
			<polygon class="st9" points="866.9,1208.7 859.4,1195.8 851.9,1208.7 			"/>
		</g>
	</g>
</g>
<rect x="603.9" y="1068.8" class="st13" width="326" height="326"/>
<g>
	<g>
		<g>
			<line class="st11" x1="1140.2" y1="1140.4" x2="1193" y2="1140.4"/>
			<g>
				<polygon class="st9" points="1142.4,1147.9 1129.4,1140.4 1142.4,1133 				"/>
			</g>
			<g>
				<polygon class="st9" points="1190.8,1147.9 1203.8,1140.4 1190.8,1133 				"/>
			</g>
		</g>
	</g>
	<g>
		<g>
			
				<rect x="1028.7" y="1094.8" transform="matrix(-1 -1.224647e-16 1.224647e-16 -1 2148.6272 2280.8552)" class="st12" width="91.3" height="91.3"/>
			
				<rect x="1098" y="1105.3" transform="matrix(-1 -1.224647e-16 1.224647e-16 -1 2207.4841 2221.9985)" class="st12" width="11.4" height="11.4"/>
			
				<rect x="1098" y="1164.2" transform="matrix(-1 -1.224647e-16 1.224647e-16 -1 2207.4841 2339.7122)" class="st12" width="11.4" height="11.4"/>
			
				<rect x="1098" y="1144.5" transform="matrix(-1 -1.224647e-16 1.224647e-16 -1 2207.4841 2300.4741)" class="st12" width="11.4" height="11.4"/>
			
				<rect x="1098" y="1124.9" transform="matrix(-1 -1.224647e-16 1.224647e-16 -1 2207.4841 2261.2363)" class="st12" width="11.4" height="11.4"/>
			
				<rect x="1078.4" y="1105.3" transform="matrix(-1 -1.224647e-16 1.224647e-16 -1 2168.2463 2221.9985)" class="st12" width="11.4" height="11.4"/>
			
				<rect x="1078.4" y="1164.2" transform="matrix(-1 -1.224647e-16 1.224647e-16 -1 2168.2463 2339.7122)" class="st12" width="11.4" height="11.4"/>
			
				<rect x="1078.4" y="1144.5" transform="matrix(-1 -1.224647e-16 1.224647e-16 -1 2168.2463 2300.4741)" class="st12" width="11.4" height="11.4"/>
			
				<rect x="1078.4" y="1124.9" transform="matrix(-1 -1.224647e-16 1.224647e-16 -1 2168.2463 2261.2363)" class="st12" width="11.4" height="11.4"/>
			
				<rect x="1058.8" y="1105.3" transform="matrix(-1 -1.224647e-16 1.224647e-16 -1 2129.0083 2221.9985)" class="st12" width="11.4" height="11.4"/>
			
				<rect x="1058.8" y="1164.2" transform="matrix(-1 -1.224647e-16 1.224647e-16 -1 2129.0083 2339.7122)" class="st12" width="11.4" height="11.4"/>
			
				<rect x="1058.8" y="1144.5" transform="matrix(-1 -1.224647e-16 1.224647e-16 -1 2129.0083 2300.4741)" class="st12" width="11.4" height="11.4"/>
			
				<rect x="1058.8" y="1124.9" transform="matrix(-1 -1.224647e-16 1.224647e-16 -1 2129.0083 2261.2363)" class="st12" width="11.4" height="11.4"/>
			
				<rect x="1039.2" y="1105.3" transform="matrix(-1 -1.224647e-16 1.224647e-16 -1 2089.7705 2221.9985)" class="st12" width="11.4" height="11.4"/>
			
				<rect x="1039.2" y="1164.2" transform="matrix(-1 -1.224647e-16 1.224647e-16 -1 2089.7705 2339.7122)" class="st12" width="11.4" height="11.4"/>
			
				<rect x="1039.2" y="1144.5" transform="matrix(-1 -1.224647e-16 1.224647e-16 -1 2089.7705 2300.4741)" class="st12" width="11.4" height="11.4"/>
			
				<rect x="1039.2" y="1124.9" transform="matrix(-1 -1.224647e-16 1.224647e-16 -1 2089.7705 2261.2363)" class="st12" width="11.4" height="11.4"/>
		</g>
		<g>
			
				<rect x="1213.2" y="1094.8" transform="matrix(-1 -1.224647e-16 1.224647e-16 -1 2517.7649 2280.8552)" class="st12" width="91.3" height="91.3"/>
			
				<rect x="1282.6" y="1105.3" transform="matrix(-1 -1.224647e-16 1.224647e-16 -1 2576.6216 2221.9985)" class="st12" width="11.4" height="11.4"/>
			
				<rect x="1282.6" y="1164.2" transform="matrix(-1 -1.224647e-16 1.224647e-16 -1 2576.6216 2339.7122)" class="st12" width="11.4" height="11.4"/>
			
				<rect x="1282.6" y="1144.5" transform="matrix(-1 -1.224647e-16 1.224647e-16 -1 2576.6216 2300.4741)" class="st12" width="11.4" height="11.4"/>
			
				<rect x="1282.6" y="1124.9" transform="matrix(-1 -1.224647e-16 1.224647e-16 -1 2576.6216 2261.2363)" class="st12" width="11.4" height="11.4"/>
			
				<rect x="1263" y="1105.3" transform="matrix(-1 -1.224647e-16 1.224647e-16 -1 2537.3838 2221.9985)" class="st12" width="11.4" height="11.4"/>
			
				<rect x="1263" y="1164.2" transform="matrix(-1 -1.224647e-16 1.224647e-16 -1 2537.3838 2339.7122)" class="st12" width="11.4" height="11.4"/>
			
				<rect x="1263" y="1144.5" transform="matrix(-1 -1.224647e-16 1.224647e-16 -1 2537.3838 2300.4741)" class="st12" width="11.4" height="11.4"/>
			
				<rect x="1263" y="1124.9" transform="matrix(-1 -1.224647e-16 1.224647e-16 -1 2537.3838 2261.2363)" class="st12" width="11.4" height="11.4"/>
			
				<rect x="1243.4" y="1105.3" transform="matrix(-1 -1.224647e-16 1.224647e-16 -1 2498.146 2221.9985)" class="st12" width="11.4" height="11.4"/>
			
				<rect x="1243.4" y="1164.2" transform="matrix(-1 -1.224647e-16 1.224647e-16 -1 2498.146 2339.7122)" class="st12" width="11.4" height="11.4"/>
			
				<rect x="1243.4" y="1144.5" transform="matrix(-1 -1.224647e-16 1.224647e-16 -1 2498.146 2300.4741)" class="st12" width="11.4" height="11.4"/>
			
				<rect x="1243.4" y="1124.9" transform="matrix(-1 -1.224647e-16 1.224647e-16 -1 2498.146 2261.2363)" class="st12" width="11.4" height="11.4"/>
			
				<rect x="1223.7" y="1105.3" transform="matrix(-1 -1.224647e-16 1.224647e-16 -1 2458.9082 2221.9985)" class="st12" width="11.4" height="11.4"/>
			
				<rect x="1223.7" y="1164.2" transform="matrix(-1 -1.224647e-16 1.224647e-16 -1 2458.9082 2339.7122)" class="st12" width="11.4" height="11.4"/>
			
				<rect x="1223.7" y="1144.5" transform="matrix(-1 -1.224647e-16 1.224647e-16 -1 2458.9082 2300.4741)" class="st12" width="11.4" height="11.4"/>
			
				<rect x="1223.7" y="1124.9" transform="matrix(-1 -1.224647e-16 1.224647e-16 -1 2458.9082 2261.2363)" class="st12" width="11.4" height="11.4"/>
		</g>
	</g>
	<g>
		<g>
			<line class="st11" x1="1142.3" y1="1254.9" x2="1190.9" y2="1206.4"/>
			<g>
				<polygon class="st9" points="1149.2,1258.6 1134.8,1262.5 1138.6,1248.1 				"/>
			</g>
			<g>
				<polygon class="st9" points="1194.6,1213.2 1198.4,1198.8 1184,1202.7 				"/>
			</g>
		</g>
	</g>
	<g>
		<g>
			<line class="st11" x1="1142.3" y1="1206.4" x2="1190.9" y2="1254.9"/>
			<g>
				<polygon class="st9" points="1138.6,1213.2 1134.8,1198.8 1149.2,1202.6 				"/>
			</g>
			<g>
				<polygon class="st9" points="1184,1258.6 1198.4,1262.5 1194.6,1248.1 				"/>
			</g>
		</g>
	</g>
	<g>
		<g>
			<line class="st11" x1="1073.1" y1="1259.4" x2="1073.1" y2="1206.6"/>
			<g>
				<polygon class="st9" points="1080.6,1257.2 1073.1,1270.1 1065.7,1257.2 				"/>
			</g>
			<g>
				<polygon class="st9" points="1080.6,1208.7 1073.1,1195.8 1065.7,1208.7 				"/>
			</g>
		</g>
	</g>
	<g>
		<g>
			
				<rect x="1028.7" y="1277.6" transform="matrix(-1 -1.224647e-16 1.224647e-16 -1 2148.6272 2646.4163)" class="st12" width="91.3" height="91.3"/>
			
				<rect x="1098" y="1288.1" transform="matrix(-1 -1.224647e-16 1.224647e-16 -1 2207.4841 2587.5593)" class="st12" width="11.4" height="11.4"/>
			
				<rect x="1098" y="1346.9" transform="matrix(-1 -1.224647e-16 1.224647e-16 -1 2207.4841 2705.2732)" class="st12" width="11.4" height="11.4"/>
			
				<rect x="1098" y="1327.3" transform="matrix(-1 -1.224647e-16 1.224647e-16 -1 2207.4841 2666.0352)" class="st12" width="11.4" height="11.4"/>
			
				<rect x="1098" y="1307.7" transform="matrix(-1 -1.224647e-16 1.224647e-16 -1 2207.4841 2626.7974)" class="st12" width="11.4" height="11.4"/>
			
				<rect x="1078.4" y="1288.1" transform="matrix(-1 -1.224647e-16 1.224647e-16 -1 2168.2463 2587.5593)" class="st12" width="11.4" height="11.4"/>
			
				<rect x="1078.4" y="1346.9" transform="matrix(-1 -1.224647e-16 1.224647e-16 -1 2168.2463 2705.2732)" class="st12" width="11.4" height="11.4"/>
			
				<rect x="1078.4" y="1327.3" transform="matrix(-1 -1.224647e-16 1.224647e-16 -1 2168.2463 2666.0352)" class="st12" width="11.4" height="11.4"/>
			
				<rect x="1078.4" y="1307.7" transform="matrix(-1 -1.224647e-16 1.224647e-16 -1 2168.2463 2626.7974)" class="st12" width="11.4" height="11.4"/>
			
				<rect x="1058.8" y="1288.1" transform="matrix(-1 -1.224647e-16 1.224647e-16 -1 2129.0083 2587.5593)" class="st12" width="11.4" height="11.4"/>
			
				<rect x="1058.8" y="1346.9" transform="matrix(-1 -1.224647e-16 1.224647e-16 -1 2129.0083 2705.2732)" class="st12" width="11.4" height="11.4"/>
			
				<rect x="1058.8" y="1327.3" transform="matrix(-1 -1.224647e-16 1.224647e-16 -1 2129.0083 2666.0352)" class="st12" width="11.4" height="11.4"/>
			
				<rect x="1058.8" y="1307.7" transform="matrix(-1 -1.224647e-16 1.224647e-16 -1 2129.0083 2626.7974)" class="st12" width="11.4" height="11.4"/>
			
				<rect x="1039.2" y="1288.1" transform="matrix(-1 -1.224647e-16 1.224647e-16 -1 2089.7705 2587.5593)" class="st12" width="11.4" height="11.4"/>
			
				<rect x="1039.2" y="1346.9" transform="matrix(-1 -1.224647e-16 1.224647e-16 -1 2089.7705 2705.2732)" class="st12" width="11.4" height="11.4"/>
			
				<rect x="1039.2" y="1327.3" transform="matrix(-1 -1.224647e-16 1.224647e-16 -1 2089.7705 2666.0352)" class="st12" width="11.4" height="11.4"/>
			
				<rect x="1039.2" y="1307.7" transform="matrix(-1 -1.224647e-16 1.224647e-16 -1 2089.7705 2626.7974)" class="st12" width="11.4" height="11.4"/>
		</g>
		<g>
			
				<rect x="1213.2" y="1277.6" transform="matrix(-1 -1.224647e-16 1.224647e-16 -1 2517.7649 2646.4163)" class="st12" width="91.3" height="91.3"/>
			
				<rect x="1282.6" y="1288.1" transform="matrix(-1 -1.224647e-16 1.224647e-16 -1 2576.6216 2587.5593)" class="st12" width="11.4" height="11.4"/>
			
				<rect x="1282.6" y="1346.9" transform="matrix(-1 -1.224647e-16 1.224647e-16 -1 2576.6216 2705.2732)" class="st12" width="11.4" height="11.4"/>
			
				<rect x="1282.6" y="1327.3" transform="matrix(-1 -1.224647e-16 1.224647e-16 -1 2576.6216 2666.0352)" class="st12" width="11.4" height="11.4"/>
			
				<rect x="1282.6" y="1307.7" transform="matrix(-1 -1.224647e-16 1.224647e-16 -1 2576.6216 2626.7974)" class="st12" width="11.4" height="11.4"/>
			
				<rect x="1263" y="1288.1" transform="matrix(-1 -1.224647e-16 1.224647e-16 -1 2537.3838 2587.5593)" class="st12" width="11.4" height="11.4"/>
			
				<rect x="1263" y="1346.9" transform="matrix(-1 -1.224647e-16 1.224647e-16 -1 2537.3838 2705.2732)" class="st12" width="11.4" height="11.4"/>
			
				<rect x="1263" y="1327.3" transform="matrix(-1 -1.224647e-16 1.224647e-16 -1 2537.3838 2666.0352)" class="st12" width="11.4" height="11.4"/>
			
				<rect x="1263" y="1307.7" transform="matrix(-1 -1.224647e-16 1.224647e-16 -1 2537.3838 2626.7974)" class="st12" width="11.4" height="11.4"/>
			
				<rect x="1243.4" y="1288.1" transform="matrix(-1 -1.224647e-16 1.224647e-16 -1 2498.146 2587.5593)" class="st12" width="11.4" height="11.4"/>
			
				<rect x="1243.4" y="1346.9" transform="matrix(-1 -1.224647e-16 1.224647e-16 -1 2498.146 2705.2732)" class="st12" width="11.4" height="11.4"/>
			
				<rect x="1243.4" y="1327.3" transform="matrix(-1 -1.224647e-16 1.224647e-16 -1 2498.146 2666.0352)" class="st12" width="11.4" height="11.4"/>
			
				<rect x="1243.4" y="1307.7" transform="matrix(-1 -1.224647e-16 1.224647e-16 -1 2498.146 2626.7974)" class="st12" width="11.4" height="11.4"/>
			
				<rect x="1223.7" y="1288.1" transform="matrix(-1 -1.224647e-16 1.224647e-16 -1 2458.9082 2587.5593)" class="st12" width="11.4" height="11.4"/>
			
				<rect x="1223.7" y="1346.9" transform="matrix(-1 -1.224647e-16 1.224647e-16 -1 2458.9082 2705.2732)" class="st12" width="11.4" height="11.4"/>
			
				<rect x="1223.7" y="1327.3" transform="matrix(-1 -1.224647e-16 1.224647e-16 -1 2458.9082 2666.0352)" class="st12" width="11.4" height="11.4"/>
			
				<rect x="1223.7" y="1307.7" transform="matrix(-1 -1.224647e-16 1.224647e-16 -1 2458.9082 2626.7974)" class="st12" width="11.4" height="11.4"/>
		</g>
	</g>
	<g>
		<g>
			<line class="st11" x1="1140.2" y1="1321.2" x2="1193" y2="1321.2"/>
			<g>
				<polygon class="st9" points="1142.4,1328.6 1129.4,1321.2 1142.4,1313.7 				"/>
			</g>
			<g>
				<polygon class="st9" points="1190.8,1328.6 1203.8,1321.2 1190.8,1313.7 				"/>
			</g>
		</g>
	</g>
	<g>
		<g>
			<line class="st11" x1="1259.1" y1="1259.4" x2="1259.1" y2="1206.6"/>
			<g>
				<polygon class="st9" points="1266.5,1257.2 1259.1,1270.1 1251.6,1257.2 				"/>
			</g>
			<g>
				<polygon class="st9" points="1266.5,1208.7 1259.1,1195.8 1251.6,1208.7 				"/>
			</g>
		</g>
	</g>
</g>
<rect x="1003.6" y="1068.8" class="st13" width="326" height="326"/>
<g>
	<g>
		<g>
			<line class="st11" x1="1835.9" y1="1140.4" x2="1888.7" y2="1140.4"/>
			<g>
				<polygon class="st9" points="1838,1147.9 1825.1,1140.4 1838,1133 				"/>
			</g>
			<g>
				<polygon class="st9" points="1886.5,1147.9 1899.4,1140.4 1886.5,1133 				"/>
			</g>
		</g>
	</g>
	<g>
		<g>
			
				<rect x="1724.3" y="1094.8" transform="matrix(-1 -1.224647e-16 1.224647e-16 -1 3539.9829 2280.8552)" class="st12" width="91.3" height="91.3"/>
			
				<rect x="1793.7" y="1105.3" transform="matrix(-1 -1.224647e-16 1.224647e-16 -1 3598.8398 2221.9985)" class="st12" width="11.4" height="11.4"/>
			
				<rect x="1793.7" y="1164.2" transform="matrix(-1 -1.224647e-16 1.224647e-16 -1 3598.8398 2339.7122)" class="st12" width="11.4" height="11.4"/>
			
				<rect x="1793.7" y="1144.5" transform="matrix(-1 -1.224647e-16 1.224647e-16 -1 3598.8398 2300.4741)" class="st12" width="11.4" height="11.4"/>
			
				<rect x="1793.7" y="1124.9" transform="matrix(-1 -1.224647e-16 1.224647e-16 -1 3598.8398 2261.2363)" class="st12" width="11.4" height="11.4"/>
			
				<rect x="1774.1" y="1105.3" transform="matrix(-1 -1.224647e-16 1.224647e-16 -1 3559.6021 2221.9985)" class="st12" width="11.4" height="11.4"/>
			
				<rect x="1774.1" y="1164.2" transform="matrix(-1 -1.224647e-16 1.224647e-16 -1 3559.6021 2339.7122)" class="st12" width="11.4" height="11.4"/>
			
				<rect x="1774.1" y="1144.5" transform="matrix(-1 -1.224647e-16 1.224647e-16 -1 3559.6021 2300.4741)" class="st12" width="11.4" height="11.4"/>
			
				<rect x="1774.1" y="1124.9" transform="matrix(-1 -1.224647e-16 1.224647e-16 -1 3559.6021 2261.2363)" class="st12" width="11.4" height="11.4"/>
			
				<rect x="1754.5" y="1105.3" transform="matrix(-1 -1.224647e-16 1.224647e-16 -1 3520.364 2221.9985)" class="st12" width="11.4" height="11.4"/>
			
				<rect x="1754.5" y="1164.2" transform="matrix(-1 -1.224647e-16 1.224647e-16 -1 3520.364 2339.7122)" class="st12" width="11.4" height="11.4"/>
			
				<rect x="1754.5" y="1144.5" transform="matrix(-1 -1.224647e-16 1.224647e-16 -1 3520.364 2300.4741)" class="st12" width="11.4" height="11.4"/>
			
				<rect x="1754.5" y="1124.9" transform="matrix(-1 -1.224647e-16 1.224647e-16 -1 3520.364 2261.2363)" class="st12" width="11.4" height="11.4"/>
			
				<rect x="1734.9" y="1105.3" transform="matrix(-1 -1.224647e-16 1.224647e-16 -1 3481.1262 2221.9985)" class="st12" width="11.4" height="11.4"/>
			
				<rect x="1734.9" y="1164.2" transform="matrix(-1 -1.224647e-16 1.224647e-16 -1 3481.1262 2339.7122)" class="st12" width="11.4" height="11.4"/>
			
				<rect x="1734.9" y="1144.5" transform="matrix(-1 -1.224647e-16 1.224647e-16 -1 3481.1262 2300.4741)" class="st12" width="11.4" height="11.4"/>
			
				<rect x="1734.9" y="1124.9" transform="matrix(-1 -1.224647e-16 1.224647e-16 -1 3481.1262 2261.2363)" class="st12" width="11.4" height="11.4"/>
		</g>
		<g>
			
				<rect x="1908.9" y="1094.8" transform="matrix(-1 -1.224647e-16 1.224647e-16 -1 3909.1206 2280.8552)" class="st12" width="91.3" height="91.3"/>
			
				<rect x="1978.3" y="1105.3" transform="matrix(-1 -1.224647e-16 1.224647e-16 -1 3967.9775 2221.9985)" class="st12" width="11.4" height="11.4"/>
			
				<rect x="1978.3" y="1164.2" transform="matrix(-1 -1.224647e-16 1.224647e-16 -1 3967.9775 2339.7122)" class="st12" width="11.4" height="11.4"/>
			
				<rect x="1978.3" y="1144.5" transform="matrix(-1 -1.224647e-16 1.224647e-16 -1 3967.9775 2300.4741)" class="st12" width="11.4" height="11.4"/>
			
				<rect x="1978.3" y="1124.9" transform="matrix(-1 -1.224647e-16 1.224647e-16 -1 3967.9775 2261.2363)" class="st12" width="11.4" height="11.4"/>
			
				<rect x="1958.7" y="1105.3" transform="matrix(-1 -1.224647e-16 1.224647e-16 -1 3928.7395 2221.9985)" class="st12" width="11.4" height="11.4"/>
			
				<rect x="1958.7" y="1164.2" transform="matrix(-1 -1.224647e-16 1.224647e-16 -1 3928.7395 2339.7122)" class="st12" width="11.4" height="11.4"/>
			
				<rect x="1958.7" y="1144.5" transform="matrix(-1 -1.224647e-16 1.224647e-16 -1 3928.7395 2300.4741)" class="st12" width="11.4" height="11.4"/>
			
				<rect x="1958.7" y="1124.9" transform="matrix(-1 -1.224647e-16 1.224647e-16 -1 3928.7395 2261.2363)" class="st12" width="11.4" height="11.4"/>
			
				<rect x="1939" y="1105.3" transform="matrix(-1 -1.224647e-16 1.224647e-16 -1 3889.5017 2221.9985)" class="st12" width="11.4" height="11.4"/>
			
				<rect x="1939" y="1164.2" transform="matrix(-1 -1.224647e-16 1.224647e-16 -1 3889.5017 2339.7122)" class="st12" width="11.4" height="11.4"/>
			
				<rect x="1939" y="1144.5" transform="matrix(-1 -1.224647e-16 1.224647e-16 -1 3889.5017 2300.4741)" class="st12" width="11.4" height="11.4"/>
			
				<rect x="1939" y="1124.9" transform="matrix(-1 -1.224647e-16 1.224647e-16 -1 3889.5017 2261.2363)" class="st12" width="11.4" height="11.4"/>
			
				<rect x="1919.4" y="1105.3" transform="matrix(-1 -1.224647e-16 1.224647e-16 -1 3850.2639 2221.9985)" class="st12" width="11.4" height="11.4"/>
			
				<rect x="1919.4" y="1164.2" transform="matrix(-1 -1.224647e-16 1.224647e-16 -1 3850.2639 2339.7122)" class="st12" width="11.4" height="11.4"/>
			
				<rect x="1919.4" y="1144.5" transform="matrix(-1 -1.224647e-16 1.224647e-16 -1 3850.2639 2300.4741)" class="st12" width="11.4" height="11.4"/>
			
				<rect x="1919.4" y="1124.9" transform="matrix(-1 -1.224647e-16 1.224647e-16 -1 3850.2639 2261.2363)" class="st12" width="11.4" height="11.4"/>
		</g>
	</g>
	<g>
		<g>
			<line class="st11" x1="1838" y1="1254.9" x2="1886.5" y2="1206.4"/>
			<g>
				<polygon class="st9" points="1844.8,1258.6 1830.4,1262.5 1834.3,1248.1 				"/>
			</g>
			<g>
				<polygon class="st9" points="1890.3,1213.2 1894.1,1198.8 1879.7,1202.7 				"/>
			</g>
		</g>
	</g>
	<g>
		<g>
			<line class="st11" x1="1838" y1="1206.4" x2="1886.5" y2="1254.9"/>
			<g>
				<polygon class="st9" points="1834.3,1213.2 1830.4,1198.8 1844.8,1202.6 				"/>
			</g>
			<g>
				<polygon class="st9" points="1879.7,1258.6 1894.1,1262.5 1890.3,1248.1 				"/>
			</g>
		</g>
	</g>
	<g>
		<g>
			<line class="st11" x1="1768.8" y1="1259.4" x2="1768.8" y2="1206.6"/>
			<g>
				<polygon class="st9" points="1776.2,1257.2 1768.8,1270.1 1761.3,1257.2 				"/>
			</g>
			<g>
				<polygon class="st9" points="1776.2,1208.7 1768.8,1195.8 1761.3,1208.7 				"/>
			</g>
		</g>
	</g>
	<g>
		<g>
			
				<rect x="1724.3" y="1277.6" transform="matrix(-1 -1.224647e-16 1.224647e-16 -1 3539.9829 2646.4163)" class="st12" width="91.3" height="91.3"/>
			
				<rect x="1793.7" y="1288.1" transform="matrix(-1 -1.224647e-16 1.224647e-16 -1 3598.8398 2587.5593)" class="st12" width="11.4" height="11.4"/>
			
				<rect x="1793.7" y="1346.9" transform="matrix(-1 -1.224647e-16 1.224647e-16 -1 3598.8398 2705.2732)" class="st12" width="11.4" height="11.4"/>
			
				<rect x="1793.7" y="1327.3" transform="matrix(-1 -1.224647e-16 1.224647e-16 -1 3598.8398 2666.0352)" class="st12" width="11.4" height="11.4"/>
			
				<rect x="1793.7" y="1307.7" transform="matrix(-1 -1.224647e-16 1.224647e-16 -1 3598.8398 2626.7974)" class="st12" width="11.4" height="11.4"/>
			
				<rect x="1774.1" y="1288.1" transform="matrix(-1 -1.224647e-16 1.224647e-16 -1 3559.6021 2587.5593)" class="st12" width="11.4" height="11.4"/>
			
				<rect x="1774.1" y="1346.9" transform="matrix(-1 -1.224647e-16 1.224647e-16 -1 3559.6021 2705.2732)" class="st12" width="11.4" height="11.4"/>
			
				<rect x="1774.1" y="1327.3" transform="matrix(-1 -1.224647e-16 1.224647e-16 -1 3559.6021 2666.0352)" class="st12" width="11.4" height="11.4"/>
			
				<rect x="1774.1" y="1307.7" transform="matrix(-1 -1.224647e-16 1.224647e-16 -1 3559.6021 2626.7974)" class="st12" width="11.4" height="11.4"/>
			
				<rect x="1754.5" y="1288.1" transform="matrix(-1 -1.224647e-16 1.224647e-16 -1 3520.364 2587.5593)" class="st12" width="11.4" height="11.4"/>
			
				<rect x="1754.5" y="1346.9" transform="matrix(-1 -1.224647e-16 1.224647e-16 -1 3520.364 2705.2732)" class="st12" width="11.4" height="11.4"/>
			
				<rect x="1754.5" y="1327.3" transform="matrix(-1 -1.224647e-16 1.224647e-16 -1 3520.364 2666.0352)" class="st12" width="11.4" height="11.4"/>
			
				<rect x="1754.5" y="1307.7" transform="matrix(-1 -1.224647e-16 1.224647e-16 -1 3520.364 2626.7974)" class="st12" width="11.4" height="11.4"/>
			
				<rect x="1734.9" y="1288.1" transform="matrix(-1 -1.224647e-16 1.224647e-16 -1 3481.1262 2587.5593)" class="st12" width="11.4" height="11.4"/>
			
				<rect x="1734.9" y="1346.9" transform="matrix(-1 -1.224647e-16 1.224647e-16 -1 3481.1262 2705.2732)" class="st12" width="11.4" height="11.4"/>
			
				<rect x="1734.9" y="1327.3" transform="matrix(-1 -1.224647e-16 1.224647e-16 -1 3481.1262 2666.0352)" class="st12" width="11.4" height="11.4"/>
			
				<rect x="1734.9" y="1307.7" transform="matrix(-1 -1.224647e-16 1.224647e-16 -1 3481.1262 2626.7974)" class="st12" width="11.4" height="11.4"/>
		</g>
		<g>
			
				<rect x="1908.9" y="1277.6" transform="matrix(-1 -1.224647e-16 1.224647e-16 -1 3909.1206 2646.4163)" class="st12" width="91.3" height="91.3"/>
			
				<rect x="1978.3" y="1288.1" transform="matrix(-1 -1.224647e-16 1.224647e-16 -1 3967.9775 2587.5593)" class="st12" width="11.4" height="11.4"/>
			
				<rect x="1978.3" y="1346.9" transform="matrix(-1 -1.224647e-16 1.224647e-16 -1 3967.9775 2705.2732)" class="st12" width="11.4" height="11.4"/>
			
				<rect x="1978.3" y="1327.3" transform="matrix(-1 -1.224647e-16 1.224647e-16 -1 3967.9775 2666.0352)" class="st12" width="11.4" height="11.4"/>
			
				<rect x="1978.3" y="1307.7" transform="matrix(-1 -1.224647e-16 1.224647e-16 -1 3967.9775 2626.7974)" class="st12" width="11.4" height="11.4"/>
			
				<rect x="1958.7" y="1288.1" transform="matrix(-1 -1.224647e-16 1.224647e-16 -1 3928.7395 2587.5593)" class="st12" width="11.4" height="11.4"/>
			
				<rect x="1958.7" y="1346.9" transform="matrix(-1 -1.224647e-16 1.224647e-16 -1 3928.7395 2705.2732)" class="st12" width="11.4" height="11.4"/>
			
				<rect x="1958.7" y="1327.3" transform="matrix(-1 -1.224647e-16 1.224647e-16 -1 3928.7395 2666.0352)" class="st12" width="11.4" height="11.4"/>
			
				<rect x="1958.7" y="1307.7" transform="matrix(-1 -1.224647e-16 1.224647e-16 -1 3928.7395 2626.7974)" class="st12" width="11.4" height="11.4"/>
			
				<rect x="1939" y="1288.1" transform="matrix(-1 -1.224647e-16 1.224647e-16 -1 3889.5017 2587.5593)" class="st12" width="11.4" height="11.4"/>
			
				<rect x="1939" y="1346.9" transform="matrix(-1 -1.224647e-16 1.224647e-16 -1 3889.5017 2705.2732)" class="st12" width="11.4" height="11.4"/>
			
				<rect x="1939" y="1327.3" transform="matrix(-1 -1.224647e-16 1.224647e-16 -1 3889.5017 2666.0352)" class="st12" width="11.4" height="11.4"/>
			
				<rect x="1939" y="1307.7" transform="matrix(-1 -1.224647e-16 1.224647e-16 -1 3889.5017 2626.7974)" class="st12" width="11.4" height="11.4"/>
			
				<rect x="1919.4" y="1288.1" transform="matrix(-1 -1.224647e-16 1.224647e-16 -1 3850.2639 2587.5593)" class="st12" width="11.4" height="11.4"/>
			
				<rect x="1919.4" y="1346.9" transform="matrix(-1 -1.224647e-16 1.224647e-16 -1 3850.2639 2705.2732)" class="st12" width="11.4" height="11.4"/>
			
				<rect x="1919.4" y="1327.3" transform="matrix(-1 -1.224647e-16 1.224647e-16 -1 3850.2639 2666.0352)" class="st12" width="11.4" height="11.4"/>
			
				<rect x="1919.4" y="1307.7" transform="matrix(-1 -1.224647e-16 1.224647e-16 -1 3850.2639 2626.7974)" class="st12" width="11.4" height="11.4"/>
		</g>
	</g>
	<g>
		<g>
			<line class="st11" x1="1835.9" y1="1321.2" x2="1888.7" y2="1321.2"/>
			<g>
				<polygon class="st9" points="1838,1328.6 1825.1,1321.2 1838,1313.7 				"/>
			</g>
			<g>
				<polygon class="st9" points="1886.5,1328.6 1899.4,1321.2 1886.5,1313.7 				"/>
			</g>
		</g>
	</g>
	<g>
		<g>
			<line class="st11" x1="1954.7" y1="1259.4" x2="1954.7" y2="1206.6"/>
			<g>
				<polygon class="st9" points="1962.2,1257.2 1954.7,1270.1 1947.3,1257.2 				"/>
			</g>
			<g>
				<polygon class="st9" points="1962.2,1208.7 1954.7,1195.8 1947.3,1208.7 				"/>
			</g>
		</g>
	</g>
</g>
<rect x="1699.3" y="1068.8" class="st13" width="326" height="326"/>
<g>
	<circle class="st14" cx="1477.7" cy="1218.8" r="6.7"/>
	<circle class="st14" cx="1510" cy="1218.8" r="6.7"/>
	<circle class="st14" cx="1542.2" cy="1218.8" r="6.7"/>
</g>
<polyline class="st15" points="767.2,1068.2 767.2,979.4 1860.5,979.4 1860.5,1068.2 "/>
<line class="st15" x1="1167.5" y1="1068.2" x2="1167.5" y2="979.4"/>
<g>
	<g>
		<path d="M269.5,291.8v-24.3l-8.7,19.2h-2.9l-8.9-19.2v24.3h-3.4v-31.9h3.4l10.4,22.6l10.1-22.6h3.4v31.9H269.5z"/>
		<path d="M282.7,281.6c0,4.8,2.3,7.6,6.5,7.6c2.6,0,4-0.8,5.8-2.5l2.2,1.9c-2.2,2.2-4.3,3.4-8.1,3.4c-5.8,0-9.6-3.5-9.6-11.3
			c0-7.1,3.5-11.3,9.1-11.3c5.7,0,9.1,4.1,9.1,10.7v1.5H282.7z M293.6,275.5c-0.9-2-2.8-3.3-5.2-3.3c-2.3,0-4.3,1.3-5.2,3.3
			c-0.5,1.2-0.6,1.9-0.7,3.7h11.7C294.2,277.4,294.1,276.7,293.6,275.5z"/>
		<path d="M310.6,301.9c-3.3,0-5.2-0.9-7.5-3l2.1-2.1c1.6,1.4,2.7,2.2,5.3,2.2c4.3,0,6.1-3,6.1-6.8v-3.5c-1.8,2.3-3.8,2.9-6.2,2.9
			c-2.2,0-4.2-0.8-5.3-2c-2.2-2.2-2.7-5.6-2.7-9.2c0-3.6,0.5-7,2.7-9.2c1.2-1.2,3.1-1.9,5.4-1.9c2.4,0,4.4,0.5,6.2,2.9v-2.6h3.2
			v22.7C319.8,298,316.4,301.9,310.6,301.9z M311.1,272.3c-4.8,0-5.5,4.1-5.5,8.3s0.7,8.3,5.5,8.3c4.8,0,5.5-4.1,5.5-8.3
			S315.9,272.3,311.1,272.3z"/>
		<path d="M339.5,291.8v-2.1c-1.8,1.8-3.4,2.4-6.4,2.4c-3,0-4.8-0.6-6.2-2c-1.1-1.1-1.7-2.7-1.7-4.5c0-3.9,2.7-6.4,7.6-6.4h6.6v-2.1
			c0-3.2-1.6-4.8-5.7-4.8c-2.8,0-4.3,0.7-5.6,2.5l-2.2-2c2-2.6,4.2-3.3,7.8-3.3c5.9,0,8.8,2.6,8.8,7.4v15H339.5z M339.5,281.6h-6.2
			c-3.3,0-4.9,1.3-4.9,3.9s1.6,3.8,5.1,3.8c1.9,0,3.5-0.1,4.9-1.5c0.8-0.7,1.1-2,1.1-3.8V281.6z"/>
		<path d="M355.8,291.8c-3.8,0-5.7-2.6-5.7-5.9v-13.5h-2.8v-2.5h2.8V263h3.2v6.9h4.7v2.5h-4.7v13.5c0,2,0.9,3.2,3,3.2h1.7v2.8H355.8
			z"/>
		<path d="M376,274c-1.2-1.2-2.1-1.6-3.8-1.6c-3.2,0-5.3,2.6-5.3,5.9v13.5h-3.2v-22.1h3.2v2.7c1.2-1.8,3.6-3,6.2-3
			c2.1,0,3.7,0.5,5.3,2.1L376,274z"/>
		<path d="M394.3,289.6c-1.5,1.5-3.6,2.5-6.3,2.5c-2.7,0-4.8-1-6.3-2.5c-2.2-2.3-2.7-5.4-2.7-8.8c0-3.4,0.4-6.5,2.7-8.8
			c1.5-1.5,3.6-2.5,6.3-2.5c2.7,0,4.8,1,6.3,2.5c2.2,2.3,2.7,5.4,2.7,8.8C397,284.2,396.5,287.3,394.3,289.6z M392,274
			c-1-1-2.5-1.6-4-1.6c-1.6,0-3,0.6-4,1.6c-1.6,1.6-1.8,4.4-1.8,6.8c0,2.5,0.2,5.2,1.8,6.8c1,1,2.4,1.6,4,1.6c1.6,0,3-0.6,4-1.6
			c1.6-1.6,1.7-4.4,1.7-6.8C393.7,278.3,393.6,275.6,392,274z"/>
		<path d="M417.1,291.8v-13.6c0-3.9-2.1-5.9-5.4-5.9c-3.3,0-5.5,2-5.5,5.9v13.6H403v-22.1h3.2v2.4c1.6-1.8,3.7-2.7,6.2-2.7
			c2.4,0,4.3,0.7,5.7,2.1c1.6,1.5,2.3,3.6,2.3,6.1v14.1H417.1z"/>
		<path d="M344.8,343.6c-1.5,1.5-3.5,2.4-6.4,2.4c-2.8,0-5-0.9-6.4-2.3c-1.4-1.4-2.1-3.3-2.2-5.6h3.2c0.4,3.2,2.1,5,5.4,5
			c1.6,0,3-0.5,3.9-1.5c1.7-1.7,1.7-4.2,1.7-6.5c0-3.9-0.8-7.8-5.4-7.8c-2.8,0-4.7,1.3-5.3,3.1h-2.9v-16.8h16.1v2.9h-13.2v10.1
			c1.3-1.4,3.2-2.2,5.7-2.2c2.4,0,4.3,0.8,5.5,2c2.3,2.3,2.6,5.6,2.6,8.6C347.4,338.3,347.1,341.3,344.8,343.6z"/>
		<path d="M360.4,345.9c-5,0-9.1-2.6-9.4-8.4h3.2c0.3,4,3.1,5.6,6.1,5.6c3.5,0,6.1-2.3,6.1-6.2c0-3.9-1.9-6.2-6.3-6.2h-0.7v-2.8h0.7
			c3.9,0,5.7-2.2,5.7-5.8c0-3.8-2.5-5.8-5.6-5.8c-3.4,0-5.4,2.1-5.7,5.3h-3.2c0.4-5.2,4.1-8.2,9-8.2c5.2,0,8.8,3.5,8.8,8.7
			c0,3.4-1.4,5.8-4.3,7.1c3.2,1.2,4.9,3.8,4.9,7.8C369.8,342.8,365.6,345.9,360.4,345.9z"/>
		<path d="M383.4,345.9c-5,0-8.7-3.5-8.7-8.8v-14.9c0-5.3,3.8-8.8,8.7-8.8c5,0,8.7,3.5,8.7,8.8v14.9
			C392.1,342.4,388.4,345.9,383.4,345.9z M388.9,322.4c0-3.5-2-6.1-5.5-6.1c-3.5,0-5.5,2.6-5.5,6.1v14.5c0,3.5,2,6.1,5.5,6.1
			c3.5,0,5.5-2.6,5.5-6.1V322.4z"/>
		<path d="M411.2,345.6h-12.4v-31.9h12c5.6,0,9.4,3.2,9.4,8.5c0,3.4-2,6-4.7,7c3,1.1,5.2,3.8,5.2,7.6
			C420.7,342.6,416.9,345.6,411.2,345.6z M410.5,316.7h-8.3v11.1h8.3c3.5,0,6.3-1.7,6.3-5.6C416.8,318.4,414.1,316.7,410.5,316.7z
			 M410.9,330.9h-8.7v11.7h8.7c3.9,0,6.4-2.3,6.4-5.9C417.3,333.1,414.9,330.9,410.9,330.9z"/>
	</g>
	<g>
		<g>
			<line class="st1" x1="459.1" y1="309.2" x2="544.6" y2="309.2"/>
			<g>
				<polygon points="540.2,324.1 566,309.2 540.2,294.3 				"/>
			</g>
		</g>
	</g>
</g>
<g>
	<g>
		<path d="M219.5,591c-3.1,0-6-1.2-8.2-3.3c-3-3-3-6.1-3-12.9s0-9.9,3-12.9c2.2-2.2,5-3.3,8.2-3.3c5.7,0,10,3.5,11.1,9.5h-3.5
			c-0.9-3.9-3.6-6.5-7.6-6.5c-2.1,0-4.1,0.8-5.5,2.2c-2,2.1-2.2,4.3-2.2,10.9c0,6.7,0.2,8.9,2.2,10.9c1.4,1.4,3.4,2.2,5.5,2.2
			c4,0,6.8-2.6,7.7-6.5h3.4C229.6,587.5,225.2,591,219.5,591z"/>
		<path d="M250.6,590.8v-2.5c-1.6,1.8-3.8,2.7-6.2,2.7c-2.4,0-4.4-0.7-5.7-2.1c-1.6-1.5-2.2-3.6-2.2-6.2v-14.1h3.2v13.6
			c0,3.9,2.1,5.9,5.4,5.9c3.3,0,5.5-2,5.5-5.9v-13.6h3.2v22.1H250.6z"/>
		<path d="M267.9,591c-3.7,0-6.6-0.9-9.1-3.2l2.2-2.2c1.7,1.8,4.1,2.6,6.9,2.6c3.6,0,5.9-1.3,5.9-3.9c0-1.9-1.1-3-3.7-3.2l-3.6-0.3
			c-4.3-0.4-6.6-2.3-6.6-5.9c0-4,3.4-6.5,8.1-6.5c3.1,0,6,0.8,7.9,2.4l-2.1,2.1c-1.6-1.2-3.6-1.7-5.9-1.7c-3.2,0-4.9,1.4-4.9,3.6
			c0,1.9,1.1,3,3.9,3.2l3.5,0.3c3.9,0.4,6.5,1.8,6.5,6C276.9,588.6,273.2,591,267.9,591z"/>
		<path d="M288,590.8c-3.8,0-5.7-2.6-5.7-5.9v-13.5h-2.8v-2.5h2.8v-6.9h3.2v6.9h4.7v2.5h-4.7v13.5c0,2,0.9,3.2,3,3.2h1.7v2.8H288z"
			/>
		<path d="M309.7,588.5c-1.5,1.5-3.6,2.5-6.3,2.5c-2.7,0-4.8-1-6.3-2.5c-2.2-2.3-2.7-5.4-2.7-8.8s0.4-6.5,2.7-8.8
			c1.5-1.5,3.6-2.5,6.3-2.5c2.7,0,4.8,1,6.3,2.5c2.2,2.3,2.7,5.4,2.7,8.8S311.9,586.2,309.7,588.5z M307.4,572.9c-1-1-2.5-1.6-4-1.6
			c-1.6,0-3,0.6-4,1.6c-1.6,1.6-1.8,4.4-1.8,6.8c0,2.5,0.2,5.2,1.8,6.8c1,1,2.4,1.6,4,1.6c1.6,0,3-0.6,4-1.6
			c1.6-1.6,1.7-4.3,1.7-6.8C309.1,577.3,309,574.5,307.4,572.9z"/>
		<path d="M346.7,590.8v-13.6c0-3.9-2.1-5.9-5.4-5.9c-3.2,0-5.5,2-5.5,5.5v13.9h-3.2v-13.6c0-3.9-2.1-5.9-5.4-5.9
			c-3.3,0-5.5,2-5.5,5.9v13.6h-3.2v-22.1h3.2v2.4c1.6-1.8,3.8-2.7,6.2-2.7c3,0,5.4,1.3,6.8,3.7c1.7-2.4,4.2-3.7,7.3-3.7
			c2.4,0,4.4,0.8,5.7,2.1c1.6,1.5,2.4,3.6,2.4,6.1v14.1H346.7z"/>
		<path d="M358.9,580.6c0,4.8,2.3,7.6,6.5,7.6c2.6,0,4-0.8,5.8-2.5l2.2,1.9c-2.2,2.2-4.3,3.4-8.1,3.4c-5.8,0-9.6-3.5-9.6-11.3
			c0-7.1,3.5-11.3,9.1-11.3c5.7,0,9.1,4.1,9.1,10.7v1.5H358.9z M369.9,574.5c-0.9-2-2.8-3.3-5.2-3.3c-2.3,0-4.3,1.3-5.2,3.3
			c-0.5,1.2-0.6,1.9-0.7,3.7h11.7C370.5,576.4,370.4,575.7,369.9,574.5z"/>
		<path d="M392.1,572.9c-1.2-1.2-2.1-1.6-3.8-1.6c-3.2,0-5.3,2.6-5.3,5.9v13.5h-3.2v-22.1h3.2v2.7c1.2-1.8,3.6-3,6.2-3
			c2.1,0,3.7,0.5,5.3,2.1L392.1,572.9z"/>
		<path d="M397.6,566.1v-7.3h3.9v3.8L397.6,566.1z"/>
		<path d="M412.9,591c-3.7,0-6.6-0.9-9.1-3.2l2.2-2.2c1.7,1.8,4.1,2.6,6.9,2.6c3.6,0,5.9-1.3,5.9-3.9c0-1.9-1.1-3-3.7-3.2l-3.6-0.3
			c-4.3-0.4-6.6-2.3-6.6-5.9c0-4,3.4-6.5,8.1-6.5c3.1,0,6,0.8,7.9,2.4l-2.1,2.1c-1.6-1.2-3.6-1.7-5.9-1.7c-3.2,0-4.9,1.4-4.9,3.6
			c0,1.9,1.1,3,3.9,3.2l3.5,0.3c3.9,0.4,6.5,1.8,6.5,6C421.9,588.6,418.2,591,412.9,591z"/>
		<path d="M358.6,641.6c-1.9,1.9-4.8,3-8.1,3h-10.9v-31.9h10.9c3.3,0,6.1,1,8.1,3c3.3,3.3,3.1,8.2,3.1,12.6
			C361.7,632.7,361.9,638.3,358.6,641.6z M356.2,618c-1.7-1.7-3.8-2.3-6.3-2.3h-7v25.8h7c2.5,0,4.6-0.6,6.3-2.3
			c2.2-2.3,2.1-7,2.1-10.9C358.3,624.3,358.4,620.3,356.2,618z"/>
		<path d="M380.8,644.6v-2.1c-1.8,1.8-3.4,2.4-6.4,2.4c-3,0-4.8-0.6-6.2-2c-1.1-1.1-1.7-2.7-1.7-4.5c0-3.9,2.7-6.4,7.6-6.4h6.6v-2.1
			c0-3.2-1.6-4.8-5.7-4.8c-2.8,0-4.3,0.7-5.6,2.5l-2.2-2c2-2.6,4.2-3.3,7.8-3.3c5.9,0,8.8,2.6,8.8,7.4v15H380.8z M380.8,634.4h-6.2
			c-3.3,0-4.9,1.3-4.9,3.9c0,2.6,1.6,3.8,5.1,3.8c1.9,0,3.5-0.1,4.9-1.5c0.8-0.7,1.1-2,1.1-3.8V634.4z"/>
		<path d="M397.1,644.6c-3.8,0-5.7-2.6-5.7-5.9v-13.5h-2.8v-2.5h2.8v-6.9h3.2v6.9h4.7v2.5h-4.7v13.5c0,2,0.9,3.2,3,3.2h1.7v2.8
			H397.1z"/>
		<path d="M417.1,644.6v-2.1c-1.8,1.8-3.4,2.4-6.4,2.4c-3,0-4.8-0.6-6.2-2c-1.1-1.1-1.7-2.7-1.7-4.5c0-3.9,2.7-6.4,7.6-6.4h6.6v-2.1
			c0-3.2-1.6-4.8-5.7-4.8c-2.8,0-4.3,0.7-5.6,2.5l-2.2-2c2-2.6,4.2-3.3,7.8-3.3c5.9,0,8.8,2.6,8.8,7.4v15H417.1z M417.1,634.4h-6.2
			c-3.3,0-4.9,1.3-4.9,3.9c0,2.6,1.6,3.8,5.1,3.8c1.9,0,3.5-0.1,4.9-1.5c0.8-0.7,1.1-2,1.1-3.8V634.4z"/>
	</g>
	<g>
		<g>
			<line class="st1" x1="459.1" y1="608.1" x2="544.6" y2="608.1"/>
			<g>
				<polygon points="540.2,623 566,608.1 540.2,593.2 				"/>
			</g>
		</g>
	</g>
</g>
<g>
	<g>
		<g>
			<line class="st1" x1="2063.2" y1="454.3" x2="2148.6" y2="454.3"/>
			<g>
				<polygon points="2144.2,469.2 2170.1,454.3 2144.2,439.4 				"/>
			</g>
		</g>
	</g>
	<g>
		<path d="M2227.3,414.7c-3.1,0-6-1.2-8.2-3.3c-3-3-3-6.1-3-12.9c0-6.8,0-9.9,3-12.9c2.2-2.2,5-3.3,8.2-3.3c5.7,0,10,3.5,11.1,9.5
			h-3.5c-0.9-3.9-3.6-6.5-7.6-6.5c-2.1,0-4.1,0.8-5.5,2.2c-2,2.1-2.2,4.3-2.2,10.9c0,6.7,0.2,8.9,2.2,10.9c1.4,1.4,3.4,2.2,5.5,2.2
			c4,0,6.8-2.6,7.7-6.5h3.4C2237.4,411.2,2233,414.7,2227.3,414.7z"/>
		<path d="M2258.4,414.4v-2.5c-1.6,1.8-3.8,2.7-6.2,2.7c-2.4,0-4.4-0.7-5.7-2.1c-1.6-1.5-2.2-3.6-2.2-6.2v-14.1h3.2v13.6
			c0,3.9,2.1,5.9,5.4,5.9c3.3,0,5.5-2,5.5-5.9v-13.6h3.2v22.1H2258.4z"/>
		<path d="M2275.7,414.7c-3.7,0-6.6-0.9-9.1-3.2l2.2-2.2c1.7,1.8,4.1,2.6,6.9,2.6c3.6,0,5.9-1.3,5.9-3.9c0-1.9-1.1-3-3.7-3.2
			l-3.6-0.3c-4.3-0.4-6.6-2.3-6.6-5.9c0-4,3.4-6.5,8.1-6.5c3.1,0,6,0.8,7.9,2.4l-2.1,2.1c-1.6-1.2-3.6-1.7-5.9-1.7
			c-3.2,0-4.9,1.4-4.9,3.6c0,1.9,1.1,3,3.9,3.2l3.5,0.3c3.9,0.4,6.5,1.8,6.5,6C2284.7,412.2,2281,414.7,2275.7,414.7z"/>
		<path d="M2295.8,414.4c-3.8,0-5.7-2.6-5.7-5.9v-13.5h-2.8v-2.5h2.8v-6.9h3.2v6.9h4.7v2.5h-4.7v13.5c0,2,0.9,3.2,3,3.2h1.7v2.8
			H2295.8z"/>
		<path d="M2317.4,412.1c-1.5,1.5-3.6,2.5-6.3,2.5c-2.7,0-4.8-1-6.3-2.5c-2.2-2.3-2.7-5.4-2.7-8.8s0.4-6.5,2.7-8.8
			c1.5-1.5,3.6-2.5,6.3-2.5c2.7,0,4.8,1,6.3,2.5c2.2,2.3,2.7,5.4,2.7,8.8S2319.7,409.9,2317.4,412.1z M2315.2,396.5
			c-1-1-2.5-1.6-4-1.6c-1.6,0-3,0.6-4,1.6c-1.6,1.6-1.8,4.4-1.8,6.8c0,2.5,0.2,5.2,1.8,6.8c1,1,2.4,1.6,4,1.6c1.6,0,3-0.6,4-1.6
			c1.6-1.6,1.7-4.3,1.7-6.8C2316.9,400.9,2316.8,398.1,2315.2,396.5z"/>
		<path d="M2354.5,414.4v-13.6c0-3.9-2.1-5.9-5.4-5.9c-3.2,0-5.5,2-5.5,5.5v13.9h-3.2v-13.6c0-3.9-2.1-5.9-5.4-5.9s-5.5,2-5.5,5.9
			v13.6h-3.2v-22.1h3.2v2.4c1.6-1.8,3.8-2.7,6.2-2.7c3,0,5.4,1.3,6.8,3.7c1.7-2.4,4.2-3.7,7.3-3.7c2.4,0,4.3,0.8,5.7,2.1
			c1.6,1.5,2.4,3.6,2.4,6.1v14.1H2354.5z"/>
		<path d="M2241.3,468.2v-24.3l-8.7,19.2h-2.9l-8.9-19.2v24.3h-3.4v-31.9h3.4l10.4,22.6l10.1-22.6h3.4v31.9H2241.3z"/>
		<path d="M2254.5,458c0,4.8,2.3,7.6,6.5,7.6c2.6,0,4-0.8,5.8-2.5l2.2,1.9c-2.2,2.2-4.3,3.4-8.1,3.4c-5.8,0-9.6-3.5-9.6-11.3
			c0-7.1,3.5-11.3,9.1-11.3c5.7,0,9.1,4.1,9.1,10.7v1.5H2254.5z M2265.5,451.9c-0.9-2-2.8-3.3-5.2-3.3s-4.3,1.3-5.2,3.3
			c-0.5,1.2-0.6,1.9-0.7,3.7h11.7C2266.1,453.8,2266,453.1,2265.5,451.9z"/>
		<path d="M2282.4,478.3c-3.3,0-5.2-0.9-7.5-3l2.1-2.1c1.6,1.4,2.7,2.2,5.3,2.2c4.3,0,6.1-3,6.1-6.8v-3.5c-1.8,2.3-3.8,2.9-6.2,2.9
			c-2.2,0-4.2-0.8-5.3-2c-2.2-2.2-2.7-5.6-2.7-9.2c0-3.6,0.5-7,2.7-9.2c1.2-1.2,3.1-1.9,5.4-1.9c2.4,0,4.4,0.5,6.2,2.9v-2.6h3.2
			v22.7C2291.6,474.3,2288.2,478.3,2282.4,478.3z M2282.9,448.7c-4.8,0-5.5,4.1-5.5,8.3c0,4.1,0.7,8.3,5.5,8.3
			c4.8,0,5.5-4.1,5.5-8.3C2288.4,452.9,2287.7,448.7,2282.9,448.7z"/>
		<path d="M2311.3,468.2v-2.1c-1.8,1.8-3.4,2.4-6.4,2.4c-3,0-4.8-0.6-6.2-2c-1.1-1.1-1.7-2.7-1.7-4.5c0-3.9,2.7-6.4,7.6-6.4h6.6
			v-2.1c0-3.2-1.6-4.8-5.7-4.8c-2.8,0-4.3,0.7-5.6,2.5l-2.2-2c2-2.6,4.2-3.3,7.8-3.3c5.9,0,8.8,2.6,8.8,7.4v15H2311.3z M2311.3,458
			h-6.2c-3.3,0-4.9,1.3-4.9,3.9c0,2.6,1.6,3.8,5.1,3.8c1.9,0,3.5-0.1,4.9-1.5c0.8-0.7,1.1-2,1.1-3.8V458z"/>
		<path d="M2327.7,468.2c-3.8,0-5.7-2.6-5.7-5.9v-13.5h-2.8v-2.5h2.8v-6.9h3.2v6.9h4.7v2.5h-4.7v13.5c0,2,0.9,3.2,3,3.2h1.7v2.8
			H2327.7z"/>
		<path d="M2347.8,450.3c-1.2-1.2-2.1-1.6-3.8-1.6c-3.2,0-5.3,2.6-5.3,5.9v13.5h-3.2v-22.1h3.2v2.7c1.2-1.8,3.6-3,6.2-3
			c2.1,0,3.7,0.5,5.3,2.1L2347.8,450.3z"/>
		<path d="M2366.1,466c-1.5,1.5-3.6,2.5-6.3,2.5c-2.7,0-4.8-1-6.3-2.5c-2.2-2.3-2.7-5.4-2.7-8.8s0.4-6.5,2.7-8.8
			c1.5-1.5,3.6-2.5,6.3-2.5c2.7,0,4.8,1,6.3,2.5c2.2,2.3,2.7,5.4,2.7,8.8S2368.3,463.7,2366.1,466z M2363.8,450.3
			c-1-1-2.5-1.6-4-1.6c-1.6,0-3,0.6-4,1.6c-1.6,1.6-1.8,4.4-1.8,6.8c0,2.5,0.2,5.2,1.8,6.8c1,1,2.4,1.6,4,1.6c1.6,0,3-0.6,4-1.6
			c1.6-1.6,1.7-4.3,1.7-6.8C2365.6,454.7,2365.4,452,2363.8,450.3z"/>
		<path d="M2388.9,468.2v-13.6c0-3.9-2.1-5.9-5.4-5.9s-5.5,2-5.5,5.9v13.6h-3.2v-22.1h3.2v2.4c1.6-1.8,3.7-2.7,6.2-2.7
			c2.4,0,4.3,0.7,5.7,2.1c1.6,1.5,2.3,3.6,2.3,6.1v14.1H2388.9z"/>
		<path d="M2230.9,519.9c-1.5,1.5-3.5,2.4-6.4,2.4c-2.8,0-5-0.9-6.4-2.3c-1.4-1.4-2.1-3.3-2.2-5.6h3.2c0.4,3.2,2.1,5,5.4,5
			c1.6,0,3-0.5,3.9-1.5c1.7-1.7,1.7-4.2,1.7-6.5c0-3.9-0.8-7.8-5.4-7.8c-2.8,0-4.7,1.3-5.3,3.1h-2.9v-16.8h16.1v2.9h-13.2v10.1
			c1.3-1.4,3.2-2.2,5.7-2.2c2.4,0,4.3,0.8,5.5,2c2.3,2.3,2.6,5.6,2.6,8.6C2233.5,514.6,2233.2,517.7,2230.9,519.9z"/>
		<path d="M2246.5,522.3c-5,0-9.1-2.6-9.4-8.4h3.2c0.3,4,3.1,5.6,6.1,5.6c3.5,0,6.1-2.3,6.1-6.2c0-3.9-1.9-6.2-6.3-6.2h-0.7v-2.8
			h0.7c3.9,0,5.7-2.2,5.7-5.8c0-3.8-2.5-5.8-5.6-5.8c-3.4,0-5.4,2.1-5.7,5.3h-3.2c0.4-5.2,4.1-8.2,9-8.2c5.2,0,8.8,3.5,8.8,8.7
			c0,3.4-1.4,5.8-4.3,7.1c3.2,1.2,4.9,3.8,4.9,7.8C2255.9,519.2,2251.7,522.3,2246.5,522.3z"/>
		<path d="M2269.5,522.3c-5,0-8.7-3.5-8.7-8.8v-14.9c0-5.3,3.8-8.8,8.7-8.8c5,0,8.7,3.5,8.7,8.8v14.9
			C2278.2,518.8,2274.4,522.3,2269.5,522.3z M2275,498.8c0-3.5-2-6.1-5.5-6.1c-3.5,0-5.5,2.6-5.5,6.1v14.5c0,3.5,2,6.1,5.5,6.1
			c3.5,0,5.5-2.6,5.5-6.1V498.8z"/>
		<path d="M2297.3,522h-12.4v-31.9h12c5.6,0,9.4,3.2,9.4,8.5c0,3.4-2,6-4.7,7c3,1.1,5.2,3.8,5.2,7.6C2306.8,519,2303,522,2297.3,522
			z M2296.6,493.1h-8.3v11.1h8.3c3.5,0,6.3-1.7,6.3-5.6C2302.9,494.8,2300.2,493.1,2296.6,493.1z M2297,507.2h-8.7V519h8.7
			c3.9,0,6.4-2.3,6.4-5.9C2303.4,509.5,2300.9,507.2,2297,507.2z"/>
	</g>
</g>
<rect x="830.2" y="477.1" transform="matrix(-1 -1.224647e-16 1.224647e-16 -1 1676.234 982.9288)" class="st1" width="15.8" height="28.8"/>
<rect x="853.8" y="477.1" transform="matrix(-1 -1.224647e-16 1.224647e-16 -1 1723.4601 982.9288)" class="st1" width="15.8" height="28.8"/>
</svg>
