<?xml version="1.0" encoding="utf-8" standalone="no"?>
<!DOCTYPE svg PUBLIC "-//W3C//DTD SVG 1.1//EN"
  "http://www.w3.org/Graphics/SVG/1.1/DTD/svg11.dtd">
<svg xmlns:xlink="http://www.w3.org/1999/xlink" width="460.8pt" height="345.6pt" viewBox="0 0 460.8 345.6" xmlns="http://www.w3.org/2000/svg" version="1.1">
 <metadata>
  <rdf:RDF xmlns:dc="http://purl.org/dc/elements/1.1/" xmlns:cc="http://creativecommons.org/ns#" xmlns:rdf="http://www.w3.org/1999/02/22-rdf-syntax-ns#">
   <cc:Work>
    <dc:type rdf:resource="http://purl.org/dc/dcmitype/StillImage"/>
    <dc:date>2022-04-28T13:10:30.087371</dc:date>
    <dc:format>image/svg+xml</dc:format>
    <dc:creator>
     <cc:Agent>
      <dc:title>Matplotlib v3.5.1, https://matplotlib.org/</dc:title>
     </cc:Agent>
    </dc:creator>
   </cc:Work>
  </rdf:RDF>
 </metadata>
 <defs>
  <style type="text/css">*{stroke-linejoin: round; stroke-linecap: butt}</style>
 </defs>
 <g id="figure_1">
  <g id="patch_1">
   <path d="M 0 345.6 
L 460.8 345.6 
L 460.8 0 
L 0 0 
z
" style="fill: #ffffff"/>
  </g>
  <g id="axes_1">
   <g id="patch_2">
    <path d="M 46.08 311.04 
L 437.76 311.04 
L 437.76 69.12 
L 46.08 69.12 
z
" style="fill: #ffffff"/>
   </g>
   <g id="matplotlib.axis_1">
    <g id="xtick_1">
     <g id="line2d_1">
      <defs>
       <path id="mb81e93c0e8" d="M 0 0 
L 0 3.5 
" style="stroke: #000000; stroke-width: 0.8"/>
      </defs>
      <g>
       <use xlink:href="#mb81e93c0e8" x="46.080392" y="311.04" style="stroke: #000000; stroke-width: 0.8"/>
      </g>
     </g>
     <g id="text_1">
      <!-- 0.0 -->
      <g transform="translate(38.128829 325.638438)scale(0.1 -0.1)">
       <defs>
        <path id="DejaVuSans-30" d="M 2034 4250 
Q 1547 4250 1301 3770 
Q 1056 3291 1056 2328 
Q 1056 1369 1301 889 
Q 1547 409 2034 409 
Q 2525 409 2770 889 
Q 3016 1369 3016 2328 
Q 3016 3291 2770 3770 
Q 2525 4250 2034 4250 
z
M 2034 4750 
Q 2819 4750 3233 4129 
Q 3647 3509 3647 2328 
Q 3647 1150 3233 529 
Q 2819 -91 2034 -91 
Q 1250 -91 836 529 
Q 422 1150 422 2328 
Q 422 3509 836 4129 
Q 1250 4750 2034 4750 
z
" transform="scale(0.015625)"/>
        <path id="DejaVuSans-2e" d="M 684 794 
L 1344 794 
L 1344 0 
L 684 0 
L 684 794 
z
" transform="scale(0.015625)"/>
       </defs>
       <use xlink:href="#DejaVuSans-30"/>
       <use xlink:href="#DejaVuSans-2e" x="63.623047"/>
       <use xlink:href="#DejaVuSans-30" x="95.410156"/>
      </g>
     </g>
    </g>
    <g id="xtick_2">
     <g id="line2d_2">
      <g>
       <use xlink:href="#mb81e93c0e8" x="124.415922" y="311.04" style="stroke: #000000; stroke-width: 0.8"/>
      </g>
     </g>
     <g id="text_2">
      <!-- 0.2 -->
      <g transform="translate(116.464359 325.638438)scale(0.1 -0.1)">
       <defs>
        <path id="DejaVuSans-32" d="M 1228 531 
L 3431 531 
L 3431 0 
L 469 0 
L 469 531 
Q 828 903 1448 1529 
Q 2069 2156 2228 2338 
Q 2531 2678 2651 2914 
Q 2772 3150 2772 3378 
Q 2772 3750 2511 3984 
Q 2250 4219 1831 4219 
Q 1534 4219 1204 4116 
Q 875 4013 500 3803 
L 500 4441 
Q 881 4594 1212 4672 
Q 1544 4750 1819 4750 
Q 2544 4750 2975 4387 
Q 3406 4025 3406 3419 
Q 3406 3131 3298 2873 
Q 3191 2616 2906 2266 
Q 2828 2175 2409 1742 
Q 1991 1309 1228 531 
z
" transform="scale(0.015625)"/>
       </defs>
       <use xlink:href="#DejaVuSans-30"/>
       <use xlink:href="#DejaVuSans-2e" x="63.623047"/>
       <use xlink:href="#DejaVuSans-32" x="95.410156"/>
      </g>
     </g>
    </g>
    <g id="xtick_3">
     <g id="line2d_3">
      <g>
       <use xlink:href="#mb81e93c0e8" x="202.751452" y="311.04" style="stroke: #000000; stroke-width: 0.8"/>
      </g>
     </g>
     <g id="text_3">
      <!-- 0.4 -->
      <g transform="translate(194.799889 325.638438)scale(0.1 -0.1)">
       <defs>
        <path id="DejaVuSans-34" d="M 2419 4116 
L 825 1625 
L 2419 1625 
L 2419 4116 
z
M 2253 4666 
L 3047 4666 
L 3047 1625 
L 3713 1625 
L 3713 1100 
L 3047 1100 
L 3047 0 
L 2419 0 
L 2419 1100 
L 313 1100 
L 313 1709 
L 2253 4666 
z
" transform="scale(0.015625)"/>
       </defs>
       <use xlink:href="#DejaVuSans-30"/>
       <use xlink:href="#DejaVuSans-2e" x="63.623047"/>
       <use xlink:href="#DejaVuSans-34" x="95.410156"/>
      </g>
     </g>
    </g>
    <g id="xtick_4">
     <g id="line2d_4">
      <g>
       <use xlink:href="#mb81e93c0e8" x="281.086982" y="311.04" style="stroke: #000000; stroke-width: 0.8"/>
      </g>
     </g>
     <g id="text_4">
      <!-- 0.6 -->
      <g transform="translate(273.135419 325.638438)scale(0.1 -0.1)">
       <defs>
        <path id="DejaVuSans-36" d="M 2113 2584 
Q 1688 2584 1439 2293 
Q 1191 2003 1191 1497 
Q 1191 994 1439 701 
Q 1688 409 2113 409 
Q 2538 409 2786 701 
Q 3034 994 3034 1497 
Q 3034 2003 2786 2293 
Q 2538 2584 2113 2584 
z
M 3366 4563 
L 3366 3988 
Q 3128 4100 2886 4159 
Q 2644 4219 2406 4219 
Q 1781 4219 1451 3797 
Q 1122 3375 1075 2522 
Q 1259 2794 1537 2939 
Q 1816 3084 2150 3084 
Q 2853 3084 3261 2657 
Q 3669 2231 3669 1497 
Q 3669 778 3244 343 
Q 2819 -91 2113 -91 
Q 1303 -91 875 529 
Q 447 1150 447 2328 
Q 447 3434 972 4092 
Q 1497 4750 2381 4750 
Q 2619 4750 2861 4703 
Q 3103 4656 3366 4563 
z
" transform="scale(0.015625)"/>
       </defs>
       <use xlink:href="#DejaVuSans-30"/>
       <use xlink:href="#DejaVuSans-2e" x="63.623047"/>
       <use xlink:href="#DejaVuSans-36" x="95.410156"/>
      </g>
     </g>
    </g>
    <g id="xtick_5">
     <g id="line2d_5">
      <g>
       <use xlink:href="#mb81e93c0e8" x="359.422512" y="311.04" style="stroke: #000000; stroke-width: 0.8"/>
      </g>
     </g>
     <g id="text_5">
      <!-- 0.8 -->
      <g transform="translate(351.470949 325.638438)scale(0.1 -0.1)">
       <defs>
        <path id="DejaVuSans-38" d="M 2034 2216 
Q 1584 2216 1326 1975 
Q 1069 1734 1069 1313 
Q 1069 891 1326 650 
Q 1584 409 2034 409 
Q 2484 409 2743 651 
Q 3003 894 3003 1313 
Q 3003 1734 2745 1975 
Q 2488 2216 2034 2216 
z
M 1403 2484 
Q 997 2584 770 2862 
Q 544 3141 544 3541 
Q 544 4100 942 4425 
Q 1341 4750 2034 4750 
Q 2731 4750 3128 4425 
Q 3525 4100 3525 3541 
Q 3525 3141 3298 2862 
Q 3072 2584 2669 2484 
Q 3125 2378 3379 2068 
Q 3634 1759 3634 1313 
Q 3634 634 3220 271 
Q 2806 -91 2034 -91 
Q 1263 -91 848 271 
Q 434 634 434 1313 
Q 434 1759 690 2068 
Q 947 2378 1403 2484 
z
M 1172 3481 
Q 1172 3119 1398 2916 
Q 1625 2713 2034 2713 
Q 2441 2713 2670 2916 
Q 2900 3119 2900 3481 
Q 2900 3844 2670 4047 
Q 2441 4250 2034 4250 
Q 1625 4250 1398 4047 
Q 1172 3844 1172 3481 
z
" transform="scale(0.015625)"/>
       </defs>
       <use xlink:href="#DejaVuSans-30"/>
       <use xlink:href="#DejaVuSans-2e" x="63.623047"/>
       <use xlink:href="#DejaVuSans-38" x="95.410156"/>
      </g>
     </g>
    </g>
    <g id="xtick_6">
     <g id="line2d_6">
      <g>
       <use xlink:href="#mb81e93c0e8" x="437.758042" y="311.04" style="stroke: #000000; stroke-width: 0.8"/>
      </g>
     </g>
     <g id="text_6">
      <!-- 1.0 -->
      <g transform="translate(429.806479 325.638438)scale(0.1 -0.1)">
       <defs>
        <path id="DejaVuSans-31" d="M 794 531 
L 1825 531 
L 1825 4091 
L 703 3866 
L 703 4441 
L 1819 4666 
L 2450 4666 
L 2450 531 
L 3481 531 
L 3481 0 
L 794 0 
L 794 531 
z
" transform="scale(0.015625)"/>
       </defs>
       <use xlink:href="#DejaVuSans-31"/>
       <use xlink:href="#DejaVuSans-2e" x="63.623047"/>
       <use xlink:href="#DejaVuSans-30" x="95.410156"/>
      </g>
     </g>
    </g>
    <g id="text_7">
     <!-- Training iteration -->
     <g transform="translate(199.4825 339.316562)scale(0.1 -0.1)">
      <defs>
       <path id="DejaVuSans-54" d="M -19 4666 
L 3928 4666 
L 3928 4134 
L 2272 4134 
L 2272 0 
L 1638 0 
L 1638 4134 
L -19 4134 
L -19 4666 
z
" transform="scale(0.015625)"/>
       <path id="DejaVuSans-72" d="M 2631 2963 
Q 2534 3019 2420 3045 
Q 2306 3072 2169 3072 
Q 1681 3072 1420 2755 
Q 1159 2438 1159 1844 
L 1159 0 
L 581 0 
L 581 3500 
L 1159 3500 
L 1159 2956 
Q 1341 3275 1631 3429 
Q 1922 3584 2338 3584 
Q 2397 3584 2469 3576 
Q 2541 3569 2628 3553 
L 2631 2963 
z
" transform="scale(0.015625)"/>
       <path id="DejaVuSans-61" d="M 2194 1759 
Q 1497 1759 1228 1600 
Q 959 1441 959 1056 
Q 959 750 1161 570 
Q 1363 391 1709 391 
Q 2188 391 2477 730 
Q 2766 1069 2766 1631 
L 2766 1759 
L 2194 1759 
z
M 3341 1997 
L 3341 0 
L 2766 0 
L 2766 531 
Q 2569 213 2275 61 
Q 1981 -91 1556 -91 
Q 1019 -91 701 211 
Q 384 513 384 1019 
Q 384 1609 779 1909 
Q 1175 2209 1959 2209 
L 2766 2209 
L 2766 2266 
Q 2766 2663 2505 2880 
Q 2244 3097 1772 3097 
Q 1472 3097 1187 3025 
Q 903 2953 641 2809 
L 641 3341 
Q 956 3463 1253 3523 
Q 1550 3584 1831 3584 
Q 2591 3584 2966 3190 
Q 3341 2797 3341 1997 
z
" transform="scale(0.015625)"/>
       <path id="DejaVuSans-69" d="M 603 3500 
L 1178 3500 
L 1178 0 
L 603 0 
L 603 3500 
z
M 603 4863 
L 1178 4863 
L 1178 4134 
L 603 4134 
L 603 4863 
z
" transform="scale(0.015625)"/>
       <path id="DejaVuSans-6e" d="M 3513 2113 
L 3513 0 
L 2938 0 
L 2938 2094 
Q 2938 2591 2744 2837 
Q 2550 3084 2163 3084 
Q 1697 3084 1428 2787 
Q 1159 2491 1159 1978 
L 1159 0 
L 581 0 
L 581 3500 
L 1159 3500 
L 1159 2956 
Q 1366 3272 1645 3428 
Q 1925 3584 2291 3584 
Q 2894 3584 3203 3211 
Q 3513 2838 3513 2113 
z
" transform="scale(0.015625)"/>
       <path id="DejaVuSans-67" d="M 2906 1791 
Q 2906 2416 2648 2759 
Q 2391 3103 1925 3103 
Q 1463 3103 1205 2759 
Q 947 2416 947 1791 
Q 947 1169 1205 825 
Q 1463 481 1925 481 
Q 2391 481 2648 825 
Q 2906 1169 2906 1791 
z
M 3481 434 
Q 3481 -459 3084 -895 
Q 2688 -1331 1869 -1331 
Q 1566 -1331 1297 -1286 
Q 1028 -1241 775 -1147 
L 775 -588 
Q 1028 -725 1275 -790 
Q 1522 -856 1778 -856 
Q 2344 -856 2625 -561 
Q 2906 -266 2906 331 
L 2906 616 
Q 2728 306 2450 153 
Q 2172 0 1784 0 
Q 1141 0 747 490 
Q 353 981 353 1791 
Q 353 2603 747 3093 
Q 1141 3584 1784 3584 
Q 2172 3584 2450 3431 
Q 2728 3278 2906 2969 
L 2906 3500 
L 3481 3500 
L 3481 434 
z
" transform="scale(0.015625)"/>
       <path id="DejaVuSans-20" transform="scale(0.015625)"/>
       <path id="DejaVuSans-74" d="M 1172 4494 
L 1172 3500 
L 2356 3500 
L 2356 3053 
L 1172 3053 
L 1172 1153 
Q 1172 725 1289 603 
Q 1406 481 1766 481 
L 2356 481 
L 2356 0 
L 1766 0 
Q 1100 0 847 248 
Q 594 497 594 1153 
L 594 3053 
L 172 3053 
L 172 3500 
L 594 3500 
L 594 4494 
L 1172 4494 
z
" transform="scale(0.015625)"/>
       <path id="DejaVuSans-65" d="M 3597 1894 
L 3597 1613 
L 953 1613 
Q 991 1019 1311 708 
Q 1631 397 2203 397 
Q 2534 397 2845 478 
Q 3156 559 3463 722 
L 3463 178 
Q 3153 47 2828 -22 
Q 2503 -91 2169 -91 
Q 1331 -91 842 396 
Q 353 884 353 1716 
Q 353 2575 817 3079 
Q 1281 3584 2069 3584 
Q 2775 3584 3186 3129 
Q 3597 2675 3597 1894 
z
M 3022 2063 
Q 3016 2534 2758 2815 
Q 2500 3097 2075 3097 
Q 1594 3097 1305 2825 
Q 1016 2553 972 2059 
L 3022 2063 
z
" transform="scale(0.015625)"/>
       <path id="DejaVuSans-6f" d="M 1959 3097 
Q 1497 3097 1228 2736 
Q 959 2375 959 1747 
Q 959 1119 1226 758 
Q 1494 397 1959 397 
Q 2419 397 2687 759 
Q 2956 1122 2956 1747 
Q 2956 2369 2687 2733 
Q 2419 3097 1959 3097 
z
M 1959 3584 
Q 2709 3584 3137 3096 
Q 3566 2609 3566 1747 
Q 3566 888 3137 398 
Q 2709 -91 1959 -91 
Q 1206 -91 779 398 
Q 353 888 353 1747 
Q 353 2609 779 3096 
Q 1206 3584 1959 3584 
z
" transform="scale(0.015625)"/>
      </defs>
      <use xlink:href="#DejaVuSans-54"/>
      <use xlink:href="#DejaVuSans-72" x="46.333984"/>
      <use xlink:href="#DejaVuSans-61" x="87.447266"/>
      <use xlink:href="#DejaVuSans-69" x="148.726562"/>
      <use xlink:href="#DejaVuSans-6e" x="176.509766"/>
      <use xlink:href="#DejaVuSans-69" x="239.888672"/>
      <use xlink:href="#DejaVuSans-6e" x="267.671875"/>
      <use xlink:href="#DejaVuSans-67" x="331.050781"/>
      <use xlink:href="#DejaVuSans-20" x="394.527344"/>
      <use xlink:href="#DejaVuSans-69" x="426.314453"/>
      <use xlink:href="#DejaVuSans-74" x="454.097656"/>
      <use xlink:href="#DejaVuSans-65" x="493.306641"/>
      <use xlink:href="#DejaVuSans-72" x="554.830078"/>
      <use xlink:href="#DejaVuSans-61" x="595.943359"/>
      <use xlink:href="#DejaVuSans-74" x="657.222656"/>
      <use xlink:href="#DejaVuSans-69" x="696.431641"/>
      <use xlink:href="#DejaVuSans-6f" x="724.214844"/>
      <use xlink:href="#DejaVuSans-6e" x="785.396484"/>
     </g>
    </g>
    <g id="text_8">
     <!-- 1e6 -->
     <g transform="translate(418.881875 338.316562)scale(0.1 -0.1)">
      <use xlink:href="#DejaVuSans-31"/>
      <use xlink:href="#DejaVuSans-65" x="63.623047"/>
      <use xlink:href="#DejaVuSans-36" x="125.146484"/>
     </g>
    </g>
   </g>
   <g id="matplotlib.axis_2">
    <g id="ytick_1">
     <g id="line2d_7">
      <defs>
       <path id="md1dfa905ae" d="M 0 0 
L -3.5 0 
" style="stroke: #000000; stroke-width: 0.8"/>
      </defs>
      <g>
       <use xlink:href="#md1dfa905ae" x="46.08" y="311.04" style="stroke: #000000; stroke-width: 0.8"/>
      </g>
     </g>
     <g id="text_9">
      <!-- 1.5 -->
      <g transform="translate(23.176875 314.839219)scale(0.1 -0.1)">
       <defs>
        <path id="DejaVuSans-35" d="M 691 4666 
L 3169 4666 
L 3169 4134 
L 1269 4134 
L 1269 2991 
Q 1406 3038 1543 3061 
Q 1681 3084 1819 3084 
Q 2600 3084 3056 2656 
Q 3513 2228 3513 1497 
Q 3513 744 3044 326 
Q 2575 -91 1722 -91 
Q 1428 -91 1123 -41 
Q 819 9 494 109 
L 494 744 
Q 775 591 1075 516 
Q 1375 441 1709 441 
Q 2250 441 2565 725 
Q 2881 1009 2881 1497 
Q 2881 1984 2565 2268 
Q 2250 2553 1709 2553 
Q 1456 2553 1204 2497 
Q 953 2441 691 2322 
L 691 4666 
z
" transform="scale(0.015625)"/>
       </defs>
       <use xlink:href="#DejaVuSans-31"/>
       <use xlink:href="#DejaVuSans-2e" x="63.623047"/>
       <use xlink:href="#DejaVuSans-35" x="95.410156"/>
      </g>
     </g>
    </g>
    <g id="ytick_2">
     <g id="line2d_8">
      <g>
       <use xlink:href="#md1dfa905ae" x="46.08" y="284.16" style="stroke: #000000; stroke-width: 0.8"/>
      </g>
     </g>
     <g id="text_10">
      <!-- 2.0 -->
      <g transform="translate(23.176875 287.959219)scale(0.1 -0.1)">
       <use xlink:href="#DejaVuSans-32"/>
       <use xlink:href="#DejaVuSans-2e" x="63.623047"/>
       <use xlink:href="#DejaVuSans-30" x="95.410156"/>
      </g>
     </g>
    </g>
    <g id="ytick_3">
     <g id="line2d_9">
      <g>
       <use xlink:href="#md1dfa905ae" x="46.08" y="257.28" style="stroke: #000000; stroke-width: 0.8"/>
      </g>
     </g>
     <g id="text_11">
      <!-- 2.5 -->
      <g transform="translate(23.176875 261.079219)scale(0.1 -0.1)">
       <use xlink:href="#DejaVuSans-32"/>
       <use xlink:href="#DejaVuSans-2e" x="63.623047"/>
       <use xlink:href="#DejaVuSans-35" x="95.410156"/>
      </g>
     </g>
    </g>
    <g id="ytick_4">
     <g id="line2d_10">
      <g>
       <use xlink:href="#md1dfa905ae" x="46.08" y="230.4" style="stroke: #000000; stroke-width: 0.8"/>
      </g>
     </g>
     <g id="text_12">
      <!-- 3.0 -->
      <g transform="translate(23.176875 234.199219)scale(0.1 -0.1)">
       <defs>
        <path id="DejaVuSans-33" d="M 2597 2516 
Q 3050 2419 3304 2112 
Q 3559 1806 3559 1356 
Q 3559 666 3084 287 
Q 2609 -91 1734 -91 
Q 1441 -91 1130 -33 
Q 819 25 488 141 
L 488 750 
Q 750 597 1062 519 
Q 1375 441 1716 441 
Q 2309 441 2620 675 
Q 2931 909 2931 1356 
Q 2931 1769 2642 2001 
Q 2353 2234 1838 2234 
L 1294 2234 
L 1294 2753 
L 1863 2753 
Q 2328 2753 2575 2939 
Q 2822 3125 2822 3475 
Q 2822 3834 2567 4026 
Q 2313 4219 1838 4219 
Q 1578 4219 1281 4162 
Q 984 4106 628 3988 
L 628 4550 
Q 988 4650 1302 4700 
Q 1616 4750 1894 4750 
Q 2613 4750 3031 4423 
Q 3450 4097 3450 3541 
Q 3450 3153 3228 2886 
Q 3006 2619 2597 2516 
z
" transform="scale(0.015625)"/>
       </defs>
       <use xlink:href="#DejaVuSans-33"/>
       <use xlink:href="#DejaVuSans-2e" x="63.623047"/>
       <use xlink:href="#DejaVuSans-30" x="95.410156"/>
      </g>
     </g>
    </g>
    <g id="ytick_5">
     <g id="line2d_11">
      <g>
       <use xlink:href="#md1dfa905ae" x="46.08" y="203.52" style="stroke: #000000; stroke-width: 0.8"/>
      </g>
     </g>
     <g id="text_13">
      <!-- 3.5 -->
      <g transform="translate(23.176875 207.319219)scale(0.1 -0.1)">
       <use xlink:href="#DejaVuSans-33"/>
       <use xlink:href="#DejaVuSans-2e" x="63.623047"/>
       <use xlink:href="#DejaVuSans-35" x="95.410156"/>
      </g>
     </g>
    </g>
    <g id="ytick_6">
     <g id="line2d_12">
      <g>
       <use xlink:href="#md1dfa905ae" x="46.08" y="176.64" style="stroke: #000000; stroke-width: 0.8"/>
      </g>
     </g>
     <g id="text_14">
      <!-- 4.0 -->
      <g transform="translate(23.176875 180.439219)scale(0.1 -0.1)">
       <use xlink:href="#DejaVuSans-34"/>
       <use xlink:href="#DejaVuSans-2e" x="63.623047"/>
       <use xlink:href="#DejaVuSans-30" x="95.410156"/>
      </g>
     </g>
    </g>
    <g id="ytick_7">
     <g id="line2d_13">
      <g>
       <use xlink:href="#md1dfa905ae" x="46.08" y="149.76" style="stroke: #000000; stroke-width: 0.8"/>
      </g>
     </g>
     <g id="text_15">
      <!-- 4.5 -->
      <g transform="translate(23.176875 153.559219)scale(0.1 -0.1)">
       <use xlink:href="#DejaVuSans-34"/>
       <use xlink:href="#DejaVuSans-2e" x="63.623047"/>
       <use xlink:href="#DejaVuSans-35" x="95.410156"/>
      </g>
     </g>
    </g>
    <g id="ytick_8">
     <g id="line2d_14">
      <g>
       <use xlink:href="#md1dfa905ae" x="46.08" y="122.88" style="stroke: #000000; stroke-width: 0.8"/>
      </g>
     </g>
     <g id="text_16">
      <!-- 5.0 -->
      <g transform="translate(23.176875 126.679219)scale(0.1 -0.1)">
       <use xlink:href="#DejaVuSans-35"/>
       <use xlink:href="#DejaVuSans-2e" x="63.623047"/>
       <use xlink:href="#DejaVuSans-30" x="95.410156"/>
      </g>
     </g>
    </g>
    <g id="ytick_9">
     <g id="line2d_15">
      <g>
       <use xlink:href="#md1dfa905ae" x="46.08" y="96" style="stroke: #000000; stroke-width: 0.8"/>
      </g>
     </g>
     <g id="text_17">
      <!-- 5.5 -->
      <g transform="translate(23.176875 99.799219)scale(0.1 -0.1)">
       <use xlink:href="#DejaVuSans-35"/>
       <use xlink:href="#DejaVuSans-2e" x="63.623047"/>
       <use xlink:href="#DejaVuSans-35" x="95.410156"/>
      </g>
     </g>
    </g>
    <g id="ytick_10">
     <g id="line2d_16">
      <g>
       <use xlink:href="#md1dfa905ae" x="46.08" y="69.12" style="stroke: #000000; stroke-width: 0.8"/>
      </g>
     </g>
     <g id="text_18">
      <!-- 6.0 -->
      <g transform="translate(23.176875 72.919219)scale(0.1 -0.1)">
       <use xlink:href="#DejaVuSans-36"/>
       <use xlink:href="#DejaVuSans-2e" x="63.623047"/>
       <use xlink:href="#DejaVuSans-30" x="95.410156"/>
      </g>
     </g>
    </g>
    <g id="text_19">
     <!-- Training loss -->
     <g transform="translate(17.097188 221.052656)rotate(-90)scale(0.1 -0.1)">
      <defs>
       <path id="DejaVuSans-6c" d="M 603 4863 
L 1178 4863 
L 1178 0 
L 603 0 
L 603 4863 
z
" transform="scale(0.015625)"/>
       <path id="DejaVuSans-73" d="M 2834 3397 
L 2834 2853 
Q 2591 2978 2328 3040 
Q 2066 3103 1784 3103 
Q 1356 3103 1142 2972 
Q 928 2841 928 2578 
Q 928 2378 1081 2264 
Q 1234 2150 1697 2047 
L 1894 2003 
Q 2506 1872 2764 1633 
Q 3022 1394 3022 966 
Q 3022 478 2636 193 
Q 2250 -91 1575 -91 
Q 1294 -91 989 -36 
Q 684 19 347 128 
L 347 722 
Q 666 556 975 473 
Q 1284 391 1588 391 
Q 1994 391 2212 530 
Q 2431 669 2431 922 
Q 2431 1156 2273 1281 
Q 2116 1406 1581 1522 
L 1381 1569 
Q 847 1681 609 1914 
Q 372 2147 372 2553 
Q 372 3047 722 3315 
Q 1072 3584 1716 3584 
Q 2034 3584 2315 3537 
Q 2597 3491 2834 3397 
z
" transform="scale(0.015625)"/>
      </defs>
      <use xlink:href="#DejaVuSans-54"/>
      <use xlink:href="#DejaVuSans-72" x="46.333984"/>
      <use xlink:href="#DejaVuSans-61" x="87.447266"/>
      <use xlink:href="#DejaVuSans-69" x="148.726562"/>
      <use xlink:href="#DejaVuSans-6e" x="176.509766"/>
      <use xlink:href="#DejaVuSans-69" x="239.888672"/>
      <use xlink:href="#DejaVuSans-6e" x="267.671875"/>
      <use xlink:href="#DejaVuSans-67" x="331.050781"/>
      <use xlink:href="#DejaVuSans-20" x="394.527344"/>
      <use xlink:href="#DejaVuSans-6c" x="426.314453"/>
      <use xlink:href="#DejaVuSans-6f" x="454.097656"/>
      <use xlink:href="#DejaVuSans-73" x="515.279297"/>
      <use xlink:href="#DejaVuSans-73" x="567.378906"/>
     </g>
    </g>
   </g>
   <g id="line2d_17">
    <path d="M 47.100989 -1 
L 47.443038 66.041456 
L 47.799465 93.313122 
L 48.300812 115.106007 
L 48.876578 131.305897 
L 49.538514 149.114521 
L 49.800938 165.107104 
L 50.678296 232.984622 
L 51.128725 241.831588 
L 51.712325 248.897151 
L 52.213672 253.357159 
L 52.25284 253.082218 
L 52.370343 253.739611 
L 52.640601 255.364961 
L 53.032278 258.605046 
L 53.165449 259.565409 
L 54.17206 264.204123 
L 55.554682 269.278243 
L 55.777939 269.926402 
L 56.048196 270.692166 
L 57.054808 272.891183 
L 57.403401 273.677764 
L 59.303037 277.129284 
L 59.393123 277.279694 
L 59.949306 278.192493 
L 59.953222 278.167331 
L 60.239147 263.598671 
L 60.364484 262.879641 
L 60.403652 262.995273 
L 60.521155 264.230554 
L 60.638658 266.519808 
L 60.654325 264.638403 
L 60.658242 264.636731 
L 60.666076 264.7393 
L 60.744411 266.561205 
L 60.791413 275.835726 
L 60.877582 275.594017 
L 61.014669 275.41878 
L 61.034253 275.439605 
L 61.104755 275.539384 
L 61.371095 277.065624 
L 61.429847 278.148819 
L 61.54735 280.034547 
L 61.649187 280.19209 
L 61.986029 280.672129 
L 62.197535 280.938745 
L 62.440375 281.152904 
L 62.518711 281.167978 
L 62.546128 281.206021 
L 62.749801 281.413504 
L 62.796802 281.430244 
L 62.82422 281.469982 
L 62.839887 281.46249 
L 63.008308 281.65562 
L 63.153229 267.726957 
L 63.403902 264.230862 
L 63.435237 264.240846 
L 63.454821 264.312318 
L 63.55274 265.305625 
L 63.789313 270.936129 
L 63.9264 282.282897 
L 64.090905 282.387951 
L 64.204492 281.848701 
L 64.325912 281.828993 
L 64.87426 282.724132 
L 64.987847 283.276234 
L 66.307801 284.36453 
L 66.378303 284.392642 
L 66.397886 284.42144 
L 66.625059 284.654334 
L 66.957985 284.862683 
L 67.079406 284.964241 
L 67.670839 285.406333 
L 67.831427 285.467304 
L 67.941096 285.488782 
L 68.054683 284.709554 
L 68.0586 284.7114 
L 68.246605 284.586337 
L 68.352358 284.59143 
L 68.371942 284.61698 
L 68.661783 285.105225 
L 68.724452 285.252818 
L 68.822371 286.02733 
L 68.841955 286.026256 
L 69.010376 286.170658 
L 69.38247 286.388856 
L 69.539141 286.460947 
L 69.687979 286.52381 
L 69.8564 286.65265 
L 69.942569 286.730741 
L 70.09924 286.891994 
L 70.244161 285.943968 
L 70.420416 285.82784 
L 70.424333 285.832783 
L 70.698507 285.953234 
L 71.176354 287.295671 
L 71.474029 287.588932 
L 71.477946 287.586106 
L 71.744286 287.748426 
L 71.971459 287.768106 
L 72.10463 287.804149 
L 72.108547 287.801806 
L 72.527642 288.054757 
L 72.688229 288.151535 
L 72.825317 288.178061 
L 72.83315 288.19517 
L 73.021155 288.234435 
L 73.083824 288.229171 
L 73.126908 288.264453 
L 73.600838 288.577499 
L 73.714425 287.599441 
L 73.804511 287.50306 
L 74.047351 287.350383 
L 74.329359 287.803295 
L 74.384194 287.929127 
L 74.493863 288.741965 
L 74.49778 288.735427 
L 75.273302 289.209622 
L 75.547476 289.325461 
L 75.939154 289.526749 
L 76.13891 289.650192 
L 76.354332 289.722707 
L 76.718592 289.909189 
L 76.973183 289.981615 
L 77.368777 289.968146 
L 78.833652 290.433197 
L 79.033407 290.483504 
L 79.162661 290.483886 
L 79.60134 290.670622 
L 79.758011 290.786944 
L 80.032185 290.916766 
L 80.141855 290.958144 
L 80.239775 291.044359 
L 80.384695 291.067199 
L 80.529616 291.063407 
L 80.533533 291.067877 
L 80.651036 291.09851 
L 80.662786 291.089228 
L 80.866459 291.155346 
L 80.870376 291.122392 
L 81.003546 273.135428 
L 81.266753 268.029388 
L 81.278504 268.006282 
L 81.321588 268.161275 
L 81.423424 269.572694 
L 81.650597 276.537151 
L 81.779851 291.23767 
L 82.688543 291.64472 
L 82.860881 291.610819 
L 82.872632 291.625261 
L 83.244725 291.682645 
L 83.424897 291.841294 
L 83.699072 291.863328 
L 83.930161 291.989091 
L 83.934078 291.983855 
L 84.067249 291.98922 
L 84.36884 292.140517 
L 85.128695 292.254939 
L 85.234448 292.244814 
L 85.242282 292.258306 
L 85.469455 292.306743 
L 85.637876 292.342559 
L 86.711073 292.763043 
L 87.012664 292.4026 
L 87.040082 292.403263 
L 87.094917 292.329746 
L 87.098834 292.330414 
L 87.235921 292.326111 
L 87.514012 292.513414 
L 87.557096 292.644694 
L 87.709851 292.796957 
L 87.713767 292.792358 
L 87.921357 292.942344 
L 88.250366 293.058407 
L 88.418787 293.033815 
L 88.685128 293.079328 
L 88.728213 293.046627 
L 88.822215 293.087532 
L 88.931885 293.135697 
L 89.503734 293.319903 
L 89.636905 293.386629 
L 90.28709 293.479607 
L 90.349758 293.476711 
L 90.396759 293.505936 
L 90.526013 293.517164 
L 90.690518 293.60153 
L 91.113529 293.516036 
L 91.344619 293.484084 
L 91.552208 293.581219 
L 91.650128 293.661723 
L 92.707658 293.867741 
L 92.864329 293.855587 
L 93.005333 293.829698 
L 93.138503 293.890856 
L 93.6281 294.063894 
L 93.741687 292.734831 
L 94.023694 292.313149 
L 94.411455 293.029232 
L 94.525042 294.164828 
L 94.846217 294.331633 
L 94.944137 294.396384 
L 94.998972 294.423902 
L 95.06164 294.397391 
L 95.923331 294.37029 
L 96.083919 294.429871 
L 96.405095 294.487252 
L 96.526515 294.510352 
L 96.663602 294.536379 
L 96.675352 294.52359 
L 98.371316 294.679656 
L 98.387375 291.255029 
L 98.508795 287.455569 
L 98.771219 285.587528 
L 98.779053 285.593928 
L 98.947474 286.394741 
L 99.15898 289.433784 
L 99.315651 294.68193 
L 100.149925 295.005847 
L 100.157758 294.920713 
L 100.294845 294.856108 
L 100.298762 294.857777 
L 100.819693 295.060279 
L 101.019449 295.30783 
L 101.160453 295.321326 
L 101.28579 295.374897 
L 101.301457 295.364802 
L 101.477712 295.358165 
L 101.481629 295.36484 
L 101.685301 295.401744 
L 101.689218 295.394012 
L 101.857639 295.358551 
L 102.029977 295.34746 
L 102.308068 295.383899 
L 102.47649 295.393543 
L 102.605743 295.439908 
L 102.774165 295.465489 
L 102.778082 295.459447 
L 102.954337 295.462143 
L 103.189343 295.489771 
L 103.322514 295.493986 
L 103.475268 295.549847 
L 103.596688 295.58092 
L 104.03145 295.691822 
L 104.14112 295.720397 
L 104.156787 295.712573 
L 104.356543 295.701835 
L 104.50538 295.748445 
L 104.603299 295.752591 
L 104.607216 295.727271 
L 104.728636 294.952184 
L 104.936225 294.710971 
L 104.947976 294.724118 
L 105.151648 294.763683 
L 105.370988 295.087405 
L 105.390571 295.135597 
L 105.511992 295.808973 
L 105.723497 295.872309 
L 106.393266 295.857694 
L 106.518603 295.868197 
L 106.957282 295.854859 
L 107.290208 296.056683 
L 107.294125 296.050649 
L 107.403795 296.092972 
L 107.407711 296.100091 
L 107.568299 296.207996 
L 107.744554 296.240142 
L 107.999145 296.241649 
L 108.132315 296.238189 
L 108.163649 296.261862 
L 108.241985 296.269096 
L 108.343821 296.263683 
L 108.261569 296.252443 
L 108.363405 296.246687 
L 108.696331 296.272679 
L 108.845168 296.206463 
L 109.518854 296.181625 
L 109.941866 296.398743 
L 109.9732 296.403946 
L 110.020201 296.474262 
L 110.028035 296.467737 
L 110.165122 296.455644 
L 110.169039 296.447079 
L 110.341377 296.395782 
L 110.345294 296.399258 
L 110.462797 296.389262 
L 110.470631 296.375986 
L 110.584217 296.380118 
L 110.736971 296.445858 
L 110.862308 296.432683 
L 112.068675 296.622856 
L 112.197929 296.613918 
L 112.201846 296.61902 
L 112.69536 296.605802 
L 112.812863 296.615174 
L 112.946033 296.666041 
L 113.067453 296.672524 
L 113.173206 296.704564 
L 113.19279 296.688952 
L 114.00748 296.827251 
L 114.148484 296.806712 
L 114.324739 296.836799 
L 114.500994 296.914824 
L 114.634164 296.91641 
L 114.645914 296.896985 
L 114.84567 296.94441 
L 114.951423 296.939965 
L 114.884838 296.925699 
L 114.959256 296.934856 
L 115.096344 296.940069 
L 115.347017 296.944285 
L 115.480188 296.939378 
L 116.208317 296.88212 
L 116.353237 296.975904 
L 116.619578 297.139486 
L 117.442101 297.145026 
L 117.590939 297.160365 
L 117.724109 297.160576 
L 117.731943 297.14733 
L 117.86903 297.115729 
L 117.872947 297.118574 
L 118.158871 297.171734 
L 118.307709 297.165725 
L 118.386044 297.164109 
L 118.417378 297.144966 
L 118.668052 297.103398 
L 120.207345 297.310688 
L 120.305265 297.295053 
L 120.324849 297.30419 
L 120.395351 297.334276 
L 120.399267 297.271124 
L 120.567689 288.786156 
L 120.798779 287.080463 
L 120.849697 287.17088 
L 120.986784 288.181548 
L 121.182623 291.071488 
L 121.327543 297.55751 
L 121.335377 297.550718 
L 121.531216 297.661234 
L 121.656553 297.649998 
L 121.664386 297.656283 
L 121.80539 297.702412 
L 122.110899 297.57792 
L 122.240152 297.551996 
L 122.361572 297.539515 
L 122.51041 297.545623 
L 123.963534 297.705135 
L 124.049703 297.695092 
L 124.07712 297.724996 
L 124.233792 297.755962 
L 124.476632 297.715248 
L 124.484465 297.731782 
L 125.263904 297.942505 
L 125.48716 297.920472 
L 125.624247 297.940265 
L 125.855337 298.011653 
L 126.086427 298.016026 
L 126.211764 297.986074 
L 126.21568 297.988312 
L 127.766724 298.099365 
L 127.907728 298.05075 
L 127.911645 298.057459 
L 128.569663 298.191044 
L 128.70675 298.219229 
L 128.714584 298.210474 
L 128.859505 298.159954 
L 128.871255 298.173628 
L 129.325601 298.273717 
L 129.458771 298.296251 
L 129.64286 298.269131 
L 130.214709 298.280775 
L 130.422298 298.330472 
L 130.426215 298.323563 
L 130.629888 298.314788 
L 130.794392 298.289422 
L 131.139069 298.35332 
L 131.303573 298.383302 
L 131.468078 298.387442 
L 131.938091 298.493642 
L 131.996843 298.443892 
L 132.059511 298.473509 
L 132.200515 298.474287 
L 132.361103 298.42948 
L 132.549108 298.454763 
L 132.815449 298.461158 
L 133.20321 298.485331 
L 133.359881 298.363304 
L 133.371631 298.37789 
L 133.583137 298.335715 
L 133.802477 298.354134 
L 134.147153 298.572229 
L 134.581915 298.684063 
L 135.271268 298.443145 
L 135.275185 298.451981 
L 135.514108 298.57304 
L 135.655112 298.609817 
L 135.831367 298.684463 
L 135.890118 298.686483 
L 135.933203 298.724231 
L 136.17996 298.81765 
L 136.305297 298.813016 
L 136.978982 298.736749 
L 137.13957 298.764738 
L 140.131987 298.937079 
L 140.276908 299.004937 
L 140.382661 298.996857 
L 140.394411 299.005436 
L 140.551082 299.051924 
L 140.664669 299.016358 
L 140.680336 299.033493 
L 140.837007 299.099609 
L 141.017179 299.115757 
L 141.021096 299.106704 
L 141.146432 299.142588 
L 141.150349 299.148798 
L 141.686948 299.215875 
L 141.800534 299.217486 
L 141.808368 299.221777 
L 142.129543 299.202645 
L 142.431135 299.110274 
L 142.568222 299.107349 
L 142.752311 299.067863 
L 142.881564 299.104867 
L 142.889398 299.100112 
L 143.187073 299.201049 
L 143.375078 299.30833 
L 143.465164 299.341857 
L 143.394662 299.3208 
L 143.472998 299.352562 
L 143.825508 299.422302 
L 144.181934 299.288223 
L 144.628447 299.296432 
L 144.859537 299.348902 
L 144.898704 299.377876 
L 144.973123 299.364619 
L 145.149378 299.321168 
L 145.595891 299.243962 
L 145.607641 299.247956 
L 145.674226 299.164637 
L 145.893566 299.037778 
L 146.097238 298.928314 
L 146.124655 298.963803 
L 146.265659 298.97727 
L 146.355745 299.010412 
L 146.281326 298.991192 
L 146.367496 299.028117 
L 146.445831 299.07916 
L 146.449748 299.087663 
L 146.618169 299.288866 
L 147.240937 299.414692 
L 147.34669 299.352034 
L 147.37019 299.365968 
L 148.396386 299.463358 
L 148.929067 299.651015 
L 149.046571 299.651942 
L 149.179741 299.667629 
L 149.183658 299.664038 
L 149.896511 299.61964 
L 150.033598 299.613763 
L 151.630468 299.708615 
L 151.759722 299.738831 
L 152.366822 299.737876 
L 152.484325 299.730879 
L 152.613579 299.738785 
L 152.829002 299.746868 
L 152.832919 299.755909 
L 153.248097 299.865406 
L 153.432185 299.917929 
L 154.019702 299.990457 
L 154.861809 299.818822 
L 155.339655 299.924688 
L 155.872337 299.962438 
L 155.970256 299.933924 
L 155.993757 299.951488 
L 156.189596 299.906088 
L 156.350184 299.945794 
L 156.530356 299.923682 
L 156.710527 300.009017 
L 156.553856 299.905721 
L 156.714444 300.005633 
L 156.859365 300.023418 
L 157.27846 299.992883 
L 157.403797 299.98872 
L 157.744556 299.982718 
L 157.916894 300.053433 
L 157.920811 300.045087 
L 158.069649 300.010627 
L 160.259127 300.16655 
L 160.380547 300.16653 
L 160.384464 300.172413 
L 160.533301 300.181291 
L 160.537218 300.175557 
L 160.725223 300.17974 
L 160.893645 300.197495 
L 163.055705 300.445858 
L 163.23196 300.467546 
L 163.82731 300.448378 
L 163.983981 300.409609 
L 164.238572 300.37775 
L 164.242488 300.384455 
L 164.892673 300.533055 
L 165.629027 300.394171 
L 165.828783 300.481722 
L 167.13307 300.577963 
L 167.324992 300.63604 
L 167.465996 300.633996 
L 167.469912 300.640454 
L 167.642642 300.659294 
L 168.140073 300.690576 
L 168.28891 300.732404 
L 168.484749 300.714336 
L 168.598336 300.738236 
L 168.606169 300.729396 
L 168.735423 300.721065 
L 168.73934 300.724776 
L 168.899927 300.696238 
L 169.209353 300.708532 
L 169.34644 300.707315 
L 170.356968 300.6972 
L 170.505806 300.732843 
L 170.642893 300.756946 
L 170.826981 300.814265 
L 170.936651 300.809809 
L 170.948402 300.826202 
L 171.246077 300.793923 
L 171.469333 300.774697 
L 171.645588 274.010425 
L 171.884511 268.49773 
L 171.927596 268.707977 
L 172.017681 270.339713 
L 172.233104 279.118108 
L 172.260522 284.983682 
L 172.370191 300.709962 
L 172.397609 300.708158 
L 172.522946 300.7177 
L 172.656116 300.721196 
L 172.660033 300.725514 
L 172.777536 300.720261 
L 172.781453 300.717157 
L 173.541308 300.501078 
L 173.654894 300.613893 
L 173.772397 300.74668 
L 173.784148 300.740391 
L 173.968236 300.847969 
L 173.972153 300.816572 
L 173.979987 300.800469 
L 174.030905 300.852952 
L 174.077906 300.845975 
L 174.289412 300.881486 
L 174.395165 300.914131 
L 174.426499 300.894853 
L 174.618421 300.884216 
L 174.751591 300.869333 
L 174.865178 300.896812 
L 174.998348 300.888982 
L 175.17852 300.861778 
L 175.186354 300.87348 
L 176.337886 300.845234 
L 176.518058 300.863073 
L 176.764815 300.912736 
L 176.886235 300.949169 
L 177.226994 301.03971 
L 177.234828 301.019301 
L 177.403249 296.071108 
L 177.653923 294.5547 
L 177.77926 294.651956 
L 177.916347 295.419085 
L 178.045601 297.168 
L 178.182688 300.629479 
L 178.343276 300.756358 
L 178.351109 300.751907 
L 178.492113 300.803367 
L 178.6292 300.866005 
L 178.633117 300.862946 
L 178.699702 300.917069 
L 178.734953 300.905285 
L 178.825039 300.950309 
L 178.832873 300.959707 
L 179.013044 300.983603 
L 179.138381 301.009768 
L 179.142298 301.018117 
L 179.298969 301.057834 
L 180.129326 300.923313 
L 180.235079 300.941887 
L 180.238995 300.952289 
L 180.88918 301.060571 
L 181.151604 300.990505 
L 181.323942 300.959956 
L 181.464946 300.989685 
L 181.801789 301.125694 
L 182.103381 301.190892 
L 182.330554 301.109641 
L 182.334471 301.116248 
L 182.933738 301.146409 
L 183.133493 301.203601 
L 183.25883 301.190351 
L 183.262747 301.198352 
L 183.384167 301.198512 
L 183.286247 301.179963 
L 183.388084 301.194205 
L 183.572172 301.206605 
L 183.779761 301.199196 
L 184.151855 301.245787 
L 184.324193 301.300722 
L 184.32811 301.290908 
L 184.476948 301.284548 
L 185.03783 301.333384 
L 185.265003 301.288773 
L 185.378589 301.300114 
L 185.288504 301.272145 
L 185.386423 301.281772 
L 185.531344 301.266087 
L 185.993523 301.327986 
L 186.161945 301.326118 
L 186.342117 301.27568 
L 186.518371 301.258963 
L 186.647625 301.237343 
L 188.112499 301.416725 
L 188.226086 301.39776 
L 188.237836 301.403973 
L 188.327922 301.407733 
L 188.35534 301.387682 
L 188.938939 301.469537 
L 189.20528 301.487326 
L 190.478232 301.270427 
L 190.865993 301.430695 
L 191.010914 301.439755 
L 191.198919 301.459551 
L 191.57493 301.440139 
L 191.782519 301.425378 
L 192.005775 301.412004 
L 192.127195 301.338217 
L 192.142863 301.350523 
L 192.244699 301.349577 
L 192.354368 301.367389 
L 192.362202 301.357051 
L 192.906634 301.499664 
L 193.028054 301.499188 
L 193.263061 301.522531 
L 193.517651 301.564239 
L 193.537235 301.599193 
L 193.658655 301.604833 
L 193.909329 301.661582 
L 193.913245 301.655406 
L 194.066 301.583443 
L 194.069917 301.588866 
L 194.445927 301.499376 
L 194.747519 301.557155 
L 195.01386 301.575848 
L 195.170531 301.611103 
L 195.338952 301.610087 
L 195.342869 301.604458 
L 195.479956 301.580994 
L 195.530874 301.607951 
L 195.589626 301.562747 
L 195.785465 301.628072 
L 196.243727 301.701629 
L 196.384731 301.747138 
L 196.58057 301.72972 
L 196.713741 301.755196 
L 196.717657 301.750184 
L 196.858661 301.722073 
L 196.862578 301.725567 
L 197.089751 301.721586 
L 197.246422 301.670598 
L 199.146059 301.746532 
L 199.271396 301.688203 
L 199.30273 293.779959 
L 199.447651 283.020497 
L 199.690491 278.917395 
L 199.741409 279.107071 
L 199.851079 280.736329 
L 200.062585 287.907894 
L 200.219256 301.626411 
L 200.826356 301.721392 
L 200.951693 301.764437 
L 200.959526 301.751452 
L 201.214117 301.83328 
L 201.370788 301.92558 
L 201.488291 301.935233 
L 201.660629 301.896236 
L 201.7938 301.8622 
L 202.378966 301.677027 
L 203.354244 301.963413 
L 203.47958 301.947976 
L 203.608834 301.935039 
L 203.612751 301.930273 
L 203.926093 301.900329 
L 204.541027 302.001139 
L 205.586806 301.903658 
L 205.833563 301.990046 
L 206.609085 301.982357 
L 206.679587 301.936787 
L 206.718755 301.959482 
L 207.16135 301.993947 
L 207.341522 302.043304 
L 207.498193 302.037367 
L 207.717533 302.063251 
L 207.721449 302.056492 
L 207.838953 302.018895 
L 207.858537 302.030799 
L 208.293299 302.011134 
L 208.442136 301.967099 
L 208.58314 301.961485 
L 208.724144 301.954176 
L 208.837731 301.916264 
L 209.174573 301.983694 
L 209.342995 302.060095 
L 209.346912 302.055018 
L 209.675921 302.049729 
L 209.985346 301.999633 
L 210.874454 302.151178 
L 211.019375 302.146746 
L 211.027209 302.154825 
L 211.481555 302.081224 
L 213.396858 302.153213 
L 213.522195 302.142326 
L 213.526112 302.147727 
L 213.718034 302.156463 
L 213.866872 302.119849 
L 214.235049 302.079977 
L 214.51314 287.759136 
L 214.642393 286.976476 
L 214.681561 287.042024 
L 214.779481 287.879256 
L 215.014487 292.584602 
L 215.030154 295.65745 
L 215.13199 302.256029 
L 215.155491 302.253532 
L 215.347413 302.237125 
L 215.35133 302.242595 
L 215.660755 302.250673 
L 215.809593 302.20742 
L 216.107268 302.187105 
L 216.350108 302.129488 
L 216.471528 302.104127 
L 216.636033 302.084876 
L 216.867122 302.125871 
L 217.051211 302.24132 
L 217.172631 302.246429 
L 217.180465 302.255804 
L 217.309718 302.286759 
L 218.09699 302.236535 
L 218.237994 302.237692 
L 218.363331 302.212316 
L 218.480834 302.137282 
L 218.688424 302.143937 
L 218.825511 302.199009 
L 218.856845 302.199798 
L 218.915597 302.256552 
L 219.262623 302.482413 
L 219.458462 302.476132 
L 219.662134 302.387814 
L 219.791388 302.364483 
L 220.065562 302.307832 
L 220.230067 302.269891 
L 220.429822 302.285719 
L 220.774499 302.376309 
L 220.911586 302.432677 
L 221.025172 302.473898 
L 221.134842 302.448245 
L 221.260179 302.430397 
L 221.377682 302.43216 
L 221.28368 302.41332 
L 221.385516 302.419563 
L 221.522603 302.375327 
L 221.553937 302.377816 
L 221.561771 302.357295 
L 221.675357 301.381411 
L 221.882946 301.062314 
L 222.149287 301.234538 
L 222.345126 301.705123 
L 222.450879 302.518483 
L 222.458713 302.510333 
L 222.587966 302.548039 
L 222.591883 302.545339 
L 223.108898 302.505143 
L 223.336071 302.519469 
L 223.935337 302.459676 
L 224.27218 302.278296 
L 224.401434 302.267026 
L 224.424934 302.250601 
L 224.50327 302.310973 
L 224.891031 302.537544 
L 225.032035 302.571639 
L 225.184789 302.660442 
L 225.321876 302.696096 
L 225.494214 302.666442 
L 226.073897 302.575461 
L 226.242319 302.636226 
L 226.426407 302.641866 
L 226.536077 302.606726 
L 226.657497 302.470957 
L 226.673164 299.516303 
L 226.798501 293.557907 
L 227.057008 290.467775 
L 227.092259 290.415807 
L 227.147094 290.532139 
L 227.288098 291.809468 
L 227.452603 296.167967 
L 227.577939 302.292815 
L 227.707193 302.463056 
L 227.83253 302.543532 
L 227.950033 302.550418 
L 228.07537 302.527608 
L 228.079287 302.53067 
L 228.690304 302.624369 
L 229.203402 302.622136 
L 229.340489 302.582705 
L 232.317239 302.60892 
L 232.399491 302.598874 
L 232.430826 302.62345 
L 232.712833 302.62041 
L 233.104511 302.695499 
L 233.30035 302.711786 
L 233.425687 302.777953 
L 233.805614 302.835478 
L 233.903534 302.860455 
L 233.911367 302.868559 
L 234.032787 302.866371 
L 234.197292 302.841741 
L 234.514551 302.776689 
L 234.749557 302.764823 
L 234.886644 302.74689 
L 235.102067 302.702829 
L 235.356658 302.713201 
L 235.517245 302.697364 
L 235.521162 302.704201 
L 235.889339 302.715563 
L 236.065594 302.694622 
L 236.194848 302.690275 
L 236.198765 302.68456 
L 236.604543 302.712147 
L 236.733796 302.779388 
L 236.737713 302.775953 
L 237.035388 302.859778 
L 237.160725 302.883315 
L 237.278228 302.866185 
L 237.489734 302.835995 
L 237.650322 302.82962 
L 237.881412 302.882825 
L 237.979331 302.937117 
L 237.983248 302.943837 
L 238.073334 302.965733 
L 238.096834 302.945432 
L 238.237838 302.957637 
L 238.241755 302.954155 
L 238.371009 302.953109 
L 238.374926 302.957934 
L 238.484595 302.959026 
L 238.492429 302.943805 
L 238.621683 302.886855 
L 238.625599 302.888387 
L 238.739186 302.859996 
L 238.89194 302.863607 
L 239.017277 302.855069 
L 239.068195 302.847903 
L 239.119113 302.897493 
L 239.248367 302.934322 
L 239.252284 302.930264 
L 239.346286 302.974069 
L 239.350203 302.979053 
L 239.47554 302.998447 
L 241.183254 302.91438 
L 241.296841 302.888624 
L 241.441762 302.900338 
L 241.602349 302.963501 
L 241.606266 302.959749 
L 241.719853 302.984606 
L 241.6141 302.967477 
L 241.723769 302.990506 
L 241.986194 303.00906 
L 242.09978 303.01343 
L 242.397455 302.998726 
L 242.863551 302.94108 
L 243.012389 302.964404 
L 243.016306 302.971368 
L 243.239562 302.997793 
L 243.345315 303.035024 
L 243.349232 303.041081 
L 244.532098 302.969031 
L 244.688769 302.88747 
L 244.692686 302.890065 
L 245.268452 302.92735 
L 245.472125 303.015373 
L 245.56221 303.045349 
L 245.577878 303.061506 
L 245.957805 303.170052 
L 246.094892 303.157538 
L 246.098809 303.164251 
L 246.459152 303.036503 
L 246.580572 303.033166 
L 246.588406 303.039528 
L 246.745077 303.023912 
L 246.886081 302.997608 
L 246.980084 302.992306 
L 246.995751 302.977786 
L 248.021946 303.154886 
L 248.159033 303.168049 
L 248.280453 303.186783 
L 248.28437 303.181462 
L 248.499793 303.121489 
L 248.687798 303.135979 
L 249.334066 303.295325 
L 249.502488 303.289317 
L 249.612157 303.277083 
L 249.623908 303.258703 
L 250.148756 303.274684 
L 250.368095 303.308622 
L 250.489515 303.315767 
L 250.614852 303.35331 
L 250.736272 303.33433 
L 250.947778 303.280031 
L 251.096616 303.251964 
L 251.221953 303.240902 
L 251.558795 256.469506 
L 251.680215 254.258274 
L 251.719383 254.55286 
L 251.836886 258.120408 
L 252.009225 269.713158 
L 252.18548 302.901948 
L 252.471404 303.147071 
L 252.878749 303.243035 
L 253.066754 303.263649 
L 253.203841 303.217151 
L 253.367954 303.209331 
L 254.257063 303.280198 
L 254.597822 303.265104 
L 254.75841 303.316243 
L 254.762327 303.304413 
L 255.060002 303.336257 
L 255.173588 303.002715 
L 255.287175 302.942265 
L 255.47518 302.836039 
L 255.479097 302.843438 
L 255.725854 302.878453 
L 255.843357 299.694878 
L 255.870775 299.751558 
L 256.125365 298.908594 
L 256.129282 298.912127 
L 256.266369 299.206978 
L 256.509209 300.587299 
L 256.634546 303.259264 
L 256.646296 303.256567 
L 257.116309 303.219402 
L 257.574572 303.373238 
L 257.801745 303.353846 
L 258.056336 303.405893 
L 258.181673 303.375456 
L 258.189506 303.386608 
L 258.303093 303.383722 
L 258.749605 303.407372 
L 258.863192 303.448383 
L 258.968945 303.468374 
L 258.984612 303.46207 
L 259.184367 303.477407 
L 259.897221 303.388941 
L 260.014724 303.407685 
L 260.210563 303.361017 
L 260.351567 303.426992 
L 260.747161 303.515206 
L 260.888165 303.473934 
L 260.892082 303.482203 
L 260.95475 303.509033 
L 261.001752 303.459616 
L 261.624519 303.395038 
L 261.863443 303.421825 
L 261.992696 296.4342 
L 262.262954 294.254818 
L 262.36479 294.497415 
L 262.509711 295.725235 
L 262.646798 297.526227 
L 262.760384 303.290424 
L 262.772135 303.290259 
L 262.885721 303.295911 
L 262.897472 303.308195 
L 263.046309 303.385923 
L 263.058059 303.371591 
L 263.727828 303.548123 
L 263.845331 303.561405 
L 264.334929 303.525814 
L 264.569935 303.521022 
L 264.714856 303.585594 
L 264.844109 303.61014 
L 265.521712 303.633713 
L 265.56088 303.638537 
L 265.607881 303.60271 
L 265.627465 303.603301 
L 268.048033 303.574799 
L 268.189037 303.554753 
L 268.286956 303.534607 
L 268.302623 303.52247 
L 268.42796 303.530335 
L 268.435794 303.546312 
L 268.870556 303.731282 
L 269.01156 303.718184 
L 269.164314 303.709358 
L 269.309235 303.65631 
L 269.313151 303.662023 
L 270.10434 303.71103 
L 270.167009 303.207996 
L 270.327597 292.802711 
L 270.599813 289.303179 
L 270.674231 289.439432 
L 270.768234 290.286094 
L 270.948406 293.963674 
L 271.097243 302.572832 
L 271.226497 303.108011 
L 271.582923 303.420525 
L 271.731761 303.469415 
L 271.974601 303.528464 
L 272.456365 303.629944 
L 272.530783 303.639608 
L 272.566034 303.602466 
L 272.930295 303.554262 
L 273.090882 303.570032 
L 273.345473 303.624228 
L 273.509978 303.714262 
L 273.662732 303.742796 
L 273.854654 303.744575 
L 273.94474 303.736457 
L 273.964324 303.758832 
L 274.06616 303.760173 
L 274.07791 303.740804 
L 274.277666 303.801072 
L 274.504839 303.886708 
L 274.508756 303.880493 
L 274.641926 303.907999 
L 274.865182 303.885702 
L 274.986602 303.83637 
L 274.994436 303.84563 
L 275.139357 303.802213 
L 275.636787 303.724883 
L 275.769958 303.726771 
L 275.773874 303.72158 
L 275.887461 303.705866 
L 275.895294 303.715524 
L 276.145968 303.775952 
L 276.32614 303.836139 
L 276.627732 303.820368 
L 276.756985 303.860935 
L 276.760902 303.855473 
L 277.179997 303.842326 
L 277.321001 303.825124 
L 277.473755 303.81544 
L 277.481589 303.799125 
L 277.681344 303.80505 
L 277.798848 303.803196 
L 277.963352 303.802471 
L 277.967269 303.80799 
L 278.135691 303.829824 
L 278.315862 303.812315 
L 278.480367 303.783134 
L 278.605704 303.753686 
L 278.613537 303.765182 
L 278.762375 303.73599 
L 278.895545 303.755611 
L 279.146219 303.83021 
L 279.263722 303.870091 
L 279.416476 303.896567 
L 280.826516 303.818849 
L 280.951853 303.862321 
L 281.092857 303.887635 
L 281.245611 303.898114 
L 281.253445 303.881904 
L 281.833128 303.91086 
L 282.526397 303.910053 
L 282.698735 303.943203 
L 283.015994 303.947157 
L 283.149164 303.961871 
L 283.286252 303.966803 
L 283.45859 304.035311 
L 283.619178 304.027642 
L 283.795433 304.034026 
L 283.799349 304.028821 
L 283.838517 304.033825 
L 283.952104 302.955224 
L 284.230195 302.603104 
L 284.238028 302.614135 
L 284.332031 302.688208 
L 284.586621 303.063357 
L 284.621872 303.147125 
L 284.731542 304.024381 
L 284.735459 304.014244 
L 285.236806 304.050195 
L 285.358226 304.06823 
L 285.565816 304.025446 
L 285.577566 304.031363 
L 285.70682 303.950061 
L 285.859574 303.923644 
L 286.016245 303.93849 
L 286.129831 303.910542 
L 286.133748 303.903768 
L 286.255168 303.886085 
L 286.259085 303.893797 
L 286.686014 303.87794 
L 286.874019 303.905543 
L 287.410617 304.002166 
L 287.977375 303.882349 
L 288.134046 303.910888 
L 288.137963 303.903007 
L 288.192798 303.960621 
L 288.231965 303.951253 
L 288.39647 303.997687 
L 288.674561 303.816085 
L 288.678478 303.82717 
L 288.960486 303.760656 
L 289.077989 303.779382 
L 289.258161 303.843274 
L 289.33258 303.924548 
L 289.516668 303.998484 
L 289.618504 303.988483 
L 289.638088 304.006315 
L 289.861344 304.095045 
L 290.014099 304.104022 
L 290.159019 304.106618 
L 290.832705 304.112541 
L 290.950208 304.109301 
L 290.961959 304.097568 
L 291.819733 304.04997 
L 291.96857 304.115946 
L 292.093907 304.120667 
L 292.230994 304.094839 
L 292.775426 303.952816 
L 293.327692 304.086635 
L 293.441278 304.090937 
L 293.445195 304.094651 
L 294.248134 304.0993 
L 294.377388 304.163831 
L 294.70248 304.327562 
L 294.816067 304.336469 
L 294.972738 304.323379 
L 295.109825 304.290801 
L 295.227328 304.280058 
L 295.380082 304.261209 
L 295.521086 304.245608 
L 295.66209 304.265464 
L 296.206522 304.179877 
L 296.339693 304.191398 
L 296.449362 304.190827 
L 296.457196 304.206765 
L 298.039574 304.21595 
L 298.227579 304.181136 
L 298.360749 304.179042 
L 298.490003 304.222533 
L 298.678008 304.246462 
L 298.799428 304.254077 
L 298.811179 304.269522 
L 298.928682 304.289019 
L 298.932599 304.284294 
L 299.191106 304.304025 
L 299.398695 304.272655 
L 299.5632 304.262127 
L 299.69637 304.250242 
L 299.700287 304.25379 
L 299.786456 304.275311 
L 299.81779 304.248979 
L 299.931377 304.248592 
L 299.935294 304.252819 
L 300.099798 304.236471 
L 300.424891 304.327911 
L 300.565895 304.306084 
L 300.569811 304.309329 
L 300.605062 304.319434 
L 300.663814 304.269308 
L 300.675564 304.280614 
L 300.828319 304.281579 
L 300.953655 304.25401 
L 301.34925 304.24682 
L 301.517671 304.224169 
L 301.521588 304.229702 
L 301.631258 304.228756 
L 301.639091 304.220452 
L 301.909349 304.206199 
L 302.469448 304.331233 
L 302.567367 304.403093 
L 302.575201 304.398736 
L 302.727955 291.291256 
L 302.986462 287.80449 
L 303.009963 287.806171 
L 303.041297 287.914867 
L 303.170551 289.347217 
L 303.362473 294.757088 
L 303.48781 304.107136 
L 303.714983 304.164175 
L 303.824653 304.219912 
L 306.084633 304.419903 
L 306.617314 304.367205 
L 306.813153 304.380105 
L 306.969824 304.370317 
L 307.153913 304.338005 
L 307.271416 304.34163 
L 307.283166 304.357975 
L 307.479005 304.435481 
L 307.945101 304.416403 
L 308.403364 304.300932 
L 308.540451 304.322023 
L 308.748041 304.445419 
L 308.936046 304.497179 
L 309.057466 304.516291 
L 309.061383 304.512455 
L 309.19847 304.500206 
L 309.339474 304.473992 
L 309.44131 304.444715 
L 309.449144 304.438128 
L 309.597981 304.463474 
L 309.688067 304.394154 
L 310.914018 304.521161 
L 311.043272 304.49913 
L 311.152941 304.503935 
L 311.164692 304.486611 
L 311.305696 304.452543 
L 311.313529 304.458119 
L 311.642538 304.465158 
L 312.045966 304.562438 
L 312.288807 304.599101 
L 312.51598 304.602639 
L 312.668734 304.614388 
L 313.832017 304.549168 
L 314.294196 304.617013 
L 314.407783 304.644064 
L 315.245973 304.584805 
L 315.414394 304.570748 
L 315.574982 304.564591 
L 315.633734 304.594449 
L 315.684652 304.546044 
L 316.624678 304.818538 
L 316.761765 304.737353 
L 316.859685 304.713126 
L 316.871435 304.694336 
L 317.65479 304.608038 
L 317.819295 304.638918 
L 317.823212 304.634326 
L 317.952465 304.611072 
L 317.960299 304.618266 
L 318.312809 304.675318 
L 319.072663 304.642896 
L 319.194084 304.671794 
L 319.198 304.665621 
L 319.824685 304.609556 
L 319.989189 304.664252 
L 320.118443 304.717257 
L 320.192862 304.726617 
L 320.232029 304.706532 
L 320.494453 304.754428 
L 320.627624 304.741354 
L 320.631541 304.735323 
L 320.772544 304.708268 
L 320.776461 304.712538 
L 321.211223 304.763698 
L 321.320893 304.734701 
L 321.340477 304.744281 
L 321.348311 304.75584 
L 321.469731 304.787553 
L 321.630319 304.781395 
L 321.818324 304.766429 
L 321.939744 304.722786 
L 321.943661 304.728332 
L 322.127749 304.708489 
L 322.253086 304.655168 
L 322.567603 304.656076 
L 322.873112 304.710278 
L 323.006282 304.675752 
L 323.014116 304.686728 
L 323.186454 304.694414 
L 323.711302 304.700622 
L 323.836639 304.702653 
L 324.040311 304.663703 
L 324.435906 304.662558 
L 324.870668 304.817673 
L 324.992088 304.795326 
L 325.364182 304.746048 
L 326.476546 304.829497 
L 326.61755 304.820669 
L 326.766388 304.815761 
L 326.770304 304.822942 
L 326.946559 304.807548 
L 327.052312 304.774848 
L 327.060146 304.766096 
L 328.262596 304.734638 
L 328.419267 304.835239 
L 328.423184 304.83084 
L 329.006784 304.888113 
L 330.119148 304.960975 
L 330.260152 304.960905 
L 330.463825 304.921578 
L 331.634941 304.894095 
L 331.779861 304.819457 
L 332.140205 304.775657 
L 332.598468 304.945182 
L 332.712054 304.989908 
L 332.833474 304.977193 
L 333.017563 304.921426 
L 333.178151 304.893604 
L 333.597246 304.933263 
L 333.898838 304.967118 
L 334.408019 304.907354 
L 334.690026 304.935059 
L 334.846697 304.902056 
L 334.854531 304.908582 
L 335.238375 304.893981 
L 335.398963 304.869843 
L 335.40288 304.875662 
L 335.563468 304.888389 
L 335.696638 304.884637 
L 336.950006 305.044275 
L 337.094927 304.987082 
L 337.098844 304.989295 
L 337.3221 304.934425 
L 337.604108 304.868542 
L 337.749029 304.904187 
L 340.817432 305.148789 
L 341.091606 305.083541 
L 341.393198 305.059811 
L 341.530285 305.072463 
L 341.671289 305.084584 
L 341.679122 305.075117 
L 341.804459 305.065536 
L 341.808376 305.068438 
L 342.920741 305.161172 
L 343.065661 305.214726 
L 343.285001 305.273627 
L 343.288918 305.267789 
L 343.390754 305.269532 
L 343.410338 305.288646 
L 344.369948 305.110027 
L 344.526619 305.122296 
L 344.871295 305.088888 
L 344.984882 305.057278 
L 344.988799 305.04358 
L 345.121969 305.010051 
L 345.27864 305.013193 
L 345.979743 305.157593 
L 346.108997 305.184989 
L 346.316586 305.189021 
L 346.441923 305.21444 
L 346.594677 305.250476 
L 346.735681 305.214907 
L 346.908019 305.208262 
L 347.742292 305.209886 
L 347.875463 305.235045 
L 347.87938 305.232579 
L 348.020384 305.263403 
L 348.506064 305.282523 
L 348.654901 305.262141 
L 348.686236 305.274804 
L 348.697986 305.262665 
L 348.862491 275.873745 
L 349.038745 266.679485 
L 349.156249 264.987676 
L 349.199333 265.231094 
L 349.31292 268.028326 
L 349.481341 276.545417 
L 349.634095 302.231872 
L 349.771183 304.830357 
L 349.916103 305.026623 
L 350.233362 305.17697 
L 350.343032 305.173325 
L 350.354782 305.183192 
L 350.969716 305.161142 
L 351.130304 305.210046 
L 351.138138 305.202877 
L 351.753072 305.266662 
L 351.897992 305.240724 
L 352.089914 305.286189 
L 352.391506 305.313651 
L 352.563844 305.294583 
L 352.834102 305.198159 
L 352.963355 305.187003 
L 353.327616 305.205557 
L 353.464703 305.237618 
L 353.586123 305.246894 
L 353.59004 305.253378 
L 353.73496 305.291138 
L 354.204974 305.216377 
L 354.342061 305.214807 
L 354.545733 305.189723 
L 354.686737 305.193821 
L 354.690654 305.183259 
L 355.02358 305.185176 
L 355.192001 305.220473 
L 355.438758 305.242953 
L 355.575845 305.259306 
L 355.763851 305.22303 
L 355.889188 305.219462 
L 357.240084 305.232647 
L 357.298835 305.23358 
L 357.345837 305.263799 
L 357.565176 305.30587 
L 357.874602 305.309462 
L 357.984271 305.325278 
L 357.992105 305.334999 
L 358.231028 305.341934 
L 358.321114 305.333564 
L 358.352448 305.353497 
L 358.618789 305.400191 
L 358.795044 305.35713 
L 358.951715 305.379903 
L 359.13972 305.3679 
L 359.519648 305.388771 
L 359.59015 305.379848 
L 359.617567 305.348964 
L 359.774238 305.252862 
L 359.864324 305.245254 
L 359.891741 305.218207 
L 360.111081 305.172965 
L 360.114998 305.178856 
L 360.475341 305.261227 
L 360.585011 305.305457 
L 360.745599 305.313082 
L 360.949271 305.361411 
L 361.066774 305.354127 
L 362.872408 305.347519 
L 363.095665 305.286203 
L 363.228835 305.350744 
L 363.342422 305.370637 
L 363.354172 305.386124 
L 363.694931 305.535821 
L 364.023941 305.582444 
L 364.13361 305.557757 
L 364.137527 305.553896 
L 364.282448 305.553343 
L 364.286365 305.559449 
L 364.760295 305.448484 
L 364.881715 305.424541 
L 365.289059 305.505043 
L 365.42223 305.458921 
L 365.430063 305.463947 
L 365.618069 305.441347 
L 367.071193 305.501421 
L 367.247448 305.528748 
L 367.611708 305.497027 
L 367.764462 303.154974 
L 368.038637 302.441756 
L 368.085638 302.448614 
L 368.132639 302.49604 
L 368.422481 304.027338 
L 368.5204 305.457915 
L 368.547818 305.45518 
L 370.028359 305.514727 
L 370.157613 305.520927 
L 370.161529 305.515561 
L 370.247699 305.514394 
L 370.267282 305.537753 
L 370.329951 305.554969 
L 370.380869 305.534292 
L 370.529706 305.526612 
L 370.67071 305.576235 
L 370.674627 305.572281 
L 370.823465 305.617436 
L 371.007553 305.617103 
L 371.395314 305.562091 
L 371.516734 305.564208 
L 371.520651 305.553202 
L 371.798742 305.577633 
L 371.939746 305.593859 
L 372.076833 305.621654 
L 372.217837 305.587769 
L 372.343174 305.531417 
L 372.570347 305.495045 
L 372.695684 305.459801 
L 372.860188 305.454271 
L 373.020776 305.529923 
L 373.811965 305.487734 
L 374.054805 305.632277 
L 375.139752 305.620185 
L 375.241589 305.601075 
L 375.253339 305.621315 
L 375.617599 305.595984 
L 376.024944 305.595384 
L 376.162031 305.593107 
L 376.910135 305.46513 
L 377.06289 305.506581 
L 377.070723 305.496497 
L 377.591654 305.56974 
L 377.716991 305.575368 
L 377.724825 305.56679 
L 377.854078 305.548759 
L 378.234006 305.620962 
L 378.308425 305.656066 
L 378.324092 305.676225 
L 378.445512 305.702662 
L 378.449429 305.697183 
L 378.559098 305.71453 
L 378.563015 305.720464 
L 378.829356 305.638181 
L 379.036945 305.524349 
L 379.040862 305.528097 
L 379.828134 305.599369 
L 379.890802 305.557833 
L 379.953471 305.589 
L 380.18456 305.70762 
L 380.200228 305.700196 
L 380.317731 305.732141 
L 381.24209 305.601418 
L 381.375261 305.594131 
L 381.563266 305.632465 
L 381.860941 305.778766 
L 381.864858 305.770047 
L 382.072447 305.713328 
L 382.166449 305.713513 
L 382.186033 305.705415 
L 382.644296 305.579808 
L 382.800967 305.603708 
L 383.486403 305.719758 
L 383.596073 305.714962 
L 383.59999 305.707742 
L 383.791912 305.678456 
L 383.940749 305.694192 
L 384.066086 305.696386 
L 385.40954 305.727629 
L 385.433041 305.736803 
L 385.51921 305.74234 
L 387.571601 305.89633 
L 387.673437 305.878386 
L 387.681271 305.86725 
L 387.830108 305.877973 
L 388.245287 305.83003 
L 388.358873 305.815391 
L 388.37454 305.833458 
L 388.644798 305.836717 
L 388.774051 305.852641 
L 388.781885 305.842057 
L 388.915055 305.811415 
L 388.918972 305.815955 
L 389.874666 305.802018 
L 389.996086 305.802565 
L 390.000002 305.799384 
L 390.188008 305.824603 
L 390.321178 305.791951 
L 390.497433 305.774817 
L 390.591436 305.73772 
L 390.532684 305.746742 
L 390.595352 305.73414 
L 390.708939 305.723218 
L 390.712856 305.727844 
L 390.85386 305.787845 
L 390.979197 305.771354 
L 391.182869 305.864264 
L 391.186786 305.859578 
L 391.308206 305.88573 
L 391.558879 305.853629 
L 391.723384 305.848882 
L 391.856554 305.801007 
L 391.997558 305.75263 
L 392.447988 305.882186 
L 392.573325 305.890636 
L 392.581158 305.904336 
L 392.800498 305.929925 
L 392.99242 305.913847 
L 393.11384 305.900622 
L 393.117756 305.90552 
L 393.13734 305.890966 
L 393.24701 305.89823 
L 393.438932 305.880506 
L 393.552519 305.866145 
L 393.697439 305.843537 
L 393.861944 305.871283 
L 394.018615 305.885777 
L 394.022532 305.877299 
L 394.163536 305.917902 
L 394.32804 305.940398 
L 394.445544 305.935783 
L 394.500379 305.955461 
L 394.555213 305.929442 
L 394.739302 305.910051 
L 394.743219 305.916106 
L 394.876389 305.931551 
L 394.970392 305.903151 
L 395.005643 305.937145 
L 395.134896 305.976984 
L 395.14273 305.964481 
L 395.354236 306.026238 
L 395.475656 305.959313 
L 395.503073 305.977432 
L 395.632327 305.942638 
L 395.84775 305.834297 
L 396.016171 305.798851 
L 396.149342 305.804099 
L 396.157175 305.81843 
L 396.251178 305.875957 
L 396.286429 305.85362 
L 396.627188 305.869513 
L 396.760359 305.890115 
L 397.046283 305.916164 
L 397.422294 305.940334 
L 398.052895 305.90027 
L 398.221316 305.945211 
L 400.171871 306.018768 
L 400.308958 306.051247 
L 400.312875 306.048712 
L 400.481296 306.051713 
L 400.782888 306.034029 
L 401.311653 306.13471 
L 401.421323 306.1166 
L 401.57016 306.068032 
L 402.243846 305.983544 
L 402.326098 306.006511 
L 402.357432 305.992175 
L 402.588522 306.082697 
L 403.183872 306.16117 
L 403.383628 306.161036 
L 403.387544 306.169468 
L 403.403212 306.147796 
L 403.481547 306.121243 
L 403.618634 306.106189 
L 403.685219 306.098355 
L 403.724387 306.071275 
L 403.849724 306.026034 
L 404.018145 305.95436 
L 404.127815 305.912655 
L 404.225735 305.907197 
L 404.245319 305.92633 
L 404.390239 305.960251 
L 404.511659 305.993758 
L 404.515576 306.001966 
L 404.636996 306.017828 
L 404.813251 306.044132 
L 405.259764 306.120845 
L 405.330266 306.107733 
L 405.369433 306.149613 
L 405.533938 306.125276 
L 405.639691 306.066307 
L 405.788528 306.019911 
L 405.906032 305.983091 
L 406.101871 305.929989 
L 406.109704 305.941116 
L 406.289876 305.976559 
L 406.426963 306.020022 
L 406.66197 306.113475 
L 406.669803 306.104516 
L 406.779473 306.111725 
L 406.787306 306.119128 
L 407.284737 306.068564 
L 407.519744 306.032738 
L 407.688165 306.020514 
L 407.872254 305.966962 
L 407.884004 305.983787 
L 408.025008 306.00385 
L 408.260014 306.015527 
L 408.663442 306.109134 
L 408.70966 306.088569 
L 408.776246 306.129521 
L 408.799746 306.139186 
L 408.881999 306.093854 
L 408.999502 306.081055 
L 409.003419 306.07504 
L 409.211008 306.059277 
L 409.340261 306.049871 
L 409.626186 306.10052 
L 409.947362 306.11914 
L 410.186285 306.150989 
L 410.311622 306.186657 
L 410.707216 306.178962 
L 411.17723 306.051474 
L 411.181146 306.05951 
L 411.404403 306.089514 
L 411.408319 306.082622 
L 411.529739 306.083104 
L 412.285677 306.216527 
L 412.411014 306.204528 
L 412.884944 306.128797 
L 413.468544 306.211888 
L 413.617381 306.204776 
L 413.766219 306.252946 
L 413.915056 306.286721 
L 414.071727 306.290473 
L 414.251899 306.276955 
L 414.486906 306.266852 
L 414.702328 306.214437 
L 414.827665 306.216887 
L 415.035254 306.247093 
L 415.595353 306.252006 
L 415.712857 306.21894 
L 415.72069 306.22572 
L 415.96353 306.237577 
L 418.086423 306.204302 
L 418.247011 306.134327 
L 418.356681 306.130295 
L 418.360598 306.128562 
L 418.521186 306.157817 
L 418.756192 306.219992 
L 419.0382 306.262422 
L 420.358154 306.343091 
L 421.145426 306.285459 
L 421.392183 306.28941 
L 421.572354 306.286816 
L 422.837473 306.32531 
L 422.96281 306.350594 
L 423.354488 306.365159 
L 423.585578 306.365057 
L 423.757916 306.350484 
L 423.914587 306.279706 
L 424.03209 306.268058 
L 424.231846 306.206101 
L 424.576522 306.236402 
L 424.791945 306.283631 
L 424.964283 306.340413 
L 424.97995 306.35138 
L 425.097453 306.329976 
L 425.23454 306.384769 
L 425.238457 306.381895 
L 425.355961 306.407315 
L 425.58705 306.444622 
L 425.649719 306.452299 
L 425.602717 306.453058 
L 425.692803 306.480044 
L 426.041396 306.392732 
L 426.624213 306.369513 
L 426.780884 306.408716 
L 426.933638 306.356632 
L 426.937555 306.36131 
L 427.098143 306.345778 
L 427.239147 306.303864 
L 427.481987 306.296276 
L 427.619074 306.347573 
L 428.868526 306.440199 
L 428.978195 306.453565 
L 428.982112 306.456156 
L 429.843803 306.398864 
L 429.96914 306.386328 
L 430.482238 306.425473 
L 430.646742 306.450709 
L 430.975751 306.411329 
L 431.120672 306.439821 
L 431.316511 306.406555 
L 431.559351 306.438947 
L 431.684688 306.484184 
L 431.692522 306.469976 
L 431.915778 306.43718 
L 432.033281 306.445851 
L 432.037198 306.450085 
L 432.236953 306.452547 
L 432.554212 306.477206 
L 432.804886 306.475396 
L 432.922389 306.47723 
L 433.239648 306.514707 
L 433.991669 306.553256 
L 434.132673 306.552756 
L 434.13659 306.542943 
L 434.297178 306.520596 
L 434.305011 306.529852 
L 434.418598 306.499295 
L 434.524351 306.437863 
L 434.551768 306.45721 
L 434.978697 306.471433 
L 435.151035 306.479277 
L 435.319457 306.520492 
L 435.495712 306.483395 
L 435.617132 306.477076 
L 435.621048 306.482233 
L 437.555936 306.634899 
L 437.669522 306.615601 
L 437.755692 306.62385 
L 437.756475 306.612961 
" clip-path="url(#p39218aec9f)" style="fill: none; stroke: #76b900; stroke-opacity: 0.7; stroke-width: 1.5; stroke-linecap: square"/>
   </g>
   <g id="patch_3">
    <path d="M 46.08 311.04 
L 46.08 69.12 
" style="fill: none; stroke: #000000; stroke-width: 0.8; stroke-linejoin: miter; stroke-linecap: square"/>
   </g>
   <g id="patch_4">
    <path d="M 437.76 311.04 
L 437.76 69.12 
" style="fill: none; stroke: #000000; stroke-width: 0.8; stroke-linejoin: miter; stroke-linecap: square"/>
   </g>
   <g id="patch_5">
    <path d="M 46.08 311.04 
L 437.76 311.04 
" style="fill: none; stroke: #000000; stroke-width: 0.8; stroke-linejoin: miter; stroke-linecap: square"/>
   </g>
   <g id="patch_6">
    <path d="M 46.08 69.12 
L 437.76 69.12 
" style="fill: none; stroke: #000000; stroke-width: 0.8; stroke-linejoin: miter; stroke-linecap: square"/>
   </g>
   <g id="text_20">
    <!-- Transformer layers: 12 | Hidden size: 768 | Attention heads: 12 | -->
    <g transform="translate(108.136295 53.516812)scale(0.0833 -0.0833)">
     <defs>
      <path id="DejaVuSans-66" d="M 2375 4863 
L 2375 4384 
L 1825 4384 
Q 1516 4384 1395 4259 
Q 1275 4134 1275 3809 
L 1275 3500 
L 2222 3500 
L 2222 3053 
L 1275 3053 
L 1275 0 
L 697 0 
L 697 3053 
L 147 3053 
L 147 3500 
L 697 3500 
L 697 3744 
Q 697 4328 969 4595 
Q 1241 4863 1831 4863 
L 2375 4863 
z
" transform="scale(0.015625)"/>
      <path id="DejaVuSans-6d" d="M 3328 2828 
Q 3544 3216 3844 3400 
Q 4144 3584 4550 3584 
Q 5097 3584 5394 3201 
Q 5691 2819 5691 2113 
L 5691 0 
L 5113 0 
L 5113 2094 
Q 5113 2597 4934 2840 
Q 4756 3084 4391 3084 
Q 3944 3084 3684 2787 
Q 3425 2491 3425 1978 
L 3425 0 
L 2847 0 
L 2847 2094 
Q 2847 2600 2669 2842 
Q 2491 3084 2119 3084 
Q 1678 3084 1418 2786 
Q 1159 2488 1159 1978 
L 1159 0 
L 581 0 
L 581 3500 
L 1159 3500 
L 1159 2956 
Q 1356 3278 1631 3431 
Q 1906 3584 2284 3584 
Q 2666 3584 2933 3390 
Q 3200 3197 3328 2828 
z
" transform="scale(0.015625)"/>
      <path id="DejaVuSans-79" d="M 2059 -325 
Q 1816 -950 1584 -1140 
Q 1353 -1331 966 -1331 
L 506 -1331 
L 506 -850 
L 844 -850 
Q 1081 -850 1212 -737 
Q 1344 -625 1503 -206 
L 1606 56 
L 191 3500 
L 800 3500 
L 1894 763 
L 2988 3500 
L 3597 3500 
L 2059 -325 
z
" transform="scale(0.015625)"/>
      <path id="DejaVuSans-3a" d="M 750 794 
L 1409 794 
L 1409 0 
L 750 0 
L 750 794 
z
M 750 3309 
L 1409 3309 
L 1409 2516 
L 750 2516 
L 750 3309 
z
" transform="scale(0.015625)"/>
      <path id="DejaVuSans-7c" d="M 1344 4891 
L 1344 -1509 
L 813 -1509 
L 813 4891 
L 1344 4891 
z
" transform="scale(0.015625)"/>
      <path id="DejaVuSans-48" d="M 628 4666 
L 1259 4666 
L 1259 2753 
L 3553 2753 
L 3553 4666 
L 4184 4666 
L 4184 0 
L 3553 0 
L 3553 2222 
L 1259 2222 
L 1259 0 
L 628 0 
L 628 4666 
z
" transform="scale(0.015625)"/>
      <path id="DejaVuSans-64" d="M 2906 2969 
L 2906 4863 
L 3481 4863 
L 3481 0 
L 2906 0 
L 2906 525 
Q 2725 213 2448 61 
Q 2172 -91 1784 -91 
Q 1150 -91 751 415 
Q 353 922 353 1747 
Q 353 2572 751 3078 
Q 1150 3584 1784 3584 
Q 2172 3584 2448 3432 
Q 2725 3281 2906 2969 
z
M 947 1747 
Q 947 1113 1208 752 
Q 1469 391 1925 391 
Q 2381 391 2643 752 
Q 2906 1113 2906 1747 
Q 2906 2381 2643 2742 
Q 2381 3103 1925 3103 
Q 1469 3103 1208 2742 
Q 947 2381 947 1747 
z
" transform="scale(0.015625)"/>
      <path id="DejaVuSans-7a" d="M 353 3500 
L 3084 3500 
L 3084 2975 
L 922 459 
L 3084 459 
L 3084 0 
L 275 0 
L 275 525 
L 2438 3041 
L 353 3041 
L 353 3500 
z
" transform="scale(0.015625)"/>
      <path id="DejaVuSans-37" d="M 525 4666 
L 3525 4666 
L 3525 4397 
L 1831 0 
L 1172 0 
L 2766 4134 
L 525 4134 
L 525 4666 
z
" transform="scale(0.015625)"/>
      <path id="DejaVuSans-41" d="M 2188 4044 
L 1331 1722 
L 3047 1722 
L 2188 4044 
z
M 1831 4666 
L 2547 4666 
L 4325 0 
L 3669 0 
L 3244 1197 
L 1141 1197 
L 716 0 
L 50 0 
L 1831 4666 
z
" transform="scale(0.015625)"/>
      <path id="DejaVuSans-68" d="M 3513 2113 
L 3513 0 
L 2938 0 
L 2938 2094 
Q 2938 2591 2744 2837 
Q 2550 3084 2163 3084 
Q 1697 3084 1428 2787 
Q 1159 2491 1159 1978 
L 1159 0 
L 581 0 
L 581 4863 
L 1159 4863 
L 1159 2956 
Q 1366 3272 1645 3428 
Q 1925 3584 2291 3584 
Q 2894 3584 3203 3211 
Q 3513 2838 3513 2113 
z
" transform="scale(0.015625)"/>
     </defs>
     <use xlink:href="#DejaVuSans-54"/>
     <use xlink:href="#DejaVuSans-72" x="46.333984"/>
     <use xlink:href="#DejaVuSans-61" x="87.447266"/>
     <use xlink:href="#DejaVuSans-6e" x="148.726562"/>
     <use xlink:href="#DejaVuSans-73" x="212.105469"/>
     <use xlink:href="#DejaVuSans-66" x="264.205078"/>
     <use xlink:href="#DejaVuSans-6f" x="299.410156"/>
     <use xlink:href="#DejaVuSans-72" x="360.591797"/>
     <use xlink:href="#DejaVuSans-6d" x="399.955078"/>
     <use xlink:href="#DejaVuSans-65" x="497.367188"/>
     <use xlink:href="#DejaVuSans-72" x="558.890625"/>
     <use xlink:href="#DejaVuSans-20" x="600.003906"/>
     <use xlink:href="#DejaVuSans-6c" x="631.791016"/>
     <use xlink:href="#DejaVuSans-61" x="659.574219"/>
     <use xlink:href="#DejaVuSans-79" x="720.853516"/>
     <use xlink:href="#DejaVuSans-65" x="780.033203"/>
     <use xlink:href="#DejaVuSans-72" x="841.556641"/>
     <use xlink:href="#DejaVuSans-73" x="882.669922"/>
     <use xlink:href="#DejaVuSans-3a" x="934.769531"/>
     <use xlink:href="#DejaVuSans-20" x="968.460938"/>
     <use xlink:href="#DejaVuSans-31" x="1000.248047"/>
     <use xlink:href="#DejaVuSans-32" x="1063.871094"/>
     <use xlink:href="#DejaVuSans-20" x="1127.494141"/>
     <use xlink:href="#DejaVuSans-7c" x="1159.28125"/>
     <use xlink:href="#DejaVuSans-20" x="1192.972656"/>
     <use xlink:href="#DejaVuSans-48" x="1224.759766"/>
     <use xlink:href="#DejaVuSans-69" x="1299.955078"/>
     <use xlink:href="#DejaVuSans-64" x="1327.738281"/>
     <use xlink:href="#DejaVuSans-64" x="1391.214844"/>
     <use xlink:href="#DejaVuSans-65" x="1454.691406"/>
     <use xlink:href="#DejaVuSans-6e" x="1516.214844"/>
     <use xlink:href="#DejaVuSans-20" x="1579.59375"/>
     <use xlink:href="#DejaVuSans-73" x="1611.380859"/>
     <use xlink:href="#DejaVuSans-69" x="1663.480469"/>
     <use xlink:href="#DejaVuSans-7a" x="1691.263672"/>
     <use xlink:href="#DejaVuSans-65" x="1743.753906"/>
     <use xlink:href="#DejaVuSans-3a" x="1805.277344"/>
     <use xlink:href="#DejaVuSans-20" x="1838.96875"/>
     <use xlink:href="#DejaVuSans-37" x="1870.755859"/>
     <use xlink:href="#DejaVuSans-36" x="1934.378906"/>
     <use xlink:href="#DejaVuSans-38" x="1998.001953"/>
     <use xlink:href="#DejaVuSans-20" x="2061.625"/>
     <use xlink:href="#DejaVuSans-7c" x="2093.412109"/>
     <use xlink:href="#DejaVuSans-20" x="2127.103516"/>
     <use xlink:href="#DejaVuSans-41" x="2158.890625"/>
     <use xlink:href="#DejaVuSans-74" x="2225.548828"/>
     <use xlink:href="#DejaVuSans-74" x="2264.757812"/>
     <use xlink:href="#DejaVuSans-65" x="2303.966797"/>
     <use xlink:href="#DejaVuSans-6e" x="2365.490234"/>
     <use xlink:href="#DejaVuSans-74" x="2428.869141"/>
     <use xlink:href="#DejaVuSans-69" x="2468.078125"/>
     <use xlink:href="#DejaVuSans-6f" x="2495.861328"/>
     <use xlink:href="#DejaVuSans-6e" x="2557.042969"/>
     <use xlink:href="#DejaVuSans-20" x="2620.421875"/>
     <use xlink:href="#DejaVuSans-68" x="2652.208984"/>
     <use xlink:href="#DejaVuSans-65" x="2715.587891"/>
     <use xlink:href="#DejaVuSans-61" x="2777.111328"/>
     <use xlink:href="#DejaVuSans-64" x="2838.390625"/>
     <use xlink:href="#DejaVuSans-73" x="2901.867188"/>
     <use xlink:href="#DejaVuSans-3a" x="2953.966797"/>
     <use xlink:href="#DejaVuSans-20" x="2987.658203"/>
     <use xlink:href="#DejaVuSans-31" x="3019.445312"/>
     <use xlink:href="#DejaVuSans-32" x="3083.068359"/>
     <use xlink:href="#DejaVuSans-20" x="3146.691406"/>
     <use xlink:href="#DejaVuSans-7c" x="3178.478516"/>
    </g>
    <!--  Seq_len: 512 | Optimizer: Adam | Tensor Parallelism: 1 -->
    <g transform="translate(127.726763 63.12)scale(0.0833 -0.0833)">
     <defs>
      <path id="DejaVuSans-53" d="M 3425 4513 
L 3425 3897 
Q 3066 4069 2747 4153 
Q 2428 4238 2131 4238 
Q 1616 4238 1336 4038 
Q 1056 3838 1056 3469 
Q 1056 3159 1242 3001 
Q 1428 2844 1947 2747 
L 2328 2669 
Q 3034 2534 3370 2195 
Q 3706 1856 3706 1288 
Q 3706 609 3251 259 
Q 2797 -91 1919 -91 
Q 1588 -91 1214 -16 
Q 841 59 441 206 
L 441 856 
Q 825 641 1194 531 
Q 1563 422 1919 422 
Q 2459 422 2753 634 
Q 3047 847 3047 1241 
Q 3047 1584 2836 1778 
Q 2625 1972 2144 2069 
L 1759 2144 
Q 1053 2284 737 2584 
Q 422 2884 422 3419 
Q 422 4038 858 4394 
Q 1294 4750 2059 4750 
Q 2388 4750 2728 4690 
Q 3069 4631 3425 4513 
z
" transform="scale(0.015625)"/>
      <path id="DejaVuSans-71" d="M 947 1747 
Q 947 1113 1208 752 
Q 1469 391 1925 391 
Q 2381 391 2643 752 
Q 2906 1113 2906 1747 
Q 2906 2381 2643 2742 
Q 2381 3103 1925 3103 
Q 1469 3103 1208 2742 
Q 947 2381 947 1747 
z
M 2906 525 
Q 2725 213 2448 61 
Q 2172 -91 1784 -91 
Q 1150 -91 751 415 
Q 353 922 353 1747 
Q 353 2572 751 3078 
Q 1150 3584 1784 3584 
Q 2172 3584 2448 3432 
Q 2725 3281 2906 2969 
L 2906 3500 
L 3481 3500 
L 3481 -1331 
L 2906 -1331 
L 2906 525 
z
" transform="scale(0.015625)"/>
      <path id="DejaVuSans-5f" d="M 3263 -1063 
L 3263 -1509 
L -63 -1509 
L -63 -1063 
L 3263 -1063 
z
" transform="scale(0.015625)"/>
      <path id="DejaVuSans-4f" d="M 2522 4238 
Q 1834 4238 1429 3725 
Q 1025 3213 1025 2328 
Q 1025 1447 1429 934 
Q 1834 422 2522 422 
Q 3209 422 3611 934 
Q 4013 1447 4013 2328 
Q 4013 3213 3611 3725 
Q 3209 4238 2522 4238 
z
M 2522 4750 
Q 3503 4750 4090 4092 
Q 4678 3434 4678 2328 
Q 4678 1225 4090 567 
Q 3503 -91 2522 -91 
Q 1538 -91 948 565 
Q 359 1222 359 2328 
Q 359 3434 948 4092 
Q 1538 4750 2522 4750 
z
" transform="scale(0.015625)"/>
      <path id="DejaVuSans-70" d="M 1159 525 
L 1159 -1331 
L 581 -1331 
L 581 3500 
L 1159 3500 
L 1159 2969 
Q 1341 3281 1617 3432 
Q 1894 3584 2278 3584 
Q 2916 3584 3314 3078 
Q 3713 2572 3713 1747 
Q 3713 922 3314 415 
Q 2916 -91 2278 -91 
Q 1894 -91 1617 61 
Q 1341 213 1159 525 
z
M 3116 1747 
Q 3116 2381 2855 2742 
Q 2594 3103 2138 3103 
Q 1681 3103 1420 2742 
Q 1159 2381 1159 1747 
Q 1159 1113 1420 752 
Q 1681 391 2138 391 
Q 2594 391 2855 752 
Q 3116 1113 3116 1747 
z
" transform="scale(0.015625)"/>
      <path id="DejaVuSans-50" d="M 1259 4147 
L 1259 2394 
L 2053 2394 
Q 2494 2394 2734 2622 
Q 2975 2850 2975 3272 
Q 2975 3691 2734 3919 
Q 2494 4147 2053 4147 
L 1259 4147 
z
M 628 4666 
L 2053 4666 
Q 2838 4666 3239 4311 
Q 3641 3956 3641 3272 
Q 3641 2581 3239 2228 
Q 2838 1875 2053 1875 
L 1259 1875 
L 1259 0 
L 628 0 
L 628 4666 
z
" transform="scale(0.015625)"/>
     </defs>
     <use xlink:href="#DejaVuSans-20"/>
     <use xlink:href="#DejaVuSans-53" x="31.787109"/>
     <use xlink:href="#DejaVuSans-65" x="95.263672"/>
     <use xlink:href="#DejaVuSans-71" x="156.787109"/>
     <use xlink:href="#DejaVuSans-5f" x="220.263672"/>
     <use xlink:href="#DejaVuSans-6c" x="270.263672"/>
     <use xlink:href="#DejaVuSans-65" x="298.046875"/>
     <use xlink:href="#DejaVuSans-6e" x="359.570312"/>
     <use xlink:href="#DejaVuSans-3a" x="422.949219"/>
     <use xlink:href="#DejaVuSans-20" x="456.640625"/>
     <use xlink:href="#DejaVuSans-35" x="488.427734"/>
     <use xlink:href="#DejaVuSans-31" x="552.050781"/>
     <use xlink:href="#DejaVuSans-32" x="615.673828"/>
     <use xlink:href="#DejaVuSans-20" x="679.296875"/>
     <use xlink:href="#DejaVuSans-7c" x="711.083984"/>
     <use xlink:href="#DejaVuSans-20" x="744.775391"/>
     <use xlink:href="#DejaVuSans-4f" x="776.5625"/>
     <use xlink:href="#DejaVuSans-70" x="855.273438"/>
     <use xlink:href="#DejaVuSans-74" x="918.75"/>
     <use xlink:href="#DejaVuSans-69" x="957.958984"/>
     <use xlink:href="#DejaVuSans-6d" x="985.742188"/>
     <use xlink:href="#DejaVuSans-69" x="1083.154297"/>
     <use xlink:href="#DejaVuSans-7a" x="1110.9375"/>
     <use xlink:href="#DejaVuSans-65" x="1163.427734"/>
     <use xlink:href="#DejaVuSans-72" x="1224.951172"/>
     <use xlink:href="#DejaVuSans-3a" x="1264.314453"/>
     <use xlink:href="#DejaVuSans-20" x="1298.005859"/>
     <use xlink:href="#DejaVuSans-41" x="1329.792969"/>
     <use xlink:href="#DejaVuSans-64" x="1396.451172"/>
     <use xlink:href="#DejaVuSans-61" x="1459.927734"/>
     <use xlink:href="#DejaVuSans-6d" x="1521.207031"/>
     <use xlink:href="#DejaVuSans-20" x="1618.619141"/>
     <use xlink:href="#DejaVuSans-7c" x="1650.40625"/>
     <use xlink:href="#DejaVuSans-20" x="1684.097656"/>
     <use xlink:href="#DejaVuSans-54" x="1715.884766"/>
     <use xlink:href="#DejaVuSans-65" x="1759.96875"/>
     <use xlink:href="#DejaVuSans-6e" x="1821.492188"/>
     <use xlink:href="#DejaVuSans-73" x="1884.871094"/>
     <use xlink:href="#DejaVuSans-6f" x="1936.970703"/>
     <use xlink:href="#DejaVuSans-72" x="1998.152344"/>
     <use xlink:href="#DejaVuSans-20" x="2039.265625"/>
     <use xlink:href="#DejaVuSans-50" x="2071.052734"/>
     <use xlink:href="#DejaVuSans-61" x="2126.855469"/>
     <use xlink:href="#DejaVuSans-72" x="2188.134766"/>
     <use xlink:href="#DejaVuSans-61" x="2229.248047"/>
     <use xlink:href="#DejaVuSans-6c" x="2290.527344"/>
     <use xlink:href="#DejaVuSans-6c" x="2318.310547"/>
     <use xlink:href="#DejaVuSans-65" x="2346.09375"/>
     <use xlink:href="#DejaVuSans-6c" x="2407.617188"/>
     <use xlink:href="#DejaVuSans-69" x="2435.400391"/>
     <use xlink:href="#DejaVuSans-73" x="2463.183594"/>
     <use xlink:href="#DejaVuSans-6d" x="2515.283203"/>
     <use xlink:href="#DejaVuSans-3a" x="2612.695312"/>
     <use xlink:href="#DejaVuSans-20" x="2646.386719"/>
     <use xlink:href="#DejaVuSans-31" x="2678.173828"/>
    </g>
   </g>
  </g>
  <g id="text_21">
   <!-- 390M mT5 Training Loss -->
   <g transform="translate(157.891875 26.398125)scale(0.12 -0.12)">
    <defs>
     <path id="DejaVuSans-39" d="M 703 97 
L 703 672 
Q 941 559 1184 500 
Q 1428 441 1663 441 
Q 2288 441 2617 861 
Q 2947 1281 2994 2138 
Q 2813 1869 2534 1725 
Q 2256 1581 1919 1581 
Q 1219 1581 811 2004 
Q 403 2428 403 3163 
Q 403 3881 828 4315 
Q 1253 4750 1959 4750 
Q 2769 4750 3195 4129 
Q 3622 3509 3622 2328 
Q 3622 1225 3098 567 
Q 2575 -91 1691 -91 
Q 1453 -91 1209 -44 
Q 966 3 703 97 
z
M 1959 2075 
Q 2384 2075 2632 2365 
Q 2881 2656 2881 3163 
Q 2881 3666 2632 3958 
Q 2384 4250 1959 4250 
Q 1534 4250 1286 3958 
Q 1038 3666 1038 3163 
Q 1038 2656 1286 2365 
Q 1534 2075 1959 2075 
z
" transform="scale(0.015625)"/>
     <path id="DejaVuSans-4d" d="M 628 4666 
L 1569 4666 
L 2759 1491 
L 3956 4666 
L 4897 4666 
L 4897 0 
L 4281 0 
L 4281 4097 
L 3078 897 
L 2444 897 
L 1241 4097 
L 1241 0 
L 628 0 
L 628 4666 
z
" transform="scale(0.015625)"/>
     <path id="DejaVuSans-4c" d="M 628 4666 
L 1259 4666 
L 1259 531 
L 3531 531 
L 3531 0 
L 628 0 
L 628 4666 
z
" transform="scale(0.015625)"/>
    </defs>
    <use xlink:href="#DejaVuSans-33"/>
    <use xlink:href="#DejaVuSans-39" x="63.623047"/>
    <use xlink:href="#DejaVuSans-30" x="127.246094"/>
    <use xlink:href="#DejaVuSans-4d" x="190.869141"/>
    <use xlink:href="#DejaVuSans-20" x="277.148438"/>
    <use xlink:href="#DejaVuSans-6d" x="308.935547"/>
    <use xlink:href="#DejaVuSans-54" x="406.347656"/>
    <use xlink:href="#DejaVuSans-35" x="467.431641"/>
    <use xlink:href="#DejaVuSans-20" x="531.054688"/>
    <use xlink:href="#DejaVuSans-54" x="562.841797"/>
    <use xlink:href="#DejaVuSans-72" x="609.175781"/>
    <use xlink:href="#DejaVuSans-61" x="650.289062"/>
    <use xlink:href="#DejaVuSans-69" x="711.568359"/>
    <use xlink:href="#DejaVuSans-6e" x="739.351562"/>
    <use xlink:href="#DejaVuSans-69" x="802.730469"/>
    <use xlink:href="#DejaVuSans-6e" x="830.513672"/>
    <use xlink:href="#DejaVuSans-67" x="893.892578"/>
    <use xlink:href="#DejaVuSans-20" x="957.369141"/>
    <use xlink:href="#DejaVuSans-4c" x="989.15625"/>
    <use xlink:href="#DejaVuSans-6f" x="1043.119141"/>
    <use xlink:href="#DejaVuSans-73" x="1104.300781"/>
    <use xlink:href="#DejaVuSans-73" x="1156.400391"/>
   </g>
  </g>
 </g>
 <defs>
  <clipPath id="p39218aec9f">
   <rect x="46.08" y="69.12" width="391.68" height="241.92"/>
  </clipPath>
 </defs>
</svg>
