<?xml version="1.0" encoding="utf-8" standalone="no"?>
<!DOCTYPE svg PUBLIC "-//W3C//DTD SVG 1.1//EN"
  "http://www.w3.org/Graphics/SVG/1.1/DTD/svg11.dtd">
<svg xmlns:xlink="http://www.w3.org/1999/xlink" width="460.8pt" height="345.6pt" viewBox="0 0 460.8 345.6" xmlns="http://www.w3.org/2000/svg" version="1.1">
 <metadata>
  <rdf:RDF xmlns:dc="http://purl.org/dc/elements/1.1/" xmlns:cc="http://creativecommons.org/ns#" xmlns:rdf="http://www.w3.org/1999/02/22-rdf-syntax-ns#">
   <cc:Work>
    <dc:type rdf:resource="http://purl.org/dc/dcmitype/StillImage"/>
    <dc:date>2022-04-28T13:07:38.291359</dc:date>
    <dc:format>image/svg+xml</dc:format>
    <dc:creator>
     <cc:Agent>
      <dc:title>Matplotlib v3.5.1, https://matplotlib.org/</dc:title>
     </cc:Agent>
    </dc:creator>
   </cc:Work>
  </rdf:RDF>
 </metadata>
 <defs>
  <style type="text/css">*{stroke-linejoin: round; stroke-linecap: butt}</style>
 </defs>
 <g id="figure_1">
  <g id="patch_1">
   <path d="M 0 345.6 
L 460.8 345.6 
L 460.8 0 
L 0 0 
z
" style="fill: #ffffff"/>
  </g>
  <g id="axes_1">
   <g id="patch_2">
    <path d="M 46.08 311.04 
L 437.76 311.04 
L 437.76 69.12 
L 46.08 69.12 
z
" style="fill: #ffffff"/>
   </g>
   <g id="matplotlib.axis_1">
    <g id="xtick_1">
     <g id="line2d_1">
      <defs>
       <path id="m2091984169" d="M 0 0 
L 0 3.5 
" style="stroke: #000000; stroke-width: 0.8"/>
      </defs>
      <g>
       <use xlink:href="#m2091984169" x="46.080515" y="311.04" style="stroke: #000000; stroke-width: 0.8"/>
      </g>
     </g>
     <g id="text_1">
      <!-- 0 -->
      <g transform="translate(42.899265 325.638438)scale(0.1 -0.1)">
       <defs>
        <path id="DejaVuSans-30" d="M 2034 4250 
Q 1547 4250 1301 3770 
Q 1056 3291 1056 2328 
Q 1056 1369 1301 889 
Q 1547 409 2034 409 
Q 2525 409 2770 889 
Q 3016 1369 3016 2328 
Q 3016 3291 2770 3770 
Q 2525 4250 2034 4250 
z
M 2034 4750 
Q 2819 4750 3233 4129 
Q 3647 3509 3647 2328 
Q 3647 1150 3233 529 
Q 2819 -91 2034 -91 
Q 1250 -91 836 529 
Q 422 1150 422 2328 
Q 422 3509 836 4129 
Q 1250 4750 2034 4750 
z
" transform="scale(0.015625)"/>
       </defs>
       <use xlink:href="#DejaVuSans-30"/>
      </g>
     </g>
    </g>
    <g id="xtick_2">
     <g id="line2d_2">
      <g>
       <use xlink:href="#m2091984169" x="97.616951" y="311.04" style="stroke: #000000; stroke-width: 0.8"/>
      </g>
     </g>
     <g id="text_2">
      <!-- 100000 -->
      <g transform="translate(78.529451 325.638438)scale(0.1 -0.1)">
       <defs>
        <path id="DejaVuSans-31" d="M 794 531 
L 1825 531 
L 1825 4091 
L 703 3866 
L 703 4441 
L 1819 4666 
L 2450 4666 
L 2450 531 
L 3481 531 
L 3481 0 
L 794 0 
L 794 531 
z
" transform="scale(0.015625)"/>
       </defs>
       <use xlink:href="#DejaVuSans-31"/>
       <use xlink:href="#DejaVuSans-30" x="63.623047"/>
       <use xlink:href="#DejaVuSans-30" x="127.246094"/>
       <use xlink:href="#DejaVuSans-30" x="190.869141"/>
       <use xlink:href="#DejaVuSans-30" x="254.492188"/>
       <use xlink:href="#DejaVuSans-30" x="318.115234"/>
      </g>
     </g>
    </g>
    <g id="xtick_3">
     <g id="line2d_3">
      <g>
       <use xlink:href="#m2091984169" x="149.153386" y="311.04" style="stroke: #000000; stroke-width: 0.8"/>
      </g>
     </g>
     <g id="text_3">
      <!-- 200000 -->
      <g transform="translate(130.065886 325.638438)scale(0.1 -0.1)">
       <defs>
        <path id="DejaVuSans-32" d="M 1228 531 
L 3431 531 
L 3431 0 
L 469 0 
L 469 531 
Q 828 903 1448 1529 
Q 2069 2156 2228 2338 
Q 2531 2678 2651 2914 
Q 2772 3150 2772 3378 
Q 2772 3750 2511 3984 
Q 2250 4219 1831 4219 
Q 1534 4219 1204 4116 
Q 875 4013 500 3803 
L 500 4441 
Q 881 4594 1212 4672 
Q 1544 4750 1819 4750 
Q 2544 4750 2975 4387 
Q 3406 4025 3406 3419 
Q 3406 3131 3298 2873 
Q 3191 2616 2906 2266 
Q 2828 2175 2409 1742 
Q 1991 1309 1228 531 
z
" transform="scale(0.015625)"/>
       </defs>
       <use xlink:href="#DejaVuSans-32"/>
       <use xlink:href="#DejaVuSans-30" x="63.623047"/>
       <use xlink:href="#DejaVuSans-30" x="127.246094"/>
       <use xlink:href="#DejaVuSans-30" x="190.869141"/>
       <use xlink:href="#DejaVuSans-30" x="254.492188"/>
       <use xlink:href="#DejaVuSans-30" x="318.115234"/>
      </g>
     </g>
    </g>
    <g id="xtick_4">
     <g id="line2d_4">
      <g>
       <use xlink:href="#m2091984169" x="200.689821" y="311.04" style="stroke: #000000; stroke-width: 0.8"/>
      </g>
     </g>
     <g id="text_4">
      <!-- 300000 -->
      <g transform="translate(181.602321 325.638438)scale(0.1 -0.1)">
       <defs>
        <path id="DejaVuSans-33" d="M 2597 2516 
Q 3050 2419 3304 2112 
Q 3559 1806 3559 1356 
Q 3559 666 3084 287 
Q 2609 -91 1734 -91 
Q 1441 -91 1130 -33 
Q 819 25 488 141 
L 488 750 
Q 750 597 1062 519 
Q 1375 441 1716 441 
Q 2309 441 2620 675 
Q 2931 909 2931 1356 
Q 2931 1769 2642 2001 
Q 2353 2234 1838 2234 
L 1294 2234 
L 1294 2753 
L 1863 2753 
Q 2328 2753 2575 2939 
Q 2822 3125 2822 3475 
Q 2822 3834 2567 4026 
Q 2313 4219 1838 4219 
Q 1578 4219 1281 4162 
Q 984 4106 628 3988 
L 628 4550 
Q 988 4650 1302 4700 
Q 1616 4750 1894 4750 
Q 2613 4750 3031 4423 
Q 3450 4097 3450 3541 
Q 3450 3153 3228 2886 
Q 3006 2619 2597 2516 
z
" transform="scale(0.015625)"/>
       </defs>
       <use xlink:href="#DejaVuSans-33"/>
       <use xlink:href="#DejaVuSans-30" x="63.623047"/>
       <use xlink:href="#DejaVuSans-30" x="127.246094"/>
       <use xlink:href="#DejaVuSans-30" x="190.869141"/>
       <use xlink:href="#DejaVuSans-30" x="254.492188"/>
       <use xlink:href="#DejaVuSans-30" x="318.115234"/>
      </g>
     </g>
    </g>
    <g id="xtick_5">
     <g id="line2d_5">
      <g>
       <use xlink:href="#m2091984169" x="252.226256" y="311.04" style="stroke: #000000; stroke-width: 0.8"/>
      </g>
     </g>
     <g id="text_5">
      <!-- 400000 -->
      <g transform="translate(233.138756 325.638438)scale(0.1 -0.1)">
       <defs>
        <path id="DejaVuSans-34" d="M 2419 4116 
L 825 1625 
L 2419 1625 
L 2419 4116 
z
M 2253 4666 
L 3047 4666 
L 3047 1625 
L 3713 1625 
L 3713 1100 
L 3047 1100 
L 3047 0 
L 2419 0 
L 2419 1100 
L 313 1100 
L 313 1709 
L 2253 4666 
z
" transform="scale(0.015625)"/>
       </defs>
       <use xlink:href="#DejaVuSans-34"/>
       <use xlink:href="#DejaVuSans-30" x="63.623047"/>
       <use xlink:href="#DejaVuSans-30" x="127.246094"/>
       <use xlink:href="#DejaVuSans-30" x="190.869141"/>
       <use xlink:href="#DejaVuSans-30" x="254.492188"/>
       <use xlink:href="#DejaVuSans-30" x="318.115234"/>
      </g>
     </g>
    </g>
    <g id="xtick_6">
     <g id="line2d_6">
      <g>
       <use xlink:href="#m2091984169" x="303.762692" y="311.04" style="stroke: #000000; stroke-width: 0.8"/>
      </g>
     </g>
     <g id="text_6">
      <!-- 500000 -->
      <g transform="translate(284.675192 325.638438)scale(0.1 -0.1)">
       <defs>
        <path id="DejaVuSans-35" d="M 691 4666 
L 3169 4666 
L 3169 4134 
L 1269 4134 
L 1269 2991 
Q 1406 3038 1543 3061 
Q 1681 3084 1819 3084 
Q 2600 3084 3056 2656 
Q 3513 2228 3513 1497 
Q 3513 744 3044 326 
Q 2575 -91 1722 -91 
Q 1428 -91 1123 -41 
Q 819 9 494 109 
L 494 744 
Q 775 591 1075 516 
Q 1375 441 1709 441 
Q 2250 441 2565 725 
Q 2881 1009 2881 1497 
Q 2881 1984 2565 2268 
Q 2250 2553 1709 2553 
Q 1456 2553 1204 2497 
Q 953 2441 691 2322 
L 691 4666 
z
" transform="scale(0.015625)"/>
       </defs>
       <use xlink:href="#DejaVuSans-35"/>
       <use xlink:href="#DejaVuSans-30" x="63.623047"/>
       <use xlink:href="#DejaVuSans-30" x="127.246094"/>
       <use xlink:href="#DejaVuSans-30" x="190.869141"/>
       <use xlink:href="#DejaVuSans-30" x="254.492188"/>
       <use xlink:href="#DejaVuSans-30" x="318.115234"/>
      </g>
     </g>
    </g>
    <g id="xtick_7">
     <g id="line2d_7">
      <g>
       <use xlink:href="#m2091984169" x="355.299127" y="311.04" style="stroke: #000000; stroke-width: 0.8"/>
      </g>
     </g>
     <g id="text_7">
      <!-- 600000 -->
      <g transform="translate(336.211627 325.638438)scale(0.1 -0.1)">
       <defs>
        <path id="DejaVuSans-36" d="M 2113 2584 
Q 1688 2584 1439 2293 
Q 1191 2003 1191 1497 
Q 1191 994 1439 701 
Q 1688 409 2113 409 
Q 2538 409 2786 701 
Q 3034 994 3034 1497 
Q 3034 2003 2786 2293 
Q 2538 2584 2113 2584 
z
M 3366 4563 
L 3366 3988 
Q 3128 4100 2886 4159 
Q 2644 4219 2406 4219 
Q 1781 4219 1451 3797 
Q 1122 3375 1075 2522 
Q 1259 2794 1537 2939 
Q 1816 3084 2150 3084 
Q 2853 3084 3261 2657 
Q 3669 2231 3669 1497 
Q 3669 778 3244 343 
Q 2819 -91 2113 -91 
Q 1303 -91 875 529 
Q 447 1150 447 2328 
Q 447 3434 972 4092 
Q 1497 4750 2381 4750 
Q 2619 4750 2861 4703 
Q 3103 4656 3366 4563 
z
" transform="scale(0.015625)"/>
       </defs>
       <use xlink:href="#DejaVuSans-36"/>
       <use xlink:href="#DejaVuSans-30" x="63.623047"/>
       <use xlink:href="#DejaVuSans-30" x="127.246094"/>
       <use xlink:href="#DejaVuSans-30" x="190.869141"/>
       <use xlink:href="#DejaVuSans-30" x="254.492188"/>
       <use xlink:href="#DejaVuSans-30" x="318.115234"/>
      </g>
     </g>
    </g>
    <g id="xtick_8">
     <g id="line2d_8">
      <g>
       <use xlink:href="#m2091984169" x="406.835562" y="311.04" style="stroke: #000000; stroke-width: 0.8"/>
      </g>
     </g>
     <g id="text_8">
      <!-- 700000 -->
      <g transform="translate(387.748062 325.638438)scale(0.1 -0.1)">
       <defs>
        <path id="DejaVuSans-37" d="M 525 4666 
L 3525 4666 
L 3525 4397 
L 1831 0 
L 1172 0 
L 2766 4134 
L 525 4134 
L 525 4666 
z
" transform="scale(0.015625)"/>
       </defs>
       <use xlink:href="#DejaVuSans-37"/>
       <use xlink:href="#DejaVuSans-30" x="63.623047"/>
       <use xlink:href="#DejaVuSans-30" x="127.246094"/>
       <use xlink:href="#DejaVuSans-30" x="190.869141"/>
       <use xlink:href="#DejaVuSans-30" x="254.492188"/>
       <use xlink:href="#DejaVuSans-30" x="318.115234"/>
      </g>
     </g>
    </g>
    <g id="text_9">
     <!-- Training iteration -->
     <g transform="translate(199.4825 339.316562)scale(0.1 -0.1)">
      <defs>
       <path id="DejaVuSans-54" d="M -19 4666 
L 3928 4666 
L 3928 4134 
L 2272 4134 
L 2272 0 
L 1638 0 
L 1638 4134 
L -19 4134 
L -19 4666 
z
" transform="scale(0.015625)"/>
       <path id="DejaVuSans-72" d="M 2631 2963 
Q 2534 3019 2420 3045 
Q 2306 3072 2169 3072 
Q 1681 3072 1420 2755 
Q 1159 2438 1159 1844 
L 1159 0 
L 581 0 
L 581 3500 
L 1159 3500 
L 1159 2956 
Q 1341 3275 1631 3429 
Q 1922 3584 2338 3584 
Q 2397 3584 2469 3576 
Q 2541 3569 2628 3553 
L 2631 2963 
z
" transform="scale(0.015625)"/>
       <path id="DejaVuSans-61" d="M 2194 1759 
Q 1497 1759 1228 1600 
Q 959 1441 959 1056 
Q 959 750 1161 570 
Q 1363 391 1709 391 
Q 2188 391 2477 730 
Q 2766 1069 2766 1631 
L 2766 1759 
L 2194 1759 
z
M 3341 1997 
L 3341 0 
L 2766 0 
L 2766 531 
Q 2569 213 2275 61 
Q 1981 -91 1556 -91 
Q 1019 -91 701 211 
Q 384 513 384 1019 
Q 384 1609 779 1909 
Q 1175 2209 1959 2209 
L 2766 2209 
L 2766 2266 
Q 2766 2663 2505 2880 
Q 2244 3097 1772 3097 
Q 1472 3097 1187 3025 
Q 903 2953 641 2809 
L 641 3341 
Q 956 3463 1253 3523 
Q 1550 3584 1831 3584 
Q 2591 3584 2966 3190 
Q 3341 2797 3341 1997 
z
" transform="scale(0.015625)"/>
       <path id="DejaVuSans-69" d="M 603 3500 
L 1178 3500 
L 1178 0 
L 603 0 
L 603 3500 
z
M 603 4863 
L 1178 4863 
L 1178 4134 
L 603 4134 
L 603 4863 
z
" transform="scale(0.015625)"/>
       <path id="DejaVuSans-6e" d="M 3513 2113 
L 3513 0 
L 2938 0 
L 2938 2094 
Q 2938 2591 2744 2837 
Q 2550 3084 2163 3084 
Q 1697 3084 1428 2787 
Q 1159 2491 1159 1978 
L 1159 0 
L 581 0 
L 581 3500 
L 1159 3500 
L 1159 2956 
Q 1366 3272 1645 3428 
Q 1925 3584 2291 3584 
Q 2894 3584 3203 3211 
Q 3513 2838 3513 2113 
z
" transform="scale(0.015625)"/>
       <path id="DejaVuSans-67" d="M 2906 1791 
Q 2906 2416 2648 2759 
Q 2391 3103 1925 3103 
Q 1463 3103 1205 2759 
Q 947 2416 947 1791 
Q 947 1169 1205 825 
Q 1463 481 1925 481 
Q 2391 481 2648 825 
Q 2906 1169 2906 1791 
z
M 3481 434 
Q 3481 -459 3084 -895 
Q 2688 -1331 1869 -1331 
Q 1566 -1331 1297 -1286 
Q 1028 -1241 775 -1147 
L 775 -588 
Q 1028 -725 1275 -790 
Q 1522 -856 1778 -856 
Q 2344 -856 2625 -561 
Q 2906 -266 2906 331 
L 2906 616 
Q 2728 306 2450 153 
Q 2172 0 1784 0 
Q 1141 0 747 490 
Q 353 981 353 1791 
Q 353 2603 747 3093 
Q 1141 3584 1784 3584 
Q 2172 3584 2450 3431 
Q 2728 3278 2906 2969 
L 2906 3500 
L 3481 3500 
L 3481 434 
z
" transform="scale(0.015625)"/>
       <path id="DejaVuSans-20" transform="scale(0.015625)"/>
       <path id="DejaVuSans-74" d="M 1172 4494 
L 1172 3500 
L 2356 3500 
L 2356 3053 
L 1172 3053 
L 1172 1153 
Q 1172 725 1289 603 
Q 1406 481 1766 481 
L 2356 481 
L 2356 0 
L 1766 0 
Q 1100 0 847 248 
Q 594 497 594 1153 
L 594 3053 
L 172 3053 
L 172 3500 
L 594 3500 
L 594 4494 
L 1172 4494 
z
" transform="scale(0.015625)"/>
       <path id="DejaVuSans-65" d="M 3597 1894 
L 3597 1613 
L 953 1613 
Q 991 1019 1311 708 
Q 1631 397 2203 397 
Q 2534 397 2845 478 
Q 3156 559 3463 722 
L 3463 178 
Q 3153 47 2828 -22 
Q 2503 -91 2169 -91 
Q 1331 -91 842 396 
Q 353 884 353 1716 
Q 353 2575 817 3079 
Q 1281 3584 2069 3584 
Q 2775 3584 3186 3129 
Q 3597 2675 3597 1894 
z
M 3022 2063 
Q 3016 2534 2758 2815 
Q 2500 3097 2075 3097 
Q 1594 3097 1305 2825 
Q 1016 2553 972 2059 
L 3022 2063 
z
" transform="scale(0.015625)"/>
       <path id="DejaVuSans-6f" d="M 1959 3097 
Q 1497 3097 1228 2736 
Q 959 2375 959 1747 
Q 959 1119 1226 758 
Q 1494 397 1959 397 
Q 2419 397 2687 759 
Q 2956 1122 2956 1747 
Q 2956 2369 2687 2733 
Q 2419 3097 1959 3097 
z
M 1959 3584 
Q 2709 3584 3137 3096 
Q 3566 2609 3566 1747 
Q 3566 888 3137 398 
Q 2709 -91 1959 -91 
Q 1206 -91 779 398 
Q 353 888 353 1747 
Q 353 2609 779 3096 
Q 1206 3584 1959 3584 
z
" transform="scale(0.015625)"/>
      </defs>
      <use xlink:href="#DejaVuSans-54"/>
      <use xlink:href="#DejaVuSans-72" x="46.333984"/>
      <use xlink:href="#DejaVuSans-61" x="87.447266"/>
      <use xlink:href="#DejaVuSans-69" x="148.726562"/>
      <use xlink:href="#DejaVuSans-6e" x="176.509766"/>
      <use xlink:href="#DejaVuSans-69" x="239.888672"/>
      <use xlink:href="#DejaVuSans-6e" x="267.671875"/>
      <use xlink:href="#DejaVuSans-67" x="331.050781"/>
      <use xlink:href="#DejaVuSans-20" x="394.527344"/>
      <use xlink:href="#DejaVuSans-69" x="426.314453"/>
      <use xlink:href="#DejaVuSans-74" x="454.097656"/>
      <use xlink:href="#DejaVuSans-65" x="493.306641"/>
      <use xlink:href="#DejaVuSans-72" x="554.830078"/>
      <use xlink:href="#DejaVuSans-61" x="595.943359"/>
      <use xlink:href="#DejaVuSans-74" x="657.222656"/>
      <use xlink:href="#DejaVuSans-69" x="696.431641"/>
      <use xlink:href="#DejaVuSans-6f" x="724.214844"/>
      <use xlink:href="#DejaVuSans-6e" x="785.396484"/>
     </g>
    </g>
   </g>
   <g id="matplotlib.axis_2">
    <g id="ytick_1">
     <g id="line2d_9">
      <defs>
       <path id="m3217e25c1b" d="M 0 0 
L -3.5 0 
" style="stroke: #000000; stroke-width: 0.8"/>
      </defs>
      <g>
       <use xlink:href="#m3217e25c1b" x="46.08" y="311.04" style="stroke: #000000; stroke-width: 0.8"/>
      </g>
     </g>
     <g id="text_10">
      <!-- 1.0 -->
      <g transform="translate(23.176875 314.839219)scale(0.1 -0.1)">
       <defs>
        <path id="DejaVuSans-2e" d="M 684 794 
L 1344 794 
L 1344 0 
L 684 0 
L 684 794 
z
" transform="scale(0.015625)"/>
       </defs>
       <use xlink:href="#DejaVuSans-31"/>
       <use xlink:href="#DejaVuSans-2e" x="63.623047"/>
       <use xlink:href="#DejaVuSans-30" x="95.410156"/>
      </g>
     </g>
    </g>
    <g id="ytick_2">
     <g id="line2d_10">
      <g>
       <use xlink:href="#m3217e25c1b" x="46.08" y="270.72" style="stroke: #000000; stroke-width: 0.8"/>
      </g>
     </g>
     <g id="text_11">
      <!-- 1.5 -->
      <g transform="translate(23.176875 274.519219)scale(0.1 -0.1)">
       <use xlink:href="#DejaVuSans-31"/>
       <use xlink:href="#DejaVuSans-2e" x="63.623047"/>
       <use xlink:href="#DejaVuSans-35" x="95.410156"/>
      </g>
     </g>
    </g>
    <g id="ytick_3">
     <g id="line2d_11">
      <g>
       <use xlink:href="#m3217e25c1b" x="46.08" y="230.4" style="stroke: #000000; stroke-width: 0.8"/>
      </g>
     </g>
     <g id="text_12">
      <!-- 2.0 -->
      <g transform="translate(23.176875 234.199219)scale(0.1 -0.1)">
       <use xlink:href="#DejaVuSans-32"/>
       <use xlink:href="#DejaVuSans-2e" x="63.623047"/>
       <use xlink:href="#DejaVuSans-30" x="95.410156"/>
      </g>
     </g>
    </g>
    <g id="ytick_4">
     <g id="line2d_12">
      <g>
       <use xlink:href="#m3217e25c1b" x="46.08" y="190.08" style="stroke: #000000; stroke-width: 0.8"/>
      </g>
     </g>
     <g id="text_13">
      <!-- 2.5 -->
      <g transform="translate(23.176875 193.879219)scale(0.1 -0.1)">
       <use xlink:href="#DejaVuSans-32"/>
       <use xlink:href="#DejaVuSans-2e" x="63.623047"/>
       <use xlink:href="#DejaVuSans-35" x="95.410156"/>
      </g>
     </g>
    </g>
    <g id="ytick_5">
     <g id="line2d_13">
      <g>
       <use xlink:href="#m3217e25c1b" x="46.08" y="149.76" style="stroke: #000000; stroke-width: 0.8"/>
      </g>
     </g>
     <g id="text_14">
      <!-- 3.0 -->
      <g transform="translate(23.176875 153.559219)scale(0.1 -0.1)">
       <use xlink:href="#DejaVuSans-33"/>
       <use xlink:href="#DejaVuSans-2e" x="63.623047"/>
       <use xlink:href="#DejaVuSans-30" x="95.410156"/>
      </g>
     </g>
    </g>
    <g id="ytick_6">
     <g id="line2d_14">
      <g>
       <use xlink:href="#m3217e25c1b" x="46.08" y="109.44" style="stroke: #000000; stroke-width: 0.8"/>
      </g>
     </g>
     <g id="text_15">
      <!-- 3.5 -->
      <g transform="translate(23.176875 113.239219)scale(0.1 -0.1)">
       <use xlink:href="#DejaVuSans-33"/>
       <use xlink:href="#DejaVuSans-2e" x="63.623047"/>
       <use xlink:href="#DejaVuSans-35" x="95.410156"/>
      </g>
     </g>
    </g>
    <g id="ytick_7">
     <g id="line2d_15">
      <g>
       <use xlink:href="#m3217e25c1b" x="46.08" y="69.12" style="stroke: #000000; stroke-width: 0.8"/>
      </g>
     </g>
     <g id="text_16">
      <!-- 4.0 -->
      <g transform="translate(23.176875 72.919219)scale(0.1 -0.1)">
       <use xlink:href="#DejaVuSans-34"/>
       <use xlink:href="#DejaVuSans-2e" x="63.623047"/>
       <use xlink:href="#DejaVuSans-30" x="95.410156"/>
      </g>
     </g>
    </g>
    <g id="text_17">
     <!-- Training loss -->
     <g transform="translate(17.097188 221.052656)rotate(-90)scale(0.1 -0.1)">
      <defs>
       <path id="DejaVuSans-6c" d="M 603 4863 
L 1178 4863 
L 1178 0 
L 603 0 
L 603 4863 
z
" transform="scale(0.015625)"/>
       <path id="DejaVuSans-73" d="M 2834 3397 
L 2834 2853 
Q 2591 2978 2328 3040 
Q 2066 3103 1784 3103 
Q 1356 3103 1142 2972 
Q 928 2841 928 2578 
Q 928 2378 1081 2264 
Q 1234 2150 1697 2047 
L 1894 2003 
Q 2506 1872 2764 1633 
Q 3022 1394 3022 966 
Q 3022 478 2636 193 
Q 2250 -91 1575 -91 
Q 1294 -91 989 -36 
Q 684 19 347 128 
L 347 722 
Q 666 556 975 473 
Q 1284 391 1588 391 
Q 1994 391 2212 530 
Q 2431 669 2431 922 
Q 2431 1156 2273 1281 
Q 2116 1406 1581 1522 
L 1381 1569 
Q 847 1681 609 1914 
Q 372 2147 372 2553 
Q 372 3047 722 3315 
Q 1072 3584 1716 3584 
Q 2034 3584 2315 3537 
Q 2597 3491 2834 3397 
z
" transform="scale(0.015625)"/>
      </defs>
      <use xlink:href="#DejaVuSans-54"/>
      <use xlink:href="#DejaVuSans-72" x="46.333984"/>
      <use xlink:href="#DejaVuSans-61" x="87.447266"/>
      <use xlink:href="#DejaVuSans-69" x="148.726562"/>
      <use xlink:href="#DejaVuSans-6e" x="176.509766"/>
      <use xlink:href="#DejaVuSans-69" x="239.888672"/>
      <use xlink:href="#DejaVuSans-6e" x="267.671875"/>
      <use xlink:href="#DejaVuSans-67" x="331.050781"/>
      <use xlink:href="#DejaVuSans-20" x="394.527344"/>
      <use xlink:href="#DejaVuSans-6c" x="426.314453"/>
      <use xlink:href="#DejaVuSans-6f" x="454.097656"/>
      <use xlink:href="#DejaVuSans-73" x="515.279297"/>
      <use xlink:href="#DejaVuSans-73" x="567.378906"/>
     </g>
    </g>
   </g>
   <g id="line2d_16">
    <path d="M 48.519934 -1 
L 49.058806 17.597107 
L 49.646321 31.633134 
L 50.027691 37.160327 
L 50.35237 39.479137 
L 50.625514 40.733941 
L 50.893503 41.571078 
L 51.238282 42.793527 
L 51.294972 43.455253 
L 51.336201 40.039151 
L 51.475349 39.644292 
L 51.526886 39.603696 
L 51.578422 39.679585 
L 51.733032 40.072056 
L 52.325701 46.168722 
L 52.454542 51.156984 
L 52.897755 56.951457 
L 53.191513 63.500778 
L 54.114015 91.589286 
L 54.392312 113.825142 
L 55.258124 184.720565 
L 55.639493 193.184823 
L 56.247623 201.899895 
L 56.881521 208.402216 
L 58.198277 218.199991 
L 58.656952 220.940492 
L 58.662105 220.930972 
L 58.713642 221.152058 
L 59.883519 227.152884 
L 60.022667 227.733599 
L 61.687294 233.585672 
L 61.903747 234.255794 
L 62.305731 235.522789 
L 62.486109 236.243218 
L 62.609796 236.996538 
L 63.582804 239.863294 
L 67.375886 248.172147 
L 68.854981 250.666525 
L 69.030205 250.951297 
L 69.542993 251.669851 
L 69.548147 251.663505 
L 69.615144 251.74797 
L 69.620298 251.745815 
L 69.929516 252.153328 
L 70.099586 252.321317 
L 70.10474 252.317477 
L 70.16143 252.423297 
L 70.3315 252.678253 
L 70.934477 253.611959 
L 70.93963 253.604221 
L 71.032396 253.233328 
L 71.073625 253.268088 
L 71.192159 253.281729 
L 71.20762 253.27211 
L 71.269463 253.355593 
L 71.527146 253.698928 
L 71.619911 253.82056 
L 71.939437 254.483125 
L 71.98582 254.770929 
L 72.186812 255.447257 
L 72.377497 255.602537 
L 72.38265 255.596878 
L 72.429033 255.702362 
L 73.124775 256.374433 
L 73.160851 256.402361 
L 73.186619 256.459506 
L 73.748366 257.17402 
L 73.835978 257.207571 
L 73.846285 257.231386 
L 74.201887 257.468666 
L 74.294652 257.563601 
L 74.727558 258.13796 
L 74.779095 258.21839 
L 74.784248 258.234726 
L 75.011009 258.604623 
L 75.30992 258.828746 
L 75.434123 258.873377 
L 75.6145 258.990222 
L 75.691805 259.04424 
L 75.696959 259.057019 
L 75.841261 259.168761 
L 75.846414 259.16349 
L 75.872182 259.213938 
L 75.913412 259.240922 
L 76.253552 259.565058 
L 76.258706 259.55759 
L 76.305089 259.621666 
L 76.346318 259.626088 
L 76.552463 259.825746 
L 76.768916 259.989528 
L 76.913218 260.170421 
L 77.418276 260.970206 
L 77.480119 261.045785 
L 77.485273 261.058044 
L 77.603807 261.145581 
L 77.60896 261.143677 
L 77.650189 261.142738 
L 77.686265 261.211686 
L 77.701726 261.196335 
L 78.232551 261.649733 
L 78.356239 261.721719 
L 78.3717 261.69947 
L 78.552077 261.815848 
L 78.557231 261.812252 
L 78.634535 261.864257 
L 78.644843 261.894257 
L 79.825027 262.708798 
L 80.04148 263.021555 
L 80.123938 263.101974 
L 80.458925 263.441177 
L 80.464079 263.434758 
L 81.195896 263.828839 
L 81.309276 263.915774 
L 81.324737 263.904948 
L 81.520576 264.038794 
L 81.716414 264.250666 
L 81.943175 264.420075 
L 82.999671 265.254323 
L 83.190356 265.396545 
L 83.298583 265.469251 
L 83.63357 265.799967 
L 84.014939 265.919169 
L 84.107705 265.893911 
L 84.133473 265.914285 
L 84.478767 266.084656 
L 84.483921 266.077136 
L 84.597301 266.118673 
L 84.602455 266.125979 
L 84.746757 266.226341 
L 84.875598 266.308033 
L 84.891059 266.294782 
L 84.978671 266.32274 
L 84.988978 266.330549 
L 85.025053 266.349267 
L 85.030207 266.242837 
L 85.164202 257.421389 
L 85.468267 254.56878 
L 85.550725 254.426406 
L 85.602261 254.515694 
L 85.674412 254.825203 
L 85.7981 255.893455 
L 86.055782 259.465651 
L 86.071243 263.631658 
L 86.189777 267.101077 
L 86.359847 267.281938 
L 86.715448 267.534456 
L 86.720602 267.52891 
L 87.426651 267.821002 
L 87.585899 267.948351 
L 87.750815 268.057778 
L 88.080649 268.426992 
L 88.157953 268.448633 
L 88.178568 268.475347 
L 88.539323 268.680822 
L 88.657857 268.755568 
L 88.771237 268.853968 
L 88.791851 268.846945 
L 88.843388 268.810664 
L 88.900078 268.863592 
L 89.353599 269.077949 
L 89.508208 269.153024 
L 89.647356 269.190422 
L 89.910192 269.305751 
L 90.002958 269.322817 
L 90.013265 269.337025 
L 90.363713 269.557065 
L 90.389481 269.541077 
L 90.451325 269.613792 
L 90.456478 269.614658 
L 90.71416 269.777913 
L 91.064608 269.890281 
L 91.193449 269.922596 
L 91.337751 269.962616 
L 91.461439 269.990777 
L 91.677892 270.051814 
L 91.775811 270.095784 
L 91.786118 270.116885 
L 92.249946 270.462076 
L 92.2551 270.454187 
L 92.270561 270.46374 
L 92.358173 270.481898 
L 92.492167 270.560556 
L 92.497321 270.550374 
L 92.780772 270.631943 
L 92.971456 270.651485 
L 93.373441 270.888259 
L 93.854791 271.32441 
L 93.947556 271.352512 
L 93.957864 271.369784 
L 94.112473 271.455039 
L 94.12278 271.449 
L 94.344387 271.507996 
L 94.478382 271.563837 
L 94.509304 271.526218 
L 95.333887 271.778176 
L 95.545186 271.86793 
L 95.55034 271.855279 
L 95.622491 271.945442 
L 95.627644 271.945806 
L 96.72537 272.344393 
L 97.302578 272.692796 
L 97.575721 272.867997 
L 97.709716 272.925286 
L 97.874633 273.02971 
L 97.879786 273.021441 
L 98.426073 273.181633 
L 98.570375 273.282503 
L 98.575528 273.2797 
L 98.694062 273.347702 
L 98.848671 273.453746 
L 98.951744 273.499201 
L 98.956898 273.50602 
L 99.15789 273.588039 
L 99.260963 273.619553 
L 99.266117 273.626031 
L 99.586158 273.667188 
L 99.776843 273.700455 
L 99.905684 273.735528 
L 100.111829 273.806255 
L 100.214902 273.798323 
L 100.22521 273.811263 
L 100.560196 273.98175 
L 100.611733 273.998171 
L 100.642655 274.048473 
L 100.766342 274.092539 
L 100.874569 274.119587 
L 100.879722 274.131047 
L 101.013717 274.25167 
L 101.034332 274.242022 
L 101.142558 274.270716 
L 101.147712 274.281305 
L 101.281707 274.340096 
L 101.472391 274.392311 
L 101.621847 274.423043 
L 101.627001 274.416865 
L 101.755842 274.434546 
L 101.766149 274.447566 
L 101.889836 274.500589 
L 102.199055 274.600954 
L 102.204209 274.589319 
L 102.286667 274.669372 
L 103.214323 274.995119 
L 103.446237 274.998512 
L 103.951294 275.096879 
L 104.085289 275.190757 
L 104.306895 275.318998 
L 104.451197 275.410061 
L 104.76557 275.563214 
L 105.342778 275.594782 
L 105.461311 275.602721 
L 105.558715 275.630621 
L 105.584483 275.603269 
L 105.883395 275.654797 
L 106.07408 275.722381 
L 106.213228 275.76246 
L 106.41422 275.861873 
L 106.522447 275.91103 
L 106.723439 276.059849 
L 106.728592 276.055948 
L 106.7389 276.044909 
L 106.785282 276.097807 
L 106.816204 276.112392 
L 107.006889 276.238903 
L 107.254264 276.24116 
L 108.315915 276.538246 
L 108.455063 276.615464 
L 108.558136 276.643424 
L 108.563289 276.647473 
L 108.73336 276.685992 
L 108.867354 276.682483 
L 109.465177 276.81937 
L 109.573404 276.83237 
L 109.578557 276.837742 
L 109.79501 276.939278 
L 109.800164 276.929662 
L 109.856854 277.005427 
L 109.882622 277.00098 
L 110.068153 277.112986 
L 112.594469 277.686564 
L 112.769693 277.749018 
L 112.944917 277.792327 
L 113.04799 277.781723 
L 113.073758 277.827541 
L 113.197446 277.877307 
L 113.212907 277.859833 
L 113.460282 277.887292 
L 113.59943 277.967312 
L 113.985953 278.167364 
L 114.181792 278.237597 
L 114.315786 278.329025 
L 114.32094 278.322317 
L 114.418859 278.364836 
L 114.424013 278.372017 
L 114.640466 278.483905 
L 114.784768 278.501517 
L 117.124522 278.876579 
L 117.299746 278.959381 
L 118.080523 279.170603 
L 118.224825 279.173365 
L 118.420663 279.285135 
L 118.570119 279.391756 
L 118.858723 279.54531 
L 120.564579 279.890193 
L 120.708881 279.856493 
L 120.930488 279.867624 
L 121.162402 279.985482 
L 121.291243 279.946585 
L 121.296397 279.952558 
L 121.51285 280.071792 
L 121.770532 280.119905 
L 121.858144 280.119817 
L 121.883912 280.141635 
L 121.981831 280.120967 
L 121.919987 280.109294 
L 121.986985 280.108097 
L 122.157055 280.060006 
L 122.301357 280.135318 
L 122.187977 280.044061 
L 122.306511 280.130784 
L 123.187784 280.48391 
L 123.306317 280.470558 
L 123.316625 280.48039 
L 123.667073 280.507022 
L 123.763446 280.52619 
L 123.778907 280.541797 
L 125.330153 280.824851 
L 125.464148 280.901208 
L 125.654833 280.929358 
L 125.752752 280.948758 
L 125.768213 280.968988 
L 126.000127 280.99801 
L 126.252655 280.945178 
L 128.149196 281.423854 
L 128.221347 281.39813 
L 128.26773 281.415553 
L 128.814016 281.308287 
L 128.81917 281.326514 
L 129.112928 281.528329 
L 129.267537 281.571038 
L 129.468529 281.642132 
L 129.700443 281.747099 
L 129.705597 281.740327 
L 129.82413 281.742355 
L 129.932357 281.777121 
L 129.947818 281.760039 
L 130.071505 281.75593 
L 130.195193 281.732732 
L 130.452875 281.779562 
L 130.695096 281.795658 
L 130.849706 281.858634 
L 130.860013 281.847792 
L 130.988854 281.808248 
L 131.107388 281.831239 
L 131.112541 281.836526 
L 132.024736 282.287804 
L 132.189653 282.239363 
L 132.689556 282.024058 
L 132.952392 282.203332 
L 133.323454 282.403041 
L 133.405913 282.438606 
L 133.385298 282.448658 
L 133.41622 282.450009 
L 133.447142 282.425644 
L 133.534754 282.427237 
L 134.008889 282.425363 
L 134.122269 282.419036 
L 134.127423 282.412505 
L 135.292146 282.65277 
L 135.441602 282.626951 
L 135.585904 282.628901 
L 135.591058 282.622592 
L 135.802357 282.673652 
L 135.908007 282.710594 
L 136.098691 282.803869 
L 136.114152 282.781938 
L 136.201764 282.835327 
L 136.382142 282.854895 
L 136.495522 282.886362 
L 136.706821 282.957756 
L 136.711975 282.948212 
L 136.871738 282.993277 
L 137.036655 283.068631 
L 137.108806 283.043464 
L 137.155188 283.079118 
L 137.387102 283.245976 
L 137.392256 283.239549 
L 137.577787 283.2347 
L 137.830316 283.243798 
L 138.2323 283.240971 
L 138.242607 283.233986 
L 138.386909 283.288689 
L 138.392063 283.268849 
L 138.443599 283.327997 
L 138.484828 283.33476 
L 138.608516 283.362672 
L 138.62913 283.399917 
L 138.701281 283.42731 
L 138.861044 283.476567 
L 139.345487 283.506027 
L 139.484635 283.476942 
L 139.876312 283.542694 
L 140.149455 283.592436 
L 140.257682 283.57219 
L 140.267989 283.593655 
L 140.401984 283.620099 
L 140.520518 283.626813 
L 141.216259 283.623909 
L 141.226567 283.631849 
L 141.334793 283.63387 
L 141.453327 283.704375 
L 141.463634 283.698733 
L 141.644012 283.68857 
L 141.649166 283.703978 
L 141.664626 283.690016 
L 141.824389 283.763425 
L 141.971784 283.794849 
L 142.147007 283.877267 
L 142.152161 283.862558 
L 142.677833 283.833971 
L 142.853057 283.800044 
L 143.017973 283.85822 
L 143.280809 283.87977 
L 143.533338 284.005082 
L 143.543645 283.985384 
L 143.610642 284.051696 
L 143.631257 284.045847 
L 143.780712 284.097288 
L 143.940475 284.0777 
L 144.270309 284.190885 
L 144.404303 284.259541 
L 144.430072 284.24391 
L 144.79598 284.350541 
L 144.96605 284.383079 
L 145.110352 284.442604 
L 145.218579 284.442818 
L 145.223733 284.438882 
L 145.34742 284.410419 
L 145.352574 284.417725 
L 145.502029 284.417933 
L 145.507183 284.411091 
L 145.651485 284.434539 
L 145.739097 284.455179 
L 145.770019 284.427678 
L 145.78548 284.409424 
L 145.847324 284.487752 
L 145.857631 284.490494 
L 145.996779 284.492026 
L 146.001933 284.486368 
L 146.063777 284.528953 
L 146.105006 284.52698 
L 148.746763 284.832733 
L 148.885912 284.82369 
L 149.545578 284.999538 
L 149.664112 285.069112 
L 149.674419 285.064735 
L 150.452619 285.059075 
L 150.612382 285.043466 
L 151.333892 285.35782 
L 151.493655 285.376673 
L 151.622496 285.415106 
L 152.184244 285.379123 
L 152.344007 285.375894 
L 152.668686 285.291597 
L 152.67384 285.301817 
L 152.849064 285.387457 
L 153.07067 285.421637 
L 153.33866 285.473448 
L 153.73549 285.550057 
L 153.851447 285.571501 
L 154.016364 285.577079 
L 154.44927 285.707025 
L 154.655416 285.714845 
L 154.835793 285.732868 
L 154.969788 285.707816 
L 155.279007 285.676678 
L 155.413001 285.681167 
L 155.474845 285.705691 
L 155.505767 285.739683 
L 155.77891 285.723968 
L 155.928366 285.713963 
L 155.933519 285.721264 
L 156.253045 285.83902 
L 156.428269 285.815838 
L 156.438576 285.829652 
L 156.593186 285.873309 
L 156.737488 285.936894 
L 156.758102 285.922567 
L 156.799331 285.983575 
L 156.8251 285.99822 
L 157.015784 286.081871 
L 158.005284 286.12802 
L 158.128971 286.144587 
L 158.237198 286.164254 
L 158.252659 286.14145 
L 158.469112 286.169841 
L 158.541263 286.148504 
L 158.587646 286.174017 
L 158.77833 286.165517 
L 158.881403 286.185509 
L 158.891711 286.197006 
L 159.520455 286.342855 
L 159.649812 286.351767 
L 159.773499 286.332711 
L 159.953877 286.301857 
L 160.103332 286.286938 
L 160.546546 286.341371 
L 160.690848 286.36518 
L 161.108293 286.46594 
L 161.283517 286.568834 
L 161.633964 286.707246 
L 161.78342 286.738338 
L 162.046256 286.704255 
L 162.180251 286.704253 
L 162.185404 286.699319 
L 163.813956 287.014749 
L 163.932489 286.991914 
L 164.092252 287.004919 
L 164.21594 287.021962 
L 164.221093 287.014704 
L 164.736458 286.972069 
L 165.133288 286.961985 
L 165.298205 286.996265 
L 165.427046 287.074786 
L 165.452814 287.05967 
L 165.628038 287.023759 
L 166.839144 287.168182 
L 166.962832 287.187162 
L 167.091673 287.181947 
L 167.241129 287.195386 
L 168.024482 287.260062 
L 168.194553 287.290842 
L 168.338855 287.316833 
L 168.344008 287.311549 
L 168.581076 287.292807 
L 169.689109 287.456651 
L 169.87464 287.536978 
L 169.884948 287.526417 
L 170.080786 287.558963 
L 170.189013 287.573349 
L 170.19932 287.558657 
L 170.467309 287.568254 
L 170.627072 287.62831 
L 170.632226 287.621973 
L 170.879601 287.559392 
L 173.497652 287.799527 
L 173.647107 287.817135 
L 173.8481 287.859868 
L 173.987248 287.924547 
L 174.136704 287.964262 
L 174.141857 287.960151 
L 174.229469 288.016881 
L 174.234623 288.023238 
L 175.754948 288.053439 
L 176.089934 288.212857 
L 177.315471 288.262996 
L 177.449466 288.265269 
L 177.490695 288.271747 
L 177.609229 285.392598 
L 177.90814 284.378561 
L 178.000905 284.327299 
L 178.006059 284.319471 
L 178.098825 284.374168 
L 178.103978 284.387656 
L 178.341046 285.09879 
L 178.521423 285.946675 
L 178.634804 288.402084 
L 178.882179 288.555175 
L 179.088324 288.604384 
L 179.093478 288.596673 
L 179.206858 288.587413 
L 179.150168 288.621771 
L 179.212012 288.590667 
L 179.557306 288.481635 
L 179.686147 288.491688 
L 180.108746 288.494204 
L 180.201511 288.468018 
L 180.222126 288.496353 
L 180.871485 288.695096 
L 181.06217 288.731217 
L 181.206472 288.767576 
L 181.95375 288.675238 
L 182.005286 288.660626 
L 182.051669 288.723824 
L 182.33512 288.750407 
L 182.371195 288.713608 
L 182.443346 288.77269 
L 182.572187 288.836392 
L 182.603109 288.804713 
L 182.730404 288.851497 
L 183.039623 288.875156 
L 183.286998 288.901339 
L 184.255883 288.931124 
L 184.431106 289.060614 
L 184.43626 289.055621 
L 184.920703 289.269427 
L 185.065005 289.247834 
L 185.224768 289.194741 
L 185.497911 289.098605 
L 185.503064 289.109385 
L 185.688596 289.092856 
L 185.817437 289.116904 
L 185.82259 289.124899 
L 185.982353 289.160726 
L 186.188499 289.119587 
L 186.626559 289.124608 
L 186.781168 289.0418 
L 186.791475 289.051323 
L 189.234818 289.496998 
L 189.353351 289.495834 
L 189.358505 289.499793 
L 189.533729 289.535677 
L 189.60588 289.512509 
L 189.652263 289.546334 
L 189.853255 289.538051 
L 190.224317 289.539789 
L 190.332544 289.593896 
L 190.368619 289.574295 
L 190.548997 289.553835 
L 190.693299 289.625877 
L 190.914905 289.648666 
L 191.115898 289.671227 
L 191.332351 289.712584 
L 191.517882 289.680918 
L 191.878637 289.651985 
L 192.007478 289.614881 
L 192.028092 289.644198 
L 192.476459 289.664802 
L 192.600147 289.68923 
L 192.826907 289.62487 
L 192.832061 289.632024 
L 192.862983 289.597913 
L 192.971209 289.641086 
L 193.172201 289.651218 
L 193.177355 289.668068 
L 193.280428 289.660982 
L 193.285581 289.656472 
L 193.378347 289.634883 
L 193.301042 289.66782 
L 193.404115 289.661629 
L 193.527803 289.631614 
L 193.713334 289.666701 
L 193.852482 289.708051 
L 193.857636 289.700267 
L 194.012245 289.688461 
L 194.156547 289.706794 
L 194.161701 289.692704 
L 194.280235 289.680006 
L 194.290542 289.694564 
L 194.579146 289.76343 
L 194.753339 289.723967 
L 194.758493 289.733551 
L 194.980099 289.794248 
L 195.072865 289.819648 
L 194.990407 289.80845 
L 195.083172 289.836677 
L 195.248089 289.94323 
L 195.253243 289.938929 
L 195.423313 289.94187 
L 196.206667 289.953684 
L 196.397351 289.965917 
L 196.412812 289.985597 
L 196.505578 289.94141 
L 196.613804 289.94043 
L 196.618958 289.947307 
L 196.711724 289.964927 
L 196.732338 289.929378 
L 197.124015 289.989757 
L 197.237395 290.016809 
L 197.448695 290.084821 
L 197.969213 290.051851 
L 198.082593 290.053351 
L 198.087746 290.057645 
L 198.211434 290.090026 
L 198.216588 290.075941 
L 199.80391 290.315904 
L 199.984287 290.343281 
L 200.035824 290.371883 
L 200.092514 290.367694 
L 200.226509 290.377992 
L 200.272891 290.250173 
L 200.417193 283.130251 
L 200.731566 280.786384 
L 200.824847 280.670225 
L 200.860922 280.733482 
L 201.005224 281.45671 
L 201.180448 283.047388 
L 201.304135 285.601022 
L 201.43813 290.396622 
L 201.64943 290.447838 
L 201.773117 290.459381 
L 202.025645 290.455883 
L 202.139026 290.459909 
L 202.149333 290.476768 
L 202.381247 290.471108 
L 202.587393 290.521832 
L 202.742002 290.551951 
L 202.855382 290.527239 
L 202.865689 290.5079 
L 203.004838 290.467355 
L 203.159447 290.486183 
L 203.308903 290.45031 
L 203.494434 290.505403 
L 203.499588 290.498053 
L 203.690272 290.575919 
L 203.819113 290.644176 
L 203.844882 290.624894 
L 203.98403 290.690703 
L 204.09741 290.697613 
L 204.014952 290.672603 
L 204.107717 290.689938 
L 204.545777 290.715581 
L 204.721001 290.646258 
L 205.303363 290.721133 
L 205.437357 290.698005 
L 205.772344 290.830285 
L 205.932107 290.801298 
L 206.071256 290.823735 
L 206.189789 290.813038 
L 206.349552 290.803937 
L 206.47324 290.804446 
L 206.81338 290.75591 
L 206.961805 290.786589 
L 207.090646 290.779651 
L 207.234948 290.795192 
L 207.363789 290.837305 
L 207.502938 290.915832 
L 207.518399 290.907989 
L 207.636933 290.932239 
L 207.64724 290.954299 
L 207.770927 290.950941 
L 207.971919 290.955654 
L 208.121375 290.995285 
L 208.245062 290.973493 
L 208.322367 290.941029 
L 208.337828 290.918076 
L 208.451208 290.878148 
L 208.466669 290.894759 
L 208.569742 290.892847 
L 208.497591 290.87412 
L 208.585203 290.883886 
L 208.951112 290.851814 
L 209.079953 290.871695 
L 209.085106 290.868197 
L 209.301559 290.962076 
L 210.064299 291.105851 
L 210.203447 291.087896 
L 210.461129 291.108031 
L 210.667275 291.141614 
L 210.672429 291.134652 
L 210.873421 291.092265 
L 211.321788 291.170341 
L 211.460936 291.175318 
L 211.677389 291.236772 
L 211.868074 291.393766 
L 211.981454 291.331515 
L 212.141217 291.296725 
L 212.264904 291.290708 
L 212.270058 291.283853 
L 212.383438 291.278327 
L 212.393746 291.286421 
L 212.68235 291.274059 
L 212.775115 291.28418 
L 212.713271 291.249779 
L 212.800883 291.266342 
L 213.032282 291.285009 
L 214.820596 291.416666 
L 216.036856 291.562881 
L 216.124468 291.54105 
L 216.15539 291.555033 
L 216.304846 291.600495 
L 216.598603 291.610744 
L 216.717137 291.558209 
L 216.727444 291.56983 
L 216.871746 291.591656 
L 216.8769 291.585976 
L 217.108814 291.569043 
L 217.309806 291.49123 
L 217.361343 291.460874 
L 217.423186 291.500442 
L 217.701483 291.543701 
L 217.881861 291.497241 
L 217.984933 291.509167 
L 217.990087 291.519234 
L 218.438454 291.53708 
L 218.572449 291.517529 
L 218.752826 291.572803 
L 218.75798 291.566571 
L 218.850745 291.583309 
L 218.866206 291.601035 
L 219.070291 291.605083 
L 219.219746 291.615677 
L 219.369202 291.666068 
L 219.523811 291.776099 
L 219.755725 291.800492 
L 219.894874 291.830343 
L 220.008254 291.851514 
L 220.013407 291.858199 
L 220.152556 291.891124 
L 220.322626 291.867563 
L 220.451467 291.784434 
L 220.472082 291.793662 
L 220.616384 291.780362 
L 220.755532 291.745354 
L 220.765839 291.760077 
L 221.002907 291.779968 
L 221.343048 291.835413 
L 221.71411 291.862311 
L 221.858412 291.887879 
L 222.399544 291.783374 
L 222.595383 291.860132 
L 223.074672 291.946127 
L 223.203513 291.953445 
L 223.208666 291.949816 
L 223.414812 291.905201 
L 223.528192 291.884977 
L 223.636419 291.906352 
L 223.76526 291.955431 
L 224.007481 291.992025 
L 224.20332 292.010202 
L 224.404312 292.047198 
L 224.620765 291.978463 
L 224.625918 291.985494 
L 226.015341 292.086747 
L 226.180257 292.091582 
L 226.314252 292.134634 
L 226.334867 292.111423 
L 226.515244 292.102383 
L 226.649239 292.080239 
L 226.654393 292.071177 
L 228.65916 292.491008 
L 228.793155 292.475979 
L 228.983839 292.434428 
L 229.597123 292.325788 
L 229.993954 292.527238 
L 230.107334 292.536108 
L 230.261943 292.600542 
L 230.633005 292.539433 
L 230.772154 292.501613 
L 230.777307 292.511698 
L 230.808229 292.476959 
L 230.870073 292.457178 
L 231.05045 292.415826 
L 231.175169 292.412516 
L 233.684993 292.55264 
L 234.251894 292.733069 
L 234.519883 292.70968 
L 234.638417 292.695181 
L 234.731183 292.647248 
L 234.762105 292.671783 
L 235.225932 292.682816 
L 235.323852 292.687415 
L 235.303237 292.656387 
L 235.334159 292.668957 
L 235.34962 292.687169 
L 235.463 292.702684 
L 236.009286 292.614399 
L 236.62257 292.625606 
L 236.802947 292.566948 
L 238.288227 292.964022 
L 238.453144 293.016514 
L 238.99943 293.018287 
L 239.190115 293.008584 
L 239.288034 292.992016 
L 239.308649 293.005475 
L 239.566331 293.005703 
L 239.705479 292.921213 
L 239.906471 292.88435 
L 240.457911 292.987366 
L 240.720747 293.14827 
L 241.339184 293.067173 
L 241.906085 293.168208 
L 242.122538 293.211171 
L 242.143153 293.238181 
L 242.230765 293.193436 
L 242.411142 293.138083 
L 243.167182 293.167501 
L 243.30633 293.152624 
L 244.599895 293.317575 
L 244.74935 293.351594 
L 244.873038 293.35169 
L 245.171949 293.358616 
L 245.326558 293.294547 
L 245.342019 293.31076 
L 245.378095 293.336105 
L 245.429631 293.268538 
L 245.445092 293.273343 
L 245.640931 293.290142 
L 246.202678 293.329679 
L 246.331519 293.344956 
L 246.486128 293.296231 
L 246.63043 293.283073 
L 246.74381 293.291029 
L 246.754118 293.302271 
L 246.934495 293.365551 
L 247.171563 293.408221 
L 247.418938 293.513184 
L 247.671466 293.544535 
L 248.047682 293.550352 
L 248.155909 293.549146 
L 248.078604 293.516799 
L 248.166216 293.534134 
L 248.496049 293.50819 
L 248.614583 293.533365 
L 248.94957 293.579417 
L 249.763845 293.517911 
L 249.882379 293.488424 
L 252.026295 293.54723 
L 252.71173 293.481541 
L 253.211633 293.675879 
L 253.417779 293.69831 
L 253.562081 293.787551 
L 253.757919 293.806267 
L 254.304205 293.736698 
L 254.422739 293.685119 
L 254.433046 293.694929 
L 254.597963 293.635618 
L 254.731958 293.62954 
L 254.737111 293.62492 
L 254.927796 293.619857 
L 255.139096 293.693281 
L 255.543657 293.85994 
L 255.724034 293.854844 
L 255.729188 293.868837 
L 256.022946 293.843734 
L 256.120865 293.82186 
L 256.136326 293.835879 
L 256.285781 293.863782 
L 256.847528 294.038992 
L 257.239205 293.979274 
L 257.780338 293.919537 
L 257.92464 293.92908 
L 258.079249 293.935363 
L 258.41939 293.958061 
L 258.682226 293.934754 
L 258.790452 293.984876 
L 258.811067 293.961406 
L 258.852296 293.9882 
L 258.91414 293.996343 
L 259.393428 294.096538 
L 259.57896 294.169623 
L 259.877871 294.164588 
L 259.924254 294.182314 
L 259.996405 294.161859 
L 260.130399 294.167301 
L 260.135553 294.159651 
L 260.547845 294.025277 
L 260.656071 294.013845 
L 260.666378 294.005881 
L 260.851909 294.027145 
L 260.985904 293.987798 
L 262.152174 294.191908 
L 262.157327 294.183573 
L 262.193403 294.234471 
L 262.244939 294.249929 
L 262.404702 294.259001 
L 262.409856 294.268049 
L 262.425317 294.248773 
L 262.533543 294.248084 
L 262.69846 294.207424 
L 262.703614 294.214625 
L 262.889145 294.241513 
L 263.569426 294.151748 
L 263.749803 294.215185 
L 263.904413 294.251759 
L 264.151787 294.306842 
L 264.342472 294.299247 
L 264.589847 294.290568 
L 264.728996 294.252465 
L 264.955756 294.203552 
L 265.022753 294.182004 
L 265.069136 294.204304 
L 265.223745 294.228378 
L 265.326818 294.25826 
L 265.450506 294.304715 
L 265.703034 294.344649 
L 265.847336 294.359372 
L 266.074096 294.390114 
L 266.202938 294.389875 
L 266.656458 294.392978 
L 266.831682 294.392294 
L 267.328493 294.351171 
L 268.055157 294.462131 
L 268.199459 294.528314 
L 268.261303 294.526355 
L 268.307686 294.555587 
L 268.472602 294.5708 
L 269.436334 294.617411 
L 269.647633 294.586994 
L 269.905315 294.468706 
L 269.98262 294.426177 
L 270.029003 294.469113 
L 270.363989 294.56753 
L 270.549521 294.657285 
L 270.719591 294.665091 
L 270.827817 294.673355 
L 270.838125 294.657629 
L 271.085499 294.619625 
L 271.265877 294.524762 
L 271.291645 294.508797 
L 271.384411 294.511229 
L 271.585403 294.497899 
L 271.678168 294.492687 
L 271.703937 294.524196 
L 271.879161 294.659045 
L 272.038923 294.67563 
L 272.564595 294.780478 
L 272.703743 294.785602 
L 272.806816 294.793187 
L 272.822277 294.781959 
L 272.976887 294.76041 
L 272.98204 294.772456 
L 273.25003 294.748097 
L 273.390209 294.771508 
L 273.498435 294.733911 
L 273.51905 294.765379 
L 273.549972 294.790053 
L 273.534511 294.755766 
L 273.627276 294.749883 
L 273.951956 294.629122 
L 274.122026 294.716784 
L 274.24056 294.708753 
L 275.879419 294.887116 
L 276.018567 294.960698 
L 276.570007 294.931222 
L 276.920455 294.884631 
L 276.987452 294.857113 
L 277.105986 294.024382 
L 277.446126 293.614646 
L 277.616197 293.573834 
L 277.62135 293.56697 
L 277.636811 293.594801 
L 277.703808 293.634329 
L 277.899647 293.843811 
L 278.018181 294.046809 
L 278.126407 294.757625 
L 278.131561 294.754352 
L 278.291324 294.848863 
L 279.299892 294.946613 
L 279.423579 294.957979 
L 279.428733 294.96555 
L 279.511191 294.97771 
L 279.542113 294.952402 
L 279.670954 294.985151 
L 279.815256 294.977546 
L 279.835871 295.000722 
L 279.913175 295.03006 
L 280.681068 295.072279 
L 280.964519 295.001361 
L 281.098513 295.014651 
L 281.253123 295.053563 
L 281.500498 295.093168 
L 281.670568 295.223343 
L 283.675335 295.176238 
L 283.871174 295.173983 
L 284.103088 295.144565 
L 284.216468 295.15309 
L 284.221621 295.159806 
L 284.36077 295.167823 
L 284.711218 295.213285 
L 284.85552 295.176146 
L 284.953439 295.188524 
L 284.963746 295.200315 
L 285.046204 295.215645 
L 285.077126 295.191353 
L 285.205967 295.180818 
L 285.221428 295.200482 
L 285.624443 295.309816 
L 285.758438 295.305336 
L 285.990352 295.341138 
L 286.278956 295.236162 
L 286.3408 295.236413 
L 286.289263 295.226334 
L 286.382029 295.194281 
L 286.598482 295.149399 
L 286.773706 295.090611 
L 286.990159 295.071589 
L 287.113846 295.077836 
L 287.134461 295.06822 
L 287.170536 295.110202 
L 287.211765 295.119924 
L 287.304531 295.145114 
L 287.330299 295.129014 
L 287.557059 295.178655 
L 287.716822 295.263024 
L 287.721976 295.257542 
L 287.732283 295.309521 
L 287.799281 295.3321 
L 288.39195 295.520169 
L 288.520791 295.530945 
L 288.6754 295.46792 
L 289.726743 295.446602 
L 289.932889 295.493757 
L 291.267683 295.665212 
L 291.439299 295.582646 
L 291.449606 295.595566 
L 291.578448 295.573063 
L 291.784593 295.479891 
L 292.34634 295.491186 
L 292.825629 295.612812 
L 292.959624 295.580272 
L 293.160616 295.59593 
L 293.170923 295.577586 
L 293.304918 295.590488 
L 293.629598 295.642359 
L 293.804822 295.603536 
L 295.196305 295.494976 
L 295.350915 295.494093 
L 295.536446 295.526189 
L 295.691055 295.590934 
L 295.892047 295.68621 
L 296.151275 295.817061 
L 296.156429 295.80961 
L 296.419265 295.772565 
L 296.738791 295.760252 
L 296.944937 295.743208 
L 297.202619 295.815807 
L 297.341767 295.886036 
L 297.563374 295.920421 
L 297.687061 295.916285 
L 297.908668 295.956417 
L 298.320959 295.922288 
L 298.418879 295.926013 
L 298.439493 295.909135 
L 298.625024 295.934448 
L 299.052777 295.984393 
L 299.243462 296.050956 
L 299.336227 296.083362 
L 299.367149 296.061812 
L 299.846438 295.999043 
L 299.959818 295.989477 
L 300.196886 295.864476 
L 300.397878 295.839605 
L 300.403031 295.848733 
L 300.557641 295.858413 
L 300.640099 295.880523 
L 300.614331 295.896024 
L 300.660714 295.901555 
L 300.799862 295.888678 
L 300.949318 295.879819 
L 301.145156 295.859653 
L 301.310073 295.855135 
L 301.315226 295.843134 
L 301.423453 295.874998 
L 302.216599 296.015636 
L 302.340286 296.018686 
L 302.34544 296.029058 
L 302.45882 296.0133 
L 302.711348 295.963378 
L 302.819575 295.979708 
L 302.829882 295.968681 
L 302.95357 295.985421 
L 303.072103 295.98095 
L 303.175176 296.020287 
L 303.18033 296.025132 
L 303.340093 296.013005 
L 303.443166 295.960513 
L 303.46378 295.981401 
L 303.61839 296.003341 
L 303.628697 295.988149 
L 303.767845 295.9547 
L 304.479048 296.044056 
L 304.592428 296.048889 
L 304.597582 296.052875 
L 305.179944 296.043079 
L 305.365475 296.092312 
L 305.375782 296.08144 
L 305.494316 296.083233 
L 305.746844 296.154345 
L 305.885993 296.205568 
L 306.014834 296.227579 
L 306.025141 296.213473 
L 306.602349 296.041689 
L 306.612656 296.063133 
L 306.695115 296.001047 
L 306.705422 296.014412 
L 306.978565 295.990639 
L 307.303245 296.157906 
L 307.442393 296.240551 
L 308.462814 296.109459 
L 308.591656 296.067059 
L 308.601963 296.077517 
L 309.581155 296.380625 
L 309.751225 296.444106 
L 309.756379 296.437356 
L 310.008908 296.406717 
L 310.15321 296.371567 
L 310.921102 296.345808 
L 311.59623 296.32111 
L 311.931217 296.149775 
L 312.745492 296.399976 
L 312.936177 296.453471 
L 312.941331 296.443471 
L 313.075325 296.410811 
L 313.199013 296.405019 
L 313.369083 296.368967 
L 313.518539 296.350779 
L 313.637073 296.334758 
L 313.642226 296.337878 
L 313.822604 296.324931 
L 313.848372 296.341548 
L 313.93083 296.35775 
L 314.091109 296.419705 
L 314.281793 296.422511 
L 314.405481 296.441332 
L 314.410634 296.436391 
L 314.658009 296.451028 
L 314.771389 296.43854 
L 314.776543 296.427482 
L 314.946613 296.401599 
L 315.039379 296.408669 
L 315.059994 296.385653 
L 315.245525 296.371739 
L 315.364058 296.366119 
L 315.611433 296.363252 
L 315.956727 296.418203 
L 316.075261 296.401861 
L 316.085569 296.411505 
L 316.322636 296.40017 
L 317.239985 296.38948 
L 317.394594 296.430258 
L 317.404901 296.420254 
L 317.533742 296.415824 
L 317.729581 296.505035 
L 318.244945 296.626092 
L 318.353172 296.659559 
L 318.373786 296.637431 
L 318.590239 296.641709 
L 318.791231 296.670711 
L 318.93038 296.641494 
L 319.177755 296.665928 
L 319.739502 296.580175 
L 326.07333 296.685056 
L 326.217632 296.699967 
L 326.222785 296.693954 
L 326.599001 296.881316 
L 326.743303 296.876442 
L 327.789493 297.034566 
L 327.91318 297.025085 
L 328.103865 296.984381 
L 328.217245 296.983886 
L 328.222399 296.986769 
L 328.361547 297.006747 
L 328.449159 296.959305 
L 328.480081 296.98048 
L 328.794454 296.975844 
L 329.253128 296.980215 
L 329.902487 297.006171 
L 330.026174 296.998628 
L 330.031328 297.004558 
L 330.057096 297.035186 
L 330.139554 296.980198 
L 330.268396 296.945173 
L 330.50031 296.9596 
L 330.593075 296.937841 
L 330.618843 296.970964 
L 331.737184 297.077695 
L 331.854172 297.085271 
L 332.039703 297.06195 
L 332.153083 297.080201 
L 332.436533 297.154313 
L 332.575682 297.166291 
L 332.668447 297.164645 
L 332.694216 297.185936 
L 332.869439 297.175553 
L 333.008588 297.201809 
L 333.359036 297.150519 
L 333.523952 297.174193 
L 333.750712 297.206135 
L 333.946551 297.215694 
L 334.121775 297.149197 
L 334.250616 297.151226 
L 334.260923 297.13294 
L 335.281345 297.128271 
L 335.4308 297.138657 
L 335.564795 297.160706 
L 336.044084 297.257978 
L 336.966586 297.320161 
L 337.131503 297.345815 
L 337.275805 297.321161 
L 337.280958 297.311676 
L 338.123579 297.379248 
L 338.273035 297.336196 
L 338.437951 297.368118 
L 338.448259 297.353927 
L 338.979084 297.258322 
L 338.984237 297.274143 
L 339.107925 297.307766 
L 339.113079 297.301724 
L 339.262534 297.294676 
L 339.417144 297.299041 
L 339.618136 297.33231 
L 339.731516 297.309687 
L 339.736669 297.297758 
L 339.855203 297.293126 
L 340.19019 297.308364 
L 340.391182 297.30141 
L 340.535484 297.308155 
L 340.705554 297.304022 
L 340.865317 297.313343 
L 341.256994 297.438222 
L 341.499216 297.497246 
L 341.612596 297.48978 
L 341.63321 297.517883 
L 341.710515 297.524753 
L 341.74659 297.493958 
L 341.911507 297.431157 
L 342.066116 297.435027 
L 342.617556 297.514876 
L 342.741244 297.504127 
L 342.880392 297.557084 
L 342.885546 297.553233 
L 343.029848 297.522842 
L 343.148381 297.50319 
L 343.313298 297.474106 
L 343.40091 297.453569 
L 343.421525 297.435098 
L 343.710129 297.457601 
L 343.828662 297.462711 
L 343.833816 297.4807 
L 344.136335 297.546858 
L 344.141489 297.536559 
L 344.177564 297.582746 
L 344.234254 297.588827 
L 344.404324 297.615092 
L 344.631085 297.643307 
L 344.749619 297.648382 
L 344.899074 297.628484 
L 345.074298 297.573751 
L 345.089759 297.589619 
L 345.228907 297.591411 
L 345.368056 297.62255 
L 345.48659 297.678539 
L 345.496897 297.669405 
L 346.708003 297.573555 
L 347.140909 297.688329 
L 347.274904 297.654713 
L 347.429513 297.672673 
L 347.558354 297.693294 
L 348.444781 297.730334 
L 348.666388 297.646614 
L 348.733385 297.635493 
L 348.76946 297.60506 
L 348.939531 297.543855 
L 348.944684 297.550956 
L 349.192059 297.601728 
L 349.300286 297.622415 
L 349.305439 297.626474 
L 350.426872 297.759206 
L 350.658786 265.339625 
L 350.94739 257.33708 
L 351.009234 257.055557 
L 351.06077 257.260258 
L 351.153536 258.70307 
L 351.369989 266.099482 
L 351.478215 275.62129 
L 351.679208 297.64918 
L 351.82351 297.686552 
L 352.251262 297.64036 
L 352.54502 297.693163 
L 352.684168 297.699671 
L 352.802702 297.716461 
L 352.926389 297.705478 
L 352.931543 297.718223 
L 353.050077 297.794198 
L 353.446907 297.793474 
L 353.580902 297.757759 
L 353.586056 297.76822 
L 353.81797 297.779974 
L 354.039576 297.803838 
L 354.173571 297.848016 
L 354.225107 297.82136 
L 354.292105 297.836838 
L 354.436407 297.823599 
L 354.441561 297.831055 
L 354.580709 297.804421 
L 354.838391 297.722255 
L 355.09092 297.713539 
L 355.245529 297.772815 
L 355.358909 297.795728 
L 355.364063 297.778174 
L 355.9825 297.906477 
L 356.131956 297.87821 
L 356.253582 297.838557 
L 356.408191 297.845474 
L 356.578261 297.848561 
L 356.583415 297.839586 
L 356.717409 297.854006 
L 356.949323 297.895046 
L 357.887287 297.911813 
L 358.093432 297.924864 
L 358.098586 297.939123 
L 358.304732 297.988923 
L 358.516031 297.986101 
L 359.727137 298.002833 
L 360.428033 298.045059 
L 360.577488 298.030018 
L 360.696022 298.009193 
L 360.835171 297.983203 
L 360.938244 297.940951 
L 360.98978 297.936794 
L 361.036163 297.986228 
L 361.175311 297.941502 
L 361.304152 297.915668 
L 361.31446 297.923465 
L 361.530913 297.936682 
L 361.819517 297.985585 
L 361.948358 298.035265 
L 362.247269 298.085353 
L 362.247784 298.079533 
L 368.890315 298.17381 
L 369.008849 298.2063 
L 369.014003 298.201947 
L 369.117076 298.180167 
L 369.13769 298.192203 
L 369.323222 298.269797 
L 369.452063 298.32736 
L 369.591211 298.33045 
L 369.74582 298.356911 
L 369.915891 298.391286 
L 370.055039 298.389644 
L 370.451869 298.451476 
L 370.817778 298.464235 
L 371.003309 298.396474 
L 371.235223 298.430008 
L 371.446523 298.427519 
L 371.735127 298.523816 
L 371.858814 298.521437 
L 374.141878 298.537081 
L 374.309887 298.549642 
L 374.46965 298.527666 
L 376.495032 298.442687 
L 376.639334 298.508526 
L 376.763021 298.507664 
L 376.989782 298.566354 
L 377.221696 298.622355 
L 377.35569 298.60275 
L 377.556682 298.634938 
L 377.695831 298.639158 
L 378.298807 298.618794 
L 378.535875 298.685062 
L 378.587411 298.664145 
L 378.649255 298.69585 
L 378.860554 298.711819 
L 379.020317 298.645732 
L 379.025471 298.653663 
L 379.211002 298.722227 
L 379.563511 298.657584 
L 379.676891 298.698731 
L 379.687199 298.688688 
L 379.754196 298.668796 
L 379.800579 298.721597 
L 380.135566 298.692321 
L 380.408709 298.664477 
L 380.805539 298.570688 
L 380.908612 298.604938 
L 381.0323 298.635436 
L 384.495548 298.739676 
L 384.655311 298.714007 
L 384.794459 298.778115 
L 384.938761 298.843887 
L 385.1346 298.831591 
L 385.139754 298.814276 
L 385.258287 298.848842 
L 385.381975 298.884592 
L 385.392282 298.877769 
L 385.512877 298.885256 
L 385.796328 298.86585 
L 385.925169 298.819843 
L 385.930322 298.823197 
L 386.090085 298.836974 
L 386.100393 298.82149 
L 386.265309 298.779003 
L 386.543606 298.75628 
L 386.708523 298.764345 
L 386.837364 298.785341 
L 387.069278 298.849556 
L 387.78048 299.03513 
L 387.93509 299.060553 
L 388.718444 298.950961 
L 388.857592 298.888834 
L 388.976126 298.901898 
L 389.022509 298.935739 
L 389.084352 298.884592 
L 389.285344 298.848638 
L 389.403878 298.821469 
L 389.558487 298.835433 
L 389.563641 298.846948 
L 389.692482 298.900594 
L 389.81617 298.913094 
L 389.965625 298.936482 
L 390.058391 298.915168 
L 390.084159 298.942006 
L 390.202693 298.975905 
L 390.316073 299.028321 
L 390.32638 299.014248 
L 390.527372 299.020059 
L 390.578909 299.041335 
L 390.635599 299.015889 
L 390.831437 299.058 
L 391.444721 299.196296 
L 391.635406 299.17097 
L 391.650867 299.183173 
L 391.707557 299.118674 
L 391.728171 299.114964 
L 392.109541 299.109907 
L 393.202113 299.046882 
L 393.341262 299.05196 
L 393.346415 299.045192 
L 393.557715 299.077409 
L 393.753553 299.140525 
L 393.928777 299.149665 
L 394.047311 299.19878 
L 394.057618 299.183698 
L 394.330761 299.239037 
L 394.557522 299.33361 
L 394.81005 299.271364 
L 394.815204 299.281994 
L 396.886969 299.166616 
L 397.041578 299.194345 
L 397.268338 299.181541 
L 397.402333 299.178536 
L 397.578072 299.200299 
L 397.712067 299.199115 
L 397.856369 299.177578 
L 397.995517 299.16416 
L 399.134473 299.340673 
L 399.227238 298.986143 
L 399.37154 298.718594 
L 400.113665 298.736744 
L 400.237352 298.948649 
L 400.319811 299.317535 
L 400.397115 299.27683 
L 400.520803 299.268103 
L 400.716641 299.25169 
L 400.855789 299.204133 
L 400.989784 299.204862 
L 401.262927 299.22846 
L 401.402076 299.243071 
L 401.541224 299.248358 
L 401.886518 299.348427 
L 402.005052 299.397848 
L 402.015359 299.38073 
L 402.164815 299.393093 
L 402.169969 299.402652 
L 402.29881 299.385905 
L 402.41219 299.420325 
L 402.608028 299.427363 
L 402.757484 299.380144 
L 402.762638 299.387105 
L 402.968783 299.392575 
L 403.959314 299.340919 
L 404.062386 299.377343 
L 404.06754 299.386644 
L 404.35099 299.449338 
L 404.5056 299.413112 
L 404.850894 299.331048 
L 404.995196 299.354408 
L 405.005503 299.341029 
L 405.185881 299.355113 
L 405.335336 299.376013 
L 405.448717 299.423581 
L 405.675477 299.574044 
L 405.989849 299.567847 
L 406.123844 299.526308 
L 406.391833 299.465657 
L 406.515521 299.430229 
L 406.520674 299.433362 
L 406.525828 299.443554 
L 406.567057 299.384903 
L 406.61344 299.372955 
L 406.747435 299.366734 
L 407.876083 299.54477 
L 408.040999 299.564323 
L 408.128611 299.528713 
L 408.159533 299.554697 
L 408.442983 299.566248 
L 408.566671 299.596403 
L 408.571825 299.590308 
L 408.66459 299.577711 
L 408.690358 299.601606 
L 408.870736 299.633093 
L 408.999577 299.659157 
L 410.717802 299.78347 
L 410.887872 299.840455 
L 411.021867 299.823377 
L 411.150708 299.835246 
L 411.341393 299.839555 
L 411.568153 299.808175 
L 413.645071 299.735655 
L 413.763605 299.73765 
L 413.768759 299.742025 
L 414.041902 299.682165 
L 414.196511 299.60316 
L 414.201665 299.607091 
L 414.660339 299.638979 
L 414.784026 299.640068 
L 414.928328 299.649079 
L 415.119013 299.722081 
L 415.484922 299.673967 
L 415.62407 299.655196 
L 415.639531 299.670315 
L 415.741058 299.662521 
L 415.859592 299.646173 
L 415.972972 299.587501 
L 416.374956 299.581706 
L 416.596563 299.633546 
L 416.916089 299.585905 
L 417.070698 299.623199 
L 417.215 299.601416 
L 417.549987 299.59875 
L 417.565448 299.58961 
L 417.591216 299.625492 
L 417.647906 299.641671 
L 418.122041 299.891054 
L 418.307573 299.904248 
L 418.457028 300.029285 
L 418.467335 300.020258 
L 418.688942 299.949775 
L 418.694096 299.959502 
L 418.828091 299.958806 
L 418.972393 299.952015 
L 419.090926 299.934747 
L 419.09608 299.925197 
L 419.585676 299.803159 
L 419.766054 299.854464 
L 420.028889 299.878553 
L 420.436027 299.919715 
L 420.585483 299.900345 
L 420.590637 299.908879 
L 420.832858 299.822594 
L 420.941084 299.802375 
L 420.956545 299.816382 
L 420.992621 299.817032 
L 421.013235 299.777085 
L 421.059618 299.783012 
L 421.332761 299.847563 
L 421.590443 299.909514 
L 421.708977 299.890602 
L 421.723407 299.906441 
L 421.88317 299.934513 
L 422.017165 299.924322 
L 422.202696 299.844335 
L 422.32123 299.872928 
L 422.336691 299.85617 
L 422.908745 299.994544 
L 423.04274 299.979881 
L 423.047894 299.989254 
L 423.176735 300.004173 
L 423.181889 299.998043 
L 423.522029 299.920079 
L 423.645716 299.917006 
L 423.82094 299.924031 
L 425.480414 300.067738 
L 425.629869 300.003171 
L 425.794786 300.029169 
L 425.944241 300.026345 
L 426.980124 300.060855 
L 427.792338 300.202673 
L 428.039713 300.166086 
L 428.168554 300.174941 
L 428.31801 300.155564 
L 428.529309 300.116397 
L 428.60146 300.138758 
L 428.647843 300.121512 
L 428.756069 300.115358 
L 428.761223 300.104751 
L 428.941601 300.155483 
L 429.049827 300.186993 
L 429.070442 300.170535 
L 429.09621 300.148117 
L 429.178668 300.203115 
L 429.32297 300.149523 
L 429.482733 300.156348 
L 430.631996 300.014451 
L 430.781451 299.975317 
L 431.09067 300.008267 
L 431.291662 300.094793 
L 431.353506 300.10367 
L 431.394735 300.141787 
L 431.590573 300.159415 
L 431.729722 300.20214 
L 431.734875 300.213503 
L 431.843102 300.239035 
L 431.858563 300.226665 
L 432.018326 300.204996 
L 432.157474 300.250606 
L 432.265701 300.207726 
L 432.286315 300.223083 
L 432.435771 300.216831 
L 432.600687 300.22412 
L 432.605841 300.215348 
L 433.090284 300.163577 
L 433.136666 300.163946 
L 433.162435 300.125583 
L 433.193356 300.133547 
L 435.883043 300.238024 
L 435.960348 300.211122 
L 436.001577 300.228535 
L 437.248759 300.385062 
L 437.49098 300.454455 
L 437.650743 300.472711 
L 437.764123 300.498161 
L 437.764123 300.498161 
" clip-path="url(#p0ecd10f69d)" style="fill: none; stroke: #76b900; stroke-opacity: 0.7; stroke-width: 1.5; stroke-linecap: square"/>
   </g>
   <g id="patch_3">
    <path d="M 46.08 311.04 
L 46.08 69.12 
" style="fill: none; stroke: #000000; stroke-width: 0.8; stroke-linejoin: miter; stroke-linecap: square"/>
   </g>
   <g id="patch_4">
    <path d="M 437.76 311.04 
L 437.76 69.12 
" style="fill: none; stroke: #000000; stroke-width: 0.8; stroke-linejoin: miter; stroke-linecap: square"/>
   </g>
   <g id="patch_5">
    <path d="M 46.08 311.04 
L 437.76 311.04 
" style="fill: none; stroke: #000000; stroke-width: 0.8; stroke-linejoin: miter; stroke-linecap: square"/>
   </g>
   <g id="patch_6">
    <path d="M 46.08 69.12 
L 437.76 69.12 
" style="fill: none; stroke: #000000; stroke-width: 0.8; stroke-linejoin: miter; stroke-linecap: square"/>
   </g>
   <g id="text_18">
    <!-- Transformer layers: 24 | Hidden size: 2048 | Attention heads: 32 | -->
    <g transform="translate(105.486314 53.516812)scale(0.0833 -0.0833)">
     <defs>
      <path id="DejaVuSans-66" d="M 2375 4863 
L 2375 4384 
L 1825 4384 
Q 1516 4384 1395 4259 
Q 1275 4134 1275 3809 
L 1275 3500 
L 2222 3500 
L 2222 3053 
L 1275 3053 
L 1275 0 
L 697 0 
L 697 3053 
L 147 3053 
L 147 3500 
L 697 3500 
L 697 3744 
Q 697 4328 969 4595 
Q 1241 4863 1831 4863 
L 2375 4863 
z
" transform="scale(0.015625)"/>
      <path id="DejaVuSans-6d" d="M 3328 2828 
Q 3544 3216 3844 3400 
Q 4144 3584 4550 3584 
Q 5097 3584 5394 3201 
Q 5691 2819 5691 2113 
L 5691 0 
L 5113 0 
L 5113 2094 
Q 5113 2597 4934 2840 
Q 4756 3084 4391 3084 
Q 3944 3084 3684 2787 
Q 3425 2491 3425 1978 
L 3425 0 
L 2847 0 
L 2847 2094 
Q 2847 2600 2669 2842 
Q 2491 3084 2119 3084 
Q 1678 3084 1418 2786 
Q 1159 2488 1159 1978 
L 1159 0 
L 581 0 
L 581 3500 
L 1159 3500 
L 1159 2956 
Q 1356 3278 1631 3431 
Q 1906 3584 2284 3584 
Q 2666 3584 2933 3390 
Q 3200 3197 3328 2828 
z
" transform="scale(0.015625)"/>
      <path id="DejaVuSans-79" d="M 2059 -325 
Q 1816 -950 1584 -1140 
Q 1353 -1331 966 -1331 
L 506 -1331 
L 506 -850 
L 844 -850 
Q 1081 -850 1212 -737 
Q 1344 -625 1503 -206 
L 1606 56 
L 191 3500 
L 800 3500 
L 1894 763 
L 2988 3500 
L 3597 3500 
L 2059 -325 
z
" transform="scale(0.015625)"/>
      <path id="DejaVuSans-3a" d="M 750 794 
L 1409 794 
L 1409 0 
L 750 0 
L 750 794 
z
M 750 3309 
L 1409 3309 
L 1409 2516 
L 750 2516 
L 750 3309 
z
" transform="scale(0.015625)"/>
      <path id="DejaVuSans-7c" d="M 1344 4891 
L 1344 -1509 
L 813 -1509 
L 813 4891 
L 1344 4891 
z
" transform="scale(0.015625)"/>
      <path id="DejaVuSans-48" d="M 628 4666 
L 1259 4666 
L 1259 2753 
L 3553 2753 
L 3553 4666 
L 4184 4666 
L 4184 0 
L 3553 0 
L 3553 2222 
L 1259 2222 
L 1259 0 
L 628 0 
L 628 4666 
z
" transform="scale(0.015625)"/>
      <path id="DejaVuSans-64" d="M 2906 2969 
L 2906 4863 
L 3481 4863 
L 3481 0 
L 2906 0 
L 2906 525 
Q 2725 213 2448 61 
Q 2172 -91 1784 -91 
Q 1150 -91 751 415 
Q 353 922 353 1747 
Q 353 2572 751 3078 
Q 1150 3584 1784 3584 
Q 2172 3584 2448 3432 
Q 2725 3281 2906 2969 
z
M 947 1747 
Q 947 1113 1208 752 
Q 1469 391 1925 391 
Q 2381 391 2643 752 
Q 2906 1113 2906 1747 
Q 2906 2381 2643 2742 
Q 2381 3103 1925 3103 
Q 1469 3103 1208 2742 
Q 947 2381 947 1747 
z
" transform="scale(0.015625)"/>
      <path id="DejaVuSans-7a" d="M 353 3500 
L 3084 3500 
L 3084 2975 
L 922 459 
L 3084 459 
L 3084 0 
L 275 0 
L 275 525 
L 2438 3041 
L 353 3041 
L 353 3500 
z
" transform="scale(0.015625)"/>
      <path id="DejaVuSans-38" d="M 2034 2216 
Q 1584 2216 1326 1975 
Q 1069 1734 1069 1313 
Q 1069 891 1326 650 
Q 1584 409 2034 409 
Q 2484 409 2743 651 
Q 3003 894 3003 1313 
Q 3003 1734 2745 1975 
Q 2488 2216 2034 2216 
z
M 1403 2484 
Q 997 2584 770 2862 
Q 544 3141 544 3541 
Q 544 4100 942 4425 
Q 1341 4750 2034 4750 
Q 2731 4750 3128 4425 
Q 3525 4100 3525 3541 
Q 3525 3141 3298 2862 
Q 3072 2584 2669 2484 
Q 3125 2378 3379 2068 
Q 3634 1759 3634 1313 
Q 3634 634 3220 271 
Q 2806 -91 2034 -91 
Q 1263 -91 848 271 
Q 434 634 434 1313 
Q 434 1759 690 2068 
Q 947 2378 1403 2484 
z
M 1172 3481 
Q 1172 3119 1398 2916 
Q 1625 2713 2034 2713 
Q 2441 2713 2670 2916 
Q 2900 3119 2900 3481 
Q 2900 3844 2670 4047 
Q 2441 4250 2034 4250 
Q 1625 4250 1398 4047 
Q 1172 3844 1172 3481 
z
" transform="scale(0.015625)"/>
      <path id="DejaVuSans-41" d="M 2188 4044 
L 1331 1722 
L 3047 1722 
L 2188 4044 
z
M 1831 4666 
L 2547 4666 
L 4325 0 
L 3669 0 
L 3244 1197 
L 1141 1197 
L 716 0 
L 50 0 
L 1831 4666 
z
" transform="scale(0.015625)"/>
      <path id="DejaVuSans-68" d="M 3513 2113 
L 3513 0 
L 2938 0 
L 2938 2094 
Q 2938 2591 2744 2837 
Q 2550 3084 2163 3084 
Q 1697 3084 1428 2787 
Q 1159 2491 1159 1978 
L 1159 0 
L 581 0 
L 581 4863 
L 1159 4863 
L 1159 2956 
Q 1366 3272 1645 3428 
Q 1925 3584 2291 3584 
Q 2894 3584 3203 3211 
Q 3513 2838 3513 2113 
z
" transform="scale(0.015625)"/>
     </defs>
     <use xlink:href="#DejaVuSans-54"/>
     <use xlink:href="#DejaVuSans-72" x="46.333984"/>
     <use xlink:href="#DejaVuSans-61" x="87.447266"/>
     <use xlink:href="#DejaVuSans-6e" x="148.726562"/>
     <use xlink:href="#DejaVuSans-73" x="212.105469"/>
     <use xlink:href="#DejaVuSans-66" x="264.205078"/>
     <use xlink:href="#DejaVuSans-6f" x="299.410156"/>
     <use xlink:href="#DejaVuSans-72" x="360.591797"/>
     <use xlink:href="#DejaVuSans-6d" x="399.955078"/>
     <use xlink:href="#DejaVuSans-65" x="497.367188"/>
     <use xlink:href="#DejaVuSans-72" x="558.890625"/>
     <use xlink:href="#DejaVuSans-20" x="600.003906"/>
     <use xlink:href="#DejaVuSans-6c" x="631.791016"/>
     <use xlink:href="#DejaVuSans-61" x="659.574219"/>
     <use xlink:href="#DejaVuSans-79" x="720.853516"/>
     <use xlink:href="#DejaVuSans-65" x="780.033203"/>
     <use xlink:href="#DejaVuSans-72" x="841.556641"/>
     <use xlink:href="#DejaVuSans-73" x="882.669922"/>
     <use xlink:href="#DejaVuSans-3a" x="934.769531"/>
     <use xlink:href="#DejaVuSans-20" x="968.460938"/>
     <use xlink:href="#DejaVuSans-32" x="1000.248047"/>
     <use xlink:href="#DejaVuSans-34" x="1063.871094"/>
     <use xlink:href="#DejaVuSans-20" x="1127.494141"/>
     <use xlink:href="#DejaVuSans-7c" x="1159.28125"/>
     <use xlink:href="#DejaVuSans-20" x="1192.972656"/>
     <use xlink:href="#DejaVuSans-48" x="1224.759766"/>
     <use xlink:href="#DejaVuSans-69" x="1299.955078"/>
     <use xlink:href="#DejaVuSans-64" x="1327.738281"/>
     <use xlink:href="#DejaVuSans-64" x="1391.214844"/>
     <use xlink:href="#DejaVuSans-65" x="1454.691406"/>
     <use xlink:href="#DejaVuSans-6e" x="1516.214844"/>
     <use xlink:href="#DejaVuSans-20" x="1579.59375"/>
     <use xlink:href="#DejaVuSans-73" x="1611.380859"/>
     <use xlink:href="#DejaVuSans-69" x="1663.480469"/>
     <use xlink:href="#DejaVuSans-7a" x="1691.263672"/>
     <use xlink:href="#DejaVuSans-65" x="1743.753906"/>
     <use xlink:href="#DejaVuSans-3a" x="1805.277344"/>
     <use xlink:href="#DejaVuSans-20" x="1838.96875"/>
     <use xlink:href="#DejaVuSans-32" x="1870.755859"/>
     <use xlink:href="#DejaVuSans-30" x="1934.378906"/>
     <use xlink:href="#DejaVuSans-34" x="1998.001953"/>
     <use xlink:href="#DejaVuSans-38" x="2061.625"/>
     <use xlink:href="#DejaVuSans-20" x="2125.248047"/>
     <use xlink:href="#DejaVuSans-7c" x="2157.035156"/>
     <use xlink:href="#DejaVuSans-20" x="2190.726562"/>
     <use xlink:href="#DejaVuSans-41" x="2222.513672"/>
     <use xlink:href="#DejaVuSans-74" x="2289.171875"/>
     <use xlink:href="#DejaVuSans-74" x="2328.380859"/>
     <use xlink:href="#DejaVuSans-65" x="2367.589844"/>
     <use xlink:href="#DejaVuSans-6e" x="2429.113281"/>
     <use xlink:href="#DejaVuSans-74" x="2492.492188"/>
     <use xlink:href="#DejaVuSans-69" x="2531.701172"/>
     <use xlink:href="#DejaVuSans-6f" x="2559.484375"/>
     <use xlink:href="#DejaVuSans-6e" x="2620.666016"/>
     <use xlink:href="#DejaVuSans-20" x="2684.044922"/>
     <use xlink:href="#DejaVuSans-68" x="2715.832031"/>
     <use xlink:href="#DejaVuSans-65" x="2779.210938"/>
     <use xlink:href="#DejaVuSans-61" x="2840.734375"/>
     <use xlink:href="#DejaVuSans-64" x="2902.013672"/>
     <use xlink:href="#DejaVuSans-73" x="2965.490234"/>
     <use xlink:href="#DejaVuSans-3a" x="3017.589844"/>
     <use xlink:href="#DejaVuSans-20" x="3051.28125"/>
     <use xlink:href="#DejaVuSans-33" x="3083.068359"/>
     <use xlink:href="#DejaVuSans-32" x="3146.691406"/>
     <use xlink:href="#DejaVuSans-20" x="3210.314453"/>
     <use xlink:href="#DejaVuSans-7c" x="3242.101562"/>
    </g>
    <!--  Seq_len: 512 | Optimizer: Adam | Tensor Parallelism: 2 -->
    <g transform="translate(127.726763 63.12)scale(0.0833 -0.0833)">
     <defs>
      <path id="DejaVuSans-53" d="M 3425 4513 
L 3425 3897 
Q 3066 4069 2747 4153 
Q 2428 4238 2131 4238 
Q 1616 4238 1336 4038 
Q 1056 3838 1056 3469 
Q 1056 3159 1242 3001 
Q 1428 2844 1947 2747 
L 2328 2669 
Q 3034 2534 3370 2195 
Q 3706 1856 3706 1288 
Q 3706 609 3251 259 
Q 2797 -91 1919 -91 
Q 1588 -91 1214 -16 
Q 841 59 441 206 
L 441 856 
Q 825 641 1194 531 
Q 1563 422 1919 422 
Q 2459 422 2753 634 
Q 3047 847 3047 1241 
Q 3047 1584 2836 1778 
Q 2625 1972 2144 2069 
L 1759 2144 
Q 1053 2284 737 2584 
Q 422 2884 422 3419 
Q 422 4038 858 4394 
Q 1294 4750 2059 4750 
Q 2388 4750 2728 4690 
Q 3069 4631 3425 4513 
z
" transform="scale(0.015625)"/>
      <path id="DejaVuSans-71" d="M 947 1747 
Q 947 1113 1208 752 
Q 1469 391 1925 391 
Q 2381 391 2643 752 
Q 2906 1113 2906 1747 
Q 2906 2381 2643 2742 
Q 2381 3103 1925 3103 
Q 1469 3103 1208 2742 
Q 947 2381 947 1747 
z
M 2906 525 
Q 2725 213 2448 61 
Q 2172 -91 1784 -91 
Q 1150 -91 751 415 
Q 353 922 353 1747 
Q 353 2572 751 3078 
Q 1150 3584 1784 3584 
Q 2172 3584 2448 3432 
Q 2725 3281 2906 2969 
L 2906 3500 
L 3481 3500 
L 3481 -1331 
L 2906 -1331 
L 2906 525 
z
" transform="scale(0.015625)"/>
      <path id="DejaVuSans-5f" d="M 3263 -1063 
L 3263 -1509 
L -63 -1509 
L -63 -1063 
L 3263 -1063 
z
" transform="scale(0.015625)"/>
      <path id="DejaVuSans-4f" d="M 2522 4238 
Q 1834 4238 1429 3725 
Q 1025 3213 1025 2328 
Q 1025 1447 1429 934 
Q 1834 422 2522 422 
Q 3209 422 3611 934 
Q 4013 1447 4013 2328 
Q 4013 3213 3611 3725 
Q 3209 4238 2522 4238 
z
M 2522 4750 
Q 3503 4750 4090 4092 
Q 4678 3434 4678 2328 
Q 4678 1225 4090 567 
Q 3503 -91 2522 -91 
Q 1538 -91 948 565 
Q 359 1222 359 2328 
Q 359 3434 948 4092 
Q 1538 4750 2522 4750 
z
" transform="scale(0.015625)"/>
      <path id="DejaVuSans-70" d="M 1159 525 
L 1159 -1331 
L 581 -1331 
L 581 3500 
L 1159 3500 
L 1159 2969 
Q 1341 3281 1617 3432 
Q 1894 3584 2278 3584 
Q 2916 3584 3314 3078 
Q 3713 2572 3713 1747 
Q 3713 922 3314 415 
Q 2916 -91 2278 -91 
Q 1894 -91 1617 61 
Q 1341 213 1159 525 
z
M 3116 1747 
Q 3116 2381 2855 2742 
Q 2594 3103 2138 3103 
Q 1681 3103 1420 2742 
Q 1159 2381 1159 1747 
Q 1159 1113 1420 752 
Q 1681 391 2138 391 
Q 2594 391 2855 752 
Q 3116 1113 3116 1747 
z
" transform="scale(0.015625)"/>
      <path id="DejaVuSans-50" d="M 1259 4147 
L 1259 2394 
L 2053 2394 
Q 2494 2394 2734 2622 
Q 2975 2850 2975 3272 
Q 2975 3691 2734 3919 
Q 2494 4147 2053 4147 
L 1259 4147 
z
M 628 4666 
L 2053 4666 
Q 2838 4666 3239 4311 
Q 3641 3956 3641 3272 
Q 3641 2581 3239 2228 
Q 2838 1875 2053 1875 
L 1259 1875 
L 1259 0 
L 628 0 
L 628 4666 
z
" transform="scale(0.015625)"/>
     </defs>
     <use xlink:href="#DejaVuSans-20"/>
     <use xlink:href="#DejaVuSans-53" x="31.787109"/>
     <use xlink:href="#DejaVuSans-65" x="95.263672"/>
     <use xlink:href="#DejaVuSans-71" x="156.787109"/>
     <use xlink:href="#DejaVuSans-5f" x="220.263672"/>
     <use xlink:href="#DejaVuSans-6c" x="270.263672"/>
     <use xlink:href="#DejaVuSans-65" x="298.046875"/>
     <use xlink:href="#DejaVuSans-6e" x="359.570312"/>
     <use xlink:href="#DejaVuSans-3a" x="422.949219"/>
     <use xlink:href="#DejaVuSans-20" x="456.640625"/>
     <use xlink:href="#DejaVuSans-35" x="488.427734"/>
     <use xlink:href="#DejaVuSans-31" x="552.050781"/>
     <use xlink:href="#DejaVuSans-32" x="615.673828"/>
     <use xlink:href="#DejaVuSans-20" x="679.296875"/>
     <use xlink:href="#DejaVuSans-7c" x="711.083984"/>
     <use xlink:href="#DejaVuSans-20" x="744.775391"/>
     <use xlink:href="#DejaVuSans-4f" x="776.5625"/>
     <use xlink:href="#DejaVuSans-70" x="855.273438"/>
     <use xlink:href="#DejaVuSans-74" x="918.75"/>
     <use xlink:href="#DejaVuSans-69" x="957.958984"/>
     <use xlink:href="#DejaVuSans-6d" x="985.742188"/>
     <use xlink:href="#DejaVuSans-69" x="1083.154297"/>
     <use xlink:href="#DejaVuSans-7a" x="1110.9375"/>
     <use xlink:href="#DejaVuSans-65" x="1163.427734"/>
     <use xlink:href="#DejaVuSans-72" x="1224.951172"/>
     <use xlink:href="#DejaVuSans-3a" x="1264.314453"/>
     <use xlink:href="#DejaVuSans-20" x="1298.005859"/>
     <use xlink:href="#DejaVuSans-41" x="1329.792969"/>
     <use xlink:href="#DejaVuSans-64" x="1396.451172"/>
     <use xlink:href="#DejaVuSans-61" x="1459.927734"/>
     <use xlink:href="#DejaVuSans-6d" x="1521.207031"/>
     <use xlink:href="#DejaVuSans-20" x="1618.619141"/>
     <use xlink:href="#DejaVuSans-7c" x="1650.40625"/>
     <use xlink:href="#DejaVuSans-20" x="1684.097656"/>
     <use xlink:href="#DejaVuSans-54" x="1715.884766"/>
     <use xlink:href="#DejaVuSans-65" x="1759.96875"/>
     <use xlink:href="#DejaVuSans-6e" x="1821.492188"/>
     <use xlink:href="#DejaVuSans-73" x="1884.871094"/>
     <use xlink:href="#DejaVuSans-6f" x="1936.970703"/>
     <use xlink:href="#DejaVuSans-72" x="1998.152344"/>
     <use xlink:href="#DejaVuSans-20" x="2039.265625"/>
     <use xlink:href="#DejaVuSans-50" x="2071.052734"/>
     <use xlink:href="#DejaVuSans-61" x="2126.855469"/>
     <use xlink:href="#DejaVuSans-72" x="2188.134766"/>
     <use xlink:href="#DejaVuSans-61" x="2229.248047"/>
     <use xlink:href="#DejaVuSans-6c" x="2290.527344"/>
     <use xlink:href="#DejaVuSans-6c" x="2318.310547"/>
     <use xlink:href="#DejaVuSans-65" x="2346.09375"/>
     <use xlink:href="#DejaVuSans-6c" x="2407.617188"/>
     <use xlink:href="#DejaVuSans-69" x="2435.400391"/>
     <use xlink:href="#DejaVuSans-73" x="2463.183594"/>
     <use xlink:href="#DejaVuSans-6d" x="2515.283203"/>
     <use xlink:href="#DejaVuSans-3a" x="2612.695312"/>
     <use xlink:href="#DejaVuSans-20" x="2646.386719"/>
     <use xlink:href="#DejaVuSans-32" x="2678.173828"/>
    </g>
   </g>
  </g>
  <g id="text_19">
   <!-- 3B mT5 Training Loss (750B Tokens) -->
   <g transform="translate(122.329688 26.398125)scale(0.12 -0.12)">
    <defs>
     <path id="DejaVuSans-42" d="M 1259 2228 
L 1259 519 
L 2272 519 
Q 2781 519 3026 730 
Q 3272 941 3272 1375 
Q 3272 1813 3026 2020 
Q 2781 2228 2272 2228 
L 1259 2228 
z
M 1259 4147 
L 1259 2741 
L 2194 2741 
Q 2656 2741 2882 2914 
Q 3109 3088 3109 3444 
Q 3109 3797 2882 3972 
Q 2656 4147 2194 4147 
L 1259 4147 
z
M 628 4666 
L 2241 4666 
Q 2963 4666 3353 4366 
Q 3744 4066 3744 3513 
Q 3744 3084 3544 2831 
Q 3344 2578 2956 2516 
Q 3422 2416 3680 2098 
Q 3938 1781 3938 1306 
Q 3938 681 3513 340 
Q 3088 0 2303 0 
L 628 0 
L 628 4666 
z
" transform="scale(0.015625)"/>
     <path id="DejaVuSans-4c" d="M 628 4666 
L 1259 4666 
L 1259 531 
L 3531 531 
L 3531 0 
L 628 0 
L 628 4666 
z
" transform="scale(0.015625)"/>
     <path id="DejaVuSans-28" d="M 1984 4856 
Q 1566 4138 1362 3434 
Q 1159 2731 1159 2009 
Q 1159 1288 1364 580 
Q 1569 -128 1984 -844 
L 1484 -844 
Q 1016 -109 783 600 
Q 550 1309 550 2009 
Q 550 2706 781 3412 
Q 1013 4119 1484 4856 
L 1984 4856 
z
" transform="scale(0.015625)"/>
     <path id="DejaVuSans-6b" d="M 581 4863 
L 1159 4863 
L 1159 1991 
L 2875 3500 
L 3609 3500 
L 1753 1863 
L 3688 0 
L 2938 0 
L 1159 1709 
L 1159 0 
L 581 0 
L 581 4863 
z
" transform="scale(0.015625)"/>
     <path id="DejaVuSans-29" d="M 513 4856 
L 1013 4856 
Q 1481 4119 1714 3412 
Q 1947 2706 1947 2009 
Q 1947 1309 1714 600 
Q 1481 -109 1013 -844 
L 513 -844 
Q 928 -128 1133 580 
Q 1338 1288 1338 2009 
Q 1338 2731 1133 3434 
Q 928 4138 513 4856 
z
" transform="scale(0.015625)"/>
    </defs>
    <use xlink:href="#DejaVuSans-33"/>
    <use xlink:href="#DejaVuSans-42" x="63.623047"/>
    <use xlink:href="#DejaVuSans-20" x="132.226562"/>
    <use xlink:href="#DejaVuSans-6d" x="164.013672"/>
    <use xlink:href="#DejaVuSans-54" x="261.425781"/>
    <use xlink:href="#DejaVuSans-35" x="322.509766"/>
    <use xlink:href="#DejaVuSans-20" x="386.132812"/>
    <use xlink:href="#DejaVuSans-54" x="417.919922"/>
    <use xlink:href="#DejaVuSans-72" x="464.253906"/>
    <use xlink:href="#DejaVuSans-61" x="505.367188"/>
    <use xlink:href="#DejaVuSans-69" x="566.646484"/>
    <use xlink:href="#DejaVuSans-6e" x="594.429688"/>
    <use xlink:href="#DejaVuSans-69" x="657.808594"/>
    <use xlink:href="#DejaVuSans-6e" x="685.591797"/>
    <use xlink:href="#DejaVuSans-67" x="748.970703"/>
    <use xlink:href="#DejaVuSans-20" x="812.447266"/>
    <use xlink:href="#DejaVuSans-4c" x="844.234375"/>
    <use xlink:href="#DejaVuSans-6f" x="898.197266"/>
    <use xlink:href="#DejaVuSans-73" x="959.378906"/>
    <use xlink:href="#DejaVuSans-73" x="1011.478516"/>
    <use xlink:href="#DejaVuSans-20" x="1063.578125"/>
    <use xlink:href="#DejaVuSans-28" x="1095.365234"/>
    <use xlink:href="#DejaVuSans-37" x="1134.378906"/>
    <use xlink:href="#DejaVuSans-35" x="1198.001953"/>
    <use xlink:href="#DejaVuSans-30" x="1261.625"/>
    <use xlink:href="#DejaVuSans-42" x="1325.248047"/>
    <use xlink:href="#DejaVuSans-20" x="1393.851562"/>
    <use xlink:href="#DejaVuSans-54" x="1425.638672"/>
    <use xlink:href="#DejaVuSans-6f" x="1469.722656"/>
    <use xlink:href="#DejaVuSans-6b" x="1530.904297"/>
    <use xlink:href="#DejaVuSans-65" x="1585.189453"/>
    <use xlink:href="#DejaVuSans-6e" x="1646.712891"/>
    <use xlink:href="#DejaVuSans-73" x="1710.091797"/>
    <use xlink:href="#DejaVuSans-29" x="1762.191406"/>
   </g>
  </g>
 </g>
 <defs>
  <clipPath id="p0ecd10f69d">
   <rect x="46.08" y="69.12" width="391.68" height="241.92"/>
  </clipPath>
 </defs>
</svg>
