<svg version="1.1" viewBox="0.0 0.0 600.0 371.0" fill="none" stroke="none" stroke-linecap="square" stroke-miterlimit="10" width="600" height="371" xmlns:xlink="http://www.w3.org/1999/xlink" xmlns="http://www.w3.org/2000/svg"><path fill="#ffffff" d="M0 0L600.0 0L600.0 371.0L0 371.0L0 0Z" fill-rule="nonzero"/><path stroke="#333333" stroke-width="1.0" stroke-linecap="butt" d="M77.5 300.5L581.5 300.5" fill-rule="nonzero"/><path stroke="#cccccc" stroke-width="1.0" stroke-linecap="butt" d="M77.5 252.5L581.5 252.5" fill-rule="nonzero"/><path stroke="#cccccc" stroke-width="1.0" stroke-linecap="butt" d="M77.5 205.5L581.5 205.5" fill-rule="nonzero"/><path stroke="#cccccc" stroke-width="1.0" stroke-linecap="butt" d="M77.5 157.5L581.5 157.5" fill-rule="nonzero"/><path stroke="#cccccc" stroke-width="1.0" stroke-linecap="butt" d="M77.5 109.5L581.5 109.5" fill-rule="nonzero"/><path stroke="#cccccc" stroke-width="1.0" stroke-linecap="butt" d="M77.5 61.5L581.5 61.5" fill-rule="nonzero"/><clipPath id="id_0"><path d="M77.55 61.916668L581.45 61.916668L581.45 300.45L77.55 300.45L77.55 61.916668Z" clip-rule="nonzero"/></clipPath><path stroke="#000000" stroke-width="2.0" stroke-linecap="butt" stroke-opacity="0.0" clip-path="url(#id_0)" d="M194.0 300.0L119.0 300.0L119.0 269.0C119.0 267.89542 119.89543 267.0 121.0 267.0L192.0 267.0C193.10457 267.0 194.0 267.89542 194.0 269.0Z" fill-rule="nonzero"/><path fill="#76b900" clip-path="url(#id_0)" d="M194.0 300.0L119.0 300.0L119.0 269.0C119.0 267.89542 119.89543 267.0 121.0 267.0L192.0 267.0C193.10457 267.0 194.0 267.89542 194.0 269.0Z" fill-rule="nonzero"/><path stroke="#000000" stroke-width="2.0" stroke-linecap="butt" stroke-opacity="0.0" clip-path="url(#id_0)" d="M310.0 300.0L235.0 300.0L235.0 205.0C235.0 203.89543 235.89543 203.0 237.0 203.0L308.0 203.0C309.10458 203.0 310.0 203.89543 310.0 205.0Z" fill-rule="nonzero"/><path fill="#76b900" clip-path="url(#id_0)" d="M310.0 300.0L235.0 300.0L235.0 205.0C235.0 203.89543 235.89543 203.0 237.0 203.0L308.0 203.0C309.10458 203.0 310.0 203.89543 310.0 205.0Z" fill-rule="nonzero"/><path stroke="#000000" stroke-width="2.0" stroke-linecap="butt" stroke-opacity="0.0" clip-path="url(#id_0)" d="M425.0 300.0L350.0 300.0L350.0 175.0C350.0 173.89543 350.89542 173.0 352.0 173.0L423.0 173.0C424.10458 173.0 425.0 173.89543 425.0 175.0Z" fill-rule="nonzero"/><path fill="#76b900" clip-path="url(#id_0)" d="M425.0 300.0L350.0 300.0L350.0 175.0C350.0 173.89543 350.89542 173.0 352.0 173.0L423.0 173.0C424.10458 173.0 425.0 173.89543 425.0 175.0Z" fill-rule="nonzero"/><path stroke="#000000" stroke-width="2.0" stroke-linecap="butt" stroke-opacity="0.0" clip-path="url(#id_0)" d="M541.0 300.0L466.0 300.0L466.0 83.0C466.0 81.89543 466.89542 81.0 468.0 81.0L539.0 81.0C540.10455 81.0 541.0 81.89543 541.0 83.0Z" fill-rule="nonzero"/><path fill="#76b900" clip-path="url(#id_0)" d="M541.0 300.0L466.0 300.0L466.0 83.0C466.0 81.89543 466.89542 81.0 468.0 81.0L539.0 81.0C540.10455 81.0 541.0 81.89543 541.0 83.0Z" fill-rule="nonzero"/><path fill="#000000" d="M288.39062 349.45L288.39062 340.85626L290.10938 340.85626L292.14062 346.9344Q292.42188 347.79376 292.54688 348.21564Q292.6875 347.7469 293.0 346.84064L295.0625 340.85626L296.59375 340.85626L296.59375 349.45L295.5 349.45L295.5 342.2625L293.0 349.45L291.96875 349.45L289.48438 342.1375L289.48438 349.45L288.39062 349.45ZM299.60938 349.45L299.60938 341.8719L296.78125 341.8719L296.78125 340.85626L303.59375 340.85626L303.59375 341.8719L300.75 341.8719L300.75 349.45L299.60938 349.45ZM304.0 347.2L305.10938 347.10626Q305.23438 347.91876 305.67188 348.325Q306.125 348.73126 306.76562 348.73126Q307.51562 348.73126 308.04688 348.15314Q308.57812 347.575 308.57812 346.6375Q308.57812 345.73126 308.0625 345.21564Q307.5625 344.6844 306.73438 344.6844Q306.23438 344.6844 305.8125 344.91876Q305.40625 345.15314 305.17188 345.5125L304.1875 345.3875L305.01562 340.98126L309.29688 340.98126L309.29688 341.98126L305.85938 341.98126L305.40625 344.29376Q306.17188 343.7469 307.01562 343.7469Q308.14062 343.7469 308.90625 344.52814Q309.6875 345.3094 309.6875 346.54376Q309.6875 347.7 309.01562 348.5594Q308.1875 349.59064 306.76562 349.59064Q305.59375 349.59064 304.84375 348.9344Q304.10938 348.27814 304.0 347.2ZM314.39062 349.45L314.39062 340.85626L316.10938 340.85626L318.14062 346.9344Q318.42188 347.79376 318.54688 348.21564Q318.6875 347.7469 319.0 346.84064L321.0625 340.85626L322.59375 340.85626L322.59375 349.45L321.5 349.45L321.5 342.2625L319.0 349.45L317.96875 349.45L315.48438 342.1375L315.48438 349.45L314.39062 349.45ZM322.90625 346.34064Q322.90625 344.60626 323.85938 343.77814Q324.65625 343.09064 325.8125 343.09064Q327.09375 343.09064 327.90625 343.9344Q328.73438 344.7625 328.73438 346.2469Q328.73438 347.45 328.375 348.1375Q328.01562 348.825 327.3125 349.21564Q326.625 349.59064 325.8125 349.59064Q324.51562 349.59064 323.70312 348.7625Q322.90625 347.91876 322.90625 346.34064ZM323.98438 346.34064Q323.98438 347.52814 324.5 348.1219Q325.03125 348.71564 325.8125 348.71564Q326.60938 348.71564 327.125 348.1219Q327.64062 347.52814 327.64062 346.3094Q327.64062 345.15314 327.10938 344.5594Q326.59375 343.96564 325.8125 343.96564Q325.03125 343.96564 324.5 344.5594Q323.98438 345.1375 323.98438 346.34064ZM334.32812 349.45L334.32812 348.66876Q333.73438 349.59064 332.59375 349.59064Q331.84375 349.59064 331.21875 349.1844Q330.59375 348.7625 330.25 348.02814Q329.90625 347.29376 329.90625 346.34064Q329.90625 345.41876 330.21875 344.65314Q330.53125 343.8875 331.15625 343.4969Q331.78125 343.09064 332.54688 343.09064Q333.10938 343.09064 333.54688 343.325Q333.98438 343.5594 334.26562 343.9344L334.26562 340.85626L335.3125 340.85626L335.3125 349.45L334.32812 349.45ZM331.0 346.34064Q331.0 347.54376 331.5 348.1375Q332.0 348.71564 332.6875 348.71564Q333.375 348.71564 333.85938 348.15314Q334.34375 347.59064 334.34375 346.4344Q334.34375 345.15314 333.84375 344.5594Q333.35938 343.96564 332.64062 343.96564Q331.9375 343.96564 331.46875 344.54376Q331.0 345.10626 331.0 346.34064ZM341.54688 347.45L342.64062 347.575Q342.39062 348.52814 341.6875 349.0594Q340.98438 349.59064 339.90625 349.59064Q338.54688 349.59064 337.73438 348.7469Q336.9375 347.90314 336.9375 346.3875Q336.9375 344.825 337.75 343.96564Q338.5625 343.09064 339.84375 343.09064Q341.09375 343.09064 341.875 343.9344Q342.67188 344.77814 342.67188 346.325Q342.67188 346.41876 342.67188 346.60626L338.03125 346.60626Q338.09375 347.6375 338.60938 348.1844Q339.125 348.71564 339.90625 348.71564Q340.48438 348.71564 340.89062 348.41876Q341.3125 348.10626 341.54688 347.45ZM338.09375 345.7469L341.5625 345.7469Q341.5 344.95 341.17188 344.5594Q340.65625 343.95 339.85938 343.95Q339.125 343.95 338.625 344.4344Q338.14062 344.91876 338.09375 345.7469ZM344.26562 349.45L344.26562 340.85626L345.32812 340.85626L345.32812 349.45L344.26562 349.45ZM349.875 347.59064L350.90625 347.4344Q351.0 348.0594 351.39062 348.3875Q351.79688 348.71564 352.53125 348.71564Q353.25 348.71564 353.59375 348.4344Q353.95312 348.1375 353.95312 347.73126Q353.95312 347.3719 353.64062 347.16876Q353.42188 347.02814 352.5625 346.8094Q351.40625 346.5125 350.95312 346.3094Q350.51562 346.09064 350.28125 345.71564Q350.04688 345.34064 350.04688 344.8719Q350.04688 344.46564 350.23438 344.10626Q350.42188 343.7469 350.75 343.5125Q351.0 343.34064 351.42188 343.21564Q351.84375 343.09064 352.34375 343.09064Q353.0625 343.09064 353.60938 343.3094Q354.17188 343.5125 354.4375 343.8719Q354.70312 344.23126 354.79688 344.825L353.76562 344.96564Q353.70312 344.4969 353.35938 344.23126Q353.03125 343.95 352.40625 343.95Q351.6875 343.95 351.375 344.2Q351.0625 344.4344 351.0625 344.7625Q351.0625 344.96564 351.1875 345.1219Q351.32812 345.29376 351.59375 345.40314Q351.75 345.46564 352.53125 345.66876Q353.65625 345.98126 354.09375 346.16876Q354.53125 346.35626 354.78125 346.71564Q355.03125 347.075 355.03125 347.6219Q355.03125 348.15314 354.71875 348.6219Q354.42188 349.075 353.84375 349.34064Q353.26562 349.59064 352.53125 349.59064Q351.3125 349.59064 350.67188 349.09064Q350.04688 348.575 349.875 347.59064ZM357.29688 342.075L357.29688 340.85626L358.35938 340.85626L358.35938 342.075L357.29688 342.075ZM357.29688 349.45L357.29688 343.23126L358.35938 343.23126L358.35938 349.45L357.29688 349.45ZM359.73438 349.45L359.73438 348.59064L363.70312 344.04376Q363.01562 344.075 362.5 344.075L359.96875 344.075L359.96875 343.23126L365.0625 343.23126L365.0625 343.91876L361.6875 347.8719L361.03125 348.59064Q361.75 348.54376 362.35938 348.54376L365.25 348.54376L365.25 349.45L359.73438 349.45ZM369.54688 347.45L370.64062 347.575Q370.39062 348.52814 369.6875 349.0594Q368.98438 349.59064 367.90625 349.59064Q366.54688 349.59064 365.73438 348.7469Q364.9375 347.90314 364.9375 346.3875Q364.9375 344.825 365.75 343.96564Q366.5625 343.09064 367.84375 343.09064Q369.09375 343.09064 369.875 343.9344Q370.67188 344.77814 370.67188 346.325Q370.67188 346.41876 370.67188 346.60626L366.03125 346.60626Q366.09375 347.6375 366.60938 348.1844Q367.125 348.71564 367.90625 348.71564Q368.48438 348.71564 368.89062 348.41876Q369.3125 348.10626 369.54688 347.45ZM366.09375 345.7469L369.5625 345.7469Q369.5 344.95 369.17188 344.5594Q368.65625 343.95 367.85938 343.95Q367.125 343.95 366.625 344.4344Q366.14062 344.91876 366.09375 345.7469Z" fill-rule="nonzero"/><path fill="#000000" d="M29.550013 243.69896L20.956263 240.40208L20.956263 239.18333L29.550013 235.66771L29.550013 236.94896L26.940638 237.96458L26.940638 241.54271L29.550013 242.49583L29.550013 243.69896ZM26.018763 241.21458L26.018763 238.30833L23.643763 239.19896Q22.565638 239.62083 21.862513 239.80833Q22.690638 239.98021 23.503138 240.27708L26.018763 241.21458ZM29.550013 234.16771L23.331263 236.52708L23.331263 235.41771L27.050013 234.07396Q27.659388 233.87083 28.300013 233.68333Q27.815638 233.54271 27.128138 233.29271L23.331263 231.90208L23.331263 230.82396L29.550013 233.18333L29.550013 234.16771ZM27.550013 226.63646L27.675013 225.54271Q28.628138 225.79271 29.159388 226.49583Q29.690638 227.19896 29.690638 228.27708Q29.690638 229.63646 28.846888 230.44896Q28.003138 231.24583 26.487513 231.24583Q24.925013 231.24583 24.065638 230.43333Q23.190638 229.62083 23.190638 228.33958Q23.190638 227.08958 24.034388 226.30833Q24.878138 225.51146 26.425013 225.51146Q26.518763 225.51146 26.706263 225.51146L26.706263 230.15208Q27.737513 230.08958 28.284388 229.57396Q28.815638 229.05833 28.815638 228.27708Q28.815638 227.69896 28.518763 227.29271Q28.206263 226.87083 27.550013 226.63646ZM25.846888 230.08958L25.846888 226.62083Q25.050013 226.68333 24.659388 227.01146Q24.050013 227.52708 24.050013 228.32396Q24.050013 229.05833 24.534388 229.55833Q25.018763 230.04271 25.846888 230.08958ZM29.550013 223.90208L23.331263 223.90208L23.331263 222.94896L24.268763 222.94896Q23.612513 222.58958 23.409388 222.29271Q23.190638 221.98021 23.190638 221.60521Q23.190638 221.07396 23.518763 220.52708L24.503138 220.88646Q24.268763 221.27708 24.268763 221.65208Q24.268763 222.01146 24.487513 222.29271Q24.690638 222.55833 25.065638 222.66771Q25.628138 222.85521 26.284388 222.85521L29.550013 222.85521L29.550013 223.90208ZM28.784388 215.82396Q29.284388 216.41771 29.487513 216.96458Q29.690638 217.49583 29.690638 218.12083Q29.690638 219.15208 29.190638 219.69896Q28.690638 220.24583 27.909388 220.24583Q27.456263 220.24583 27.081263 220.04271Q26.690638 219.83958 26.471888 219.49583Q26.237513 219.15208 26.128138 218.73021Q26.034388 218.43333 25.956263 217.79271Q25.815638 216.52708 25.596888 215.91771Q25.378138 215.91771 25.331263 215.91771Q24.675013 215.91771 24.409388 216.21458Q24.065638 216.62083 24.065638 217.41771Q24.065638 218.15208 24.331263 218.51146Q24.581263 218.87083 25.237513 219.04271L25.096888 220.07396Q24.440638 219.93333 24.034388 219.60521Q23.628138 219.27708 23.409388 218.66771Q23.190638 218.05833 23.190638 217.26146Q23.190638 216.46458 23.378138 215.96458Q23.565638 215.46458 23.846888 215.23021Q24.128138 214.99583 24.565638 214.90208Q24.831263 214.85521 25.534388 214.85521L26.940638 214.85521Q28.409388 214.85521 28.800013 214.79271Q29.190638 214.71458 29.550013 214.51146L29.550013 215.62083Q29.221888 215.77708 28.784388 215.82396ZM26.425013 215.91771Q26.659388 216.49583 26.831263 217.63646Q26.925013 218.29271 27.050013 218.55833Q27.159388 218.82396 27.378138 218.98021Q27.596888 219.12083 27.878138 219.12083Q28.300013 219.12083 28.581263 218.80833Q28.862513 218.48021 28.862513 217.87083Q28.862513 217.26146 28.596888 216.79271Q28.331263 216.30833 27.862513 216.08958Q27.503138 215.91771 26.815638 215.91771L26.425013 215.91771ZM30.065638 213.08958L30.221888 212.05833Q30.690638 211.99583 30.909388 211.69896Q31.206263 211.30833 31.206263 210.63646Q31.206263 209.90208 30.909388 209.51146Q30.612513 209.10521 30.096888 208.96458Q29.768763 208.87083 28.737513 208.88646Q29.550013 209.57396 29.550013 210.60521Q29.550013 211.88646 28.628138 212.58958Q27.690638 213.29271 26.409388 213.29271Q25.518763 213.29271 24.768763 212.98021Q24.003138 212.65208 23.596888 212.04271Q23.190638 211.43333 23.190638 210.60521Q23.190638 209.49583 24.081263 208.77708L23.331263 208.77708L23.331263 207.80833L28.706263 207.80833Q30.159388 207.80833 30.768763 208.10521Q31.378138 208.40208 31.721888 209.04271Q32.08126 209.68333 32.08126 210.62083Q32.08126 211.73021 31.581263 212.41771Q31.081263 213.10521 30.065638 213.08958ZM26.331263 212.21458Q27.550013 212.21458 28.112513 211.73021Q28.675013 211.24583 28.675013 210.51146Q28.675013 209.77708 28.112513 209.29271Q27.550013 208.79271 26.362513 208.79271Q25.221888 208.79271 24.643763 209.30833Q24.065638 209.80833 24.065638 210.52708Q24.065638 211.23021 24.643763 211.73021Q25.206263 212.21458 26.331263 212.21458ZM27.550013 201.63646L27.675013 200.54271Q28.628138 200.79271 29.159388 201.49583Q29.690638 202.19896 29.690638 203.27708Q29.690638 204.63646 28.846888 205.44896Q28.003138 206.24583 26.487513 206.24583Q24.925013 206.24583 24.065638 205.43333Q23.190638 204.62083 23.190638 203.33958Q23.190638 202.08958 24.034388 201.30833Q24.878138 200.51146 26.425013 200.51146Q26.518763 200.51146 26.706263 200.51146L26.706263 205.15208Q27.737513 205.08958 28.284388 204.57396Q28.815638 204.05833 28.815638 203.27708Q28.815638 202.69896 28.518763 202.29271Q28.206263 201.87083 27.550013 201.63646ZM25.846888 205.08958L25.846888 201.62083Q25.050013 201.68333 24.659388 202.01146Q24.050013 202.52708 24.050013 203.32396Q24.050013 204.05833 24.534388 204.55833Q25.018763 205.04271 25.846888 205.08958ZM29.550013 195.91771L20.956263 195.91771L20.956263 194.85521L29.550013 194.85521L29.550013 195.91771ZM28.784388 188.82396Q29.284388 189.41771 29.487513 189.96458Q29.690638 190.49583 29.690638 191.12083Q29.690638 192.15208 29.190638 192.69896Q28.690638 193.24583 27.909388 193.24583Q27.456263 193.24583 27.081263 193.04271Q26.690638 192.83958 26.471888 192.49583Q26.237513 192.15208 26.128138 191.73021Q26.034388 191.43333 25.956263 190.79271Q25.815638 189.52708 25.596888 188.91771Q25.378138 188.91771 25.331263 188.91771Q24.675013 188.91771 24.409388 189.21458Q24.065638 189.62083 24.065638 190.41771Q24.065638 191.15208 24.331263 191.51146Q24.581263 191.87083 25.237513 192.04271L25.096888 193.07396Q24.440638 192.93333 24.034388 192.60521Q23.628138 192.27708 23.409388 191.66771Q23.190638 191.05833 23.190638 190.26146Q23.190638 189.46458 23.378138 188.96458Q23.565638 188.46458 23.846888 188.23021Q24.128138 187.99583 24.565638 187.90208Q24.831263 187.85521 25.534388 187.85521L26.940638 187.85521Q28.409388 187.85521 28.800013 187.79271Q29.190638 187.71458 29.550013 187.51146L29.550013 188.62083Q29.221888 188.77708 28.784388 188.82396ZM26.425013 188.91771Q26.659388 189.49583 26.831263 190.63646Q26.925013 191.29271 27.050013 191.55833Q27.159388 191.82396 27.378138 191.98021Q27.596888 192.12083 27.878138 192.12083Q28.300013 192.12083 28.581263 191.80833Q28.862513 191.48021 28.862513 190.87083Q28.862513 190.26146 28.596888 189.79271Q28.331263 189.30833 27.862513 189.08958Q27.503138 188.91771 26.815638 188.91771L26.425013 188.91771ZM28.612513 183.58958L29.534388 183.43333Q29.628138 183.88646 29.628138 184.23021Q29.628138 184.80833 29.456263 185.12083Q29.268763 185.43333 28.971888 185.57396Q28.675013 185.69896 27.721888 185.69896L24.143763 185.69896L24.143763 186.46458L23.331263 186.46458L23.331263 185.69896L21.784388 185.69896L21.159388 184.65208L23.331263 184.65208L23.331263 183.58958L24.143763 183.58958L24.143763 184.65208L27.784388 184.65208Q28.237513 184.65208 28.362513 184.60521Q28.487513 184.54271 28.565638 184.41771Q28.643763 184.29271 28.643763 184.05833Q28.643763 183.87083 28.612513 183.58958ZM27.550013 178.63646L27.675013 177.54271Q28.628138 177.79271 29.159388 178.49583Q29.690638 179.19896 29.690638 180.27708Q29.690638 181.63646 28.846888 182.44896Q28.003138 183.24583 26.487513 183.24583Q24.925013 183.24583 24.065638 182.43333Q23.190638 181.62083 23.190638 180.33958Q23.190638 179.08958 24.034388 178.30833Q24.878138 177.51146 26.425013 177.51146Q26.518763 177.51146 26.706263 177.51146L26.706263 182.15208Q27.737513 182.08958 28.284388 181.57396Q28.815638 181.05833 28.815638 180.27708Q28.815638 179.69896 28.518763 179.29271Q28.206263 178.87083 27.550013 178.63646ZM25.846888 182.08958L25.846888 178.62083Q25.050013 178.68333 24.659388 179.01146Q24.050013 179.52708 24.050013 180.32396Q24.050013 181.05833 24.534388 181.55833Q25.018763 182.04271 25.846888 182.08958ZM29.550013 175.88646L23.331263 175.88646L23.331263 174.94896L24.206263 174.94896Q23.190638 174.26146 23.190638 172.96458Q23.190638 172.40208 23.393763 171.93333Q23.596888 171.44896 23.925013 171.21458Q24.253138 170.98021 24.690638 170.88646Q24.987513 170.83958 25.721888 170.83958L29.550013 170.83958L29.550013 171.88646L25.768763 171.88646Q25.112513 171.88646 24.800013 172.01146Q24.487513 172.13646 24.300013 172.44896Q24.096888 172.76146 24.096888 173.18333Q24.096888 173.85521 24.534388 174.35521Q24.956263 174.83958 26.143763 174.83958L29.550013 174.83958L29.550013 175.88646ZM27.268763 164.82396L27.409388 163.79271Q28.471888 163.96458 29.081263 164.66771Q29.690638 165.37083 29.690638 166.38646Q29.690638 167.66771 28.862513 168.44896Q28.018763 169.21458 26.456263 169.21458Q25.456263 169.21458 24.706263 168.88646Q23.940638 168.54271 23.565638 167.87083Q23.190638 167.18333 23.190638 166.37083Q23.190638 165.37083 23.706263 164.73021Q24.206263 164.07396 25.159388 163.88646L25.315638 164.91771Q24.690638 165.05833 24.378138 165.43333Q24.050013 165.80833 24.050013 166.33958Q24.050013 167.13646 24.628138 167.63646Q25.190638 168.13646 26.425013 168.13646Q27.690638 168.13646 28.253138 167.65208Q28.815638 167.16771 28.815638 166.40208Q28.815638 165.77708 28.440638 165.37083Q28.065638 164.94896 27.268763 164.82396ZM31.940638 162.93333L30.956263 163.05833Q31.050013 162.71458 31.050013 162.44896Q31.050013 162.10521 30.925013 161.90208Q30.815638 161.68333 30.612513 161.54271Q30.440638 161.44896 29.815638 161.21458Q29.737513 161.19896 29.565638 161.12083L23.331263 163.49583L23.331263 162.35521L26.925013 161.05833Q27.612513 160.80833 28.378138 160.60521Q27.643763 160.41771 26.956263 160.16771L23.331263 158.83958L23.331263 157.79271L29.659388 160.15208Q30.675013 160.54271 31.065638 160.74583Q31.596888 161.02708 31.831263 161.40208Q32.08126 161.76146 32.08126 162.26146Q32.08126 162.55833 31.940638 162.93333ZM31.940638 154.87083L20.956263 154.87083L20.956263 152.54271L21.831263 152.54271L21.831263 153.80833L31.065638 153.80833L31.065638 152.54271L31.940638 152.54271L31.940638 154.87083ZM29.550013 151.88646L23.331263 151.88646L23.331263 150.94896L24.206263 150.94896Q23.737513 150.65208 23.471888 150.16771Q23.190638 149.68333 23.190638 149.05833Q23.190638 148.37083 23.471888 147.93333Q23.753138 147.48021 24.268763 147.30833Q23.190638 146.55833 23.190638 145.38646Q23.190638 144.44896 23.706263 143.96458Q24.206263 143.46458 25.284388 143.46458L29.550013 143.46458L29.550013 144.51146L25.628138 144.51146Q25.003138 144.51146 24.721888 144.62083Q24.440638 144.71458 24.268763 144.98021Q24.096888 145.24583 24.096888 145.62083Q24.096888 146.27708 24.534388 146.71458Q24.971888 147.13646 25.940638 147.13646L29.550013 147.13646L29.550013 148.19896L25.503138 148.19896Q24.800013 148.19896 24.456263 148.46458Q24.096888 148.71458 24.096888 149.29271Q24.096888 149.74583 24.331263 150.12083Q24.565638 150.49583 25.018763 150.66771Q25.471888 150.83958 26.315638 150.83958L29.550013 150.83958L29.550013 151.88646ZM27.690638 141.30833L27.534388 140.27708Q28.159388 140.18333 28.487513 139.79271Q28.815638 139.38646 28.815638 138.65208Q28.815638 137.93333 28.534388 137.58958Q28.237513 137.23021 27.831263 137.23021Q27.471888 137.23021 27.268763 137.54271Q27.128138 137.76146 26.909388 138.62083Q26.612513 139.77708 26.409388 140.23021Q26.190638 140.66771 25.815638 140.90208Q25.440638 141.13646 24.971888 141.13646Q24.565638 141.13646 24.206263 140.94896Q23.846888 140.76146 23.612513 140.43333Q23.440638 140.18333 23.315638 139.76146Q23.190638 139.33958 23.190638 138.83958Q23.190638 138.12083 23.409388 137.57396Q23.612513 137.01146 23.971888 136.74583Q24.331263 136.48021 24.925013 136.38646L25.065638 137.41771Q24.596888 137.48021 24.331263 137.82396Q24.050013 138.15208 24.050013 138.77708Q24.050013 139.49583 24.300013 139.80833Q24.534388 140.12083 24.862513 140.12083Q25.065638 140.12083 25.221888 139.99583Q25.393763 139.85521 25.503138 139.58958Q25.565638 139.43333 25.768763 138.65208Q26.081263 137.52708 26.268763 137.08958Q26.456263 136.65208 26.815638 136.40208Q27.175013 136.15208 27.721888 136.15208Q28.253138 136.15208 28.721888 136.46458Q29.175013 136.76146 29.440638 137.33958Q29.690638 137.91771 29.690638 138.65208Q29.690638 139.87083 29.190638 140.51146Q28.675013 141.13646 27.690638 141.30833ZM31.940638 132.12083L31.940638 134.44896L31.065638 134.44896L31.065638 133.18333L21.831263 133.18333L21.831263 134.44896L20.956263 134.44896L20.956263 132.12083L31.940638 132.12083Z" fill-rule="nonzero"/><path fill="#000000" d="M65.05 300.21564Q65.05 298.6844 65.3625 297.7625Q65.675 296.825 66.28438 296.325Q66.90938 295.825 67.84688 295.825Q68.53438 295.825 69.05 296.10626Q69.58125 296.3875 69.925 296.91876Q70.26875 297.4344 70.45625 298.1844Q70.64375 298.9344 70.64375 300.21564Q70.64375 301.73126 70.33125 302.65314Q70.03438 303.575 69.40938 304.09064Q68.8 304.59064 67.84688 304.59064Q66.6125 304.59064 65.89375 303.7Q65.05 302.6375 65.05 300.21564ZM66.12813 300.21564Q66.12813 302.325 66.62813 303.02814Q67.12813 303.73126 67.84688 303.73126Q68.58125 303.73126 69.06563 303.02814Q69.56563 302.325 69.56563 300.21564Q69.56563 298.09064 69.06563 297.40314Q68.58125 296.7 67.83125 296.7Q67.1125 296.7 66.675 297.3094Q66.12813 298.09064 66.12813 300.21564Z" fill-rule="nonzero"/><path fill="#000000" d="M58.05 254.49335L59.159374 254.3996Q59.284374 255.2121 59.721874 255.61835Q60.175 256.0246 60.815624 256.0246Q61.565624 256.0246 62.096874 255.44647Q62.628124 254.86835 62.628124 253.93085Q62.628124 253.0246 62.1125 252.50897Q61.6125 251.97772 60.784374 251.97772Q60.284374 251.97772 59.8625 252.2121Q59.45625 252.44647 59.221874 252.80585L58.2375 252.68085L59.065624 248.2746L63.346874 248.2746L63.346874 249.2746L59.909374 249.2746L59.45625 251.5871Q60.221874 251.04022 61.065624 251.04022Q62.190624 251.04022 62.95625 251.82147Q63.7375 252.60272 63.7375 253.8371Q63.7375 254.99335 63.065624 255.85272Q62.2375 256.88397 60.815624 256.88397Q59.64375 256.88397 58.89375 256.22772Q58.159374 255.57147 58.05 254.49335ZM65.05 252.50897Q65.05 250.97772 65.3625 250.05585Q65.675 249.11835 66.28438 248.61835Q66.90938 248.11835 67.84688 248.11835Q68.53438 248.11835 69.05 248.3996Q69.58125 248.68085 69.925 249.2121Q70.26875 249.72772 70.45625 250.47772Q70.64375 251.22772 70.64375 252.50897Q70.64375 254.0246 70.33125 254.94647Q70.03438 255.86835 69.40938 256.38397Q68.8 256.88397 67.84688 256.88397Q66.6125 256.88397 65.89375 255.99335Q65.05 254.93085 65.05 252.50897ZM66.12813 252.50897Q66.12813 254.61835 66.62813 255.32147Q67.12813 256.0246 67.84688 256.0246Q68.58125 256.0246 69.06563 255.32147Q69.56563 254.61835 69.56563 252.50897Q69.56563 250.38397 69.06563 249.69647Q68.58125 248.99335 67.83125 248.99335Q67.1125 248.99335 66.675 249.60272Q66.12813 250.38397 66.12813 252.50897Z" fill-rule="nonzero"/><path fill="#000000" d="M55.01875 209.03667L53.971874 209.03667L53.971874 202.31792Q53.58125 202.67729 52.95625 203.05229Q52.346874 203.41167 51.8625 203.58354L51.8625 202.56792Q52.7375 202.14604 53.39375 201.56792Q54.065624 200.97417 54.346874 200.41167L55.01875 200.41167L55.01875 209.03667ZM58.05 204.80229Q58.05 203.27104 58.3625 202.34917Q58.675 201.41167 59.284374 200.91167Q59.909374 200.41167 60.846874 200.41167Q61.534374 200.41167 62.05 200.69292Q62.58125 200.97417 62.925 201.50542Q63.26875 202.02104 63.45625 202.77104Q63.64375 203.52104 63.64375 204.80229Q63.64375 206.31792 63.33125 207.23979Q63.034374 208.16167 62.409374 208.67729Q61.8 209.17729 60.846874 209.17729Q59.6125 209.17729 58.89375 208.28667Q58.05 207.22417 58.05 204.80229ZM59.128124 204.80229Q59.128124 206.91167 59.628124 207.61479Q60.128124 208.31792 60.846874 208.31792Q61.58125 208.31792 62.065624 207.61479Q62.565624 206.91167 62.565624 204.80229Q62.565624 202.67729 62.065624 201.98979Q61.58125 201.28667 60.83125 201.28667Q60.1125 201.28667 59.675 201.89604Q59.128124 202.67729 59.128124 204.80229ZM65.05 204.80229Q65.05 203.27104 65.3625 202.34917Q65.675 201.41167 66.28438 200.91167Q66.90938 200.41167 67.84688 200.41167Q68.53438 200.41167 69.05 200.69292Q69.58125 200.97417 69.925 201.50542Q70.26875 202.02104 70.45625 202.77104Q70.64375 203.52104 70.64375 204.80229Q70.64375 206.31792 70.33125 207.23979Q70.03438 208.16167 69.40938 208.67729Q68.8 209.17729 67.84688 209.17729Q66.6125 209.17729 65.89375 208.28667Q65.05 207.22417 65.05 204.80229ZM66.12813 204.80229Q66.12813 206.91167 66.62813 207.61479Q67.12813 208.31792 67.84688 208.31792Q68.58125 208.31792 69.06563 207.61479Q69.56563 206.91167 69.56563 204.80229Q69.56563 202.67729 69.06563 201.98979Q68.58125 201.28667 67.83125 201.28667Q67.1125 201.28667 66.675 201.89604Q66.12813 202.67729 66.12813 204.80229Z" fill-rule="nonzero"/><path fill="#000000" d="M55.01875 161.33L53.971874 161.33L53.971874 154.61125Q53.58125 154.97063 52.95625 155.34563Q52.346874 155.705 51.8625 155.87688L51.8625 154.86125Q52.7375 154.43938 53.39375 153.86125Q54.065624 153.2675 54.346874 152.705L55.01875 152.705L55.01875 161.33ZM58.05 159.08L59.159374 158.98625Q59.284374 159.79875 59.721874 160.205Q60.175 160.61125 60.815624 160.61125Q61.565624 160.61125 62.096874 160.03313Q62.628124 159.455 62.628124 158.5175Q62.628124 157.61125 62.1125 157.09563Q61.6125 156.56438 60.784374 156.56438Q60.284374 156.56438 59.8625 156.79875Q59.45625 157.03313 59.221874 157.3925L58.2375 157.2675L59.065624 152.86125L63.346874 152.86125L63.346874 153.86125L59.909374 153.86125L59.45625 156.17375Q60.221874 155.62688 61.065624 155.62688Q62.190624 155.62688 62.95625 156.40813Q63.7375 157.18938 63.7375 158.42375Q63.7375 159.58 63.065624 160.43938Q62.2375 161.47063 60.815624 161.47063Q59.64375 161.47063 58.89375 160.81438Q58.159374 160.15813 58.05 159.08ZM65.05 157.09563Q65.05 155.56438 65.3625 154.6425Q65.675 153.705 66.28438 153.205Q66.90938 152.705 67.84688 152.705Q68.53438 152.705 69.05 152.98625Q69.58125 153.2675 69.925 153.79875Q70.26875 154.31438 70.45625 155.06438Q70.64375 155.81438 70.64375 157.09563Q70.64375 158.61125 70.33125 159.53313Q70.03438 160.455 69.40938 160.97063Q68.8 161.47063 67.84688 161.47063Q66.6125 161.47063 65.89375 160.58Q65.05 159.5175 65.05 157.09563ZM66.12813 157.09563Q66.12813 159.205 66.62813 159.90813Q67.12813 160.61125 67.84688 160.61125Q68.58125 160.61125 69.06563 159.90813Q69.56563 159.205 69.56563 157.09563Q69.56563 154.97063 69.06563 154.28313Q68.58125 153.58 67.83125 153.58Q67.1125 153.58 66.675 154.18938Q66.12813 154.97063 66.12813 157.09563Z" fill-rule="nonzero"/><path fill="#000000" d="M56.596874 112.60771L56.596874 113.62334L50.909374 113.62334Q50.909374 113.24834 51.034374 112.88896Q51.253124 112.31084 51.721874 111.74834Q52.20625 111.18584 53.1125 110.45146Q54.51875 109.29521 55.003124 108.62334Q55.503124 107.95146 55.503124 107.35771Q55.503124 106.73271 55.05 106.31084Q54.596874 105.87334 53.878124 105.87334Q53.1125 105.87334 52.659374 106.32646Q52.20625 106.77959 52.190624 107.59209L51.1125 107.48271Q51.221874 106.26396 51.940624 105.63896Q52.675 104.99834 53.909374 104.99834Q55.14375 104.99834 55.8625 105.68584Q56.58125 106.37334 56.58125 107.38896Q56.58125 107.90459 56.3625 108.40459Q56.159374 108.88896 55.659374 109.45146Q55.175 109.99834 54.05 110.95146Q53.096874 111.74834 52.815624 112.04521Q52.55 112.32646 52.378124 112.60771L56.596874 112.60771ZM58.05 109.38896Q58.05 107.85771 58.3625 106.93584Q58.675 105.99834 59.284374 105.49834Q59.909374 104.99834 60.846874 104.99834Q61.534374 104.99834 62.05 105.27959Q62.58125 105.56084 62.925 106.09209Q63.26875 106.60771 63.45625 107.35771Q63.64375 108.10771 63.64375 109.38896Q63.64375 110.90459 63.33125 111.82646Q63.034374 112.74834 62.409374 113.26396Q61.8 113.76396 60.846874 113.76396Q59.6125 113.76396 58.89375 112.87334Q58.05 111.81084 58.05 109.38896ZM59.128124 109.38896Q59.128124 111.49834 59.628124 112.20146Q60.128124 112.90459 60.846874 112.90459Q61.58125 112.90459 62.065624 112.20146Q62.565624 111.49834 62.565624 109.38896Q62.565624 107.26396 62.065624 106.57646Q61.58125 105.87334 60.83125 105.87334Q60.1125 105.87334 59.675 106.48271Q59.128124 107.26396 59.128124 109.38896ZM65.05 109.38896Q65.05 107.85771 65.3625 106.93584Q65.675 105.99834 66.28438 105.49834Q66.90938 104.99834 67.84688 104.99834Q68.53438 104.99834 69.05 105.27959Q69.58125 105.56084 69.925 106.09209Q70.26875 106.60771 70.45625 107.35771Q70.64375 108.10771 70.64375 109.38896Q70.64375 110.90459 70.33125 111.82646Q70.03438 112.74834 69.40938 113.26396Q68.8 113.76396 67.84688 113.76396Q66.6125 113.76396 65.89375 112.87334Q65.05 111.81084 65.05 109.38896ZM66.12813 109.38896Q66.12813 111.49834 66.62813 112.20146Q67.12813 112.90459 67.84688 112.90459Q68.58125 112.90459 69.06563 112.20146Q69.56563 111.49834 69.56563 109.38896Q69.56563 107.26396 69.06563 106.57646Q68.58125 105.87334 67.83125 105.87334Q67.1125 105.87334 66.675 106.48271Q66.12813 107.26396 66.12813 109.38896Z" fill-rule="nonzero"/><path fill="#000000" d="M56.596874 64.90104L56.596874 65.916664L50.909374 65.916664Q50.909374 65.541664 51.034374 65.18229Q51.253124 64.604164 51.721874 64.041664Q52.20625 63.479164 53.1125 62.74479Q54.51875 61.58854 55.003124 60.916664Q55.503124 60.24479 55.503124 59.65104Q55.503124 59.02604 55.05 58.604164Q54.596874 58.166664 53.878124 58.166664Q53.1125 58.166664 52.659374 58.61979Q52.20625 59.072914 52.190624 59.885414L51.1125 59.77604Q51.221874 58.55729 51.940624 57.93229Q52.675 57.291664 53.909374 57.291664Q55.14375 57.291664 55.8625 57.979164Q56.58125 58.666664 56.58125 59.68229Q56.58125 60.197914 56.3625 60.697914Q56.159374 61.18229 55.659374 61.74479Q55.175 62.291664 54.05 63.24479Q53.096874 64.041664 52.815624 64.33854Q52.55 64.61979 52.378124 64.90104L56.596874 64.90104ZM58.05 63.666664L59.159374 63.572914Q59.284374 64.385414 59.721874 64.791664Q60.175 65.197914 60.815624 65.197914Q61.565624 65.197914 62.096874 64.61979Q62.628124 64.041664 62.628124 63.104164Q62.628124 62.197914 62.1125 61.68229Q61.6125 61.15104 60.784374 61.15104Q60.284374 61.15104 59.8625 61.385414Q59.45625 61.61979 59.221874 61.979164L58.2375 61.854164L59.065624 57.447914L63.346874 57.447914L63.346874 58.447914L59.909374 58.447914L59.45625 60.760414Q60.221874 60.21354 61.065624 60.21354Q62.190624 60.21354 62.95625 60.99479Q63.7375 61.77604 63.7375 63.010414Q63.7375 64.166664 63.065624 65.02604Q62.2375 66.05729 60.815624 66.05729Q59.64375 66.05729 58.89375 65.40104Q58.159374 64.74479 58.05 63.666664ZM65.05 61.68229Q65.05 60.15104 65.3625 59.229164Q65.675 58.291664 66.28438 57.791664Q66.90938 57.291664 67.84688 57.291664Q68.53438 57.291664 69.05 57.572914Q69.58125 57.854164 69.925 58.385414Q70.26875 58.90104 70.45625 59.65104Q70.64375 60.40104 70.64375 61.68229Q70.64375 63.197914 70.33125 64.11979Q70.03438 65.041664 69.40938 65.55729Q68.8 66.05729 67.84688 66.05729Q66.6125 66.05729 65.89375 65.166664Q65.05 64.104164 65.05 61.68229ZM66.12813 61.68229Q66.12813 63.791664 66.62813 64.49479Q67.12813 65.197914 67.84688 65.197914Q68.58125 65.197914 69.06563 64.49479Q69.56563 63.791664 69.56563 61.68229Q69.56563 59.55729 69.06563 58.86979Q68.58125 58.166664 67.83125 58.166664Q67.1125 58.166664 66.675 58.77604Q66.12813 59.55729 66.12813 61.68229Z" fill-rule="nonzero"/><path fill="#000000" d="M141.24138 315.1844L142.30388 315.04376Q142.47575 315.9344 142.91325 316.34064Q143.35075 316.73126 143.97575 316.73126Q144.72575 316.73126 145.24138 316.21564Q145.757 315.7 145.757 314.9344Q145.757 314.21564 145.27263 313.7469Q144.80388 313.2625 144.0695 313.2625Q143.77263 313.2625 143.3195 313.3875L143.4445 312.45Q143.55388 312.46564 143.61638 312.46564Q144.28825 312.46564 144.8195 312.1219Q145.36638 311.7625 145.36638 311.02814Q145.36638 310.45 144.97575 310.075Q144.58513 309.6844 143.96013 309.6844Q143.35075 309.6844 142.92888 310.075Q142.52263 310.46564 142.41325 311.23126L141.35075 311.04376Q141.53825 309.9969 142.22575 309.41876Q142.91325 308.825 143.92888 308.825Q144.632 308.825 145.22575 309.1375Q145.8195 309.4344 146.132 309.95Q146.4445 310.46564 146.4445 311.0594Q146.4445 311.60626 146.14763 312.075Q145.85075 312.52814 145.27263 312.79376Q146.02263 312.96564 146.4445 313.52814Q146.86638 314.075 146.86638 314.91876Q146.86638 316.04376 146.03825 316.825Q145.22575 317.60626 143.97575 317.60626Q142.85075 317.60626 142.10075 316.9344Q141.35075 316.2469 141.24138 315.1844ZM149.86638 312.79376Q149.21013 312.54376 148.882 312.10626Q148.5695 311.65314 148.5695 311.04376Q148.5695 310.10626 149.24138 309.46564Q149.92888 308.825 151.03825 308.825Q152.16325 308.825 152.85075 309.48126Q153.53825 310.1375 153.53825 311.075Q153.53825 311.66876 153.22575 312.10626Q152.91325 312.54376 152.27263 312.79376Q153.0695 313.04376 153.47575 313.6219Q153.882 314.2 153.882 314.9969Q153.882 316.09064 153.10075 316.84064Q152.33513 317.59064 151.05388 317.59064Q149.78825 317.59064 149.007 316.84064Q148.22575 316.09064 148.22575 314.96564Q148.22575 314.1219 148.64763 313.5594Q149.08513 312.9969 149.86638 312.79376ZM149.64763 310.9969Q149.64763 311.60626 150.03825 311.9969Q150.4445 312.3875 151.0695 312.3875Q151.67888 312.3875 152.0695 312.0125Q152.46013 311.6219 152.46013 311.0594Q152.46013 310.48126 152.05388 310.09064Q151.64763 309.6844 151.05388 309.6844Q150.4445 309.6844 150.03825 310.075Q149.64763 310.46564 149.64763 310.9969ZM149.3195 314.96564Q149.3195 315.41876 149.52263 315.84064Q149.74138 316.2625 150.16325 316.4969Q150.58513 316.73126 151.0695 316.73126Q151.8195 316.73126 152.30388 316.2469Q152.80388 315.7625 152.80388 315.0125Q152.80388 314.2469 152.30388 313.7469Q151.80388 313.2469 151.03825 313.2469Q150.28825 313.2469 149.80388 313.7469Q149.3195 314.23126 149.3195 314.96564ZM155.24138 313.21564Q155.24138 311.6844 155.55388 310.7625Q155.86638 309.825 156.47575 309.325Q157.10075 308.825 158.03825 308.825Q158.72575 308.825 159.24138 309.10626Q159.77263 309.3875 160.11638 309.91876Q160.46013 310.4344 160.64763 311.1844Q160.83513 311.9344 160.83513 313.21564Q160.83513 314.73126 160.52263 315.65314Q160.22575 316.575 159.60075 317.09064Q158.99138 317.59064 158.03825 317.59064Q156.80388 317.59064 156.08513 316.7Q155.24138 315.6375 155.24138 313.21564ZM156.3195 313.21564Q156.3195 315.325 156.8195 316.02814Q157.3195 316.73126 158.03825 316.73126Q158.77263 316.73126 159.257 316.02814Q159.757 315.325 159.757 313.21564Q159.757 311.09064 159.257 310.40314Q158.77263 309.7 158.02263 309.7Q157.30388 309.7 156.86638 310.3094Q156.3195 311.09064 156.3195 313.21564ZM162.632 317.45L162.632 308.85626L164.35075 308.85626L166.382 314.9344Q166.66325 315.79376 166.78825 316.21564Q166.92888 315.7469 167.24138 314.84064L169.30388 308.85626L170.83513 308.85626L170.83513 317.45L169.74138 317.45L169.74138 310.2625L167.24138 317.45L166.21013 317.45L163.72575 310.1375L163.72575 317.45L162.632 317.45Z" fill-rule="nonzero"/><path fill="#000000" d="M264.58047 315.1844L265.64297 315.04376Q265.81485 315.9344 266.25235 316.34064Q266.68985 316.73126 267.31485 316.73126Q268.06485 316.73126 268.58047 316.21564Q269.0961 315.7 269.0961 314.9344Q269.0961 314.21564 268.61172 313.7469Q268.14297 313.2625 267.4086 313.2625Q267.11172 313.2625 266.6586 313.3875L266.7836 312.45Q266.89297 312.46564 266.95547 312.46564Q267.62735 312.46564 268.1586 312.1219Q268.70547 311.7625 268.70547 311.02814Q268.70547 310.45 268.31485 310.075Q267.92422 309.6844 267.29922 309.6844Q266.68985 309.6844 266.26797 310.075Q265.86172 310.46564 265.75235 311.23126L264.68985 311.04376Q264.87735 309.9969 265.56485 309.41876Q266.25235 308.825 267.26797 308.825Q267.9711 308.825 268.56485 309.1375Q269.1586 309.4344 269.4711 309.95Q269.7836 310.46564 269.7836 311.0594Q269.7836 311.60626 269.48672 312.075Q269.18985 312.52814 268.61172 312.79376Q269.36172 312.96564 269.7836 313.52814Q270.20547 314.075 270.20547 314.91876Q270.20547 316.04376 269.37735 316.825Q268.56485 317.60626 267.31485 317.60626Q266.18985 317.60626 265.43985 316.9344Q264.68985 316.2469 264.58047 315.1844ZM271.95547 317.45L271.95547 308.85626L275.18985 308.85626Q276.17422 308.85626 276.76797 309.1219Q277.36172 309.3875 277.68985 309.9344Q278.0336 310.46564 278.0336 311.0594Q278.0336 311.60626 277.73672 312.09064Q277.43985 312.575 276.83047 312.8719Q277.61172 313.10626 278.01797 313.66876Q278.43985 314.21564 278.43985 314.96564Q278.43985 315.5594 278.18985 316.09064Q277.93985 316.60626 277.56485 316.8875Q277.18985 317.16876 276.61172 317.3094Q276.04922 317.45 275.23672 317.45L271.95547 317.45ZM273.0961 312.46564L274.95547 312.46564Q275.70547 312.46564 276.0336 312.3719Q276.4711 312.2469 276.68985 311.95Q276.9086 311.6375 276.9086 311.1844Q276.9086 310.7625 276.70547 310.4344Q276.50235 310.10626 276.11172 309.9969Q275.73672 309.8719 274.81485 309.8719L273.0961 309.8719L273.0961 312.46564ZM273.0961 316.4344L275.23672 316.4344Q275.7836 316.4344 276.00235 316.3875Q276.4086 316.325 276.6586 316.16876Q276.92422 315.9969 277.0961 315.6844Q277.26797 315.3719 277.26797 314.96564Q277.26797 314.48126 277.01797 314.1219Q276.7836 313.7625 276.3461 313.6219Q275.9086 313.48126 275.08047 313.48126L273.0961 313.48126L273.0961 316.4344Z" fill-rule="nonzero"/><path fill="#000000" d="M380.88828 317.45L379.8414 317.45L379.8414 310.73126Q379.45078 311.09064 378.82578 311.46564Q378.2164 311.825 377.73203 311.9969L377.73203 310.98126Q378.60703 310.5594 379.26328 309.98126Q379.93515 309.3875 380.2164 308.825L380.88828 308.825L380.88828 317.45ZM387.88828 317.45L386.8414 317.45L386.8414 310.73126Q386.45078 311.09064 385.82578 311.46564Q385.2164 311.825 384.73203 311.9969L384.73203 310.98126Q385.60703 310.5594 386.26328 309.98126Q386.93515 309.3875 387.2164 308.825L387.88828 308.825L387.88828 317.45ZM391.29453 317.45L391.29453 308.85626L394.5289 308.85626Q395.51328 308.85626 396.10703 309.1219Q396.70078 309.3875 397.0289 309.9344Q397.37265 310.46564 397.37265 311.0594Q397.37265 311.60626 397.07578 312.09064Q396.7789 312.575 396.16953 312.8719Q396.95078 313.10626 397.35703 313.66876Q397.7789 314.21564 397.7789 314.96564Q397.7789 315.5594 397.5289 316.09064Q397.2789 316.60626 396.9039 316.8875Q396.5289 317.16876 395.95078 317.3094Q395.38828 317.45 394.57578 317.45L391.29453 317.45ZM392.43515 312.46564L394.29453 312.46564Q395.04453 312.46564 395.37265 312.3719Q395.81015 312.2469 396.0289 311.95Q396.24765 311.6375 396.24765 311.1844Q396.24765 310.7625 396.04453 310.4344Q395.8414 310.10626 395.45078 309.9969Q395.07578 309.8719 394.1539 309.8719L392.43515 309.8719L392.43515 312.46564ZM392.43515 316.4344L394.57578 316.4344Q395.12265 316.4344 395.3414 316.3875Q395.74765 316.325 395.99765 316.16876Q396.26328 315.9969 396.43515 315.6844Q396.60703 315.3719 396.60703 314.96564Q396.60703 314.48126 396.35703 314.1219Q396.12265 313.7625 395.68515 313.6219Q395.24765 313.48126 394.41953 313.48126L392.43515 313.48126L392.43515 316.4344Z" fill-rule="nonzero"/><path fill="#000000" d="M498.30548 316.4344L498.30548 317.45L492.61798 317.45Q492.61798 317.075 492.74298 316.71564Q492.96173 316.1375 493.43048 315.575Q493.91486 315.0125 494.8211 314.27814Q496.22736 313.1219 496.71173 312.45Q497.21173 311.77814 497.21173 311.1844Q497.21173 310.5594 496.7586 310.1375Q496.30548 309.7 495.58673 309.7Q494.8211 309.7 494.36798 310.15314Q493.91486 310.60626 493.89923 311.41876L492.8211 311.3094Q492.93048 310.09064 493.64923 309.46564Q494.3836 308.825 495.61798 308.825Q496.85236 308.825 497.5711 309.5125Q498.28986 310.2 498.28986 311.21564Q498.28986 311.73126 498.0711 312.23126Q497.86798 312.71564 497.36798 313.27814Q496.8836 313.825 495.7586 314.77814Q494.80548 315.575 494.52423 315.8719Q494.2586 316.15314 494.08673 316.4344L498.30548 316.4344ZM499.7586 315.1844L500.8211 315.04376Q500.99298 315.9344 501.43048 316.34064Q501.86798 316.73126 502.49298 316.73126Q503.24298 316.73126 503.7586 316.21564Q504.27423 315.7 504.27423 314.9344Q504.27423 314.21564 503.78986 313.7469Q503.3211 313.2625 502.58673 313.2625Q502.28986 313.2625 501.83673 313.3875L501.96173 312.45Q502.0711 312.46564 502.1336 312.46564Q502.80548 312.46564 503.33673 312.1219Q503.8836 311.7625 503.8836 311.02814Q503.8836 310.45 503.49298 310.075Q503.10236 309.6844 502.47736 309.6844Q501.86798 309.6844 501.4461 310.075Q501.03986 310.46564 500.93048 311.23126L499.86798 311.04376Q500.05548 309.9969 500.74298 309.41876Q501.43048 308.825 502.4461 308.825Q503.14923 308.825 503.74298 309.1375Q504.33673 309.4344 504.64923 309.95Q504.96173 310.46564 504.96173 311.0594Q504.96173 311.60626 504.66486 312.075Q504.36798 312.52814 503.78986 312.79376Q504.53986 312.96564 504.96173 313.52814Q505.3836 314.075 505.3836 314.91876Q505.3836 316.04376 504.55548 316.825Q503.74298 317.60626 502.49298 317.60626Q501.36798 317.60626 500.61798 316.9344Q499.86798 316.2469 499.7586 315.1844ZM507.1336 317.45L507.1336 308.85626L510.36798 308.85626Q511.35236 308.85626 511.9461 309.1219Q512.53986 309.3875 512.868 309.9344Q513.21173 310.46564 513.21173 311.0594Q513.21173 311.60626 512.91486 312.09064Q512.618 312.575 512.0086 312.8719Q512.78986 313.10626 513.1961 313.66876Q513.618 314.21564 513.618 314.96564Q513.618 315.5594 513.368 316.09064Q513.118 316.60626 512.743 316.8875Q512.368 317.16876 511.78986 317.3094Q511.22736 317.45 510.41486 317.45L507.1336 317.45ZM508.27423 312.46564L510.1336 312.46564Q510.8836 312.46564 511.21173 312.3719Q511.64923 312.2469 511.86798 311.95Q512.08673 311.6375 512.08673 311.1844Q512.08673 310.7625 511.8836 310.4344Q511.68048 310.10626 511.28986 309.9969Q510.91486 309.8719 509.99298 309.8719L508.27423 309.8719L508.27423 312.46564ZM508.27423 316.4344L510.41486 316.4344Q510.96173 316.4344 511.18048 316.3875Q511.58673 316.325 511.83673 316.16876Q512.10236 315.9969 512.27423 315.6844Q512.4461 315.3719 512.4461 314.96564Q512.4461 314.48126 512.1961 314.1219Q511.96173 313.7625 511.52423 313.6219Q511.08673 313.48126 510.2586 313.48126L508.27423 313.48126L508.27423 316.4344Z" fill-rule="nonzero"/><path fill="#757575" d="M18.51875 37.55L24.01875 23.2375L26.065624 23.2375L31.925 37.55L29.76875 37.55L28.096874 33.20625L22.1125 33.20625L20.534374 37.55L18.51875 37.55ZM22.659374 31.675L27.503124 31.675L26.01875 27.70625Q25.33125 25.89375 25.003124 24.7375Q24.721874 26.1125 24.221874 27.471874L22.659374 31.675ZM35.753124 37.55L31.8 27.175L33.659374 27.175L35.89375 33.39375Q36.253124 34.39375 36.55 35.471874Q36.784374 34.659374 37.20625 33.503124L39.503124 27.175L41.315624 27.175L37.39375 37.55L35.753124 37.55ZM48.971874 34.20625L50.784374 34.440624Q50.3625 36.01875 49.190624 36.909374Q48.034374 37.784374 46.221874 37.784374Q43.95625 37.784374 42.6125 36.39375Q41.284374 34.9875 41.284374 32.45625Q41.284374 29.83125 42.628124 28.39375Q43.971874 26.940624 46.128124 26.940624Q48.20625 26.940624 49.51875 28.3625Q50.846874 29.76875 50.846874 32.346874Q50.846874 32.503124 50.83125 32.815624L43.096874 32.815624Q43.190624 34.51875 44.065624 35.425Q44.940624 36.33125 46.2375 36.33125Q47.20625 36.33125 47.878124 35.83125Q48.565624 35.315624 48.971874 34.20625ZM43.190624 31.3625L48.9875 31.3625Q48.878124 30.065624 48.33125 29.409374Q47.4875 28.39375 46.14375 28.39375Q44.940624 28.39375 44.1125 29.20625Q43.284374 30.003124 43.190624 31.3625ZM52.846874 37.55L52.846874 27.175L54.425 27.175L54.425 28.753124Q55.034374 27.64375 55.55 27.3Q56.065624 26.940624 56.675 26.940624Q57.565624 26.940624 58.4875 27.503124L57.878124 29.14375Q57.2375 28.753124 56.596874 28.753124Q56.01875 28.753124 55.55 29.1125Q55.096874 29.45625 54.89375 30.065624Q54.6125 31.003124 54.6125 32.1125L54.6125 37.55L52.846874 37.55ZM66.64375 36.26875Q65.65938 37.096874 64.75313 37.440624Q63.846874 37.784374 62.815624 37.784374Q61.1125 37.784374 60.190624 36.95625Q59.26875 36.1125 59.26875 34.815624Q59.26875 34.05 59.6125 33.425Q59.971874 32.8 60.534374 32.425Q61.096874 32.034374 61.8 31.83125Q62.315624 31.70625 63.3625 31.565624Q65.4875 31.315624 66.4875 30.971874Q66.50313 30.6125 66.50313 30.503124Q66.50313 29.440624 66.00313 28.9875Q65.33125 28.39375 64.00313 28.39375Q62.753124 28.39375 62.159374 28.83125Q61.58125 29.26875 61.3 30.378124L59.58125 30.14375Q59.815624 29.034374 60.346874 28.3625Q60.878124 27.675 61.89375 27.315624Q62.909374 26.940624 64.25313 26.940624Q65.58125 26.940624 66.40938 27.253124Q67.2375 27.565624 67.62813 28.05Q68.01875 28.51875 68.175 29.2375Q68.26875 29.690624 68.26875 30.8625L68.26875 33.20625Q68.26875 35.659374 68.37813 36.315624Q68.4875 36.95625 68.83125 37.55L66.9875 37.55Q66.72188 37.003124 66.64375 36.26875ZM66.4875 32.346874Q65.53438 32.7375 63.6125 33.003124Q62.534374 33.159374 62.08125 33.3625Q61.64375 33.55 61.39375 33.925Q61.14375 34.3 61.14375 34.76875Q61.14375 35.471874 61.675 35.940624Q62.20625 36.409374 63.2375 36.409374Q64.25313 36.409374 65.03438 35.971874Q65.83125 35.51875 66.20625 34.753124Q66.4875 34.14375 66.4875 32.9875L66.4875 32.346874ZM70.55 38.409374L72.25313 38.659374Q72.3625 39.45625 72.84688 39.815624Q73.50313 40.3 74.64375 40.3Q75.8625 40.3 76.51875 39.815624Q77.19063 39.33125 77.425 38.45625Q77.56563 37.909374 77.55 36.190624Q76.39375 37.55 74.675 37.55Q72.53438 37.55 71.3625 36.003124Q70.19063 34.45625 70.19063 32.3Q70.19063 30.815624 70.72188 29.565624Q71.26875 28.315624 72.28438 27.628124Q73.31563 26.940624 74.69063 26.940624Q76.51875 26.940624 77.72188 28.425L77.72188 27.175L79.33125 27.175L79.33125 36.14375Q79.33125 38.565624 78.83125 39.565624Q78.34688 40.58125 77.26875 41.159374Q76.20625 41.753124 74.64375 41.753124Q72.8 41.753124 71.64375 40.925Q70.50313 40.096874 70.55 38.409374ZM72.00313 32.175Q72.00313 34.221874 72.81563 35.159374Q73.62813 36.096874 74.84688 36.096874Q76.05 36.096874 76.8625 35.159374Q77.69063 34.221874 77.69063 32.2375Q77.69063 30.33125 76.84688 29.3625Q76.00313 28.39375 74.81563 28.39375Q73.64375 28.39375 72.81563 29.346874Q72.00313 30.3 72.00313 32.175ZM88.97188 34.20625L90.78438 34.440624Q90.3625 36.01875 89.19063 36.909374Q88.03438 37.784374 86.22188 37.784374Q83.95625 37.784374 82.6125 36.39375Q81.28438 34.9875 81.28438 32.45625Q81.28438 29.83125 82.62813 28.39375Q83.97188 26.940624 86.12813 26.940624Q88.20625 26.940624 89.51875 28.3625Q90.84688 29.76875 90.84688 32.346874Q90.84688 32.503124 90.83125 32.815624L83.09688 32.815624Q83.19063 34.51875 84.06563 35.425Q84.94063 36.33125 86.2375 36.33125Q87.20625 36.33125 87.87813 35.83125Q88.56563 35.315624 88.97188 34.20625ZM83.19063 31.3625L88.9875 31.3625Q88.87813 30.065624 88.33125 29.409374Q87.4875 28.39375 86.14375 28.39375Q84.94063 28.39375 84.1125 29.20625Q83.28438 30.003124 83.19063 31.3625ZM98.83125 37.55L98.83125 23.2375L100.58125 23.2375L100.58125 37.55L98.83125 37.55ZM109.64375 36.26875Q108.65938 37.096874 107.75313 37.440624Q106.84688 37.784374 105.81563 37.784374Q104.1125 37.784374 103.19063 36.95625Q102.26875 36.1125 102.26875 34.815624Q102.26875 34.05 102.6125 33.425Q102.97188 32.8 103.53438 32.425Q104.09688 32.034374 104.8 31.83125Q105.31563 31.70625 106.3625 31.565624Q108.4875 31.315624 109.4875 30.971874Q109.50313 30.6125 109.50313 30.503124Q109.50313 29.440624 109.00313 28.9875Q108.33125 28.39375 107.00313 28.39375Q105.75313 28.39375 105.15938 28.83125Q104.58125 29.26875 104.3 30.378124L102.58125 30.14375Q102.81563 29.034374 103.34688 28.3625Q103.87813 27.675 104.89375 27.315624Q105.90938 26.940624 107.25313 26.940624Q108.58125 26.940624 109.40938 27.253124Q110.2375 27.565624 110.62813 28.05Q111.01875 28.51875 111.175 29.2375Q111.26875 29.690624 111.26875 30.8625L111.26875 33.20625Q111.26875 35.659374 111.37813 36.315624Q111.4875 36.95625 111.83125 37.55L109.9875 37.55Q109.72188 37.003124 109.64375 36.26875ZM109.4875 32.346874Q108.53438 32.7375 106.6125 33.003124Q105.53438 33.159374 105.08125 33.3625Q104.64375 33.55 104.39375 33.925Q104.14375 34.3 104.14375 34.76875Q104.14375 35.471874 104.675 35.940624Q105.20625 36.409374 106.2375 36.409374Q107.25313 36.409374 108.03438 35.971874Q108.83125 35.51875 109.20625 34.753124Q109.4875 34.14375 109.4875 32.9875L109.4875 32.346874ZM117.70625 35.971874L117.95625 37.534374Q117.22188 37.690624 116.62813 37.690624Q115.675 37.690624 115.14375 37.39375Q114.62813 37.08125 114.40938 36.596874Q114.19063 36.096874 114.19063 34.51875L114.19063 28.55L112.90938 28.55L112.90938 27.175L114.19063 27.175L114.19063 24.6125L115.94063 23.55L115.94063 27.175L117.70625 27.175L117.70625 28.55L115.94063 28.55L115.94063 34.6125Q115.94063 35.3625 116.03438 35.58125Q116.12813 35.784374 116.33125 35.925Q116.55 36.05 116.94063 36.05Q117.22188 36.05 117.70625 35.971874ZM126.97188 34.20625L128.78438 34.440624Q128.3625 36.01875 127.19063 36.909374Q126.03438 37.784374 124.22188 37.784374Q121.95625 37.784374 120.6125 36.39375Q119.28438 34.9875 119.28438 32.45625Q119.28438 29.83125 120.62813 28.39375Q121.97188 26.940624 124.12813 26.940624Q126.20625 26.940624 127.51875 28.3625Q128.84688 29.76875 128.84688 32.346874Q128.84688 32.503124 128.83125 32.815624L121.09688 32.815624Q121.19063 34.51875 122.06563 35.425Q122.94063 36.33125 124.2375 36.33125Q125.20625 36.33125 125.87813 35.83125Q126.56563 35.315624 126.97188 34.20625ZM121.19063 31.3625L126.9875 31.3625Q126.87813 30.065624 126.33125 29.409374Q125.4875 28.39375 124.14375 28.39375Q122.94063 28.39375 122.1125 29.20625Q121.28438 30.003124 121.19063 31.3625ZM130.8625 37.55L130.8625 27.175L132.45625 27.175L132.45625 28.659374Q133.59688 26.940624 135.75313 26.940624Q136.69063 26.940624 137.47188 27.284374Q138.26875 27.6125 138.65938 28.159374Q139.05 28.70625 139.20625 29.45625Q139.3 29.95625 139.3 31.175L139.3 37.55L137.53438 37.55L137.53438 31.2375Q137.53438 30.159374 137.33125 29.628124Q137.12813 29.096874 136.59688 28.784374Q136.08125 28.471874 135.37813 28.471874Q134.25313 28.471874 133.44063 29.190624Q132.62813 29.89375 132.62813 31.878124L132.62813 37.55L130.8625 37.55ZM147.64375 33.753124L149.3625 33.971874Q149.08125 35.76875 147.90938 36.784374Q146.75313 37.784374 145.05 37.784374Q142.925 37.784374 141.62813 36.39375Q140.33125 35.003124 140.33125 32.409374Q140.33125 30.721874 140.87813 29.471874Q141.44063 28.20625 142.58125 27.58125Q143.72188 26.940624 145.06563 26.940624Q146.75313 26.940624 147.81563 27.8Q148.89375 28.659374 149.20625 30.221874L147.4875 30.4875Q147.25313 29.440624 146.62813 28.925Q146.00313 28.39375 145.12813 28.39375Q143.8 28.39375 142.97188 29.346874Q142.14375 30.3 142.14375 32.346874Q142.14375 34.440624 142.94063 35.39375Q143.7375 36.33125 145.03438 36.33125Q146.06563 36.33125 146.75313 35.70625Q147.45625 35.065624 147.64375 33.753124ZM150.78438 41.55L150.59688 39.89375Q151.175 40.05 151.59688 40.05Q152.19063 40.05 152.53438 39.846874Q152.89375 39.659374 153.1125 39.315624Q153.28438 39.05 153.65938 38.003124Q153.70625 37.846874 153.81563 37.565624L149.87813 27.175L151.76875 27.175L153.925 33.190624Q154.34688 34.33125 154.675 35.58125Q154.9875 34.378124 155.39375 33.221874L157.6125 27.175L159.37813 27.175L155.425 37.721874Q154.8 39.440624 154.44063 40.08125Q153.97188 40.95625 153.3625 41.346874Q152.76875 41.753124 151.925 41.753124Q151.40938 41.753124 150.78438 41.55ZM169.75313 37.55L165.8 27.175L167.65938 27.175L169.89375 33.39375Q170.25313 34.39375 170.55 35.471874Q170.78438 34.659374 171.20625 33.503124L173.50313 27.175L175.31563 27.175L171.39375 37.55L169.75313 37.55ZM175.15938 34.45625L176.90938 34.175Q177.05 35.221874 177.72188 35.784374Q178.39375 36.33125 179.59688 36.33125Q180.8 36.33125 181.37813 35.846874Q181.97188 35.346874 181.97188 34.690624Q181.97188 34.096874 181.45625 33.753124Q181.09688 33.51875 179.65938 33.159374Q177.72188 32.659374 176.97188 32.315624Q176.2375 31.95625 175.84688 31.33125Q175.45625 30.690624 175.45625 29.925Q175.45625 29.2375 175.76875 28.64375Q176.09688 28.05 176.64375 27.659374Q177.05 27.3625 177.75313 27.159374Q178.47188 26.940624 179.28438 26.940624Q180.50313 26.940624 181.425 27.3Q182.34688 27.64375 182.78438 28.253124Q183.22188 28.846874 183.39375 29.846874L181.675 30.08125Q181.55 29.284374 180.9875 28.846874Q180.425 28.39375 179.40938 28.39375Q178.19063 28.39375 177.675 28.8Q177.15938 29.190624 177.15938 29.721874Q177.15938 30.065624 177.37813 30.346874Q177.58125 30.628124 178.05 30.815624Q178.31563 30.909374 179.59688 31.253124Q181.47188 31.753124 182.20625 32.08125Q182.94063 32.39375 183.3625 33.003124Q183.78438 33.596874 183.78438 34.503124Q183.78438 35.378124 183.26875 36.159374Q182.75313 36.940624 181.78438 37.3625Q180.81563 37.784374 179.59688 37.784374Q177.58125 37.784374 176.51875 36.940624Q175.45625 36.096874 175.15938 34.45625ZM186.3625 37.55L186.3625 35.55L188.3625 35.55L188.3625 37.55L186.3625 37.55ZM198.03438 37.55L198.03438 23.2375L200.89375 23.2375L204.26875 33.3625Q204.7375 34.784374 204.95625 35.4875Q205.20625 34.70625 205.72188 33.190624L209.14375 23.2375L211.69063 23.2375L211.69063 37.55L209.87813 37.55L209.87813 25.565624L205.70625 37.55L204.00313 37.55L199.8625 25.3625L199.8625 37.55L198.03438 37.55ZM218.7375 37.55L218.7375 24.925L214.01875 24.925L214.01875 23.2375L225.3625 23.2375L225.3625 24.925L220.62813 24.925L220.62813 37.55L218.7375 37.55ZM226.37813 33.8L228.22188 33.64375Q228.425 34.9875 229.175 35.675Q229.925 36.346874 230.9875 36.346874Q232.25313 36.346874 233.12813 35.39375Q234.00313 34.440624 234.00313 32.846874Q234.00313 31.346874 233.15938 30.4875Q232.31563 29.6125 230.95625 29.6125Q230.09688 29.6125 229.40938 30.003124Q228.7375 30.378124 228.34688 31.003124L226.69063 30.784374L228.08125 23.425L235.20625 23.425L235.20625 25.1125L229.4875 25.1125L228.72188 28.95625Q230.00313 28.05 231.425 28.05Q233.3 28.05 234.58125 29.3625Q235.87813 30.659374 235.87813 32.690624Q235.87813 34.64375 234.7375 36.05Q233.3625 37.8 230.9875 37.8Q229.03438 37.8 227.78438 36.70625Q226.55 35.6125 226.37813 33.8ZM244.03438 37.55L244.03438 23.2375L246.89375 23.2375L250.26875 33.3625Q250.7375 34.784374 250.95625 35.4875Q251.20625 34.70625 251.72188 33.190624L255.14375 23.2375L257.6906 23.2375L257.6906 37.55L255.87813 37.55L255.87813 25.565624L251.70625 37.55L250.00313 37.55L245.8625 25.3625L245.8625 37.55L244.03438 37.55ZM260.22186 32.3625Q260.22186 29.4875 261.8156 28.096874Q263.15936 26.940624 265.08124 26.940624Q267.22186 26.940624 268.5656 28.346874Q269.925 29.753124 269.925 32.221874Q269.925 34.221874 269.33124 35.378124Q268.7375 36.51875 267.58124 37.159374Q266.4406 37.784374 265.08124 37.784374Q262.89374 37.784374 261.55 36.39375Q260.22186 34.9875 260.22186 32.3625ZM262.01874 32.3625Q262.01874 34.3625 262.8781 35.346874Q263.7531 36.33125 265.08124 36.33125Q266.39374 36.33125 267.2531 35.346874Q268.1281 34.346874 268.1281 32.3Q268.1281 30.378124 267.2531 29.39375Q266.3781 28.39375 265.08124 28.39375Q263.7531 28.39375 262.8781 29.39375Q262.01874 30.378124 262.01874 32.3625ZM278.59686 37.55L278.59686 36.2375Q277.6125 37.784374 275.6906 37.784374Q274.45624 37.784374 273.40936 37.096874Q272.3781 36.409374 271.8 35.190624Q271.2375 33.971874 271.2375 32.378124Q271.2375 30.815624 271.7531 29.55Q272.26874 28.284374 273.3 27.6125Q274.34686 26.940624 275.6125 26.940624Q276.55 26.940624 277.28436 27.346874Q278.01874 27.7375 278.4875 28.3625L278.4875 23.2375L280.22186 23.2375L280.22186 37.55L278.59686 37.55ZM273.03436 32.378124Q273.03436 34.3625 273.8781 35.346874Q274.72186 36.33125 275.8625 36.33125Q277.01874 36.33125 277.8156 35.39375Q278.6281 34.45625 278.6281 32.51875Q278.6281 30.39375 277.8 29.39375Q276.9875 28.39375 275.78436 28.39375Q274.6125 28.39375 273.8156 29.3625Q273.03436 30.315624 273.03436 32.378124ZM289.97186 34.20625L291.78436 34.440624Q291.3625 36.01875 290.1906 36.909374Q289.03436 37.784374 287.22186 37.784374Q284.95624 37.784374 283.6125 36.39375Q282.28436 34.9875 282.28436 32.45625Q282.28436 29.83125 283.6281 28.39375Q284.97186 26.940624 287.1281 26.940624Q289.20624 26.940624 290.51874 28.3625Q291.84686 29.76875 291.84686 32.346874Q291.84686 32.503124 291.83124 32.815624L284.09686 32.815624Q284.1906 34.51875 285.0656 35.425Q285.9406 36.33125 287.2375 36.33125Q288.20624 36.33125 288.8781 35.83125Q289.5656 35.315624 289.97186 34.20625ZM284.1906 31.3625L289.9875 31.3625Q289.8781 30.065624 289.33124 29.409374Q288.4875 28.39375 287.14374 28.39375Q285.9406 28.39375 285.1125 29.20625Q284.28436 30.003124 284.1906 31.3625ZM293.83124 37.55L293.83124 23.2375L295.58124 23.2375L295.58124 37.55L293.83124 37.55ZM303.15936 34.45625L304.90936 34.175Q305.05 35.221874 305.72186 35.784374Q306.39374 36.33125 307.59686 36.33125Q308.8 36.33125 309.3781 35.846874Q309.97186 35.346874 309.97186 34.690624Q309.97186 34.096874 309.45624 33.753124Q309.09686 33.51875 307.65936 33.159374Q305.72186 32.659374 304.97186 32.315624Q304.2375 31.95625 303.84686 31.33125Q303.45624 30.690624 303.45624 29.925Q303.45624 29.2375 303.76874 28.64375Q304.09686 28.05 304.64374 27.659374Q305.05 27.3625 305.7531 27.159374Q306.47186 26.940624 307.28436 26.940624Q308.5031 26.940624 309.425 27.3Q310.34686 27.64375 310.78436 28.253124Q311.22186 28.846874 311.39374 29.846874L309.675 30.08125Q309.55 29.284374 308.9875 28.846874Q308.425 28.39375 307.40936 28.39375Q306.1906 28.39375 305.675 28.8Q305.15936 29.190624 305.15936 29.721874Q305.15936 30.065624 305.3781 30.346874Q305.58124 30.628124 306.05 30.815624Q306.3156 30.909374 307.59686 31.253124Q309.47186 31.753124 310.20624 32.08125Q310.9406 32.39375 311.3625 33.003124Q311.78436 33.596874 311.78436 34.503124Q311.78436 35.378124 311.26874 36.159374Q310.7531 36.940624 309.78436 37.3625Q308.8156 37.784374 307.59686 37.784374Q305.58124 37.784374 304.51874 36.940624Q303.45624 36.096874 303.15936 34.45625ZM313.8781 25.253124L313.8781 23.2375L315.64374 23.2375L315.64374 25.253124L313.8781 25.253124ZM313.8781 37.55L313.8781 27.175L315.64374 27.175L315.64374 37.55L313.8781 37.55ZM316.9406 37.55L316.9406 36.128124L323.55 28.55Q322.425 28.596874 321.5656 28.596874L317.33124 28.596874L317.33124 27.175L325.8156 27.175L325.8156 28.346874L320.1906 34.925L319.1125 36.128124Q320.28436 36.034374 321.33124 36.034374L326.1281 36.034374L326.1281 37.55L316.9406 37.55ZM333.97186 34.20625L335.78436 34.440624Q335.3625 36.01875 334.1906 36.909374Q333.03436 37.784374 331.22186 37.784374Q328.95624 37.784374 327.6125 36.39375Q326.28436 34.9875 326.28436 32.45625Q326.28436 29.83125 327.6281 28.39375Q328.97186 26.940624 331.1281 26.940624Q333.20624 26.940624 334.51874 28.3625Q335.84686 29.76875 335.84686 32.346874Q335.84686 32.503124 335.83124 32.815624L328.09686 32.815624Q328.1906 34.51875 329.0656 35.425Q329.9406 36.33125 331.2375 36.33125Q332.20624 36.33125 332.8781 35.83125Q333.5656 35.315624 333.97186 34.20625ZM328.1906 31.3625L333.9875 31.3625Q333.8781 30.065624 333.33124 29.409374Q332.4875 28.39375 331.14374 28.39375Q329.9406 28.39375 329.1125 29.20625Q328.28436 30.003124 328.1906 31.3625Z" fill-rule="nonzero"/></svg>